<?xml version="1.0" encoding="UTF-8" standalone="no"?>
<!DOCTYPE svg PUBLIC "-//W3C//DTD SVG 1.1//EN"
 "http://www.w3.org/Graphics/SVG/1.1/DTD/svg11.dtd">
<!-- Generated by graphviz version 2.26.3 (20100126.1600)
 -->
<!-- Title: G Pages: 1 -->
<svg width="958pt" height="716pt"
 viewBox="0.00 0.00 958.00 716.00" xmlns="http://www.w3.org/2000/svg" xmlns:xlink="http://www.w3.org/1999/xlink">
<g id="graph1" class="graph" transform="scale(1 1) rotate(0) translate(4 712)">
<title>G</title>
<polygon fill="white" stroke="white" points="-4,5 -4,-712 955,-712 955,5 -4,5"/>
<!-- Talento_humano -->
<g id="node1" class="node"><title>Talento_humano</title>
<polygon fill="#ffff00" stroke="black" points="248,-487 64,-487 64,-445 248,-445 248,-487"/>
<polygon fill="none" stroke="black" points="248,-487 64,-487 64,-445 248,-445 248,-487"/>
<text text-anchor="middle" x="156" y="-470.4" font-family="Helvetica,sans-Serif" font-size="14.00">Talento_humano</text>
<text text-anchor="middle" x="156" y="-453.4" font-family="Helvetica,sans-Serif" font-size="14.00">Planilla vista_vacaciones</text>
</g>
<!-- DireccionEjecutiva -->
<g id="node3" class="node"><title>DireccionEjecutiva</title>
<polygon fill="#ffff00" stroke="black" points="361,-375 177,-375 177,-333 361,-333 361,-375"/>
<polygon fill="none" stroke="black" points="361,-375 177,-375 177,-333 361,-333 361,-375"/>
<text text-anchor="middle" x="269" y="-358.4" font-family="Helvetica,sans-Serif" font-size="14.00">DireccionEjecutiva</text>
<text text-anchor="middle" x="269" y="-341.4" font-family="Helvetica,sans-Serif" font-size="14.00">Planilla vista_vacaciones</text>
</g>
<!-- Talento_humano&#45;&gt;DireccionEjecutiva -->
<g id="edge2" class="edge"><title>Talento_humano&#45;&gt;DireccionEjecutiva</title>
<path fill="none" stroke="black" d="M177.254,-444.934C195.055,-427.291 220.627,-401.945 240.254,-382.491"/>
<polygon fill="black" stroke="black" points="242.818,-384.878 247.457,-375.353 237.89,-379.906 242.818,-384.878"/>
</g>
<!-- Presidencia -->
<g id="node7" class="node"><title>Presidencia</title>
<polygon fill="#ffff00" stroke="#ffff00" points="279,-208.5 451,-208.5 463,-220.5 463,-263.5 451,-275.5 279,-275.5 267,-263.5 267,-220.5 279,-208.5"/>
<path fill="#ffff00" stroke="#ffff00" d="M451,-208.5C457,-208.5 463,-214.5 463,-220.5"/>
<path fill="#ffff00" stroke="#ffff00" d="M463,-263.5C463,-269.5 457,-275.5 451,-275.5"/>
<path fill="#ffff00" stroke="#ffff00" d="M279,-275.5C273,-275.5 267,-269.5 267,-263.5"/>
<path fill="#ffff00" stroke="#ffff00" d="M267,-220.5C267,-214.5 273,-208.5 279,-208.5"/>
<polyline fill="none" stroke="black" points="279,-208.5 451,-208.5 "/>
<path fill="none" stroke="black" d="M451,-208.5C457,-208.5 463,-214.5 463,-220.5"/>
<polyline fill="none" stroke="black" points="463,-220.5 463,-263.5 "/>
<path fill="none" stroke="black" d="M463,-263.5C463,-269.5 457,-275.5 451,-275.5"/>
<polyline fill="none" stroke="black" points="451,-275.5 279,-275.5 "/>
<path fill="none" stroke="black" d="M279,-275.5C273,-275.5 267,-269.5 267,-263.5"/>
<polyline fill="none" stroke="black" points="267,-263.5 267,-220.5 "/>
<path fill="none" stroke="black" d="M267,-220.5C267,-214.5 273,-208.5 279,-208.5"/>
<text text-anchor="middle" x="365" y="-258.9" font-family="Helvetica,sans-Serif" font-size="14.00">Presidencia</text>
<text text-anchor="middle" x="365" y="-241.9" font-family="Helvetica,sans-Serif" font-size="14.00">Aprobacion del Presidente</text>
<polyline fill="none" stroke="black" points="267,-233.5 463,-233.5 "/>
<text text-anchor="middle" x="365" y="-216.9" font-family="Helvetica,sans-Serif" font-size="14.00">or</text>
</g>
<!-- DireccionEjecutiva&#45;&gt;Presidencia -->
<g id="edge6" class="edge"><title>DireccionEjecutiva&#45;&gt;Presidencia</title>
<path fill="none" stroke="black" d="M287.057,-332.934C298.913,-319.102 314.826,-300.536 329.183,-283.787"/>
<polygon fill="black" stroke="black" points="332.23,-285.609 336.081,-275.739 326.916,-281.054 332.23,-285.609"/>
</g>
<!-- Talento_humano_stats -->
<g id="node4" class="node"><title>Talento_humano_stats</title>
<polygon fill="none" stroke="black" stroke-dasharray="5,2" points="164,-616 7.10543e-14,-616 0,-540 164,-540 164,-616"/>
<text text-anchor="start" x="48.5" y="-601.733" font-family="Times Roman,serif" font-size="14.00">eparedes </text>
<text text-anchor="start" x="8" y="-584.933" font-family="Times Roman,serif" font-size="14.00">11/11/2013 02:46pm</text>
<text text-anchor="start" x="17" y="-568.133" font-family="Times Roman,serif" font-size="14.00">hace 3 meses llego</text>
<text text-anchor="start" x="71" y="-551.333" font-family="Times Roman,serif" font-size="14.00">n/a</text>
</g>
<!-- Talento_humano_stats&#45;&gt;Talento_humano -->
<g id="edge4" class="edge"><title>Talento_humano_stats&#45;&gt;Talento_humano</title>
<path fill="none" stroke="black" stroke-dasharray="1,5" d="M107.26,-539.769C116.808,-525.318 127.52,-509.105 136.465,-495.567"/>
<polygon fill="black" stroke="black" points="139.465,-497.375 142.057,-487.102 133.625,-493.516 139.465,-497.375"/>
</g>
<!-- Archivar_solicitud_procesada -->
<g id="node11" class="node"><title>Archivar_solicitud_procesada</title>
<polygon fill="#ffffff" stroke="black" points="476,-151 262,-151 262,-109 476,-109 476,-151"/>
<polygon fill="none" stroke="black" points="476,-151 262,-151 262,-109 476,-109 476,-151"/>
<text text-anchor="middle" x="369" y="-134.4" font-family="Helvetica,sans-Serif" font-size="14.00">Archivar_solicitud_procesada</text>
<text text-anchor="middle" x="369" y="-117.4" font-family="Helvetica,sans-Serif" font-size="14.00">solicitud_archivada</text>
</g>
<!-- Presidencia&#45;&gt;Archivar_solicitud_procesada -->
<g id="edge10" class="edge"><title>Presidencia&#45;&gt;Archivar_solicitud_procesada</title>
<path fill="none" stroke="black" d="M366.2,-208.396C366.733,-193.464 367.358,-175.987 367.881,-161.329"/>
<polygon fill="black" stroke="black" points="371.383,-161.35 368.242,-151.231 364.387,-161.1 371.383,-161.35"/>
</g>
<!-- Firmada_talento -->
<g id="node13" class="node"><title>Firmada_talento</title>
<polygon fill="#ffffff" stroke="black" points="244,-151 116,-151 116,-109 244,-109 244,-151"/>
<polygon fill="none" stroke="black" points="244,-151 116,-151 116,-109 244,-109 244,-151"/>
<text text-anchor="middle" x="180" y="-134.4" font-family="Helvetica,sans-Serif" font-size="14.00">Firmada_talento</text>
<text text-anchor="middle" x="180" y="-117.4" font-family="Helvetica,sans-Serif" font-size="14.00">firmada_EE</text>
</g>
<!-- Presidencia&#45;&gt;Firmada_talento -->
<g id="edge12" class="edge"><title>Presidencia&#45;&gt;Firmada_talento</title>
<path fill="none" stroke="black" d="M309.494,-208.396C281.979,-191.739 249.236,-171.916 223.559,-156.371"/>
<polygon fill="black" stroke="black" points="225.159,-153.248 214.792,-151.063 221.534,-159.236 225.159,-153.248"/>
</g>
<!-- Firmada_direccion -->
<g id="node15" class="node"><title>Firmada_direccion</title>
<polygon fill="#ffff00" stroke="black" points="634,-151 494,-151 494,-109 634,-109 634,-151"/>
<polygon fill="none" stroke="black" points="634,-151 494,-151 494,-109 634,-109 634,-151"/>
<text text-anchor="middle" x="564" y="-134.4" font-family="Helvetica,sans-Serif" font-size="14.00">Firmada_direccion</text>
<text text-anchor="middle" x="564" y="-117.4" font-family="Helvetica,sans-Serif" font-size="14.00">firmada_YV</text>
</g>
<!-- Presidencia&#45;&gt;Firmada_direccion -->
<g id="edge14" class="edge"><title>Presidencia&#45;&gt;Firmada_direccion</title>
<path fill="none" stroke="black" d="M424.707,-208.396C454.433,-191.666 489.832,-171.743 517.506,-156.168"/>
<polygon fill="black" stroke="black" points="519.577,-159.018 526.575,-151.063 516.144,-152.918 519.577,-159.018"/>
</g>
<!-- Firmada_presidencia -->
<g id="node17" class="node"><title>Firmada_presidencia</title>
<polygon fill="#ffff00" stroke="black" points="808,-151 652,-151 652,-109 808,-109 808,-151"/>
<polygon fill="none" stroke="black" points="808,-151 652,-151 652,-109 808,-109 808,-151"/>
<text text-anchor="middle" x="730" y="-134.4" font-family="Helvetica,sans-Serif" font-size="14.00">Firmada_presidencia</text>
<text text-anchor="middle" x="730" y="-117.4" font-family="Helvetica,sans-Serif" font-size="14.00">firmada_JJ</text>
</g>
<!-- Presidencia&#45;&gt;Firmada_presidencia -->
<g id="edge16" class="edge"><title>Presidencia&#45;&gt;Firmada_presidencia</title>
<path fill="none" stroke="black" d="M458.255,-208.499C462.894,-206.952 467.495,-205.445 472,-204 528.263,-185.96 592.085,-167.636 642.175,-153.736"/>
<polygon fill="black" stroke="black" points="643.3,-157.056 652.004,-151.016 641.433,-150.31 643.3,-157.056"/>
</g>
<!-- DireccionEjecutiva_stats -->
<g id="node8" class="node"><title>DireccionEjecutiva_stats</title>
<polygon fill="none" stroke="black" stroke-dasharray="5,2" points="498,-504 266,-504 266,-428 498,-428 498,-504"/>
<text text-anchor="start" x="357.5" y="-489.733" font-family="Times Roman,serif" font-size="14.00">emora </text>
<text text-anchor="start" x="308" y="-472.933" font-family="Times Roman,serif" font-size="14.00">11/11/2013 05:48pm</text>
<text text-anchor="start" x="317" y="-456.133" font-family="Times Roman,serif" font-size="14.00">hace 3 meses llego</text>
<text text-anchor="start" x="274.5" y="-439.333" font-family="Times Roman,serif" font-size="14.00">3 horas y 2 minutos &#160;en espera</text>
</g>
<!-- DireccionEjecutiva_stats&#45;&gt;DireccionEjecutiva -->
<g id="edge8" class="edge"><title>DireccionEjecutiva_stats&#45;&gt;DireccionEjecutiva</title>
<path fill="none" stroke="black" stroke-dasharray="1,5" d="M343.428,-427.769C328.431,-412.905 311.554,-396.177 297.667,-382.413"/>
<polygon fill="black" stroke="black" points="299.857,-379.656 290.291,-375.102 294.929,-384.628 299.857,-379.656"/>
</g>
<!-- final -->
<g id="node21" class="node"><title>final</title>
<ellipse fill="#ffffff" stroke="black" cx="564" cy="-18" rx="31.9646" ry="18"/>
<ellipse fill="none" stroke="black" cx="564" cy="-18" rx="31.9646" ry="18"/>
<text text-anchor="middle" x="564" y="-13.9" font-family="Times Roman,serif" font-size="14.00">final</text>
</g>
<!-- Archivar_solicitud_procesada&#45;&gt;final -->
<g id="edge28" class="edge"><title>Archivar_solicitud_procesada&#45;&gt;final</title>
<path fill="none" stroke="black" d="M405.678,-108.934C442.34,-87.8767 498.104,-55.8478 532.731,-35.9594"/>
<polygon fill="black" stroke="black" points="534.551,-38.9506 541.479,-30.935 531.065,-32.8805 534.551,-38.9506"/>
</g>
<!-- Firmada_talento&#45;&gt;final -->
<g id="edge30" class="edge"><title>Firmada_talento&#45;&gt;final</title>
<path fill="none" stroke="black" d="M244.273,-111.254C324.528,-87.846 459.273,-48.5453 525.243,-29.3042"/>
<polygon fill="black" stroke="black" points="526.601,-32.5539 535.221,-26.3939 524.641,-25.8339 526.601,-32.5539"/>
</g>
<!-- Firmada_direccion&#45;&gt;final -->
<g id="edge24" class="edge"><title>Firmada_direccion&#45;&gt;final</title>
<path fill="none" stroke="black" d="M564,-108.934C564,-91.1831 564,-65.6359 564,-46.1368"/>
<polygon fill="black" stroke="black" points="567.5,-46.0141 564,-36.0142 560.5,-46.0142 567.5,-46.0141"/>
</g>
<!-- Firmada_presidencia&#45;&gt;final -->
<g id="edge20" class="edge"><title>Firmada_presidencia&#45;&gt;final</title>
<path fill="none" stroke="black" d="M698.777,-108.934C668.476,-88.49 622.848,-57.7044 593.239,-37.7277"/>
<polygon fill="black" stroke="black" points="594.847,-34.5902 584.6,-31.8985 590.932,-40.3929 594.847,-34.5902"/>
</g>
<!-- Presidencia_stats -->
<g id="node18" class="node"><title>Presidencia_stats</title>
<polygon fill="none" stroke="black" stroke-dasharray="5,2" points="543,-392 379,-392 379,-316 543,-316 543,-392"/>
<text text-anchor="start" x="437" y="-377.733" font-family="Times Roman,serif" font-size="14.00">yverdi </text>
<text text-anchor="start" x="387" y="-360.933" font-family="Times Roman,serif" font-size="14.00">15/11/2013 05:57pm</text>
<text text-anchor="start" x="396" y="-344.133" font-family="Times Roman,serif" font-size="14.00">hace 3 meses llego</text>
<text text-anchor="start" x="404.5" y="-327.333" font-family="Times Roman,serif" font-size="14.00">4 dias en espera</text>
</g>
<!-- Presidencia_stats&#45;&gt;Presidencia -->
<g id="edge18" class="edge"><title>Presidencia_stats&#45;&gt;Presidencia</title>
<path fill="none" stroke="black" stroke-dasharray="1,5" d="M428.231,-315.769C419.227,-305.265 409.425,-293.829 400.286,-283.167"/>
<polygon fill="black" stroke="black" points="402.935,-280.879 393.77,-275.565 397.62,-285.435 402.935,-280.879"/>
</g>
<!-- Firmada_presidencia_stats -->
<g id="node22" class="node"><title>Firmada_presidencia_stats</title>
<polygon fill="none" stroke="black" stroke-dasharray="5,2" points="847,-280 673,-280 673,-204 847,-204 847,-280"/>
<text text-anchor="start" x="716" y="-265.733" font-family="Times Roman,serif" font-size="14.00">Victor Rafael</text>
<text text-anchor="start" x="686" y="-248.933" font-family="Times Roman,serif" font-size="14.00">10/02/2014 10:59am</text>
<text text-anchor="start" x="681.5" y="-232.133" font-family="Times Roman,serif" font-size="14.00">hace 36 minutos &#160;llego</text>
<text text-anchor="start" x="695.5" y="-215.333" font-family="Times Roman,serif" font-size="14.00">3 meses en espera</text>
</g>
<!-- Firmada_presidencia_stats&#45;&gt;Firmada_presidencia -->
<g id="edge22" class="edge"><title>Firmada_presidencia_stats&#45;&gt;Firmada_presidencia</title>
<path fill="none" stroke="black" stroke-dasharray="1,5" d="M749.76,-203.769C746.036,-189.868 741.876,-174.338 738.337,-161.126"/>
<polygon fill="black" stroke="black" points="741.621,-159.856 735.652,-151.102 734.859,-161.667 741.621,-159.856"/>
</g>
<!-- Firmada_direccion_stats -->
<g id="node25" class="node"><title>Firmada_direccion_stats</title>
<polygon fill="none" stroke="black" stroke-dasharray="5,2" points="655,-280 481,-280 481,-204 655,-204 655,-280"/>
<text text-anchor="start" x="516" y="-265.733" font-family="Times Roman,serif" font-size="14.00">Antonio Araujo</text>
<text text-anchor="start" x="494" y="-248.933" font-family="Times Roman,serif" font-size="14.00">10/02/2014 11:11am</text>
<text text-anchor="start" x="489.5" y="-232.133" font-family="Times Roman,serif" font-size="14.00">hace 24 minutos &#160;llego</text>
<text text-anchor="start" x="490.5" y="-215.333" font-family="Times Roman,serif" font-size="14.00">12 minutos &#160;en espera</text>
</g>
<!-- Firmada_direccion_stats&#45;&gt;Firmada_direccion -->
<g id="edge26" class="edge"><title>Firmada_direccion_stats&#45;&gt;Firmada_direccion</title>
<path fill="none" stroke="black" stroke-dasharray="1,5" d="M566.635,-203.769C566.138,-189.868 565.583,-174.338 565.112,-161.126"/>
<polygon fill="black" stroke="black" points="568.608,-160.971 564.754,-151.102 561.613,-161.221 568.608,-160.971"/>
</g>
<!-- Por_usuario -->
<g id="node29" class="node"><title>Por_usuario</title>
<polygon fill="#ffff00" stroke="black" points="280,-599 182,-599 182,-557 280,-557 280,-599"/>
<polygon fill="none" stroke="black" points="280,-599 182,-599 182,-557 280,-557 280,-599"/>
<text text-anchor="middle" x="231" y="-582.4" font-family="Helvetica,sans-Serif" font-size="14.00">Por_usuario</text>
<text text-anchor="middle" x="231" y="-565.4" font-family="Helvetica,sans-Serif" font-size="14.00">todas</text>
</g>
<!-- Por_usuario&#45;&gt;Talento_humano -->
<g id="edge32" class="edge"><title>Por_usuario&#45;&gt;Talento_humano</title>
<path fill="none" stroke="black" d="M216.893,-556.934C205.339,-539.679 188.851,-515.058 175.946,-495.785"/>
<polygon fill="black" stroke="black" points="178.771,-493.714 170.299,-487.353 172.955,-497.609 178.771,-493.714"/>
</g>
<!-- inicial -->
<g id="node31" class="node"><title>inicial</title>
<ellipse fill="#ffffff" stroke="black" cx="231" cy="-690" rx="38.9134" ry="18"/>
<ellipse fill="none" stroke="black" cx="231" cy="-690" rx="38.9134" ry="18"/>
<text text-anchor="middle" x="231" y="-685.9" font-family="Times Roman,serif" font-size="14.00">inicial</text>
</g>
<!-- inicial&#45;&gt;Por_usuario -->
<g id="edge34" class="edge"><title>inicial&#45;&gt;Por_usuario</title>
<path fill="none" stroke="black" d="M231,-671.505C231,-654.652 231,-629.412 231,-609.401"/>
<polygon fill="black" stroke="black" points="234.5,-609.198 231,-599.198 227.5,-609.198 234.5,-609.198"/>
</g>
<!-- final_stats -->
<g id="node33" class="node"><title>final_stats</title>
<polygon fill="none" stroke="black" stroke-dasharray="5,2" points="950,-151 826,-151 826,-109 950,-109 950,-151"/>
<text text-anchor="start" x="834" y="-136.733" font-family="Times Roman,serif" font-size="14.00">Suma total: 0%</text>
<text text-anchor="start" x="883" y="-119.933" font-family="Times Roman,serif" font-size="14.00"> &#160;</text>
</g>
<!-- final_stats&#45;&gt;final -->
<g id="edge36" class="edge"><title>final_stats&#45;&gt;final</title>
<path fill="none" stroke="black" stroke-dasharray="1,5" d="M827.058,-108.934C760.619,-85.967 656.422,-49.9482 601.217,-30.8652"/>
<polygon fill="black" stroke="black" points="602.094,-27.4652 591.5,-27.506 599.807,-34.0811 602.094,-27.4652"/>
</g>
</g>
</svg>
