<?xml version="1.0" encoding="UTF-8" standalone="no"?>
<!DOCTYPE svg PUBLIC "-//W3C//DTD SVG 1.1//EN"
 "http://www.w3.org/Graphics/SVG/1.1/DTD/svg11.dtd">
<!-- Generated by graphviz version 2.26.3 (20100126.1600)
 -->
<!-- Title: G Pages: 1 -->
<svg width="842pt" height="716pt"
 viewBox="0.00 0.00 842.00 716.00" xmlns="http://www.w3.org/2000/svg" xmlns:xlink="http://www.w3.org/1999/xlink">
<g id="graph1" class="graph" transform="scale(1 1) rotate(0) translate(4 712)">
<title>G</title>
<polygon fill="white" stroke="white" points="-4,5 -4,-712 839,-712 839,5 -4,5"/>
<!-- inicial -->
<g id="node1" class="node"><title>inicial</title>
<ellipse fill="#ffffff" stroke="black" cx="70" cy="-690" rx="38.9134" ry="18"/>
<ellipse fill="none" stroke="black" cx="70" cy="-690" rx="38.9134" ry="18"/>
<text text-anchor="middle" x="70" y="-685.9" font-family="Times Roman,serif" font-size="14.00">inicial</text>
</g>
<!-- Por_usuario -->
<g id="node3" class="node"><title>Por_usuario</title>
<polygon fill="#ffff00" stroke="black" points="119,-599 21,-599 21,-557 119,-557 119,-599"/>
<polygon fill="none" stroke="black" points="119,-599 21,-599 21,-557 119,-557 119,-599"/>
<text text-anchor="middle" x="70" y="-582.4" font-family="Helvetica,sans-Serif" font-size="14.00">Por_usuario</text>
<text text-anchor="middle" x="70" y="-565.4" font-family="Helvetica,sans-Serif" font-size="14.00">todas</text>
</g>
<!-- inicial&#45;&gt;Por_usuario -->
<g id="edge2" class="edge"><title>inicial&#45;&gt;Por_usuario</title>
<path fill="none" stroke="black" d="M70,-671.505C70,-654.652 70,-629.412 70,-609.401"/>
<polygon fill="black" stroke="black" points="73.5001,-609.198 70,-599.198 66.5001,-609.198 73.5001,-609.198"/>
</g>
<!-- Talento_humano -->
<g id="node5" class="node"><title>Talento_humano</title>
<polygon fill="#ffff00" stroke="black" points="236,-487 52,-487 52,-445 236,-445 236,-487"/>
<polygon fill="none" stroke="black" points="236,-487 52,-487 52,-445 236,-445 236,-487"/>
<text text-anchor="middle" x="144" y="-470.4" font-family="Helvetica,sans-Serif" font-size="14.00">Talento_humano</text>
<text text-anchor="middle" x="144" y="-453.4" font-family="Helvetica,sans-Serif" font-size="14.00">Planilla vista_vacaciones</text>
</g>
<!-- Por_usuario&#45;&gt;Talento_humano -->
<g id="edge4" class="edge"><title>Por_usuario&#45;&gt;Talento_humano</title>
<path fill="none" stroke="black" d="M83.9188,-556.934C95.3191,-539.679 111.587,-515.058 124.32,-495.785"/>
<polygon fill="black" stroke="black" points="127.3,-497.625 129.892,-487.353 121.459,-493.767 127.3,-497.625"/>
</g>
<!-- DireccionEjecutiva -->
<g id="node7" class="node"><title>DireccionEjecutiva</title>
<polygon fill="#ffff00" stroke="black" points="349,-375 165,-375 165,-333 349,-333 349,-375"/>
<polygon fill="none" stroke="black" points="349,-375 165,-375 165,-333 349,-333 349,-375"/>
<text text-anchor="middle" x="257" y="-358.4" font-family="Helvetica,sans-Serif" font-size="14.00">DireccionEjecutiva</text>
<text text-anchor="middle" x="257" y="-341.4" font-family="Helvetica,sans-Serif" font-size="14.00">Planilla vista_vacaciones</text>
</g>
<!-- Talento_humano&#45;&gt;DireccionEjecutiva -->
<g id="edge6" class="edge"><title>Talento_humano&#45;&gt;DireccionEjecutiva</title>
<path fill="none" stroke="black" d="M165.254,-444.934C183.055,-427.291 208.627,-401.945 228.254,-382.491"/>
<polygon fill="black" stroke="black" points="230.818,-384.878 235.457,-375.353 225.89,-379.906 230.818,-384.878"/>
</g>
<!-- Presidencia -->
<g id="node11" class="node"><title>Presidencia</title>
<polygon fill="#ffff00" stroke="#ffff00" points="286,-208.5 458,-208.5 470,-220.5 470,-263.5 458,-275.5 286,-275.5 274,-263.5 274,-220.5 286,-208.5"/>
<path fill="#ffff00" stroke="#ffff00" d="M458,-208.5C464,-208.5 470,-214.5 470,-220.5"/>
<path fill="#ffff00" stroke="#ffff00" d="M470,-263.5C470,-269.5 464,-275.5 458,-275.5"/>
<path fill="#ffff00" stroke="#ffff00" d="M286,-275.5C280,-275.5 274,-269.5 274,-263.5"/>
<path fill="#ffff00" stroke="#ffff00" d="M274,-220.5C274,-214.5 280,-208.5 286,-208.5"/>
<polyline fill="none" stroke="black" points="286,-208.5 458,-208.5 "/>
<path fill="none" stroke="black" d="M458,-208.5C464,-208.5 470,-214.5 470,-220.5"/>
<polyline fill="none" stroke="black" points="470,-220.5 470,-263.5 "/>
<path fill="none" stroke="black" d="M470,-263.5C470,-269.5 464,-275.5 458,-275.5"/>
<polyline fill="none" stroke="black" points="458,-275.5 286,-275.5 "/>
<path fill="none" stroke="black" d="M286,-275.5C280,-275.5 274,-269.5 274,-263.5"/>
<polyline fill="none" stroke="black" points="274,-263.5 274,-220.5 "/>
<path fill="none" stroke="black" d="M274,-220.5C274,-214.5 280,-208.5 286,-208.5"/>
<text text-anchor="middle" x="372" y="-258.9" font-family="Helvetica,sans-Serif" font-size="14.00">Presidencia</text>
<text text-anchor="middle" x="372" y="-241.9" font-family="Helvetica,sans-Serif" font-size="14.00">Aprobacion del Presidente</text>
<polyline fill="none" stroke="black" points="274,-233.5 470,-233.5 "/>
<text text-anchor="middle" x="372" y="-216.9" font-family="Helvetica,sans-Serif" font-size="14.00">or</text>
</g>
<!-- DireccionEjecutiva&#45;&gt;Presidencia -->
<g id="edge10" class="edge"><title>DireccionEjecutiva&#45;&gt;Presidencia</title>
<path fill="none" stroke="black" d="M278.631,-332.934C293.091,-318.85 312.591,-299.859 330.03,-282.875"/>
<polygon fill="black" stroke="black" points="332.635,-285.223 337.357,-275.739 327.751,-280.209 332.635,-285.223"/>
</g>
<!-- Talento_humano_stats -->
<g id="node8" class="node"><title>Talento_humano_stats</title>
<polygon fill="none" stroke="black" stroke-dasharray="5,2" points="301,-616 137,-616 137,-540 301,-540 301,-616"/>
<text text-anchor="start" x="187.5" y="-601.733" font-family="Times Roman,serif" font-size="14.00">eparedes</text>
<text text-anchor="start" x="145" y="-584.933" font-family="Times Roman,serif" font-size="14.00">11/11/2013 02:46pm</text>
<text text-anchor="start" x="154" y="-568.133" font-family="Times Roman,serif" font-size="14.00">hace 3 meses llego</text>
<text text-anchor="start" x="206.5" y="-551.333" font-family="Times Roman,serif" font-size="14.00">N/A</text>
</g>
<!-- Talento_humano_stats&#45;&gt;Talento_humano -->
<g id="edge8" class="edge"><title>Talento_humano_stats&#45;&gt;Talento_humano</title>
<path fill="none" stroke="black" stroke-dasharray="1,5" d="M193.399,-539.769C183.722,-525.318 172.865,-509.105 163.799,-495.567"/>
<polygon fill="black" stroke="black" points="166.603,-493.464 158.131,-487.102 160.787,-497.359 166.603,-493.464"/>
</g>
<!-- Archivar_solicitud_procesada -->
<g id="node15" class="node"><title>Archivar_solicitud_procesada</title>
<polygon fill="#ffffff" stroke="black" points="214,-151 8.52651e-14,-151 0,-109 214,-109 214,-151"/>
<polygon fill="none" stroke="black" points="214,-151 8.52651e-14,-151 0,-109 214,-109 214,-151"/>
<text text-anchor="middle" x="107" y="-134.4" font-family="Helvetica,sans-Serif" font-size="14.00">Archivar_solicitud_procesada</text>
<text text-anchor="middle" x="107" y="-117.4" font-family="Helvetica,sans-Serif" font-size="14.00">solicitud_archivada</text>
</g>
<!-- Presidencia&#45;&gt;Archivar_solicitud_procesada -->
<g id="edge14" class="edge"><title>Presidencia&#45;&gt;Archivar_solicitud_procesada</title>
<path fill="none" stroke="black" d="M292.491,-208.396C251.874,-191.23 203.302,-170.701 166.052,-154.958"/>
<polygon fill="black" stroke="black" points="167.411,-151.732 156.837,-151.063 164.686,-158.18 167.411,-151.732"/>
</g>
<!-- Firmada_talento -->
<g id="node17" class="node"><title>Firmada_talento</title>
<polygon fill="#ffffff" stroke="black" points="360,-151 232,-151 232,-109 360,-109 360,-151"/>
<polygon fill="none" stroke="black" points="360,-151 232,-151 232,-109 360,-109 360,-151"/>
<text text-anchor="middle" x="296" y="-134.4" font-family="Helvetica,sans-Serif" font-size="14.00">Firmada_talento</text>
<text text-anchor="middle" x="296" y="-117.4" font-family="Helvetica,sans-Serif" font-size="14.00">firmada_EE</text>
</g>
<!-- Presidencia&#45;&gt;Firmada_talento -->
<g id="edge16" class="edge"><title>Presidencia&#45;&gt;Firmada_talento</title>
<path fill="none" stroke="black" d="M349.197,-208.396C338.671,-192.884 326.282,-174.626 316.109,-159.635"/>
<polygon fill="black" stroke="black" points="318.918,-157.54 310.407,-151.231 313.126,-161.471 318.918,-157.54"/>
</g>
<!-- Firmada_direccion -->
<g id="node19" class="node"><title>Firmada_direccion</title>
<polygon fill="#ffffff" stroke="black" points="518,-151 378,-151 378,-109 518,-109 518,-151"/>
<polygon fill="none" stroke="black" points="518,-151 378,-151 378,-109 518,-109 518,-151"/>
<text text-anchor="middle" x="448" y="-134.4" font-family="Helvetica,sans-Serif" font-size="14.00">Firmada_direccion</text>
<text text-anchor="middle" x="448" y="-117.4" font-family="Helvetica,sans-Serif" font-size="14.00">firmada_YV</text>
</g>
<!-- Presidencia&#45;&gt;Firmada_direccion -->
<g id="edge18" class="edge"><title>Presidencia&#45;&gt;Firmada_direccion</title>
<path fill="none" stroke="black" d="M394.803,-208.396C405.329,-192.884 417.718,-174.626 427.891,-159.635"/>
<polygon fill="black" stroke="black" points="430.874,-161.471 433.593,-151.231 425.082,-157.54 430.874,-161.471"/>
</g>
<!-- Firmada_presidencia -->
<g id="node21" class="node"><title>Firmada_presidencia</title>
<polygon fill="#ffffff" stroke="black" points="692,-151 536,-151 536,-109 692,-109 692,-151"/>
<polygon fill="none" stroke="black" points="692,-151 536,-151 536,-109 692,-109 692,-151"/>
<text text-anchor="middle" x="614" y="-134.4" font-family="Helvetica,sans-Serif" font-size="14.00">Firmada_presidencia</text>
<text text-anchor="middle" x="614" y="-117.4" font-family="Helvetica,sans-Serif" font-size="14.00">firmada_JJ</text>
</g>
<!-- Presidencia&#45;&gt;Firmada_presidencia -->
<g id="edge20" class="edge"><title>Presidencia&#45;&gt;Firmada_presidencia</title>
<path fill="none" stroke="black" d="M444.608,-208.396C481.386,-191.375 525.305,-171.049 559.206,-155.359"/>
<polygon fill="black" stroke="black" points="560.883,-158.44 568.488,-151.063 557.943,-152.087 560.883,-158.44"/>
</g>
<!-- DireccionEjecutiva_stats -->
<g id="node12" class="node"><title>DireccionEjecutiva_stats</title>
<polygon fill="none" stroke="black" stroke-dasharray="5,2" points="486,-504 254,-504 254,-428 486,-428 486,-504"/>
<text text-anchor="start" x="348" y="-489.733" font-family="Times Roman,serif" font-size="14.00">emora</text>
<text text-anchor="start" x="296" y="-472.933" font-family="Times Roman,serif" font-size="14.00">11/11/2013 05:48pm</text>
<text text-anchor="start" x="305" y="-456.133" font-family="Times Roman,serif" font-size="14.00">hace 3 meses llego</text>
<text text-anchor="start" x="262.5" y="-439.333" font-family="Times Roman,serif" font-size="14.00">3 horas y 2 minutos &#160;en espera</text>
</g>
<!-- DireccionEjecutiva_stats&#45;&gt;DireccionEjecutiva -->
<g id="edge12" class="edge"><title>DireccionEjecutiva_stats&#45;&gt;DireccionEjecutiva</title>
<path fill="none" stroke="black" stroke-dasharray="1,5" d="M331.428,-427.769C316.431,-412.905 299.554,-396.177 285.667,-382.413"/>
<polygon fill="black" stroke="black" points="287.857,-379.656 278.291,-375.102 282.929,-384.628 287.857,-379.656"/>
</g>
<!-- final -->
<g id="node25" class="node"><title>final</title>
<ellipse fill="#ffffff" stroke="black" cx="448" cy="-18" rx="31.9646" ry="18"/>
<ellipse fill="none" stroke="black" cx="448" cy="-18" rx="31.9646" ry="18"/>
<text text-anchor="middle" x="448" y="-13.9" font-family="Times Roman,serif" font-size="14.00">final</text>
</g>
<!-- Archivar_solicitud_procesada&#45;&gt;final -->
<g id="edge24" class="edge"><title>Archivar_solicitud_procesada&#45;&gt;final</title>
<path fill="none" stroke="black" d="M171.139,-108.934C241.756,-85.74 352.901,-49.235 410.538,-30.3044"/>
<polygon fill="black" stroke="black" points="411.912,-33.537 420.32,-27.0913 409.727,-26.8866 411.912,-33.537"/>
</g>
<!-- Firmada_talento&#45;&gt;final -->
<g id="edge26" class="edge"><title>Firmada_talento&#45;&gt;final</title>
<path fill="none" stroke="black" d="M324.59,-108.934C351.905,-88.8069 392.824,-58.6562 419.956,-38.6642"/>
<polygon fill="black" stroke="black" points="422.271,-41.3056 428.246,-32.5559 418.119,-35.6702 422.271,-41.3056"/>
</g>
<!-- Firmada_direccion&#45;&gt;final -->
<g id="edge28" class="edge"><title>Firmada_direccion&#45;&gt;final</title>
<path fill="none" stroke="black" d="M448,-108.934C448,-91.1831 448,-65.6359 448,-46.1368"/>
<polygon fill="black" stroke="black" points="451.5,-46.0141 448,-36.0142 444.5,-46.0142 451.5,-46.0141"/>
</g>
<!-- Firmada_presidencia&#45;&gt;final -->
<g id="edge30" class="edge"><title>Firmada_presidencia&#45;&gt;final</title>
<path fill="none" stroke="black" d="M582.777,-108.934C552.476,-88.49 506.848,-57.7044 477.239,-37.7277"/>
<polygon fill="black" stroke="black" points="478.847,-34.5902 468.6,-31.8985 474.932,-40.3929 478.847,-34.5902"/>
</g>
<!-- Presidencia_stats -->
<g id="node22" class="node"><title>Presidencia_stats</title>
<polygon fill="none" stroke="black" stroke-dasharray="5,2" points="609,-392 367,-392 367,-316 609,-316 609,-392"/>
<text text-anchor="start" x="466.5" y="-377.733" font-family="Times Roman,serif" font-size="14.00">yverdi</text>
<text text-anchor="start" x="414" y="-360.933" font-family="Times Roman,serif" font-size="14.00">15/11/2013 05:57pm</text>
<text text-anchor="start" x="375" y="-344.133" font-family="Times Roman,serif" font-size="14.00">hace 2 meses y 3 semanas &#160;llego</text>
<text text-anchor="start" x="431.5" y="-327.333" font-family="Times Roman,serif" font-size="14.00">4 dias en espera</text>
</g>
<!-- Presidencia_stats&#45;&gt;Presidencia -->
<g id="edge22" class="edge"><title>Presidencia_stats&#45;&gt;Presidencia</title>
<path fill="none" stroke="black" stroke-dasharray="1,5" d="M448.404,-315.769C437.313,-305.061 425.22,-293.385 413.995,-282.547"/>
<polygon fill="black" stroke="black" points="416.388,-279.993 406.763,-275.565 411.526,-285.028 416.388,-279.993"/>
</g>
<!-- final_stats -->
<g id="node29" class="node"><title>final_stats</title>
<polygon fill="none" stroke="black" stroke-dasharray="5,2" points="834,-151 710,-151 710,-109 834,-109 834,-151"/>
<text text-anchor="start" x="718" y="-136.733" font-family="Times Roman,serif" font-size="14.00">Suma total: 0%</text>
<text text-anchor="start" x="767" y="-119.933" font-family="Times Roman,serif" font-size="14.00"> &#160;</text>
</g>
<!-- final_stats&#45;&gt;final -->
<g id="edge32" class="edge"><title>final_stats&#45;&gt;final</title>
<path fill="none" stroke="black" stroke-dasharray="1,5" d="M711.058,-108.934C644.619,-85.967 540.422,-49.9482 485.217,-30.8652"/>
<polygon fill="black" stroke="black" points="486.094,-27.4652 475.5,-27.506 483.807,-34.0811 486.094,-27.4652"/>
</g>
</g>
</svg>
