<?xml version="1.0" encoding="UTF-8" standalone="no"?>
<!DOCTYPE svg PUBLIC "-//W3C//DTD SVG 1.1//EN"
 "http://www.w3.org/Graphics/SVG/1.1/DTD/svg11.dtd">
<!-- Generated by graphviz version 2.26.3 (20100126.1600)
 -->
<!-- Title: G Pages: 1 -->
<svg width="892pt" height="716pt"
 viewBox="0.00 0.00 892.00 716.00" xmlns="http://www.w3.org/2000/svg" xmlns:xlink="http://www.w3.org/1999/xlink">
<g id="graph1" class="graph" transform="scale(1 1) rotate(0) translate(4 712)">
<title>G</title>
<polygon fill="white" stroke="white" points="-4,5 -4,-712 889,-712 889,5 -4,5"/>
<!-- Talento_humano -->
<g id="node1" class="node"><title>Talento_humano</title>
<polygon fill="#ffff00" stroke="black" points="852,-487 668,-487 668,-445 852,-445 852,-487"/>
<polygon fill="none" stroke="black" points="852,-487 668,-487 668,-445 852,-445 852,-487"/>
<text text-anchor="middle" x="760" y="-470.4" font-family="Helvetica,sans-Serif" font-size="14.00">Talento_humano</text>
<text text-anchor="middle" x="760" y="-453.4" font-family="Helvetica,sans-Serif" font-size="14.00">Planilla vista_vacaciones</text>
</g>
<!-- DireccionEjecutiva -->
<g id="node3" class="node"><title>DireccionEjecutiva</title>
<polygon fill="#ffff00" stroke="black" points="739,-375 555,-375 555,-333 739,-333 739,-375"/>
<polygon fill="none" stroke="black" points="739,-375 555,-375 555,-333 739,-333 739,-375"/>
<text text-anchor="middle" x="647" y="-358.4" font-family="Helvetica,sans-Serif" font-size="14.00">DireccionEjecutiva</text>
<text text-anchor="middle" x="647" y="-341.4" font-family="Helvetica,sans-Serif" font-size="14.00">Planilla vista_vacaciones</text>
</g>
<!-- Talento_humano&#45;&gt;DireccionEjecutiva -->
<g id="edge2" class="edge"><title>Talento_humano&#45;&gt;DireccionEjecutiva</title>
<path fill="none" stroke="black" d="M738.746,-444.934C720.945,-427.291 695.373,-401.945 675.746,-382.491"/>
<polygon fill="black" stroke="black" points="678.11,-379.906 668.543,-375.353 673.182,-384.878 678.11,-379.906"/>
</g>
<!-- Presidencia -->
<g id="node7" class="node"><title>Presidencia</title>
<polygon fill="#ffff00" stroke="#ffff00" points="465,-208.5 637,-208.5 649,-220.5 649,-263.5 637,-275.5 465,-275.5 453,-263.5 453,-220.5 465,-208.5"/>
<path fill="#ffff00" stroke="#ffff00" d="M637,-208.5C643,-208.5 649,-214.5 649,-220.5"/>
<path fill="#ffff00" stroke="#ffff00" d="M649,-263.5C649,-269.5 643,-275.5 637,-275.5"/>
<path fill="#ffff00" stroke="#ffff00" d="M465,-275.5C459,-275.5 453,-269.5 453,-263.5"/>
<path fill="#ffff00" stroke="#ffff00" d="M453,-220.5C453,-214.5 459,-208.5 465,-208.5"/>
<polyline fill="none" stroke="black" points="465,-208.5 637,-208.5 "/>
<path fill="none" stroke="black" d="M637,-208.5C643,-208.5 649,-214.5 649,-220.5"/>
<polyline fill="none" stroke="black" points="649,-220.5 649,-263.5 "/>
<path fill="none" stroke="black" d="M649,-263.5C649,-269.5 643,-275.5 637,-275.5"/>
<polyline fill="none" stroke="black" points="637,-275.5 465,-275.5 "/>
<path fill="none" stroke="black" d="M465,-275.5C459,-275.5 453,-269.5 453,-263.5"/>
<polyline fill="none" stroke="black" points="453,-263.5 453,-220.5 "/>
<path fill="none" stroke="black" d="M453,-220.5C453,-214.5 459,-208.5 465,-208.5"/>
<text text-anchor="middle" x="551" y="-258.9" font-family="Helvetica,sans-Serif" font-size="14.00">Presidencia</text>
<text text-anchor="middle" x="551" y="-241.9" font-family="Helvetica,sans-Serif" font-size="14.00">Aprobacion del Presidente</text>
<polyline fill="none" stroke="black" points="453,-233.5 649,-233.5 "/>
<text text-anchor="middle" x="551" y="-216.9" font-family="Helvetica,sans-Serif" font-size="14.00">or</text>
</g>
<!-- DireccionEjecutiva&#45;&gt;Presidencia -->
<g id="edge6" class="edge"><title>DireccionEjecutiva&#45;&gt;Presidencia</title>
<path fill="none" stroke="black" d="M628.943,-332.934C617.087,-319.102 601.174,-300.536 586.817,-283.787"/>
<polygon fill="black" stroke="black" points="589.084,-281.054 579.919,-275.739 583.77,-285.609 589.084,-281.054"/>
</g>
<!-- Talento_humano_stats -->
<g id="node4" class="node"><title>Talento_humano_stats</title>
<polygon fill="none" stroke="black" stroke-dasharray="5,2" points="767,-616 603,-616 603,-540 767,-540 767,-616"/>
<text text-anchor="start" x="651.5" y="-601.733" font-family="Times Roman,serif" font-size="14.00">eparedes </text>
<text text-anchor="start" x="611" y="-584.933" font-family="Times Roman,serif" font-size="14.00">11/11/2013 02:46pm</text>
<text text-anchor="start" x="620" y="-568.133" font-family="Times Roman,serif" font-size="14.00">hace 3 meses llego</text>
<text text-anchor="start" x="674" y="-551.333" font-family="Times Roman,serif" font-size="14.00">n/a</text>
</g>
<!-- Talento_humano_stats&#45;&gt;Talento_humano -->
<g id="edge4" class="edge"><title>Talento_humano_stats&#45;&gt;Talento_humano</title>
<path fill="none" stroke="black" stroke-dasharray="1,5" d="M710.601,-539.769C720.278,-525.318 731.135,-509.105 740.201,-495.567"/>
<polygon fill="black" stroke="black" points="743.213,-497.359 745.869,-487.102 737.397,-493.464 743.213,-497.359"/>
</g>
<!-- Archivar_solicitud_procesada -->
<g id="node11" class="node"><title>Archivar_solicitud_procesada</title>
<polygon fill="#ffffff" stroke="black" points="564,-151 350,-151 350,-109 564,-109 564,-151"/>
<polygon fill="none" stroke="black" points="564,-151 350,-151 350,-109 564,-109 564,-151"/>
<text text-anchor="middle" x="457" y="-134.4" font-family="Helvetica,sans-Serif" font-size="14.00">Archivar_solicitud_procesada</text>
<text text-anchor="middle" x="457" y="-117.4" font-family="Helvetica,sans-Serif" font-size="14.00">solicitud_archivada</text>
</g>
<!-- Presidencia&#45;&gt;Archivar_solicitud_procesada -->
<g id="edge10" class="edge"><title>Presidencia&#45;&gt;Archivar_solicitud_procesada</title>
<path fill="none" stroke="black" d="M522.797,-208.396C509.656,-192.739 494.167,-174.285 481.52,-159.215"/>
<polygon fill="black" stroke="black" points="483.929,-156.641 474.819,-151.231 478.567,-161.141 483.929,-156.641"/>
</g>
<!-- Firmada_talento -->
<g id="node13" class="node"><title>Firmada_talento</title>
<polygon fill="#ffff00" stroke="black" points="710,-151 582,-151 582,-109 710,-109 710,-151"/>
<polygon fill="none" stroke="black" points="710,-151 582,-151 582,-109 710,-109 710,-151"/>
<text text-anchor="middle" x="646" y="-134.4" font-family="Helvetica,sans-Serif" font-size="14.00">Firmada_talento</text>
<text text-anchor="middle" x="646" y="-117.4" font-family="Helvetica,sans-Serif" font-size="14.00">firmada_EE</text>
</g>
<!-- Presidencia&#45;&gt;Firmada_talento -->
<g id="edge12" class="edge"><title>Presidencia&#45;&gt;Firmada_talento</title>
<path fill="none" stroke="black" d="M579.503,-208.396C592.784,-192.739 608.437,-174.285 621.219,-159.215"/>
<polygon fill="black" stroke="black" points="624.192,-161.121 627.992,-151.231 618.854,-156.593 624.192,-161.121"/>
</g>
<!-- Firmada_direccion -->
<g id="node15" class="node"><title>Firmada_direccion</title>
<polygon fill="#ffff00" stroke="black" points="190,-151 50,-151 50,-109 190,-109 190,-151"/>
<polygon fill="none" stroke="black" points="190,-151 50,-151 50,-109 190,-109 190,-151"/>
<text text-anchor="middle" x="120" y="-134.4" font-family="Helvetica,sans-Serif" font-size="14.00">Firmada_direccion</text>
<text text-anchor="middle" x="120" y="-117.4" font-family="Helvetica,sans-Serif" font-size="14.00">firmada_YV</text>
</g>
<!-- Presidencia&#45;&gt;Firmada_direccion -->
<g id="edge14" class="edge"><title>Presidencia&#45;&gt;Firmada_direccion</title>
<path fill="none" stroke="black" d="M452.708,-216.781C384.5,-199.235 291.263,-175.162 199.897,-151.229"/>
<polygon fill="black" stroke="black" points="200.765,-147.838 190.205,-148.689 198.991,-154.61 200.765,-147.838"/>
</g>
<!-- Firmada_presidencia -->
<g id="node17" class="node"><title>Firmada_presidencia</title>
<polygon fill="#ffffff" stroke="black" points="884,-151 728,-151 728,-109 884,-109 884,-151"/>
<polygon fill="none" stroke="black" points="884,-151 728,-151 728,-109 884,-109 884,-151"/>
<text text-anchor="middle" x="806" y="-134.4" font-family="Helvetica,sans-Serif" font-size="14.00">Firmada_presidencia</text>
<text text-anchor="middle" x="806" y="-117.4" font-family="Helvetica,sans-Serif" font-size="14.00">firmada_JJ</text>
</g>
<!-- Presidencia&#45;&gt;Firmada_presidencia -->
<g id="edge16" class="edge"><title>Presidencia&#45;&gt;Firmada_presidencia</title>
<path fill="none" stroke="black" d="M627.508,-208.396C666.428,-191.302 712.936,-170.875 748.72,-155.158"/>
<polygon fill="black" stroke="black" points="750.295,-158.289 758.043,-151.063 747.48,-151.88 750.295,-158.289"/>
</g>
<!-- DireccionEjecutiva_stats -->
<g id="node8" class="node"><title>DireccionEjecutiva_stats</title>
<polygon fill="none" stroke="black" stroke-dasharray="5,2" points="650,-504 418,-504 418,-428 650,-428 650,-504"/>
<text text-anchor="start" x="509.5" y="-489.733" font-family="Times Roman,serif" font-size="14.00">emora </text>
<text text-anchor="start" x="460" y="-472.933" font-family="Times Roman,serif" font-size="14.00">11/11/2013 05:48pm</text>
<text text-anchor="start" x="469" y="-456.133" font-family="Times Roman,serif" font-size="14.00">hace 3 meses llego</text>
<text text-anchor="start" x="426.5" y="-439.333" font-family="Times Roman,serif" font-size="14.00">3 horas y 2 minutos &#160;en espera</text>
</g>
<!-- DireccionEjecutiva_stats&#45;&gt;DireccionEjecutiva -->
<g id="edge8" class="edge"><title>DireccionEjecutiva_stats&#45;&gt;DireccionEjecutiva</title>
<path fill="none" stroke="black" stroke-dasharray="1,5" d="M572.572,-427.769C587.569,-412.905 604.446,-396.177 618.333,-382.413"/>
<polygon fill="black" stroke="black" points="621.071,-384.628 625.709,-375.102 616.143,-379.656 621.071,-384.628"/>
</g>
<!-- final -->
<g id="node21" class="node"><title>final</title>
<ellipse fill="#ffffff" stroke="black" cx="457" cy="-18" rx="31.9646" ry="18"/>
<ellipse fill="none" stroke="black" cx="457" cy="-18" rx="31.9646" ry="18"/>
<text text-anchor="middle" x="457" y="-13.9" font-family="Times Roman,serif" font-size="14.00">final</text>
</g>
<!-- Archivar_solicitud_procesada&#45;&gt;final -->
<g id="edge24" class="edge"><title>Archivar_solicitud_procesada&#45;&gt;final</title>
<path fill="none" stroke="black" d="M457,-108.934C457,-91.1831 457,-65.6359 457,-46.1368"/>
<polygon fill="black" stroke="black" points="460.5,-46.0141 457,-36.0142 453.5,-46.0142 460.5,-46.0141"/>
</g>
<!-- Firmada_talento&#45;&gt;final -->
<g id="edge28" class="edge"><title>Firmada_talento&#45;&gt;final</title>
<path fill="none" stroke="black" d="M610.451,-108.934C575.166,-88.0242 521.625,-56.2961 488.015,-36.3792"/>
<polygon fill="black" stroke="black" points="489.483,-33.1807 479.096,-31.0937 485.914,-39.2028 489.483,-33.1807"/>
</g>
<!-- Firmada_direccion&#45;&gt;final -->
<g id="edge20" class="edge"><title>Firmada_direccion&#45;&gt;final</title>
<path fill="none" stroke="black" d="M183.387,-108.934C252.995,-85.7998 362.45,-49.423 419.536,-30.4511"/>
<polygon fill="black" stroke="black" points="420.846,-33.7039 429.232,-27.2287 418.638,-27.0612 420.846,-33.7039"/>
</g>
<!-- Firmada_presidencia&#45;&gt;final -->
<g id="edge26" class="edge"><title>Firmada_presidencia&#45;&gt;final</title>
<path fill="none" stroke="black" d="M740.356,-108.934C667.746,-85.6321 553.271,-48.895 494.521,-30.0413"/>
<polygon fill="black" stroke="black" points="495.495,-26.6779 484.904,-26.9548 493.356,-33.3431 495.495,-26.6779"/>
</g>
<!-- Presidencia_stats -->
<g id="node18" class="node"><title>Presidencia_stats</title>
<polygon fill="none" stroke="black" stroke-dasharray="5,2" points="537,-392 373,-392 373,-316 537,-316 537,-392"/>
<text text-anchor="start" x="431" y="-377.733" font-family="Times Roman,serif" font-size="14.00">yverdi </text>
<text text-anchor="start" x="381" y="-360.933" font-family="Times Roman,serif" font-size="14.00">15/11/2013 05:57pm</text>
<text text-anchor="start" x="390" y="-344.133" font-family="Times Roman,serif" font-size="14.00">hace 3 meses llego</text>
<text text-anchor="start" x="398.5" y="-327.333" font-family="Times Roman,serif" font-size="14.00">4 dias en espera</text>
</g>
<!-- Presidencia_stats&#45;&gt;Presidencia -->
<g id="edge18" class="edge"><title>Presidencia_stats&#45;&gt;Presidencia</title>
<path fill="none" stroke="black" stroke-dasharray="1,5" d="M487.769,-315.769C496.773,-305.265 506.575,-293.829 515.714,-283.167"/>
<polygon fill="black" stroke="black" points="518.38,-285.435 522.23,-275.565 513.065,-280.879 518.38,-285.435"/>
</g>
<!-- Firmada_direccion_stats -->
<g id="node22" class="node"><title>Firmada_direccion_stats</title>
<polygon fill="none" stroke="black" stroke-dasharray="5,2" points="240,-280 8.52651e-14,-280 0,-204 240,-204 240,-280"/>
<text text-anchor="start" x="68" y="-265.733" font-family="Times Roman,serif" font-size="14.00">Antonio Araujo</text>
<text text-anchor="start" x="46" y="-248.933" font-family="Times Roman,serif" font-size="14.00">07/02/2014 01:28pm</text>
<text text-anchor="start" x="12" y="-232.133" font-family="Times Roman,serif" font-size="14.00">hace dos &#160;dias y 20 horas &#160;llego</text>
<text text-anchor="start" x="8" y="-215.333" font-family="Times Roman,serif" font-size="14.00">2 meses y 3 semanas &#160;en espera</text>
</g>
<!-- Firmada_direccion_stats&#45;&gt;Firmada_direccion -->
<g id="edge22" class="edge"><title>Firmada_direccion_stats&#45;&gt;Firmada_direccion</title>
<path fill="none" stroke="black" stroke-dasharray="1,5" d="M120,-203.769C120,-189.868 120,-174.338 120,-161.126"/>
<polygon fill="black" stroke="black" points="123.5,-161.102 120,-151.102 116.5,-161.102 123.5,-161.102"/>
</g>
<!-- Por_usuario -->
<g id="node27" class="node"><title>Por_usuario</title>
<polygon fill="#ffff00" stroke="black" points="883,-599 785,-599 785,-557 883,-557 883,-599"/>
<polygon fill="none" stroke="black" points="883,-599 785,-599 785,-557 883,-557 883,-599"/>
<text text-anchor="middle" x="834" y="-582.4" font-family="Helvetica,sans-Serif" font-size="14.00">Por_usuario</text>
<text text-anchor="middle" x="834" y="-565.4" font-family="Helvetica,sans-Serif" font-size="14.00">todas</text>
</g>
<!-- Por_usuario&#45;&gt;Talento_humano -->
<g id="edge30" class="edge"><title>Por_usuario&#45;&gt;Talento_humano</title>
<path fill="none" stroke="black" d="M820.081,-556.934C808.681,-539.679 792.413,-515.058 779.68,-495.785"/>
<polygon fill="black" stroke="black" points="782.541,-493.767 774.108,-487.353 776.7,-497.625 782.541,-493.767"/>
</g>
<!-- inicial -->
<g id="node29" class="node"><title>inicial</title>
<ellipse fill="#ffffff" stroke="black" cx="834" cy="-690" rx="38.9134" ry="18"/>
<ellipse fill="none" stroke="black" cx="834" cy="-690" rx="38.9134" ry="18"/>
<text text-anchor="middle" x="834" y="-685.9" font-family="Times Roman,serif" font-size="14.00">inicial</text>
</g>
<!-- inicial&#45;&gt;Por_usuario -->
<g id="edge32" class="edge"><title>inicial&#45;&gt;Por_usuario</title>
<path fill="none" stroke="black" d="M834,-671.505C834,-654.652 834,-629.412 834,-609.401"/>
<polygon fill="black" stroke="black" points="837.5,-609.198 834,-599.198 830.5,-609.198 837.5,-609.198"/>
</g>
<!-- final_stats -->
<g id="node31" class="node"><title>final_stats</title>
<polygon fill="none" stroke="black" stroke-dasharray="5,2" points="332,-151 208,-151 208,-109 332,-109 332,-151"/>
<text text-anchor="start" x="216" y="-136.733" font-family="Times Roman,serif" font-size="14.00">Suma total: 0%</text>
<text text-anchor="start" x="265" y="-119.933" font-family="Times Roman,serif" font-size="14.00"> &#160;</text>
</g>
<!-- final_stats&#45;&gt;final -->
<g id="edge34" class="edge"><title>final_stats&#45;&gt;final</title>
<path fill="none" stroke="black" stroke-dasharray="1,5" d="M305.173,-108.934C339.988,-88.0821 392.766,-56.4718 426.036,-36.545"/>
<polygon fill="black" stroke="black" points="428.091,-39.394 434.872,-31.2531 424.495,-33.3887 428.091,-39.394"/>
</g>
</g>
</svg>
