<?xml version="1.0" encoding="UTF-8" standalone="no"?>
<!DOCTYPE svg PUBLIC "-//W3C//DTD SVG 1.1//EN"
 "http://www.w3.org/Graphics/SVG/1.1/DTD/svg11.dtd">
<!-- Generated by graphviz version 2.26.3 (20100126.1600)
 -->
<!-- Title: G Pages: 1 -->
<svg width="957pt" height="656pt"
 viewBox="0.00 0.00 957.00 656.00" xmlns="http://www.w3.org/2000/svg" xmlns:xlink="http://www.w3.org/1999/xlink">
<g id="graph1" class="graph" transform="scale(1 1) rotate(0) translate(4 652)">
<title>G</title>
<polygon fill="white" stroke="white" points="-4,5 -4,-652 954,-652 954,5 -4,5"/>
<!-- inicial -->
<g id="node1" class="node"><title>inicial</title>
<ellipse fill="#ffffff" stroke="black" cx="72" cy="-518" rx="38.9134" ry="18"/>
<ellipse fill="none" stroke="black" cx="72" cy="-518" rx="38.9134" ry="18"/>
<text text-anchor="middle" x="72" y="-513.9" font-family="Times Roman,serif" font-size="14.00">inicial</text>
</g>
<!-- Talento_humano -->
<g id="node3" class="node"><title>Talento_humano</title>
<polygon fill="#ffffff" stroke="black" points="228,-439 44,-439 44,-397 228,-397 228,-439"/>
<polygon fill="none" stroke="black" points="228,-439 44,-439 44,-397 228,-397 228,-439"/>
<text text-anchor="middle" x="136" y="-422.4" font-family="Helvetica,sans-Serif" font-size="14.00">Talento_humano</text>
<text text-anchor="middle" x="136" y="-405.4" font-family="Helvetica,sans-Serif" font-size="14.00">Planilla vista_vacaciones</text>
</g>
<!-- inicial&#45;&gt;Talento_humano -->
<g id="edge2" class="edge"><title>inicial&#45;&gt;Talento_humano</title>
<path fill="none" stroke="black" d="M83.1479,-500.581C92.4801,-486 106.003,-464.87 117.034,-447.635"/>
<polygon fill="black" stroke="black" points="120.097,-449.341 122.54,-439.032 114.201,-445.568 120.097,-449.341"/>
</g>
<!-- DireccionEjecutiva -->
<g id="node7" class="node"><title>DireccionEjecutiva</title>
<polygon fill="#ffff00" stroke="black" points="321,-339 137,-339 137,-297 321,-297 321,-339"/>
<polygon fill="none" stroke="black" points="321,-339 137,-339 137,-297 321,-297 321,-339"/>
<text text-anchor="middle" x="229" y="-322.4" font-family="Helvetica,sans-Serif" font-size="14.00">DireccionEjecutiva</text>
<text text-anchor="middle" x="229" y="-305.4" font-family="Helvetica,sans-Serif" font-size="14.00">Planilla vista_vacaciones</text>
</g>
<!-- Talento_humano&#45;&gt;DireccionEjecutiva -->
<g id="edge6" class="edge"><title>Talento_humano&#45;&gt;DireccionEjecutiva</title>
<path fill="none" stroke="black" d="M155.723,-396.793C169.286,-382.209 187.459,-362.667 202.314,-346.694"/>
<polygon fill="black" stroke="black" points="205.058,-348.883 209.306,-339.177 199.932,-344.116 205.058,-348.883"/>
</g>
<!-- inicial_stats -->
<g id="node4" class="node"><title>inicial_stats</title>
<polygon fill="none" stroke="black" stroke-dasharray="5,2" points="144,-647.5 5.68434e-14,-647.5 0,-588.5 144,-588.5 144,-647.5"/>
<text text-anchor="start" x="8.5" y="-633.233" font-family="Times Roman,serif" font-size="14.00">Porcentaje: 0.00%</text>
<text text-anchor="start" x="17.5" y="-616.433" font-family="Times Roman,serif" font-size="14.00">Documentos: &#160;0</text>
<text text-anchor="start" x="46" y="-599.633" font-family="Times Roman,serif" font-size="14.00">Total: 7</text>
</g>
<!-- inicial_stats&#45;&gt;inicial -->
<g id="edge4" class="edge"><title>inicial_stats&#45;&gt;inicial</title>
<path fill="none" stroke="black" stroke-dasharray="1,5" d="M72,-588.267C72,-575.044 72,-559.543 72,-546.47"/>
<polygon fill="black" stroke="black" points="75.5001,-546.163 72,-536.163 68.5001,-546.163 75.5001,-546.163"/>
</g>
<!-- Presidencia -->
<g id="node11" class="node"><title>Presidencia</title>
<polygon fill="#ffff00" stroke="#ffff00" points="241.5,-184.5 402.5,-184.5 414.5,-196.5 414.5,-239.5 402.5,-251.5 241.5,-251.5 229.5,-239.5 229.5,-196.5 241.5,-184.5"/>
<path fill="#ffff00" stroke="#ffff00" d="M402.5,-184.5C408.5,-184.5 414.5,-190.5 414.5,-196.5"/>
<path fill="#ffff00" stroke="#ffff00" d="M414.5,-239.5C414.5,-245.5 408.5,-251.5 402.5,-251.5"/>
<path fill="#ffff00" stroke="#ffff00" d="M241.5,-251.5C235.5,-251.5 229.5,-245.5 229.5,-239.5"/>
<path fill="#ffff00" stroke="#ffff00" d="M229.5,-196.5C229.5,-190.5 235.5,-184.5 241.5,-184.5"/>
<polyline fill="none" stroke="black" points="241.5,-184.5 402.5,-184.5 "/>
<path fill="none" stroke="black" d="M402.5,-184.5C408.5,-184.5 414.5,-190.5 414.5,-196.5"/>
<polyline fill="none" stroke="black" points="414.5,-196.5 414.5,-239.5 "/>
<path fill="none" stroke="black" d="M414.5,-239.5C414.5,-245.5 408.5,-251.5 402.5,-251.5"/>
<polyline fill="none" stroke="black" points="402.5,-251.5 241.5,-251.5 "/>
<path fill="none" stroke="black" d="M241.5,-251.5C235.5,-251.5 229.5,-245.5 229.5,-239.5"/>
<polyline fill="none" stroke="black" points="229.5,-239.5 229.5,-196.5 "/>
<path fill="none" stroke="black" d="M229.5,-196.5C229.5,-190.5 235.5,-184.5 241.5,-184.5"/>
<text text-anchor="middle" x="322" y="-234.9" font-family="Helvetica,sans-Serif" font-size="14.00">Presidencia</text>
<text text-anchor="middle" x="322" y="-217.9" font-family="Helvetica,sans-Serif" font-size="14.00">Planilla vista_vacaciones</text>
<polyline fill="none" stroke="black" points="229.5,-209.5 414.5,-209.5 "/>
<text text-anchor="middle" x="322" y="-192.9" font-family="Helvetica,sans-Serif" font-size="14.00">or</text>
</g>
<!-- DireccionEjecutiva&#45;&gt;Presidencia -->
<g id="edge10" class="edge"><title>DireccionEjecutiva&#45;&gt;Presidencia</title>
<path fill="none" stroke="black" d="M248.723,-296.793C258.885,-285.865 271.636,-272.155 283.639,-259.248"/>
<polygon fill="black" stroke="black" points="286.348,-261.475 290.595,-251.768 281.222,-256.707 286.348,-261.475"/>
</g>
<!-- Talento_humano_stats -->
<g id="node8" class="node"><title>Talento_humano_stats</title>
<polygon fill="none" stroke="black" stroke-dasharray="5,2" points="273,-547.5 129,-547.5 129,-488.5 273,-488.5 273,-547.5"/>
<text text-anchor="start" x="137.5" y="-533.233" font-family="Times Roman,serif" font-size="14.00">Porcentaje: 0.00%</text>
<text text-anchor="start" x="146.5" y="-516.433" font-family="Times Roman,serif" font-size="14.00">Documentos: &#160;0</text>
<text text-anchor="start" x="175" y="-499.633" font-family="Times Roman,serif" font-size="14.00">Total: 7</text>
</g>
<!-- Talento_humano_stats&#45;&gt;Talento_humano -->
<g id="edge8" class="edge"><title>Talento_humano_stats&#45;&gt;Talento_humano</title>
<path fill="none" stroke="black" stroke-dasharray="1,5" d="M181.674,-488.267C173.343,-475.45 163.621,-460.494 155.294,-447.683"/>
<polygon fill="black" stroke="black" points="158.17,-445.685 149.785,-439.208 152.301,-449.5 158.17,-445.685"/>
</g>
<!-- Archivar_solicitud_procesada -->
<g id="node15" class="node"><title>Archivar_solicitud_procesada</title>
<polygon fill="#f1f1f1" stroke="black" points="423,-139 209,-139 209,-97 423,-97 423,-139"/>
<polygon fill="none" stroke="black" points="423,-139 209,-139 209,-97 423,-97 423,-139"/>
<text text-anchor="middle" x="316" y="-122.4" font-family="Helvetica,sans-Serif" font-size="14.00">Archivar_solicitud_procesada</text>
<text text-anchor="middle" x="316" y="-105.4" font-family="Helvetica,sans-Serif" font-size="14.00">solicitud_archivada</text>
</g>
<!-- Presidencia&#45;&gt;Archivar_solicitud_procesada -->
<g id="edge14" class="edge"><title>Presidencia&#45;&gt;Archivar_solicitud_procesada</title>
<path fill="none" stroke="black" d="M319.985,-184.423C319.304,-173.072 318.547,-160.45 317.877,-149.283"/>
<polygon fill="black" stroke="black" points="321.359,-148.884 317.267,-139.112 314.372,-149.304 321.359,-148.884"/>
</g>
<!-- Firmada_talento -->
<g id="node17" class="node"><title>Firmada_talento</title>
<polygon fill="#ffffff" stroke="black" points="191,-139 63,-139 63,-97 191,-97 191,-139"/>
<polygon fill="none" stroke="black" points="191,-139 63,-139 63,-97 191,-97 191,-139"/>
<text text-anchor="middle" x="127" y="-122.4" font-family="Helvetica,sans-Serif" font-size="14.00">Firmada_talento</text>
<text text-anchor="middle" x="127" y="-105.4" font-family="Helvetica,sans-Serif" font-size="14.00">firmada_JJ</text>
</g>
<!-- Presidencia&#45;&gt;Firmada_talento -->
<g id="edge16" class="edge"><title>Presidencia&#45;&gt;Firmada_talento</title>
<path fill="none" stroke="black" d="M256.525,-184.423C230.624,-171.141 201.331,-156.119 177.163,-143.724"/>
<polygon fill="black" stroke="black" points="178.664,-140.561 168.168,-139.112 175.469,-146.79 178.664,-140.561"/>
</g>
<!-- Firmada_direccion -->
<g id="node19" class="node"><title>Firmada_direccion</title>
<polygon fill="#ffffff" stroke="black" points="581,-139 441,-139 441,-97 581,-97 581,-139"/>
<polygon fill="none" stroke="black" points="581,-139 441,-139 441,-97 581,-97 581,-139"/>
<text text-anchor="middle" x="511" y="-122.4" font-family="Helvetica,sans-Serif" font-size="14.00">Firmada_direccion</text>
<text text-anchor="middle" x="511" y="-105.4" font-family="Helvetica,sans-Serif" font-size="14.00">firmada_YV</text>
</g>
<!-- Presidencia&#45;&gt;Firmada_direccion -->
<g id="edge18" class="edge"><title>Presidencia&#45;&gt;Firmada_direccion</title>
<path fill="none" stroke="black" d="M385.46,-184.423C410.453,-171.199 438.706,-156.251 462.071,-143.888"/>
<polygon fill="black" stroke="black" points="463.896,-146.882 471.098,-139.112 460.623,-140.695 463.896,-146.882"/>
</g>
<!-- Firmada_presidencia -->
<g id="node21" class="node"><title>Firmada_presidencia</title>
<polygon fill="#ffffff" stroke="black" points="755,-139 599,-139 599,-97 755,-97 755,-139"/>
<polygon fill="none" stroke="black" points="755,-139 599,-139 599,-97 755,-97 755,-139"/>
<text text-anchor="middle" x="677" y="-122.4" font-family="Helvetica,sans-Serif" font-size="14.00">Firmada_presidencia</text>
<text text-anchor="middle" x="677" y="-105.4" font-family="Helvetica,sans-Serif" font-size="14.00">firmada_JJ</text>
</g>
<!-- Presidencia&#45;&gt;Firmada_presidencia -->
<g id="edge20" class="edge"><title>Presidencia&#45;&gt;Firmada_presidencia</title>
<path fill="none" stroke="black" d="M414.641,-188.285C419.824,-186.794 424.97,-185.355 430,-184 500.38,-165.04 519.883,-167.911 590,-148 596.153,-146.253 602.508,-144.319 608.853,-142.298"/>
<polygon fill="black" stroke="black" points="610.357,-145.49 618.784,-139.068 608.192,-138.833 610.357,-145.49"/>
</g>
<!-- DireccionEjecutiva_stats -->
<g id="node12" class="node"><title>DireccionEjecutiva_stats</title>
<polygon fill="none" stroke="black" stroke-dasharray="5,2" points="398,-447.5 246,-447.5 246,-388.5 398,-388.5 398,-447.5"/>
<text text-anchor="start" x="254" y="-433.233" font-family="Times Roman,serif" font-size="14.00">Porcentaje: 14.00%</text>
<text text-anchor="start" x="267.5" y="-416.433" font-family="Times Roman,serif" font-size="14.00">Documentos: &#160;1</text>
<text text-anchor="start" x="296" y="-399.633" font-family="Times Roman,serif" font-size="14.00">Total: 7</text>
</g>
<!-- DireccionEjecutiva_stats&#45;&gt;DireccionEjecutiva -->
<g id="edge12" class="edge"><title>DireccionEjecutiva_stats&#45;&gt;DireccionEjecutiva</title>
<path fill="none" stroke="black" stroke-dasharray="1,5" d="M294.349,-388.267C282.085,-375.081 267.716,-359.63 255.579,-346.579"/>
<polygon fill="black" stroke="black" points="258.097,-344.148 248.724,-339.208 252.971,-348.915 258.097,-344.148"/>
</g>
<!-- final -->
<g id="node25" class="node"><title>final</title>
<ellipse fill="#ffffff" stroke="black" cx="511" cy="-18" rx="31.9646" ry="18"/>
<ellipse fill="none" stroke="black" cx="511" cy="-18" rx="31.9646" ry="18"/>
<text text-anchor="middle" x="511" y="-13.9" font-family="Times Roman,serif" font-size="14.00">final</text>
</g>
<!-- Archivar_solicitud_procesada&#45;&gt;final -->
<g id="edge24" class="edge"><title>Archivar_solicitud_procesada&#45;&gt;final</title>
<path fill="none" stroke="black" d="M357.354,-96.7926C393.273,-78.3726 444.614,-52.044 477.878,-34.9855"/>
<polygon fill="black" stroke="black" points="479.867,-37.8989 487.168,-30.2213 476.673,-31.6702 479.867,-37.8989"/>
</g>
<!-- Firmada_talento&#45;&gt;final -->
<g id="edge26" class="edge"><title>Firmada_talento&#45;&gt;final</title>
<path fill="none" stroke="black" d="M174.876,-96.9856C183.166,-93.7336 191.768,-90.5976 200,-88 294.849,-58.0712 409.79,-35.6665 469.873,-24.9708"/>
<polygon fill="black" stroke="black" points="470.845,-28.3536 480.086,-23.1718 469.631,-21.4598 470.845,-28.3536"/>
</g>
<!-- Firmada_direccion&#45;&gt;final -->
<g id="edge30" class="edge"><title>Firmada_direccion&#45;&gt;final</title>
<path fill="none" stroke="black" d="M511,-96.7926C511,-82.1657 511,-62.552 511,-46.553"/>
<polygon fill="black" stroke="black" points="514.5,-46.1599 511,-36.16 507.5,-46.16 514.5,-46.1599"/>
</g>
<!-- Firmada_presidencia&#45;&gt;final -->
<g id="edge34" class="edge"><title>Firmada_presidencia&#45;&gt;final</title>
<path fill="none" stroke="black" d="M641.796,-96.7926C612.082,-78.8928 569.971,-53.5249 541.631,-36.4526"/>
<polygon fill="black" stroke="black" points="543.319,-33.3833 532.947,-31.2212 539.707,-39.3794 543.319,-33.3833"/>
</g>
<!-- Presidencia_stats -->
<g id="node22" class="node"><title>Presidencia_stats</title>
<polygon fill="none" stroke="black" stroke-dasharray="5,2" points="491,-347.5 339,-347.5 339,-288.5 491,-288.5 491,-347.5"/>
<text text-anchor="start" x="347" y="-333.233" font-family="Times Roman,serif" font-size="14.00">Porcentaje: 86.00%</text>
<text text-anchor="start" x="360.5" y="-316.433" font-family="Times Roman,serif" font-size="14.00">Documentos: &#160;6</text>
<text text-anchor="start" x="389" y="-299.633" font-family="Times Roman,serif" font-size="14.00">Total: 7</text>
</g>
<!-- Presidencia_stats&#45;&gt;Presidencia -->
<g id="edge22" class="edge"><title>Presidencia_stats&#45;&gt;Presidencia</title>
<path fill="none" stroke="black" stroke-dasharray="1,5" d="M387.349,-288.267C378.815,-279.092 369.263,-268.82 360.152,-259.023"/>
<polygon fill="black" stroke="black" points="362.668,-256.59 353.295,-251.651 357.542,-261.357 362.668,-256.59"/>
</g>
<!-- Firmada_talento_stats -->
<g id="node27" class="node"><title>Firmada_talento_stats</title>
<polygon fill="none" stroke="black" stroke-dasharray="5,2" points="199,-247.5 55,-247.5 55,-188.5 199,-188.5 199,-247.5"/>
<text text-anchor="start" x="63.5" y="-233.233" font-family="Times Roman,serif" font-size="14.00">Porcentaje: 0.00%</text>
<text text-anchor="start" x="72.5" y="-216.433" font-family="Times Roman,serif" font-size="14.00">Documentos: &#160;0</text>
<text text-anchor="start" x="101" y="-199.633" font-family="Times Roman,serif" font-size="14.00">Total: 7</text>
</g>
<!-- Firmada_talento_stats&#45;&gt;Firmada_talento -->
<g id="edge28" class="edge"><title>Firmada_talento_stats&#45;&gt;Firmada_talento</title>
<path fill="none" stroke="black" stroke-dasharray="1,5" d="M127,-188.267C127,-176.067 127,-161.927 127,-149.545"/>
<polygon fill="black" stroke="black" points="130.5,-149.208 127,-139.208 123.5,-149.208 130.5,-149.208"/>
</g>
<!-- Firmada_direccion_stats -->
<g id="node30" class="node"><title>Firmada_direccion_stats</title>
<polygon fill="none" stroke="black" stroke-dasharray="5,2" points="583,-247.5 439,-247.5 439,-188.5 583,-188.5 583,-247.5"/>
<text text-anchor="start" x="447.5" y="-233.233" font-family="Times Roman,serif" font-size="14.00">Porcentaje: 0.00%</text>
<text text-anchor="start" x="456.5" y="-216.433" font-family="Times Roman,serif" font-size="14.00">Documentos: &#160;0</text>
<text text-anchor="start" x="485" y="-199.633" font-family="Times Roman,serif" font-size="14.00">Total: 7</text>
</g>
<!-- Firmada_direccion_stats&#45;&gt;Firmada_direccion -->
<g id="edge32" class="edge"><title>Firmada_direccion_stats&#45;&gt;Firmada_direccion</title>
<path fill="none" stroke="black" stroke-dasharray="1,5" d="M511,-188.267C511,-176.067 511,-161.927 511,-149.545"/>
<polygon fill="black" stroke="black" points="514.5,-149.208 511,-139.208 507.5,-149.208 514.5,-149.208"/>
</g>
<!-- Firmada_presidencia_stats -->
<g id="node33" class="node"><title>Firmada_presidencia_stats</title>
<polygon fill="none" stroke="black" stroke-dasharray="5,2" points="749,-247.5 605,-247.5 605,-188.5 749,-188.5 749,-247.5"/>
<text text-anchor="start" x="613.5" y="-233.233" font-family="Times Roman,serif" font-size="14.00">Porcentaje: 0.00%</text>
<text text-anchor="start" x="622.5" y="-216.433" font-family="Times Roman,serif" font-size="14.00">Documentos: &#160;0</text>
<text text-anchor="start" x="651" y="-199.633" font-family="Times Roman,serif" font-size="14.00">Total: 7</text>
</g>
<!-- Firmada_presidencia_stats&#45;&gt;Firmada_presidencia -->
<g id="edge36" class="edge"><title>Firmada_presidencia_stats&#45;&gt;Firmada_presidencia</title>
<path fill="none" stroke="black" stroke-dasharray="1,5" d="M677,-188.267C677,-176.067 677,-161.927 677,-149.545"/>
<polygon fill="black" stroke="black" points="680.5,-149.208 677,-139.208 673.5,-149.208 680.5,-149.208"/>
</g>
<!-- final_stats -->
<g id="node35" class="node"><title>final_stats</title>
<polygon fill="none" stroke="black" stroke-dasharray="5,2" points="949,-147.5 773,-147.5 773,-88.5 949,-88.5 949,-147.5"/>
<text text-anchor="start" x="793" y="-133.233" font-family="Times Roman,serif" font-size="14.00">Porcentaje: 40.00%</text>
<text text-anchor="start" x="806.5" y="-116.433" font-family="Times Roman,serif" font-size="14.00">Documentos: &#160;0</text>
<text text-anchor="start" x="781.5" y="-99.6333" font-family="Times Roman,serif" font-size="14.00">Total: 7Suma total: 0%</text>
</g>
<!-- final_stats&#45;&gt;final -->
<g id="edge38" class="edge"><title>final_stats&#45;&gt;final</title>
<path fill="none" stroke="black" stroke-dasharray="1,5" d="M772.746,-90.5819C769.797,-89.7051 766.876,-88.8423 764,-88 688.508,-65.8877 599.799,-41.7708 550.017,-28.4052"/>
<polygon fill="black" stroke="black" points="550.864,-25.0088 540.299,-25.8 549.052,-31.7701 550.864,-25.0088"/>
</g>
</g>
</svg>
