<?xml version="1.0" encoding="UTF-8" standalone="no"?>
<!DOCTYPE svg PUBLIC "-//W3C//DTD SVG 1.1//EN"
 "http://www.w3.org/Graphics/SVG/1.1/DTD/svg11.dtd">
<!-- Generated by graphviz version 2.26.3 (20100126.1600)
 -->
<!-- Title: G Pages: 1 -->
<svg width="895pt" height="716pt"
 viewBox="0.00 0.00 895.00 716.00" xmlns="http://www.w3.org/2000/svg" xmlns:xlink="http://www.w3.org/1999/xlink">
<g id="graph1" class="graph" transform="scale(1 1) rotate(0) translate(4 712)">
<title>G</title>
<polygon fill="white" stroke="white" points="-4,5 -4,-712 892,-712 892,5 -4,5"/>
<!-- Talento_humano -->
<g id="node1" class="node"><title>Talento_humano</title>
<polygon fill="#ffff00" stroke="black" points="836,-487 652,-487 652,-445 836,-445 836,-487"/>
<polygon fill="none" stroke="black" points="836,-487 652,-487 652,-445 836,-445 836,-487"/>
<text text-anchor="middle" x="744" y="-470.4" font-family="Helvetica,sans-Serif" font-size="14.00">Talento_humano</text>
<text text-anchor="middle" x="744" y="-453.4" font-family="Helvetica,sans-Serif" font-size="14.00">Planilla vista_vacaciones</text>
</g>
<!-- DireccionEjecutiva -->
<g id="node3" class="node"><title>DireccionEjecutiva</title>
<polygon fill="#ffff00" stroke="black" points="722,-375 538,-375 538,-333 722,-333 722,-375"/>
<polygon fill="none" stroke="black" points="722,-375 538,-375 538,-333 722,-333 722,-375"/>
<text text-anchor="middle" x="630" y="-358.4" font-family="Helvetica,sans-Serif" font-size="14.00">DireccionEjecutiva</text>
<text text-anchor="middle" x="630" y="-341.4" font-family="Helvetica,sans-Serif" font-size="14.00">Planilla vista_vacaciones</text>
</g>
<!-- Talento_humano&#45;&gt;DireccionEjecutiva -->
<g id="edge2" class="edge"><title>Talento_humano&#45;&gt;DireccionEjecutiva</title>
<path fill="none" stroke="black" d="M722.557,-444.934C704.599,-427.291 678.801,-401.945 659,-382.491"/>
<polygon fill="black" stroke="black" points="661.32,-379.864 651.734,-375.353 656.414,-384.858 661.32,-379.864"/>
</g>
<!-- Presidencia -->
<g id="node7" class="node"><title>Presidencia</title>
<polygon fill="#ffff00" stroke="#ffff00" points="433.5,-208.5 594.5,-208.5 606.5,-220.5 606.5,-263.5 594.5,-275.5 433.5,-275.5 421.5,-263.5 421.5,-220.5 433.5,-208.5"/>
<path fill="#ffff00" stroke="#ffff00" d="M594.5,-208.5C600.5,-208.5 606.5,-214.5 606.5,-220.5"/>
<path fill="#ffff00" stroke="#ffff00" d="M606.5,-263.5C606.5,-269.5 600.5,-275.5 594.5,-275.5"/>
<path fill="#ffff00" stroke="#ffff00" d="M433.5,-275.5C427.5,-275.5 421.5,-269.5 421.5,-263.5"/>
<path fill="#ffff00" stroke="#ffff00" d="M421.5,-220.5C421.5,-214.5 427.5,-208.5 433.5,-208.5"/>
<polyline fill="none" stroke="black" points="433.5,-208.5 594.5,-208.5 "/>
<path fill="none" stroke="black" d="M594.5,-208.5C600.5,-208.5 606.5,-214.5 606.5,-220.5"/>
<polyline fill="none" stroke="black" points="606.5,-220.5 606.5,-263.5 "/>
<path fill="none" stroke="black" d="M606.5,-263.5C606.5,-269.5 600.5,-275.5 594.5,-275.5"/>
<polyline fill="none" stroke="black" points="594.5,-275.5 433.5,-275.5 "/>
<path fill="none" stroke="black" d="M433.5,-275.5C427.5,-275.5 421.5,-269.5 421.5,-263.5"/>
<polyline fill="none" stroke="black" points="421.5,-263.5 421.5,-220.5 "/>
<path fill="none" stroke="black" d="M421.5,-220.5C421.5,-214.5 427.5,-208.5 433.5,-208.5"/>
<text text-anchor="middle" x="514" y="-258.9" font-family="Helvetica,sans-Serif" font-size="14.00">Presidencia</text>
<text text-anchor="middle" x="514" y="-241.9" font-family="Helvetica,sans-Serif" font-size="14.00">Planilla vista_vacaciones</text>
<polyline fill="none" stroke="black" points="421.5,-233.5 606.5,-233.5 "/>
<text text-anchor="middle" x="514" y="-216.9" font-family="Helvetica,sans-Serif" font-size="14.00">or</text>
</g>
<!-- DireccionEjecutiva&#45;&gt;Presidencia -->
<g id="edge6" class="edge"><title>DireccionEjecutiva&#45;&gt;Presidencia</title>
<path fill="none" stroke="black" d="M608.181,-332.934C593.595,-318.85 573.926,-299.859 556.335,-282.875"/>
<polygon fill="black" stroke="black" points="558.569,-280.167 548.944,-275.739 553.707,-285.203 558.569,-280.167"/>
</g>
<!-- Talento_humano_stats -->
<g id="node4" class="node"><title>Talento_humano_stats</title>
<polygon fill="none" stroke="black" stroke-dasharray="5,2" points="771,-616 529,-616 529,-540 771,-540 771,-616"/>
<text text-anchor="start" x="613" y="-601.733" font-family="Times Roman,serif" font-size="14.00">amedrano </text>
<text text-anchor="start" x="576" y="-584.933" font-family="Times Roman,serif" font-size="14.00">25/10/2013 09:11am</text>
<text text-anchor="start" x="537" y="-568.133" font-family="Times Roman,serif" font-size="14.00">hace 3 meses y 2 semanas &#160;llego</text>
<text text-anchor="start" x="639" y="-551.333" font-family="Times Roman,serif" font-size="14.00">n/a</text>
</g>
<!-- Talento_humano_stats&#45;&gt;Talento_humano -->
<g id="edge4" class="edge"><title>Talento_humano_stats&#45;&gt;Talento_humano</title>
<path fill="none" stroke="black" stroke-dasharray="1,5" d="M682.087,-539.769C694.446,-525.043 708.341,-508.487 719.832,-494.796"/>
<polygon fill="black" stroke="black" points="722.541,-497.012 726.289,-487.102 717.179,-492.512 722.541,-497.012"/>
</g>
<!-- Archivar_solicitud_procesada -->
<g id="node11" class="node"><title>Archivar_solicitud_procesada</title>
<polygon fill="#ffffff" stroke="black" points="356,-151 142,-151 142,-109 356,-109 356,-151"/>
<polygon fill="none" stroke="black" points="356,-151 142,-151 142,-109 356,-109 356,-151"/>
<text text-anchor="middle" x="249" y="-134.4" font-family="Helvetica,sans-Serif" font-size="14.00">Archivar_solicitud_procesada</text>
<text text-anchor="middle" x="249" y="-117.4" font-family="Helvetica,sans-Serif" font-size="14.00">solicitud_archivada</text>
</g>
<!-- Presidencia&#45;&gt;Archivar_solicitud_procesada -->
<g id="edge10" class="edge"><title>Presidencia&#45;&gt;Archivar_solicitud_procesada</title>
<path fill="none" stroke="black" d="M434.491,-208.396C393.874,-191.23 345.302,-170.701 308.052,-154.958"/>
<polygon fill="black" stroke="black" points="309.411,-151.732 298.837,-151.063 306.686,-158.18 309.411,-151.732"/>
</g>
<!-- Firmada_talento -->
<g id="node13" class="node"><title>Firmada_talento</title>
<polygon fill="#ffffff" stroke="black" points="502,-151 374,-151 374,-109 502,-109 502,-151"/>
<polygon fill="none" stroke="black" points="502,-151 374,-151 374,-109 502,-109 502,-151"/>
<text text-anchor="middle" x="438" y="-134.4" font-family="Helvetica,sans-Serif" font-size="14.00">Firmada_talento</text>
<text text-anchor="middle" x="438" y="-117.4" font-family="Helvetica,sans-Serif" font-size="14.00">firmada_EE</text>
</g>
<!-- Presidencia&#45;&gt;Firmada_talento -->
<g id="edge12" class="edge"><title>Presidencia&#45;&gt;Firmada_talento</title>
<path fill="none" stroke="black" d="M491.197,-208.396C480.671,-192.884 468.282,-174.626 458.109,-159.635"/>
<polygon fill="black" stroke="black" points="460.918,-157.54 452.407,-151.231 455.126,-161.471 460.918,-157.54"/>
</g>
<!-- Firmada_direccion -->
<g id="node15" class="node"><title>Firmada_direccion</title>
<polygon fill="#ffffff" stroke="black" points="660,-151 520,-151 520,-109 660,-109 660,-151"/>
<polygon fill="none" stroke="black" points="660,-151 520,-151 520,-109 660,-109 660,-151"/>
<text text-anchor="middle" x="590" y="-134.4" font-family="Helvetica,sans-Serif" font-size="14.00">Firmada_direccion</text>
<text text-anchor="middle" x="590" y="-117.4" font-family="Helvetica,sans-Serif" font-size="14.00">firmada_YV</text>
</g>
<!-- Presidencia&#45;&gt;Firmada_direccion -->
<g id="edge14" class="edge"><title>Presidencia&#45;&gt;Firmada_direccion</title>
<path fill="none" stroke="black" d="M536.803,-208.396C547.329,-192.884 559.718,-174.626 569.891,-159.635"/>
<polygon fill="black" stroke="black" points="572.874,-161.471 575.593,-151.231 567.082,-157.54 572.874,-161.471"/>
</g>
<!-- Firmada_presidencia -->
<g id="node17" class="node"><title>Firmada_presidencia</title>
<polygon fill="#ffffff" stroke="black" points="834,-151 678,-151 678,-109 834,-109 834,-151"/>
<polygon fill="none" stroke="black" points="834,-151 678,-151 678,-109 834,-109 834,-151"/>
<text text-anchor="middle" x="756" y="-134.4" font-family="Helvetica,sans-Serif" font-size="14.00">Firmada_presidencia</text>
<text text-anchor="middle" x="756" y="-117.4" font-family="Helvetica,sans-Serif" font-size="14.00">firmada_JJ</text>
</g>
<!-- Presidencia&#45;&gt;Firmada_presidencia -->
<g id="edge16" class="edge"><title>Presidencia&#45;&gt;Firmada_presidencia</title>
<path fill="none" stroke="black" d="M586.608,-208.396C623.386,-191.375 667.305,-171.049 701.206,-155.359"/>
<polygon fill="black" stroke="black" points="702.883,-158.44 710.488,-151.063 699.943,-152.087 702.883,-158.44"/>
</g>
<!-- DireccionEjecutiva_stats -->
<g id="node8" class="node"><title>DireccionEjecutiva_stats</title>
<polygon fill="none" stroke="black" stroke-dasharray="5,2" points="634,-504 398,-504 398,-428 634,-428 634,-504"/>
<text text-anchor="start" x="491.5" y="-489.733" font-family="Times Roman,serif" font-size="14.00">emora </text>
<text text-anchor="start" x="442" y="-472.933" font-family="Times Roman,serif" font-size="14.00">04/11/2013 11:54am</text>
<text text-anchor="start" x="451" y="-456.133" font-family="Times Roman,serif" font-size="14.00">hace 3 meses llego</text>
<text text-anchor="start" x="406.5" y="-439.333" font-family="Times Roman,serif" font-size="14.00">una semana y 3 dias &#160;en espera</text>
</g>
<!-- DireccionEjecutiva_stats&#45;&gt;DireccionEjecutiva -->
<g id="edge8" class="edge"><title>DireccionEjecutiva_stats&#45;&gt;DireccionEjecutiva</title>
<path fill="none" stroke="black" stroke-dasharray="1,5" d="M554.913,-427.769C570.043,-412.905 587.07,-396.177 601.079,-382.413"/>
<polygon fill="black" stroke="black" points="603.84,-384.607 608.521,-375.102 598.935,-379.614 603.84,-384.607"/>
</g>
<!-- final -->
<g id="node21" class="node"><title>final</title>
<ellipse fill="#ffffff" stroke="black" cx="438" cy="-18" rx="31.9646" ry="18"/>
<ellipse fill="none" stroke="black" cx="438" cy="-18" rx="31.9646" ry="18"/>
<text text-anchor="middle" x="438" y="-13.9" font-family="Times Roman,serif" font-size="14.00">final</text>
</g>
<!-- Archivar_solicitud_procesada&#45;&gt;final -->
<g id="edge20" class="edge"><title>Archivar_solicitud_procesada&#45;&gt;final</title>
<path fill="none" stroke="black" d="M284.549,-108.934C319.834,-88.0242 373.375,-56.2961 406.985,-36.3792"/>
<polygon fill="black" stroke="black" points="409.086,-39.2028 415.904,-31.0937 405.517,-33.1807 409.086,-39.2028"/>
</g>
<!-- Firmada_talento&#45;&gt;final -->
<g id="edge26" class="edge"><title>Firmada_talento&#45;&gt;final</title>
<path fill="none" stroke="black" d="M438,-108.934C438,-91.1831 438,-65.6359 438,-46.1368"/>
<polygon fill="black" stroke="black" points="441.5,-46.0141 438,-36.0142 434.5,-46.0142 441.5,-46.0141"/>
</g>
<!-- Firmada_direccion&#45;&gt;final -->
<g id="edge22" class="edge"><title>Firmada_direccion&#45;&gt;final</title>
<path fill="none" stroke="black" d="M561.41,-108.934C534.095,-88.8069 493.176,-58.6562 466.044,-38.6642"/>
<polygon fill="black" stroke="black" points="467.881,-35.6702 457.754,-32.5559 463.729,-41.3056 467.881,-35.6702"/>
</g>
<!-- Firmada_presidencia&#45;&gt;final -->
<g id="edge24" class="edge"><title>Firmada_presidencia&#45;&gt;final</title>
<path fill="none" stroke="black" d="M696.187,-108.934C631.147,-86.0267 529.241,-50.1352 474.951,-31.0142"/>
<polygon fill="black" stroke="black" points="475.983,-27.6668 465.388,-27.646 473.657,-34.2693 475.983,-27.6668"/>
</g>
<!-- Presidencia_stats -->
<g id="node18" class="node"><title>Presidencia_stats</title>
<polygon fill="none" stroke="black" stroke-dasharray="5,2" points="520,-392 278,-392 278,-316 520,-316 520,-392"/>
<text text-anchor="start" x="375" y="-377.733" font-family="Times Roman,serif" font-size="14.00">yverdi </text>
<text text-anchor="start" x="325" y="-360.933" font-family="Times Roman,serif" font-size="14.00">14/11/2013 02:25pm</text>
<text text-anchor="start" x="286" y="-344.133" font-family="Times Roman,serif" font-size="14.00">hace 2 meses y 3 semanas &#160;llego</text>
<text text-anchor="start" x="289.5" y="-327.333" font-family="Times Roman,serif" font-size="14.00">una semana y 3 dias &#160;en espera</text>
</g>
<!-- Presidencia_stats&#45;&gt;Presidencia -->
<g id="edge18" class="edge"><title>Presidencia_stats&#45;&gt;Presidencia</title>
<path fill="none" stroke="black" stroke-dasharray="1,5" d="M438.255,-315.769C449.25,-305.061 461.239,-293.385 472.367,-282.547"/>
<polygon fill="black" stroke="black" points="474.814,-285.049 479.536,-275.565 469.931,-280.034 474.814,-285.049"/>
</g>
<!-- Por_usuario -->
<g id="node25" class="node"><title>Por_usuario</title>
<polygon fill="#ffff00" stroke="black" points="887,-599 789,-599 789,-557 887,-557 887,-599"/>
<polygon fill="none" stroke="black" points="887,-599 789,-599 789,-557 887,-557 887,-599"/>
<text text-anchor="middle" x="838" y="-582.4" font-family="Helvetica,sans-Serif" font-size="14.00">Por_usuario</text>
<text text-anchor="middle" x="838" y="-565.4" font-family="Helvetica,sans-Serif" font-size="14.00">todas</text>
</g>
<!-- Por_usuario&#45;&gt;Talento_humano -->
<g id="edge28" class="edge"><title>Por_usuario&#45;&gt;Talento_humano</title>
<path fill="none" stroke="black" d="M820.319,-556.934C805.707,-539.524 784.801,-514.613 768.562,-495.266"/>
<polygon fill="black" stroke="black" points="771.031,-492.762 761.921,-487.353 765.669,-497.263 771.031,-492.762"/>
</g>
<!-- inicial -->
<g id="node27" class="node"><title>inicial</title>
<ellipse fill="#ffffff" stroke="black" cx="838" cy="-690" rx="38.9134" ry="18"/>
<ellipse fill="none" stroke="black" cx="838" cy="-690" rx="38.9134" ry="18"/>
<text text-anchor="middle" x="838" y="-685.9" font-family="Times Roman,serif" font-size="14.00">inicial</text>
</g>
<!-- inicial&#45;&gt;Por_usuario -->
<g id="edge30" class="edge"><title>inicial&#45;&gt;Por_usuario</title>
<path fill="none" stroke="black" d="M838,-671.505C838,-654.652 838,-629.412 838,-609.401"/>
<polygon fill="black" stroke="black" points="841.5,-609.198 838,-599.198 834.5,-609.198 841.5,-609.198"/>
</g>
<!-- final_stats -->
<g id="node29" class="node"><title>final_stats</title>
<polygon fill="none" stroke="black" stroke-dasharray="5,2" points="124,-151 4.9738e-14,-151 0,-109 124,-109 124,-151"/>
<text text-anchor="start" x="8" y="-136.733" font-family="Times Roman,serif" font-size="14.00">Suma total: 0%</text>
<text text-anchor="start" x="57" y="-119.933" font-family="Times Roman,serif" font-size="14.00"> &#160;</text>
</g>
<!-- final_stats&#45;&gt;final -->
<g id="edge32" class="edge"><title>final_stats&#45;&gt;final</title>
<path fill="none" stroke="black" stroke-dasharray="1,5" d="M124.089,-111.505C202.493,-88.151 334.971,-48.6896 399.865,-29.3594"/>
<polygon fill="black" stroke="black" points="401.096,-32.6446 409.681,-26.4354 399.098,-25.9359 401.096,-32.6446"/>
</g>
</g>
</svg>
