<?xml version="1.0" encoding="UTF-8" standalone="no"?>
<!DOCTYPE svg PUBLIC "-//W3C//DTD SVG 1.1//EN"
 "http://www.w3.org/Graphics/SVG/1.1/DTD/svg11.dtd">
<!-- Generated by graphviz version 2.26.3 (20100126.1600)
 -->
<!-- Title: G Pages: 1 -->
<svg width="866pt" height="716pt"
 viewBox="0.00 0.00 866.00 716.00" xmlns="http://www.w3.org/2000/svg" xmlns:xlink="http://www.w3.org/1999/xlink">
<g id="graph1" class="graph" transform="scale(1 1) rotate(0) translate(4 712)">
<title>G</title>
<polygon fill="white" stroke="white" points="-4,5 -4,-712 863,-712 863,5 -4,5"/>
<!-- Talento_humano -->
<g id="node1" class="node"><title>Talento_humano</title>
<polygon fill="#ffff00" stroke="black" points="827,-487 643,-487 643,-445 827,-445 827,-487"/>
<polygon fill="none" stroke="black" points="827,-487 643,-487 643,-445 827,-445 827,-487"/>
<text text-anchor="middle" x="735" y="-470.4" font-family="Helvetica,sans-Serif" font-size="14.00">Talento_humano</text>
<text text-anchor="middle" x="735" y="-453.4" font-family="Helvetica,sans-Serif" font-size="14.00">Planilla vista_vacaciones</text>
</g>
<!-- DireccionEjecutiva -->
<g id="node3" class="node"><title>DireccionEjecutiva</title>
<polygon fill="#ffff00" stroke="black" points="714,-375 530,-375 530,-333 714,-333 714,-375"/>
<polygon fill="none" stroke="black" points="714,-375 530,-375 530,-333 714,-333 714,-375"/>
<text text-anchor="middle" x="622" y="-358.4" font-family="Helvetica,sans-Serif" font-size="14.00">DireccionEjecutiva</text>
<text text-anchor="middle" x="622" y="-341.4" font-family="Helvetica,sans-Serif" font-size="14.00">Planilla vista_vacaciones</text>
</g>
<!-- Talento_humano&#45;&gt;DireccionEjecutiva -->
<g id="edge2" class="edge"><title>Talento_humano&#45;&gt;DireccionEjecutiva</title>
<path fill="none" stroke="black" d="M713.746,-444.934C695.945,-427.291 670.373,-401.945 650.746,-382.491"/>
<polygon fill="black" stroke="black" points="653.11,-379.906 643.543,-375.353 648.182,-384.878 653.11,-379.906"/>
</g>
<!-- Presidencia -->
<g id="node7" class="node"><title>Presidencia</title>
<polygon fill="#ffff00" stroke="#ffff00" points="440,-208.5 612,-208.5 624,-220.5 624,-263.5 612,-275.5 440,-275.5 428,-263.5 428,-220.5 440,-208.5"/>
<path fill="#ffff00" stroke="#ffff00" d="M612,-208.5C618,-208.5 624,-214.5 624,-220.5"/>
<path fill="#ffff00" stroke="#ffff00" d="M624,-263.5C624,-269.5 618,-275.5 612,-275.5"/>
<path fill="#ffff00" stroke="#ffff00" d="M440,-275.5C434,-275.5 428,-269.5 428,-263.5"/>
<path fill="#ffff00" stroke="#ffff00" d="M428,-220.5C428,-214.5 434,-208.5 440,-208.5"/>
<polyline fill="none" stroke="black" points="440,-208.5 612,-208.5 "/>
<path fill="none" stroke="black" d="M612,-208.5C618,-208.5 624,-214.5 624,-220.5"/>
<polyline fill="none" stroke="black" points="624,-220.5 624,-263.5 "/>
<path fill="none" stroke="black" d="M624,-263.5C624,-269.5 618,-275.5 612,-275.5"/>
<polyline fill="none" stroke="black" points="612,-275.5 440,-275.5 "/>
<path fill="none" stroke="black" d="M440,-275.5C434,-275.5 428,-269.5 428,-263.5"/>
<polyline fill="none" stroke="black" points="428,-263.5 428,-220.5 "/>
<path fill="none" stroke="black" d="M428,-220.5C428,-214.5 434,-208.5 440,-208.5"/>
<text text-anchor="middle" x="526" y="-258.9" font-family="Helvetica,sans-Serif" font-size="14.00">Presidencia</text>
<text text-anchor="middle" x="526" y="-241.9" font-family="Helvetica,sans-Serif" font-size="14.00">Aprobacion del Presidente</text>
<polyline fill="none" stroke="black" points="428,-233.5 624,-233.5 "/>
<text text-anchor="middle" x="526" y="-216.9" font-family="Helvetica,sans-Serif" font-size="14.00">or</text>
</g>
<!-- DireccionEjecutiva&#45;&gt;Presidencia -->
<g id="edge6" class="edge"><title>DireccionEjecutiva&#45;&gt;Presidencia</title>
<path fill="none" stroke="black" d="M603.943,-332.934C592.087,-319.102 576.174,-300.536 561.817,-283.787"/>
<polygon fill="black" stroke="black" points="564.084,-281.054 554.919,-275.739 558.77,-285.609 564.084,-281.054"/>
</g>
<!-- Talento_humano_stats -->
<g id="node4" class="node"><title>Talento_humano_stats</title>
<polygon fill="none" stroke="black" stroke-dasharray="5,2" points="742,-616 578,-616 578,-540 742,-540 742,-616"/>
<text text-anchor="start" x="626.5" y="-601.733" font-family="Times Roman,serif" font-size="14.00">eparedes </text>
<text text-anchor="start" x="586" y="-584.933" font-family="Times Roman,serif" font-size="14.00">11/11/2013 02:46pm</text>
<text text-anchor="start" x="595" y="-568.133" font-family="Times Roman,serif" font-size="14.00">hace 3 meses llego</text>
<text text-anchor="start" x="649" y="-551.333" font-family="Times Roman,serif" font-size="14.00">n/a</text>
</g>
<!-- Talento_humano_stats&#45;&gt;Talento_humano -->
<g id="edge4" class="edge"><title>Talento_humano_stats&#45;&gt;Talento_humano</title>
<path fill="none" stroke="black" stroke-dasharray="1,5" d="M685.601,-539.769C695.278,-525.318 706.135,-509.105 715.201,-495.567"/>
<polygon fill="black" stroke="black" points="718.213,-497.359 720.869,-487.102 712.397,-493.464 718.213,-497.359"/>
</g>
<!-- Archivar_solicitud_procesada -->
<g id="node11" class="node"><title>Archivar_solicitud_procesada</title>
<polygon fill="#ffffff" stroke="black" points="539,-151 325,-151 325,-109 539,-109 539,-151"/>
<polygon fill="none" stroke="black" points="539,-151 325,-151 325,-109 539,-109 539,-151"/>
<text text-anchor="middle" x="432" y="-134.4" font-family="Helvetica,sans-Serif" font-size="14.00">Archivar_solicitud_procesada</text>
<text text-anchor="middle" x="432" y="-117.4" font-family="Helvetica,sans-Serif" font-size="14.00">solicitud_archivada</text>
</g>
<!-- Presidencia&#45;&gt;Archivar_solicitud_procesada -->
<g id="edge10" class="edge"><title>Presidencia&#45;&gt;Archivar_solicitud_procesada</title>
<path fill="none" stroke="black" d="M497.797,-208.396C484.656,-192.739 469.167,-174.285 456.52,-159.215"/>
<polygon fill="black" stroke="black" points="458.929,-156.641 449.819,-151.231 453.567,-161.141 458.929,-156.641"/>
</g>
<!-- Firmada_talento -->
<g id="node13" class="node"><title>Firmada_talento</title>
<polygon fill="#ffffff" stroke="black" points="685,-151 557,-151 557,-109 685,-109 685,-151"/>
<polygon fill="none" stroke="black" points="685,-151 557,-151 557,-109 685,-109 685,-151"/>
<text text-anchor="middle" x="621" y="-134.4" font-family="Helvetica,sans-Serif" font-size="14.00">Firmada_talento</text>
<text text-anchor="middle" x="621" y="-117.4" font-family="Helvetica,sans-Serif" font-size="14.00">firmada_EE</text>
</g>
<!-- Presidencia&#45;&gt;Firmada_talento -->
<g id="edge12" class="edge"><title>Presidencia&#45;&gt;Firmada_talento</title>
<path fill="none" stroke="black" d="M554.503,-208.396C567.784,-192.739 583.437,-174.285 596.219,-159.215"/>
<polygon fill="black" stroke="black" points="599.192,-161.121 602.992,-151.231 593.854,-156.593 599.192,-161.121"/>
</g>
<!-- Firmada_direccion -->
<g id="node15" class="node"><title>Firmada_direccion</title>
<polygon fill="#ffff00" stroke="black" points="843,-151 703,-151 703,-109 843,-109 843,-151"/>
<polygon fill="none" stroke="black" points="843,-151 703,-151 703,-109 843,-109 843,-151"/>
<text text-anchor="middle" x="773" y="-134.4" font-family="Helvetica,sans-Serif" font-size="14.00">Firmada_direccion</text>
<text text-anchor="middle" x="773" y="-117.4" font-family="Helvetica,sans-Serif" font-size="14.00">firmada_YV</text>
</g>
<!-- Presidencia&#45;&gt;Firmada_direccion -->
<g id="edge14" class="edge"><title>Presidencia&#45;&gt;Firmada_direccion</title>
<path fill="none" stroke="black" d="M600.108,-208.396C637.646,-191.375 682.473,-171.049 717.074,-155.359"/>
<polygon fill="black" stroke="black" points="718.886,-158.381 726.548,-151.063 715.995,-152.005 718.886,-158.381"/>
</g>
<!-- Firmada_presidencia -->
<g id="node17" class="node"><title>Firmada_presidencia</title>
<polygon fill="#ffff00" stroke="black" points="165,-151 9,-151 9,-109 165,-109 165,-151"/>
<polygon fill="none" stroke="black" points="165,-151 9,-151 9,-109 165,-109 165,-151"/>
<text text-anchor="middle" x="87" y="-134.4" font-family="Helvetica,sans-Serif" font-size="14.00">Firmada_presidencia</text>
<text text-anchor="middle" x="87" y="-117.4" font-family="Helvetica,sans-Serif" font-size="14.00">firmada_JJ</text>
</g>
<!-- Presidencia&#45;&gt;Firmada_presidencia -->
<g id="edge16" class="edge"><title>Presidencia&#45;&gt;Firmada_presidencia</title>
<path fill="none" stroke="black" d="M427.753,-216.935C352.076,-197.627 248.376,-171.171 175.31,-152.53"/>
<polygon fill="black" stroke="black" points="175.765,-149.034 165.21,-149.953 174.034,-155.817 175.765,-149.034"/>
</g>
<!-- DireccionEjecutiva_stats -->
<g id="node8" class="node"><title>DireccionEjecutiva_stats</title>
<polygon fill="none" stroke="black" stroke-dasharray="5,2" points="625,-504 393,-504 393,-428 625,-428 625,-504"/>
<text text-anchor="start" x="484.5" y="-489.733" font-family="Times Roman,serif" font-size="14.00">emora </text>
<text text-anchor="start" x="435" y="-472.933" font-family="Times Roman,serif" font-size="14.00">11/11/2013 05:48pm</text>
<text text-anchor="start" x="444" y="-456.133" font-family="Times Roman,serif" font-size="14.00">hace 3 meses llego</text>
<text text-anchor="start" x="401.5" y="-439.333" font-family="Times Roman,serif" font-size="14.00">3 horas y 2 minutos &#160;en espera</text>
</g>
<!-- DireccionEjecutiva_stats&#45;&gt;DireccionEjecutiva -->
<g id="edge8" class="edge"><title>DireccionEjecutiva_stats&#45;&gt;DireccionEjecutiva</title>
<path fill="none" stroke="black" stroke-dasharray="1,5" d="M547.572,-427.769C562.569,-412.905 579.446,-396.177 593.333,-382.413"/>
<polygon fill="black" stroke="black" points="596.071,-384.628 600.709,-375.102 591.143,-379.656 596.071,-384.628"/>
</g>
<!-- final -->
<g id="node21" class="node"><title>final</title>
<ellipse fill="#ffffff" stroke="black" cx="432" cy="-18" rx="31.9646" ry="18"/>
<ellipse fill="none" stroke="black" cx="432" cy="-18" rx="31.9646" ry="18"/>
<text text-anchor="middle" x="432" y="-13.9" font-family="Times Roman,serif" font-size="14.00">final</text>
</g>
<!-- Archivar_solicitud_procesada&#45;&gt;final -->
<g id="edge24" class="edge"><title>Archivar_solicitud_procesada&#45;&gt;final</title>
<path fill="none" stroke="black" d="M432,-108.934C432,-91.1831 432,-65.6359 432,-46.1368"/>
<polygon fill="black" stroke="black" points="435.5,-46.0141 432,-36.0142 428.5,-46.0142 435.5,-46.0141"/>
</g>
<!-- Firmada_talento&#45;&gt;final -->
<g id="edge28" class="edge"><title>Firmada_talento&#45;&gt;final</title>
<path fill="none" stroke="black" d="M585.451,-108.934C550.166,-88.0242 496.625,-56.2961 463.015,-36.3792"/>
<polygon fill="black" stroke="black" points="464.483,-33.1807 454.096,-31.0937 460.914,-39.2028 464.483,-33.1807"/>
</g>
<!-- Firmada_direccion&#45;&gt;final -->
<g id="edge26" class="edge"><title>Firmada_direccion&#45;&gt;final</title>
<path fill="none" stroke="black" d="M708.861,-108.934C638.244,-85.74 527.099,-49.235 469.462,-30.3044"/>
<polygon fill="black" stroke="black" points="470.273,-26.8866 459.68,-27.0913 468.088,-33.537 470.273,-26.8866"/>
</g>
<!-- Firmada_presidencia&#45;&gt;final -->
<g id="edge20" class="edge"><title>Firmada_presidencia&#45;&gt;final</title>
<path fill="none" stroke="black" d="M151.892,-108.934C223.484,-85.692 336.251,-49.0837 394.46,-30.187"/>
<polygon fill="black" stroke="black" points="395.565,-33.5081 403.996,-27.0913 393.404,-26.8501 395.565,-33.5081"/>
</g>
<!-- Presidencia_stats -->
<g id="node18" class="node"><title>Presidencia_stats</title>
<polygon fill="none" stroke="black" stroke-dasharray="5,2" points="512,-392 348,-392 348,-316 512,-316 512,-392"/>
<text text-anchor="start" x="406" y="-377.733" font-family="Times Roman,serif" font-size="14.00">yverdi </text>
<text text-anchor="start" x="356" y="-360.933" font-family="Times Roman,serif" font-size="14.00">15/11/2013 05:57pm</text>
<text text-anchor="start" x="365" y="-344.133" font-family="Times Roman,serif" font-size="14.00">hace 3 meses llego</text>
<text text-anchor="start" x="373.5" y="-327.333" font-family="Times Roman,serif" font-size="14.00">4 dias en espera</text>
</g>
<!-- Presidencia_stats&#45;&gt;Presidencia -->
<g id="edge18" class="edge"><title>Presidencia_stats&#45;&gt;Presidencia</title>
<path fill="none" stroke="black" stroke-dasharray="1,5" d="M462.769,-315.769C471.773,-305.265 481.575,-293.829 490.714,-283.167"/>
<polygon fill="black" stroke="black" points="493.38,-285.435 497.23,-275.565 488.065,-280.879 493.38,-285.435"/>
</g>
<!-- Firmada_presidencia_stats -->
<g id="node22" class="node"><title>Firmada_presidencia_stats</title>
<polygon fill="none" stroke="black" stroke-dasharray="5,2" points="174,-280 8.52651e-14,-280 0,-204 174,-204 174,-280"/>
<text text-anchor="start" x="43" y="-265.733" font-family="Times Roman,serif" font-size="14.00">Victor Rafael</text>
<text text-anchor="start" x="13" y="-248.933" font-family="Times Roman,serif" font-size="14.00">10/02/2014 10:59am</text>
<text text-anchor="start" x="8.5" y="-232.133" font-family="Times Roman,serif" font-size="14.00">hace 14 minutos &#160;llego</text>
<text text-anchor="start" x="22.5" y="-215.333" font-family="Times Roman,serif" font-size="14.00">3 meses en espera</text>
</g>
<!-- Firmada_presidencia_stats&#45;&gt;Firmada_presidencia -->
<g id="edge22" class="edge"><title>Firmada_presidencia_stats&#45;&gt;Firmada_presidencia</title>
<path fill="none" stroke="black" stroke-dasharray="1,5" d="M87,-203.769C87,-189.868 87,-174.338 87,-161.126"/>
<polygon fill="black" stroke="black" points="90.5001,-161.102 87,-151.102 83.5001,-161.102 90.5001,-161.102"/>
</g>
<!-- Por_usuario -->
<g id="node27" class="node"><title>Por_usuario</title>
<polygon fill="#ffff00" stroke="black" points="858,-599 760,-599 760,-557 858,-557 858,-599"/>
<polygon fill="none" stroke="black" points="858,-599 760,-599 760,-557 858,-557 858,-599"/>
<text text-anchor="middle" x="809" y="-582.4" font-family="Helvetica,sans-Serif" font-size="14.00">Por_usuario</text>
<text text-anchor="middle" x="809" y="-565.4" font-family="Helvetica,sans-Serif" font-size="14.00">todas</text>
</g>
<!-- Por_usuario&#45;&gt;Talento_humano -->
<g id="edge30" class="edge"><title>Por_usuario&#45;&gt;Talento_humano</title>
<path fill="none" stroke="black" d="M795.081,-556.934C783.681,-539.679 767.413,-515.058 754.68,-495.785"/>
<polygon fill="black" stroke="black" points="757.541,-493.767 749.108,-487.353 751.7,-497.625 757.541,-493.767"/>
</g>
<!-- inicial -->
<g id="node29" class="node"><title>inicial</title>
<ellipse fill="#ffffff" stroke="black" cx="809" cy="-690" rx="38.9134" ry="18"/>
<ellipse fill="none" stroke="black" cx="809" cy="-690" rx="38.9134" ry="18"/>
<text text-anchor="middle" x="809" y="-685.9" font-family="Times Roman,serif" font-size="14.00">inicial</text>
</g>
<!-- inicial&#45;&gt;Por_usuario -->
<g id="edge32" class="edge"><title>inicial&#45;&gt;Por_usuario</title>
<path fill="none" stroke="black" d="M809,-671.505C809,-654.652 809,-629.412 809,-609.401"/>
<polygon fill="black" stroke="black" points="812.5,-609.198 809,-599.198 805.5,-609.198 812.5,-609.198"/>
</g>
<!-- final_stats -->
<g id="node31" class="node"><title>final_stats</title>
<polygon fill="none" stroke="black" stroke-dasharray="5,2" points="307,-151 183,-151 183,-109 307,-109 307,-151"/>
<text text-anchor="start" x="191" y="-136.733" font-family="Times Roman,serif" font-size="14.00">Suma total: 0%</text>
<text text-anchor="start" x="240" y="-119.933" font-family="Times Roman,serif" font-size="14.00"> &#160;</text>
</g>
<!-- final_stats&#45;&gt;final -->
<g id="edge34" class="edge"><title>final_stats&#45;&gt;final</title>
<path fill="none" stroke="black" stroke-dasharray="1,5" d="M280.173,-108.934C314.988,-88.0821 367.766,-56.4718 401.036,-36.545"/>
<polygon fill="black" stroke="black" points="403.091,-39.394 409.872,-31.2531 399.495,-33.3887 403.091,-39.394"/>
</g>
</g>
</svg>
