<?xml version="1.0" encoding="UTF-8" standalone="no"?>
<!DOCTYPE svg PUBLIC "-//W3C//DTD SVG 1.1//EN"
 "http://www.w3.org/Graphics/SVG/1.1/DTD/svg11.dtd">
<!-- Generated by graphviz version 2.26.3 (20100126.1600)
 -->
<!-- Title: G Pages: 1 -->
<svg width="842pt" height="590pt"
 viewBox="0.00 0.00 842.00 590.00" xmlns="http://www.w3.org/2000/svg" xmlns:xlink="http://www.w3.org/1999/xlink">
<g id="graph1" class="graph" transform="scale(1 1) rotate(0) translate(4 586)">
<title>G</title>
<polygon fill="white" stroke="white" points="-4,5 -4,-586 839,-586 839,5 -4,5"/>
<!-- Archivar_solicitud_procesada -->
<g id="node1" class="node"><title>Archivar_solicitud_procesada</title>
<polygon fill="#ffffff" stroke="black" points="214,-130 8.52651e-14,-130 0,-88 214,-88 214,-130"/>
<polygon fill="none" stroke="black" points="214,-130 8.52651e-14,-130 0,-88 214,-88 214,-130"/>
<text text-anchor="middle" x="107" y="-113.4" font-family="Helvetica,sans-Serif" font-size="14.00">Archivar_solicitud_procesada</text>
<text text-anchor="middle" x="107" y="-96.4" font-family="Helvetica,sans-Serif" font-size="14.00">solicitud_archivada</text>
</g>
<!-- final -->
<g id="node3" class="node"><title>final</title>
<ellipse fill="#ffffff" stroke="black" cx="468" cy="-18" rx="31.9646" ry="18"/>
<ellipse fill="none" stroke="black" cx="468" cy="-18" rx="31.9646" ry="18"/>
<text text-anchor="middle" x="468" y="-13.9" font-family="Times Roman,serif" font-size="14.00">final</text>
</g>
<!-- Archivar_solicitud_procesada&#45;&gt;final -->
<g id="edge2" class="edge"><title>Archivar_solicitud_procesada&#45;&gt;final</title>
<path fill="none" stroke="black" d="M190.728,-87.894C265.436,-69.0619 371.545,-42.3143 428.396,-27.9833"/>
<polygon fill="black" stroke="black" points="429.578,-31.2948 438.42,-25.4566 427.867,-24.5071 429.578,-31.2948"/>
</g>
<!-- DireccionEjecutiva -->
<g id="node4" class="node"><title>DireccionEjecutiva</title>
<polygon fill="#ffffff" stroke="black" points="477,-312 293,-312 293,-270 477,-270 477,-312"/>
<polygon fill="none" stroke="black" points="477,-312 293,-312 293,-270 477,-270 477,-312"/>
<text text-anchor="middle" x="385" y="-295.4" font-family="Helvetica,sans-Serif" font-size="14.00">DireccionEjecutiva</text>
<text text-anchor="middle" x="385" y="-278.4" font-family="Helvetica,sans-Serif" font-size="14.00">Planilla vista_vacaciones</text>
</g>
<!-- Presidencia -->
<g id="node6" class="node"><title>Presidencia</title>
<polygon fill="#ffffff" stroke="#ffffff" points="304.5,-166.5 465.5,-166.5 477.5,-178.5 477.5,-221.5 465.5,-233.5 304.5,-233.5 292.5,-221.5 292.5,-178.5 304.5,-166.5"/>
<path fill="#ffffff" stroke="#ffffff" d="M465.5,-166.5C471.5,-166.5 477.5,-172.5 477.5,-178.5"/>
<path fill="#ffffff" stroke="#ffffff" d="M477.5,-221.5C477.5,-227.5 471.5,-233.5 465.5,-233.5"/>
<path fill="#ffffff" stroke="#ffffff" d="M304.5,-233.5C298.5,-233.5 292.5,-227.5 292.5,-221.5"/>
<path fill="#ffffff" stroke="#ffffff" d="M292.5,-178.5C292.5,-172.5 298.5,-166.5 304.5,-166.5"/>
<polyline fill="none" stroke="black" points="304.5,-166.5 465.5,-166.5 "/>
<path fill="none" stroke="black" d="M465.5,-166.5C471.5,-166.5 477.5,-172.5 477.5,-178.5"/>
<polyline fill="none" stroke="black" points="477.5,-178.5 477.5,-221.5 "/>
<path fill="none" stroke="black" d="M477.5,-221.5C477.5,-227.5 471.5,-233.5 465.5,-233.5"/>
<polyline fill="none" stroke="black" points="465.5,-233.5 304.5,-233.5 "/>
<path fill="none" stroke="black" d="M304.5,-233.5C298.5,-233.5 292.5,-227.5 292.5,-221.5"/>
<polyline fill="none" stroke="black" points="292.5,-221.5 292.5,-178.5 "/>
<path fill="none" stroke="black" d="M292.5,-178.5C292.5,-172.5 298.5,-166.5 304.5,-166.5"/>
<text text-anchor="middle" x="385" y="-216.9" font-family="Helvetica,sans-Serif" font-size="14.00">Presidencia</text>
<text text-anchor="middle" x="385" y="-199.9" font-family="Helvetica,sans-Serif" font-size="14.00">Planilla vista_vacaciones</text>
<polyline fill="none" stroke="black" points="292.5,-191.5 477.5,-191.5 "/>
<text text-anchor="middle" x="385" y="-174.9" font-family="Helvetica,sans-Serif" font-size="14.00">or</text>
</g>
<!-- DireccionEjecutiva&#45;&gt;Presidencia -->
<g id="edge4" class="edge"><title>DireccionEjecutiva&#45;&gt;Presidencia</title>
<path fill="none" stroke="black" d="M385,-269.894C385,-262.112 385,-252.978 385,-243.927"/>
<polygon fill="black" stroke="black" points="388.5,-243.82 385,-233.82 381.5,-243.82 388.5,-243.82"/>
</g>
<!-- Presidencia&#45;&gt;Archivar_solicitud_procesada -->
<g id="edge14" class="edge"><title>Presidencia&#45;&gt;Archivar_solicitud_procesada</title>
<path fill="none" stroke="black" d="M292.43,-169.698C256.346,-157.887 215.547,-144.531 181.423,-133.362"/>
<polygon fill="black" stroke="black" points="182.117,-129.906 171.524,-130.121 179.939,-136.559 182.117,-129.906"/>
</g>
<!-- Firmada_direccion -->
<g id="node7" class="node"><title>Firmada_direccion</title>
<polygon fill="#ffffff" stroke="black" points="372,-130 232,-130 232,-88 372,-88 372,-130"/>
<polygon fill="none" stroke="black" points="372,-130 232,-130 232,-88 372,-88 372,-130"/>
<text text-anchor="middle" x="302" y="-113.4" font-family="Helvetica,sans-Serif" font-size="14.00">Firmada_direccion</text>
<text text-anchor="middle" x="302" y="-96.4" font-family="Helvetica,sans-Serif" font-size="14.00">firmada_YV</text>
</g>
<!-- Presidencia&#45;&gt;Firmada_direccion -->
<g id="edge18" class="edge"><title>Presidencia&#45;&gt;Firmada_direccion</title>
<path fill="none" stroke="black" d="M354.33,-166.374C345.671,-156.88 336.336,-146.646 327.982,-137.486"/>
<polygon fill="black" stroke="black" points="330.556,-135.114 321.231,-130.084 325.384,-139.831 330.556,-135.114"/>
</g>
<!-- Firmada_presidencia -->
<g id="node9" class="node"><title>Firmada_presidencia</title>
<polygon fill="#ffffff" stroke="black" points="546,-130 390,-130 390,-88 546,-88 546,-130"/>
<polygon fill="none" stroke="black" points="546,-130 390,-130 390,-88 546,-88 546,-130"/>
<text text-anchor="middle" x="468" y="-113.4" font-family="Helvetica,sans-Serif" font-size="14.00">Firmada_presidencia</text>
<text text-anchor="middle" x="468" y="-96.4" font-family="Helvetica,sans-Serif" font-size="14.00">firmada_JJ</text>
</g>
<!-- Presidencia&#45;&gt;Firmada_presidencia -->
<g id="edge20" class="edge"><title>Presidencia&#45;&gt;Firmada_presidencia</title>
<path fill="none" stroke="black" d="M415.67,-166.374C424.329,-156.88 433.664,-146.646 442.018,-137.486"/>
<polygon fill="black" stroke="black" points="444.616,-139.831 448.769,-130.084 439.444,-135.114 444.616,-139.831"/>
</g>
<!-- Firmada_talento -->
<g id="node11" class="node"><title>Firmada_talento</title>
<polygon fill="#ffffff" stroke="black" points="692,-130 564,-130 564,-88 692,-88 692,-130"/>
<polygon fill="none" stroke="black" points="692,-130 564,-130 564,-88 692,-88 692,-130"/>
<text text-anchor="middle" x="628" y="-113.4" font-family="Helvetica,sans-Serif" font-size="14.00">Firmada_talento</text>
<text text-anchor="middle" x="628" y="-96.4" font-family="Helvetica,sans-Serif" font-size="14.00">firmada_EE</text>
</g>
<!-- Presidencia&#45;&gt;Firmada_talento -->
<g id="edge16" class="edge"><title>Presidencia&#45;&gt;Firmada_talento</title>
<path fill="none" stroke="black" d="M474.794,-166.374C503.693,-155.551 535.164,-143.766 562.024,-133.707"/>
<polygon fill="black" stroke="black" points="563.56,-136.869 571.697,-130.084 561.105,-130.314 563.56,-136.869"/>
</g>
<!-- Firmada_direccion&#45;&gt;final -->
<g id="edge6" class="edge"><title>Firmada_direccion&#45;&gt;final</title>
<path fill="none" stroke="black" d="M340.501,-87.894C369.459,-72.0192 408.678,-50.5196 435.941,-35.5745"/>
<polygon fill="black" stroke="black" points="437.963,-38.4576 445.049,-30.5815 434.598,-32.3194 437.963,-38.4576"/>
</g>
<!-- Firmada_presidencia&#45;&gt;final -->
<g id="edge8" class="edge"><title>Firmada_presidencia&#45;&gt;final</title>
<path fill="none" stroke="black" d="M468,-87.894C468,-75.5481 468,-59.8001 468,-46.379"/>
<polygon fill="black" stroke="black" points="471.5,-46.2238 468,-36.2238 464.5,-46.2238 471.5,-46.2238"/>
</g>
<!-- Firmada_talento&#45;&gt;final -->
<g id="edge10" class="edge"><title>Firmada_talento&#45;&gt;final</title>
<path fill="none" stroke="black" d="M590.891,-87.894C563.144,-72.1131 525.624,-50.7739 499.368,-35.8404"/>
<polygon fill="black" stroke="black" points="501.008,-32.7466 490.585,-30.8451 497.547,-38.8313 501.008,-32.7466"/>
</g>
<!-- Por_usuario -->
<g id="node13" class="node"><title>Por_usuario</title>
<polygon fill="#ffff00" stroke="black" points="434,-494 336,-494 336,-452 434,-452 434,-494"/>
<polygon fill="none" stroke="black" points="434,-494 336,-494 336,-452 434,-452 434,-494"/>
<text text-anchor="middle" x="385" y="-477.4" font-family="Helvetica,sans-Serif" font-size="14.00">Por_usuario</text>
<text text-anchor="middle" x="385" y="-460.4" font-family="Helvetica,sans-Serif" font-size="14.00">todas</text>
</g>
<!-- Talento_humano -->
<g id="node15" class="node"><title>Talento_humano</title>
<polygon fill="#ffffff" stroke="black" points="477,-403 293,-403 293,-361 477,-361 477,-403"/>
<polygon fill="none" stroke="black" points="477,-403 293,-403 293,-361 477,-361 477,-403"/>
<text text-anchor="middle" x="385" y="-386.4" font-family="Helvetica,sans-Serif" font-size="14.00">Talento_humano</text>
<text text-anchor="middle" x="385" y="-369.4" font-family="Helvetica,sans-Serif" font-size="14.00">Planilla vista_vacaciones</text>
</g>
<!-- Por_usuario&#45;&gt;Talento_humano -->
<g id="edge12" class="edge"><title>Por_usuario&#45;&gt;Talento_humano</title>
<path fill="none" stroke="black" d="M385,-451.894C385,-440.491 385,-426.185 385,-413.491"/>
<polygon fill="black" stroke="black" points="388.5,-413.307 385,-403.307 381.5,-413.307 388.5,-413.307"/>
</g>
<!-- Talento_humano&#45;&gt;DireccionEjecutiva -->
<g id="edge22" class="edge"><title>Talento_humano&#45;&gt;DireccionEjecutiva</title>
<path fill="none" stroke="black" d="M385,-360.894C385,-349.491 385,-335.185 385,-322.491"/>
<polygon fill="black" stroke="black" points="388.5,-322.307 385,-312.307 381.5,-322.307 388.5,-322.307"/>
</g>
<!-- inicial -->
<g id="node21" class="node"><title>inicial</title>
<ellipse fill="#ffffff" stroke="black" cx="385" cy="-564" rx="38.9134" ry="18"/>
<ellipse fill="none" stroke="black" cx="385" cy="-564" rx="38.9134" ry="18"/>
<text text-anchor="middle" x="385" y="-559.9" font-family="Times Roman,serif" font-size="14.00">inicial</text>
</g>
<!-- inicial&#45;&gt;Por_usuario -->
<g id="edge24" class="edge"><title>inicial&#45;&gt;Por_usuario</title>
<path fill="none" stroke="black" d="M385,-545.585C385,-533.749 385,-518.068 385,-504.31"/>
<polygon fill="black" stroke="black" points="388.5,-504.26 385,-494.26 381.5,-504.26 388.5,-504.26"/>
</g>
<!-- final_stats -->
<g id="node23" class="node"><title>final_stats</title>
<polygon fill="none" stroke="black" stroke-dasharray="5,2" points="834,-130 710,-130 710,-88 834,-88 834,-130"/>
<text text-anchor="start" x="718" y="-115.733" font-family="Times Roman,serif" font-size="14.00">Suma total: 0%</text>
<text text-anchor="start" x="767" y="-98.9333" font-family="Times Roman,serif" font-size="14.00"> &#160;</text>
</g>
<!-- final_stats&#45;&gt;final -->
<g id="edge26" class="edge"><title>final_stats&#45;&gt;final</title>
<path fill="none" stroke="black" stroke-dasharray="1,5" d="M709.747,-90.3652C648.515,-72.0357 557.008,-44.644 505.938,-29.3564"/>
<polygon fill="black" stroke="black" points="506.868,-25.9814 496.284,-26.4666 504.86,-32.6874 506.868,-25.9814"/>
</g>
</g>
</svg>
