<?xml version="1.0" encoding="UTF-8" standalone="no"?>
<!DOCTYPE svg PUBLIC "-//W3C//DTD SVG 1.1//EN"
 "http://www.w3.org/Graphics/SVG/1.1/DTD/svg11.dtd">
<!-- Generated by graphviz version 2.26.3 (20100126.1600)
 -->
<!-- Title: G Pages: 1 -->
<svg width="861pt" height="716pt"
 viewBox="0.00 0.00 861.00 716.00" xmlns="http://www.w3.org/2000/svg" xmlns:xlink="http://www.w3.org/1999/xlink">
<g id="graph1" class="graph" transform="scale(1 1) rotate(0) translate(4 712)">
<title>G</title>
<polygon fill="white" stroke="white" points="-4,5 -4,-712 858,-712 858,5 -4,5"/>
<!-- Talento_humano -->
<g id="node1" class="node"><title>Talento_humano</title>
<polygon fill="#ffff00" stroke="black" points="812,-487 628,-487 628,-445 812,-445 812,-487"/>
<polygon fill="none" stroke="black" points="812,-487 628,-487 628,-445 812,-445 812,-487"/>
<text text-anchor="middle" x="720" y="-470.4" font-family="Helvetica,sans-Serif" font-size="14.00">Talento_humano</text>
<text text-anchor="middle" x="720" y="-453.4" font-family="Helvetica,sans-Serif" font-size="14.00">Planilla vista_vacaciones</text>
</g>
<!-- DireccionEjecutiva -->
<g id="node3" class="node"><title>DireccionEjecutiva</title>
<polygon fill="#ffff00" stroke="black" points="699,-375 515,-375 515,-333 699,-333 699,-375"/>
<polygon fill="none" stroke="black" points="699,-375 515,-375 515,-333 699,-333 699,-375"/>
<text text-anchor="middle" x="607" y="-358.4" font-family="Helvetica,sans-Serif" font-size="14.00">DireccionEjecutiva</text>
<text text-anchor="middle" x="607" y="-341.4" font-family="Helvetica,sans-Serif" font-size="14.00">Planilla vista_vacaciones</text>
</g>
<!-- Talento_humano&#45;&gt;DireccionEjecutiva -->
<g id="edge2" class="edge"><title>Talento_humano&#45;&gt;DireccionEjecutiva</title>
<path fill="none" stroke="black" d="M698.746,-444.934C680.945,-427.291 655.373,-401.945 635.746,-382.491"/>
<polygon fill="black" stroke="black" points="638.11,-379.906 628.543,-375.353 633.182,-384.878 638.11,-379.906"/>
</g>
<!-- Presidencia -->
<g id="node7" class="node"><title>Presidencia</title>
<polygon fill="#ffff00" stroke="#ffff00" points="425,-208.5 597,-208.5 609,-220.5 609,-263.5 597,-275.5 425,-275.5 413,-263.5 413,-220.5 425,-208.5"/>
<path fill="#ffff00" stroke="#ffff00" d="M597,-208.5C603,-208.5 609,-214.5 609,-220.5"/>
<path fill="#ffff00" stroke="#ffff00" d="M609,-263.5C609,-269.5 603,-275.5 597,-275.5"/>
<path fill="#ffff00" stroke="#ffff00" d="M425,-275.5C419,-275.5 413,-269.5 413,-263.5"/>
<path fill="#ffff00" stroke="#ffff00" d="M413,-220.5C413,-214.5 419,-208.5 425,-208.5"/>
<polyline fill="none" stroke="black" points="425,-208.5 597,-208.5 "/>
<path fill="none" stroke="black" d="M597,-208.5C603,-208.5 609,-214.5 609,-220.5"/>
<polyline fill="none" stroke="black" points="609,-220.5 609,-263.5 "/>
<path fill="none" stroke="black" d="M609,-263.5C609,-269.5 603,-275.5 597,-275.5"/>
<polyline fill="none" stroke="black" points="597,-275.5 425,-275.5 "/>
<path fill="none" stroke="black" d="M425,-275.5C419,-275.5 413,-269.5 413,-263.5"/>
<polyline fill="none" stroke="black" points="413,-263.5 413,-220.5 "/>
<path fill="none" stroke="black" d="M413,-220.5C413,-214.5 419,-208.5 425,-208.5"/>
<text text-anchor="middle" x="511" y="-258.9" font-family="Helvetica,sans-Serif" font-size="14.00">Presidencia</text>
<text text-anchor="middle" x="511" y="-241.9" font-family="Helvetica,sans-Serif" font-size="14.00">Aprobacion del Presidente</text>
<polyline fill="none" stroke="black" points="413,-233.5 609,-233.5 "/>
<text text-anchor="middle" x="511" y="-216.9" font-family="Helvetica,sans-Serif" font-size="14.00">or</text>
</g>
<!-- DireccionEjecutiva&#45;&gt;Presidencia -->
<g id="edge6" class="edge"><title>DireccionEjecutiva&#45;&gt;Presidencia</title>
<path fill="none" stroke="black" d="M588.943,-332.934C577.087,-319.102 561.174,-300.536 546.817,-283.787"/>
<polygon fill="black" stroke="black" points="549.084,-281.054 539.919,-275.739 543.77,-285.609 549.084,-281.054"/>
</g>
<!-- Talento_humano_stats -->
<g id="node4" class="node"><title>Talento_humano_stats</title>
<polygon fill="none" stroke="black" stroke-dasharray="5,2" points="727,-616 563,-616 563,-540 727,-540 727,-616"/>
<text text-anchor="start" x="611.5" y="-601.733" font-family="Times Roman,serif" font-size="14.00">eparedes </text>
<text text-anchor="start" x="571" y="-584.933" font-family="Times Roman,serif" font-size="14.00">11/11/2013 02:46pm</text>
<text text-anchor="start" x="580" y="-568.133" font-family="Times Roman,serif" font-size="14.00">hace 3 meses llego</text>
<text text-anchor="start" x="634" y="-551.333" font-family="Times Roman,serif" font-size="14.00">n/a</text>
</g>
<!-- Talento_humano_stats&#45;&gt;Talento_humano -->
<g id="edge4" class="edge"><title>Talento_humano_stats&#45;&gt;Talento_humano</title>
<path fill="none" stroke="black" stroke-dasharray="1,5" d="M670.601,-539.769C680.278,-525.318 691.135,-509.105 700.201,-495.567"/>
<polygon fill="black" stroke="black" points="703.213,-497.359 705.869,-487.102 697.397,-493.464 703.213,-497.359"/>
</g>
<!-- Archivar_solicitud_procesada -->
<g id="node11" class="node"><title>Archivar_solicitud_procesada</title>
<polygon fill="#ffffff" stroke="black" points="521,-151 307,-151 307,-109 521,-109 521,-151"/>
<polygon fill="none" stroke="black" points="521,-151 307,-151 307,-109 521,-109 521,-151"/>
<text text-anchor="middle" x="414" y="-134.4" font-family="Helvetica,sans-Serif" font-size="14.00">Archivar_solicitud_procesada</text>
<text text-anchor="middle" x="414" y="-117.4" font-family="Helvetica,sans-Serif" font-size="14.00">solicitud_archivada</text>
</g>
<!-- Presidencia&#45;&gt;Archivar_solicitud_procesada -->
<g id="edge10" class="edge"><title>Presidencia&#45;&gt;Archivar_solicitud_procesada</title>
<path fill="none" stroke="black" d="M481.897,-208.396C468.211,-192.594 452.057,-173.943 438.941,-158.798"/>
<polygon fill="black" stroke="black" points="441.58,-156.499 432.388,-151.231 436.289,-161.081 441.58,-156.499"/>
</g>
<!-- Firmada_talento -->
<g id="node13" class="node"><title>Firmada_talento</title>
<polygon fill="#ffff00" stroke="black" points="147,-151 19,-151 19,-109 147,-109 147,-151"/>
<polygon fill="none" stroke="black" points="147,-151 19,-151 19,-109 147,-109 147,-151"/>
<text text-anchor="middle" x="83" y="-134.4" font-family="Helvetica,sans-Serif" font-size="14.00">Firmada_talento</text>
<text text-anchor="middle" x="83" y="-117.4" font-family="Helvetica,sans-Serif" font-size="14.00">firmada_EE</text>
</g>
<!-- Presidencia&#45;&gt;Firmada_talento -->
<g id="edge12" class="edge"><title>Presidencia&#45;&gt;Firmada_talento</title>
<path fill="none" stroke="black" d="M412.855,-217.659C343.908,-200.368 249.296,-176.256 156.868,-151.207"/>
<polygon fill="black" stroke="black" points="157.632,-147.788 147.064,-148.544 155.797,-154.543 157.632,-147.788"/>
</g>
<!-- Firmada_direccion -->
<g id="node15" class="node"><title>Firmada_direccion</title>
<polygon fill="#ffffff" stroke="black" points="679,-151 539,-151 539,-109 679,-109 679,-151"/>
<polygon fill="none" stroke="black" points="679,-151 539,-151 539,-109 679,-109 679,-151"/>
<text text-anchor="middle" x="609" y="-134.4" font-family="Helvetica,sans-Serif" font-size="14.00">Firmada_direccion</text>
<text text-anchor="middle" x="609" y="-117.4" font-family="Helvetica,sans-Serif" font-size="14.00">firmada_YV</text>
</g>
<!-- Presidencia&#45;&gt;Firmada_direccion -->
<g id="edge14" class="edge"><title>Presidencia&#45;&gt;Firmada_direccion</title>
<path fill="none" stroke="black" d="M540.403,-208.396C554.23,-192.594 570.55,-173.943 583.802,-158.798"/>
<polygon fill="black" stroke="black" points="586.472,-161.062 590.423,-151.231 581.204,-156.452 586.472,-161.062"/>
</g>
<!-- Firmada_presidencia -->
<g id="node17" class="node"><title>Firmada_presidencia</title>
<polygon fill="#ffff00" stroke="black" points="853,-151 697,-151 697,-109 853,-109 853,-151"/>
<polygon fill="none" stroke="black" points="853,-151 697,-151 697,-109 853,-109 853,-151"/>
<text text-anchor="middle" x="775" y="-134.4" font-family="Helvetica,sans-Serif" font-size="14.00">Firmada_presidencia</text>
<text text-anchor="middle" x="775" y="-117.4" font-family="Helvetica,sans-Serif" font-size="14.00">firmada_JJ</text>
</g>
<!-- Presidencia&#45;&gt;Firmada_presidencia -->
<g id="edge16" class="edge"><title>Presidencia&#45;&gt;Firmada_presidencia</title>
<path fill="none" stroke="black" d="M590.209,-208.396C630.502,-191.302 678.652,-170.875 715.699,-155.158"/>
<polygon fill="black" stroke="black" points="717.512,-158.191 725.351,-151.063 714.778,-151.747 717.512,-158.191"/>
</g>
<!-- DireccionEjecutiva_stats -->
<g id="node8" class="node"><title>DireccionEjecutiva_stats</title>
<polygon fill="none" stroke="black" stroke-dasharray="5,2" points="610,-504 378,-504 378,-428 610,-428 610,-504"/>
<text text-anchor="start" x="469.5" y="-489.733" font-family="Times Roman,serif" font-size="14.00">emora </text>
<text text-anchor="start" x="420" y="-472.933" font-family="Times Roman,serif" font-size="14.00">11/11/2013 05:48pm</text>
<text text-anchor="start" x="429" y="-456.133" font-family="Times Roman,serif" font-size="14.00">hace 3 meses llego</text>
<text text-anchor="start" x="386.5" y="-439.333" font-family="Times Roman,serif" font-size="14.00">3 horas y 2 minutos &#160;en espera</text>
</g>
<!-- DireccionEjecutiva_stats&#45;&gt;DireccionEjecutiva -->
<g id="edge8" class="edge"><title>DireccionEjecutiva_stats&#45;&gt;DireccionEjecutiva</title>
<path fill="none" stroke="black" stroke-dasharray="1,5" d="M532.572,-427.769C547.569,-412.905 564.446,-396.177 578.333,-382.413"/>
<polygon fill="black" stroke="black" points="581.071,-384.628 585.709,-375.102 576.143,-379.656 581.071,-384.628"/>
</g>
<!-- final -->
<g id="node21" class="node"><title>final</title>
<ellipse fill="#ffffff" stroke="black" cx="414" cy="-18" rx="31.9646" ry="18"/>
<ellipse fill="none" stroke="black" cx="414" cy="-18" rx="31.9646" ry="18"/>
<text text-anchor="middle" x="414" y="-13.9" font-family="Times Roman,serif" font-size="14.00">final</text>
</g>
<!-- Archivar_solicitud_procesada&#45;&gt;final -->
<g id="edge24" class="edge"><title>Archivar_solicitud_procesada&#45;&gt;final</title>
<path fill="none" stroke="black" d="M414,-108.934C414,-91.1831 414,-65.6359 414,-46.1368"/>
<polygon fill="black" stroke="black" points="417.5,-46.0141 414,-36.0142 410.5,-46.0142 417.5,-46.0141"/>
</g>
<!-- Firmada_talento&#45;&gt;final -->
<g id="edge20" class="edge"><title>Firmada_talento&#45;&gt;final</title>
<path fill="none" stroke="black" d="M145.259,-108.934C213.451,-85.8596 320.578,-49.611 376.767,-30.5985"/>
<polygon fill="black" stroke="black" points="377.967,-33.8875 386.317,-27.3669 375.723,-27.2568 377.967,-33.8875"/>
</g>
<!-- Firmada_direccion&#45;&gt;final -->
<g id="edge26" class="edge"><title>Firmada_direccion&#45;&gt;final</title>
<path fill="none" stroke="black" d="M572.322,-108.934C535.66,-87.8767 479.896,-55.8478 445.269,-35.9594"/>
<polygon fill="black" stroke="black" points="446.935,-32.8805 436.521,-30.935 443.449,-38.9506 446.935,-32.8805"/>
</g>
<!-- Firmada_presidencia&#45;&gt;final -->
<g id="edge28" class="edge"><title>Firmada_presidencia&#45;&gt;final</title>
<path fill="none" stroke="black" d="M707.099,-108.934C631.8,-85.5722 512.972,-48.706 452.344,-29.8962"/>
<polygon fill="black" stroke="black" points="453.014,-26.4395 442.426,-26.8191 450.94,-33.1252 453.014,-26.4395"/>
</g>
<!-- Presidencia_stats -->
<g id="node18" class="node"><title>Presidencia_stats</title>
<polygon fill="none" stroke="black" stroke-dasharray="5,2" points="497,-392 333,-392 333,-316 497,-316 497,-392"/>
<text text-anchor="start" x="391" y="-377.733" font-family="Times Roman,serif" font-size="14.00">yverdi </text>
<text text-anchor="start" x="341" y="-360.933" font-family="Times Roman,serif" font-size="14.00">15/11/2013 05:57pm</text>
<text text-anchor="start" x="350" y="-344.133" font-family="Times Roman,serif" font-size="14.00">hace 3 meses llego</text>
<text text-anchor="start" x="358.5" y="-327.333" font-family="Times Roman,serif" font-size="14.00">4 dias en espera</text>
</g>
<!-- Presidencia_stats&#45;&gt;Presidencia -->
<g id="edge18" class="edge"><title>Presidencia_stats&#45;&gt;Presidencia</title>
<path fill="none" stroke="black" stroke-dasharray="1,5" d="M447.769,-315.769C456.773,-305.265 466.575,-293.829 475.714,-283.167"/>
<polygon fill="black" stroke="black" points="478.38,-285.435 482.23,-275.565 473.065,-280.879 478.38,-285.435"/>
</g>
<!-- Firmada_talento_stats -->
<g id="node22" class="node"><title>Firmada_talento_stats</title>
<polygon fill="none" stroke="black" stroke-dasharray="5,2" points="166,-280 8.52651e-14,-280 0,-204 166,-204 166,-280"/>
<text text-anchor="start" x="39" y="-265.733" font-family="Times Roman,serif" font-size="14.00">Victor Rafael</text>
<text text-anchor="start" x="9" y="-248.933" font-family="Times Roman,serif" font-size="14.00">10/02/2014 10:59am</text>
<text text-anchor="start" x="8" y="-232.133" font-family="Times Roman,serif" font-size="14.00">hace un minuto &#160;llego</text>
<text text-anchor="start" x="18.5" y="-215.333" font-family="Times Roman,serif" font-size="14.00">3 meses en espera</text>
</g>
<!-- Firmada_talento_stats&#45;&gt;Firmada_talento -->
<g id="edge22" class="edge"><title>Firmada_talento_stats&#45;&gt;Firmada_talento</title>
<path fill="none" stroke="black" stroke-dasharray="1,5" d="M83,-203.769C83,-189.868 83,-174.338 83,-161.126"/>
<polygon fill="black" stroke="black" points="86.5001,-161.102 83,-151.102 79.5001,-161.102 86.5001,-161.102"/>
</g>
<!-- Por_usuario -->
<g id="node27" class="node"><title>Por_usuario</title>
<polygon fill="#ffff00" stroke="black" points="843,-599 745,-599 745,-557 843,-557 843,-599"/>
<polygon fill="none" stroke="black" points="843,-599 745,-599 745,-557 843,-557 843,-599"/>
<text text-anchor="middle" x="794" y="-582.4" font-family="Helvetica,sans-Serif" font-size="14.00">Por_usuario</text>
<text text-anchor="middle" x="794" y="-565.4" font-family="Helvetica,sans-Serif" font-size="14.00">todas</text>
</g>
<!-- Por_usuario&#45;&gt;Talento_humano -->
<g id="edge30" class="edge"><title>Por_usuario&#45;&gt;Talento_humano</title>
<path fill="none" stroke="black" d="M780.081,-556.934C768.681,-539.679 752.413,-515.058 739.68,-495.785"/>
<polygon fill="black" stroke="black" points="742.541,-493.767 734.108,-487.353 736.7,-497.625 742.541,-493.767"/>
</g>
<!-- inicial -->
<g id="node29" class="node"><title>inicial</title>
<ellipse fill="#ffffff" stroke="black" cx="794" cy="-690" rx="38.9134" ry="18"/>
<ellipse fill="none" stroke="black" cx="794" cy="-690" rx="38.9134" ry="18"/>
<text text-anchor="middle" x="794" y="-685.9" font-family="Times Roman,serif" font-size="14.00">inicial</text>
</g>
<!-- inicial&#45;&gt;Por_usuario -->
<g id="edge32" class="edge"><title>inicial&#45;&gt;Por_usuario</title>
<path fill="none" stroke="black" d="M794,-671.505C794,-654.652 794,-629.412 794,-609.401"/>
<polygon fill="black" stroke="black" points="797.5,-609.198 794,-599.198 790.5,-609.198 797.5,-609.198"/>
</g>
<!-- final_stats -->
<g id="node31" class="node"><title>final_stats</title>
<polygon fill="none" stroke="black" stroke-dasharray="5,2" points="289,-151 165,-151 165,-109 289,-109 289,-151"/>
<text text-anchor="start" x="173" y="-136.733" font-family="Times Roman,serif" font-size="14.00">Suma total: 0%</text>
<text text-anchor="start" x="222" y="-119.933" font-family="Times Roman,serif" font-size="14.00"> &#160;</text>
</g>
<!-- final_stats&#45;&gt;final -->
<g id="edge34" class="edge"><title>final_stats&#45;&gt;final</title>
<path fill="none" stroke="black" stroke-dasharray="1,5" d="M262.173,-108.934C296.988,-88.0821 349.766,-56.4718 383.036,-36.545"/>
<polygon fill="black" stroke="black" points="385.091,-39.394 391.872,-31.2531 381.495,-33.3887 385.091,-39.394"/>
</g>
</g>
</svg>
