<?xml version="1.0" encoding="UTF-8" standalone="no"?>
<!DOCTYPE svg PUBLIC "-//W3C//DTD SVG 1.1//EN"
 "http://www.w3.org/Graphics/SVG/1.1/DTD/svg11.dtd">
<!-- Generated by graphviz version 2.26.3 (20100126.1600)
 -->
<!-- Title: G Pages: 1 -->
<svg width="894pt" height="716pt"
 viewBox="0.00 0.00 894.00 716.00" xmlns="http://www.w3.org/2000/svg" xmlns:xlink="http://www.w3.org/1999/xlink">
<g id="graph1" class="graph" transform="scale(1 1) rotate(0) translate(4 712)">
<title>G</title>
<polygon fill="white" stroke="white" points="-4,5 -4,-712 891,-712 891,5 -4,5"/>
<!-- Talento_humano -->
<g id="node1" class="node"><title>Talento_humano</title>
<polygon fill="#ffff00" stroke="black" points="855,-487 671,-487 671,-445 855,-445 855,-487"/>
<polygon fill="none" stroke="black" points="855,-487 671,-487 671,-445 855,-445 855,-487"/>
<text text-anchor="middle" x="763" y="-470.4" font-family="Helvetica,sans-Serif" font-size="14.00">Talento_humano</text>
<text text-anchor="middle" x="763" y="-453.4" font-family="Helvetica,sans-Serif" font-size="14.00">Planilla vista_vacaciones</text>
</g>
<!-- DireccionEjecutiva -->
<g id="node3" class="node"><title>DireccionEjecutiva</title>
<polygon fill="#ffff00" stroke="black" points="744,-375 560,-375 560,-333 744,-333 744,-375"/>
<polygon fill="none" stroke="black" points="744,-375 560,-375 560,-333 744,-333 744,-375"/>
<text text-anchor="middle" x="652" y="-358.4" font-family="Helvetica,sans-Serif" font-size="14.00">DireccionEjecutiva</text>
<text text-anchor="middle" x="652" y="-341.4" font-family="Helvetica,sans-Serif" font-size="14.00">Planilla vista_vacaciones</text>
</g>
<!-- Talento_humano&#45;&gt;DireccionEjecutiva -->
<g id="edge2" class="edge"><title>Talento_humano&#45;&gt;DireccionEjecutiva</title>
<path fill="none" stroke="black" d="M742.122,-444.934C724.636,-427.291 699.517,-401.945 680.237,-382.491"/>
<polygon fill="black" stroke="black" points="682.687,-379.992 673.162,-375.353 677.715,-384.919 682.687,-379.992"/>
</g>
<!-- Presidencia -->
<g id="node7" class="node"><title>Presidencia</title>
<polygon fill="#ffff00" stroke="#ffff00" points="452,-208.5 624,-208.5 636,-220.5 636,-263.5 624,-275.5 452,-275.5 440,-263.5 440,-220.5 452,-208.5"/>
<path fill="#ffff00" stroke="#ffff00" d="M624,-208.5C630,-208.5 636,-214.5 636,-220.5"/>
<path fill="#ffff00" stroke="#ffff00" d="M636,-263.5C636,-269.5 630,-275.5 624,-275.5"/>
<path fill="#ffff00" stroke="#ffff00" d="M452,-275.5C446,-275.5 440,-269.5 440,-263.5"/>
<path fill="#ffff00" stroke="#ffff00" d="M440,-220.5C440,-214.5 446,-208.5 452,-208.5"/>
<polyline fill="none" stroke="black" points="452,-208.5 624,-208.5 "/>
<path fill="none" stroke="black" d="M624,-208.5C630,-208.5 636,-214.5 636,-220.5"/>
<polyline fill="none" stroke="black" points="636,-220.5 636,-263.5 "/>
<path fill="none" stroke="black" d="M636,-263.5C636,-269.5 630,-275.5 624,-275.5"/>
<polyline fill="none" stroke="black" points="624,-275.5 452,-275.5 "/>
<path fill="none" stroke="black" d="M452,-275.5C446,-275.5 440,-269.5 440,-263.5"/>
<polyline fill="none" stroke="black" points="440,-263.5 440,-220.5 "/>
<path fill="none" stroke="black" d="M440,-220.5C440,-214.5 446,-208.5 452,-208.5"/>
<text text-anchor="middle" x="538" y="-258.9" font-family="Helvetica,sans-Serif" font-size="14.00">Presidencia</text>
<text text-anchor="middle" x="538" y="-241.9" font-family="Helvetica,sans-Serif" font-size="14.00">Aprobacion del Presidente</text>
<polyline fill="none" stroke="black" points="440,-233.5 636,-233.5 "/>
<text text-anchor="middle" x="538" y="-216.9" font-family="Helvetica,sans-Serif" font-size="14.00">or</text>
</g>
<!-- DireccionEjecutiva&#45;&gt;Presidencia -->
<g id="edge6" class="edge"><title>DireccionEjecutiva&#45;&gt;Presidencia</title>
<path fill="none" stroke="black" d="M630.557,-332.934C616.223,-318.85 596.893,-299.859 579.605,-282.875"/>
<polygon fill="black" stroke="black" points="581.928,-280.251 572.341,-275.739 577.022,-285.244 581.928,-280.251"/>
</g>
<!-- Talento_humano_stats -->
<g id="node4" class="node"><title>Talento_humano_stats</title>
<polygon fill="none" stroke="black" stroke-dasharray="5,2" points="770,-616 606,-616 606,-540 770,-540 770,-616"/>
<text text-anchor="start" x="659.5" y="-601.733" font-family="Times Roman,serif" font-size="14.00">rvargas </text>
<text text-anchor="start" x="614" y="-584.933" font-family="Times Roman,serif" font-size="14.00">17/10/2013 04:28pm</text>
<text text-anchor="start" x="623" y="-568.133" font-family="Times Roman,serif" font-size="14.00">hace 4 meses llego</text>
<text text-anchor="start" x="677" y="-551.333" font-family="Times Roman,serif" font-size="14.00">n/a</text>
</g>
<!-- Talento_humano_stats&#45;&gt;Talento_humano -->
<g id="edge4" class="edge"><title>Talento_humano_stats&#45;&gt;Talento_humano</title>
<path fill="none" stroke="black" stroke-dasharray="1,5" d="M713.601,-539.769C723.278,-525.318 734.135,-509.105 743.201,-495.567"/>
<polygon fill="black" stroke="black" points="746.213,-497.359 748.869,-487.102 740.397,-493.464 746.213,-497.359"/>
</g>
<!-- Archivar_solicitud_procesada -->
<g id="node11" class="node"><title>Archivar_solicitud_procesada</title>
<polygon fill="#ffff00" stroke="black" points="356,-151 142,-151 142,-109 356,-109 356,-151"/>
<polygon fill="none" stroke="black" points="356,-151 142,-151 142,-109 356,-109 356,-151"/>
<text text-anchor="middle" x="249" y="-134.4" font-family="Helvetica,sans-Serif" font-size="14.00">Archivar_solicitud_procesada</text>
<text text-anchor="middle" x="249" y="-117.4" font-family="Helvetica,sans-Serif" font-size="14.00">solicitud_archivada</text>
</g>
<!-- Presidencia&#45;&gt;Archivar_solicitud_procesada -->
<g id="edge10" class="edge"><title>Presidencia&#45;&gt;Archivar_solicitud_procesada</title>
<path fill="none" stroke="black" d="M451.29,-208.396C406.807,-191.157 353.574,-170.527 312.884,-154.758"/>
<polygon fill="black" stroke="black" points="313.94,-151.413 303.351,-151.063 311.41,-157.94 313.94,-151.413"/>
</g>
<!-- Firmada_talento -->
<g id="node13" class="node"><title>Firmada_talento</title>
<polygon fill="#ffffff" stroke="black" points="502,-151 374,-151 374,-109 502,-109 502,-151"/>
<polygon fill="none" stroke="black" points="502,-151 374,-151 374,-109 502,-109 502,-151"/>
<text text-anchor="middle" x="438" y="-134.4" font-family="Helvetica,sans-Serif" font-size="14.00">Firmada_talento</text>
<text text-anchor="middle" x="438" y="-117.4" font-family="Helvetica,sans-Serif" font-size="14.00">firmada_EE</text>
</g>
<!-- Presidencia&#45;&gt;Firmada_talento -->
<g id="edge12" class="edge"><title>Presidencia&#45;&gt;Firmada_talento</title>
<path fill="none" stroke="black" d="M507.997,-208.396C493.887,-192.594 477.234,-173.943 463.712,-158.798"/>
<polygon fill="black" stroke="black" points="466.227,-156.359 456.956,-151.231 461.006,-161.021 466.227,-156.359"/>
</g>
<!-- Firmada_direccion -->
<g id="node15" class="node"><title>Firmada_direccion</title>
<polygon fill="#ffffff" stroke="black" points="660,-151 520,-151 520,-109 660,-109 660,-151"/>
<polygon fill="none" stroke="black" points="660,-151 520,-151 520,-109 660,-109 660,-151"/>
<text text-anchor="middle" x="590" y="-134.4" font-family="Helvetica,sans-Serif" font-size="14.00">Firmada_direccion</text>
<text text-anchor="middle" x="590" y="-117.4" font-family="Helvetica,sans-Serif" font-size="14.00">firmada_YV</text>
</g>
<!-- Presidencia&#45;&gt;Firmada_direccion -->
<g id="edge14" class="edge"><title>Presidencia&#45;&gt;Firmada_direccion</title>
<path fill="none" stroke="black" d="M553.602,-208.396C560.669,-193.174 568.964,-175.308 575.849,-160.479"/>
<polygon fill="black" stroke="black" points="579.106,-161.775 580.143,-151.231 572.757,-158.827 579.106,-161.775"/>
</g>
<!-- Firmada_presidencia -->
<g id="node17" class="node"><title>Firmada_presidencia</title>
<polygon fill="#ffffff" stroke="black" points="834,-151 678,-151 678,-109 834,-109 834,-151"/>
<polygon fill="none" stroke="black" points="834,-151 678,-151 678,-109 834,-109 834,-151"/>
<text text-anchor="middle" x="756" y="-134.4" font-family="Helvetica,sans-Serif" font-size="14.00">Firmada_presidencia</text>
<text text-anchor="middle" x="756" y="-117.4" font-family="Helvetica,sans-Serif" font-size="14.00">firmada_JJ</text>
</g>
<!-- Presidencia&#45;&gt;Firmada_presidencia -->
<g id="edge16" class="edge"><title>Presidencia&#45;&gt;Firmada_presidencia</title>
<path fill="none" stroke="black" d="M603.407,-208.396C636.255,-191.521 675.425,-171.396 705.855,-155.762"/>
<polygon fill="black" stroke="black" points="707.707,-158.746 715.002,-151.063 704.508,-152.52 707.707,-158.746"/>
</g>
<!-- DireccionEjecutiva_stats -->
<g id="node8" class="node"><title>DireccionEjecutiva_stats</title>
<polygon fill="none" stroke="black" stroke-dasharray="5,2" points="653,-504 429,-504 429,-428 653,-428 653,-504"/>
<text text-anchor="start" x="516.5" y="-489.733" font-family="Times Roman,serif" font-size="14.00">emora </text>
<text text-anchor="start" x="467" y="-472.933" font-family="Times Roman,serif" font-size="14.00">04/11/2013 12:04pm</text>
<text text-anchor="start" x="476" y="-456.133" font-family="Times Roman,serif" font-size="14.00">hace 3 meses llego</text>
<text text-anchor="start" x="437" y="-439.333" font-family="Times Roman,serif" font-size="14.00">2 semanas y 3 dias &#160;en espera</text>
</g>
<!-- DireccionEjecutiva_stats&#45;&gt;DireccionEjecutiva -->
<g id="edge8" class="edge"><title>DireccionEjecutiva_stats&#45;&gt;DireccionEjecutiva</title>
<path fill="none" stroke="black" stroke-dasharray="1,5" d="M578.889,-427.769C593.621,-412.905 610.199,-396.177 623.84,-382.413"/>
<polygon fill="black" stroke="black" points="626.533,-384.669 631.086,-375.102 621.561,-379.741 626.533,-384.669"/>
</g>
<!-- final -->
<g id="node21" class="node"><title>final</title>
<ellipse fill="#ffffff" stroke="black" cx="438" cy="-18" rx="31.9646" ry="18"/>
<ellipse fill="none" stroke="black" cx="438" cy="-18" rx="31.9646" ry="18"/>
<text text-anchor="middle" x="438" y="-13.9" font-family="Times Roman,serif" font-size="14.00">final</text>
</g>
<!-- Archivar_solicitud_procesada&#45;&gt;final -->
<g id="edge20" class="edge"><title>Archivar_solicitud_procesada&#45;&gt;final</title>
<path fill="none" stroke="black" d="M284.549,-108.934C319.834,-88.0242 373.375,-56.2961 406.985,-36.3792"/>
<polygon fill="black" stroke="black" points="409.086,-39.2028 415.904,-31.0937 405.517,-33.1807 409.086,-39.2028"/>
</g>
<!-- Firmada_talento&#45;&gt;final -->
<g id="edge28" class="edge"><title>Firmada_talento&#45;&gt;final</title>
<path fill="none" stroke="black" d="M438,-108.934C438,-91.1831 438,-65.6359 438,-46.1368"/>
<polygon fill="black" stroke="black" points="441.5,-46.0141 438,-36.0142 434.5,-46.0142 441.5,-46.0141"/>
</g>
<!-- Firmada_direccion&#45;&gt;final -->
<g id="edge24" class="edge"><title>Firmada_direccion&#45;&gt;final</title>
<path fill="none" stroke="black" d="M561.41,-108.934C534.095,-88.8069 493.176,-58.6562 466.044,-38.6642"/>
<polygon fill="black" stroke="black" points="467.881,-35.6702 457.754,-32.5559 463.729,-41.3056 467.881,-35.6702"/>
</g>
<!-- Firmada_presidencia&#45;&gt;final -->
<g id="edge26" class="edge"><title>Firmada_presidencia&#45;&gt;final</title>
<path fill="none" stroke="black" d="M696.187,-108.934C631.147,-86.0267 529.241,-50.1352 474.951,-31.0142"/>
<polygon fill="black" stroke="black" points="475.983,-27.6668 465.388,-27.646 473.657,-34.2693 475.983,-27.6668"/>
</g>
<!-- Presidencia_stats -->
<g id="node18" class="node"><title>Presidencia_stats</title>
<polygon fill="none" stroke="black" stroke-dasharray="5,2" points="542,-392 306,-392 306,-316 542,-316 542,-392"/>
<text text-anchor="start" x="400" y="-377.733" font-family="Times Roman,serif" font-size="14.00">yverdi </text>
<text text-anchor="start" x="350" y="-360.933" font-family="Times Roman,serif" font-size="14.00">14/11/2013 02:16pm</text>
<text text-anchor="start" x="359" y="-344.133" font-family="Times Roman,serif" font-size="14.00">hace 3 meses llego</text>
<text text-anchor="start" x="314.5" y="-327.333" font-family="Times Roman,serif" font-size="14.00">una semana y 3 dias &#160;en espera</text>
</g>
<!-- Presidencia_stats&#45;&gt;Presidencia -->
<g id="edge18" class="edge"><title>Presidencia_stats&#45;&gt;Presidencia</title>
<path fill="none" stroke="black" stroke-dasharray="1,5" d="M462.913,-315.769C473.709,-305.163 485.471,-293.607 496.413,-282.857"/>
<polygon fill="black" stroke="black" points="499.156,-285.069 503.836,-275.565 494.25,-280.076 499.156,-285.069"/>
</g>
<!-- Archivar_solicitud_procesada_stats -->
<g id="node22" class="node"><title>Archivar_solicitud_procesada_stats</title>
<polygon fill="none" stroke="black" stroke-dasharray="5,2" points="370,-280 128,-280 128,-204 370,-204 370,-280"/>
<text text-anchor="start" x="212" y="-265.733" font-family="Times Roman,serif" font-size="14.00">jcontreras </text>
<text text-anchor="start" x="175" y="-248.933" font-family="Times Roman,serif" font-size="14.00">18/11/2013 06:24pm</text>
<text text-anchor="start" x="136" y="-232.133" font-family="Times Roman,serif" font-size="14.00">hace 2 meses y 3 semanas &#160;llego</text>
<text text-anchor="start" x="155.5" y="-215.333" font-family="Times Roman,serif" font-size="14.00">4 dias y 4 horas &#160;en espera</text>
</g>
<!-- Archivar_solicitud_procesada_stats&#45;&gt;Archivar_solicitud_procesada -->
<g id="edge22" class="edge"><title>Archivar_solicitud_procesada_stats&#45;&gt;Archivar_solicitud_procesada</title>
<path fill="none" stroke="black" stroke-dasharray="1,5" d="M249,-203.769C249,-189.868 249,-174.338 249,-161.126"/>
<polygon fill="black" stroke="black" points="252.5,-161.102 249,-151.102 245.5,-161.102 252.5,-161.102"/>
</g>
<!-- Por_usuario -->
<g id="node27" class="node"><title>Por_usuario</title>
<polygon fill="#ffff00" stroke="black" points="886,-599 788,-599 788,-557 886,-557 886,-599"/>
<polygon fill="none" stroke="black" points="886,-599 788,-599 788,-557 886,-557 886,-599"/>
<text text-anchor="middle" x="837" y="-582.4" font-family="Helvetica,sans-Serif" font-size="14.00">Por_usuario</text>
<text text-anchor="middle" x="837" y="-565.4" font-family="Helvetica,sans-Serif" font-size="14.00">todas</text>
</g>
<!-- Por_usuario&#45;&gt;Talento_humano -->
<g id="edge30" class="edge"><title>Por_usuario&#45;&gt;Talento_humano</title>
<path fill="none" stroke="black" d="M823.081,-556.934C811.681,-539.679 795.413,-515.058 782.68,-495.785"/>
<polygon fill="black" stroke="black" points="785.541,-493.767 777.108,-487.353 779.7,-497.625 785.541,-493.767"/>
</g>
<!-- inicial -->
<g id="node29" class="node"><title>inicial</title>
<ellipse fill="#ffffff" stroke="black" cx="837" cy="-690" rx="38.9134" ry="18"/>
<ellipse fill="none" stroke="black" cx="837" cy="-690" rx="38.9134" ry="18"/>
<text text-anchor="middle" x="837" y="-685.9" font-family="Times Roman,serif" font-size="14.00">inicial</text>
</g>
<!-- inicial&#45;&gt;Por_usuario -->
<g id="edge32" class="edge"><title>inicial&#45;&gt;Por_usuario</title>
<path fill="none" stroke="black" d="M837,-671.505C837,-654.652 837,-629.412 837,-609.401"/>
<polygon fill="black" stroke="black" points="840.5,-609.198 837,-599.198 833.5,-609.198 840.5,-609.198"/>
</g>
<!-- final_stats -->
<g id="node31" class="node"><title>final_stats</title>
<polygon fill="none" stroke="black" stroke-dasharray="5,2" points="124,-151 4.9738e-14,-151 0,-109 124,-109 124,-151"/>
<text text-anchor="start" x="8" y="-136.733" font-family="Times Roman,serif" font-size="14.00">Suma total: 0%</text>
<text text-anchor="start" x="57" y="-119.933" font-family="Times Roman,serif" font-size="14.00"> &#160;</text>
</g>
<!-- final_stats&#45;&gt;final -->
<g id="edge34" class="edge"><title>final_stats&#45;&gt;final</title>
<path fill="none" stroke="black" stroke-dasharray="1,5" d="M124.089,-111.505C202.493,-88.151 334.971,-48.6896 399.865,-29.3594"/>
<polygon fill="black" stroke="black" points="401.096,-32.6446 409.681,-26.4354 399.098,-25.9359 401.096,-32.6446"/>
</g>
</g>
</svg>
