<?xml version="1.0" encoding="UTF-8" standalone="no"?>
<!DOCTYPE svg PUBLIC "-//W3C//DTD SVG 1.1//EN"
 "http://www.w3.org/Graphics/SVG/1.1/DTD/svg11.dtd">
<!-- Generated by graphviz version 2.26.3 (20100126.1600)
 -->
<!-- Title: G Pages: 1 -->
<svg width="854pt" height="716pt"
 viewBox="0.00 0.00 854.00 716.00" xmlns="http://www.w3.org/2000/svg" xmlns:xlink="http://www.w3.org/1999/xlink">
<g id="graph1" class="graph" transform="scale(1 1) rotate(0) translate(4 712)">
<title>G</title>
<polygon fill="white" stroke="white" points="-4,5 -4,-712 851,-712 851,5 -4,5"/>
<!-- Firmada_direccion -->
<g id="node1" class="node"><title>Firmada_direccion</title>
<polygon fill="#ffff00" stroke="black" points="152,-151 12,-151 12,-109 152,-109 152,-151"/>
<polygon fill="none" stroke="black" points="152,-151 12,-151 12,-109 152,-109 152,-151"/>
<text text-anchor="middle" x="82" y="-134.4" font-family="Helvetica,sans-Serif" font-size="14.00">Firmada_direccion</text>
<text text-anchor="middle" x="82" y="-117.4" font-family="Helvetica,sans-Serif" font-size="14.00">firmada_YV</text>
</g>
<!-- final -->
<g id="node3" class="node"><title>final</title>
<ellipse fill="#ffffff" stroke="black" cx="466" cy="-18" rx="31.9646" ry="18"/>
<ellipse fill="none" stroke="black" cx="466" cy="-18" rx="31.9646" ry="18"/>
<text text-anchor="middle" x="466" y="-13.9" font-family="Times Roman,serif" font-size="14.00">final</text>
</g>
<!-- Firmada_direccion&#45;&gt;final -->
<g id="edge2" class="edge"><title>Firmada_direccion&#45;&gt;final</title>
<path fill="none" stroke="black" d="M152.432,-109.457C233.408,-85.8394 363.394,-47.9269 427.585,-29.2045"/>
<polygon fill="black" stroke="black" points="428.684,-32.5296 437.304,-26.3695 426.724,-25.8096 428.684,-32.5296"/>
</g>
<!-- Firmada_direccion_stats -->
<g id="node4" class="node"><title>Firmada_direccion_stats</title>
<polygon fill="none" stroke="black" stroke-dasharray="5,2" points="164,-280 7.10543e-14,-280 0,-204 164,-204 164,-280"/>
<text text-anchor="start" x="30" y="-265.733" font-family="Times Roman,serif" font-size="14.00">Antonio Araujo</text>
<text text-anchor="start" x="8" y="-248.933" font-family="Times Roman,serif" font-size="14.00">07/02/2014 12:22pm</text>
<text text-anchor="start" x="8" y="-232.133" font-family="Times Roman,serif" font-size="14.00">hace 6 minutos &#160;llego</text>
<text text-anchor="start" x="71" y="-215.333" font-family="Times Roman,serif" font-size="14.00">n/a</text>
</g>
<!-- Firmada_direccion_stats&#45;&gt;Firmada_direccion -->
<g id="edge4" class="edge"><title>Firmada_direccion_stats&#45;&gt;Firmada_direccion</title>
<path fill="none" stroke="black" stroke-dasharray="1,5" d="M82,-203.769C82,-189.868 82,-174.338 82,-161.126"/>
<polygon fill="black" stroke="black" points="85.5001,-161.102 82,-151.102 78.5001,-161.102 85.5001,-161.102"/>
</g>
<!-- inicial -->
<g id="node6" class="node"><title>inicial</title>
<ellipse fill="#ffffff" stroke="black" cx="70" cy="-690" rx="38.9134" ry="18"/>
<ellipse fill="none" stroke="black" cx="70" cy="-690" rx="38.9134" ry="18"/>
<text text-anchor="middle" x="70" y="-685.9" font-family="Times Roman,serif" font-size="14.00">inicial</text>
</g>
<!-- Por_usuario -->
<g id="node8" class="node"><title>Por_usuario</title>
<polygon fill="#ffff00" stroke="black" points="119,-599 21,-599 21,-557 119,-557 119,-599"/>
<polygon fill="none" stroke="black" points="119,-599 21,-599 21,-557 119,-557 119,-599"/>
<text text-anchor="middle" x="70" y="-582.4" font-family="Helvetica,sans-Serif" font-size="14.00">Por_usuario</text>
<text text-anchor="middle" x="70" y="-565.4" font-family="Helvetica,sans-Serif" font-size="14.00">todas</text>
</g>
<!-- inicial&#45;&gt;Por_usuario -->
<g id="edge6" class="edge"><title>inicial&#45;&gt;Por_usuario</title>
<path fill="none" stroke="black" d="M70,-671.505C70,-654.652 70,-629.412 70,-609.401"/>
<polygon fill="black" stroke="black" points="73.5001,-609.198 70,-599.198 66.5001,-609.198 73.5001,-609.198"/>
</g>
<!-- Talento_humano -->
<g id="node10" class="node"><title>Talento_humano</title>
<polygon fill="#ffff00" stroke="black" points="236,-487 52,-487 52,-445 236,-445 236,-487"/>
<polygon fill="none" stroke="black" points="236,-487 52,-487 52,-445 236,-445 236,-487"/>
<text text-anchor="middle" x="144" y="-470.4" font-family="Helvetica,sans-Serif" font-size="14.00">Talento_humano</text>
<text text-anchor="middle" x="144" y="-453.4" font-family="Helvetica,sans-Serif" font-size="14.00">Planilla vista_vacaciones</text>
</g>
<!-- Por_usuario&#45;&gt;Talento_humano -->
<g id="edge8" class="edge"><title>Por_usuario&#45;&gt;Talento_humano</title>
<path fill="none" stroke="black" d="M83.9188,-556.934C95.3191,-539.679 111.587,-515.058 124.32,-495.785"/>
<polygon fill="black" stroke="black" points="127.3,-497.625 129.892,-487.353 121.459,-493.767 127.3,-497.625"/>
</g>
<!-- DireccionEjecutiva -->
<g id="node12" class="node"><title>DireccionEjecutiva</title>
<polygon fill="#ffff00" stroke="black" points="349,-375 165,-375 165,-333 349,-333 349,-375"/>
<polygon fill="none" stroke="black" points="349,-375 165,-375 165,-333 349,-333 349,-375"/>
<text text-anchor="middle" x="257" y="-358.4" font-family="Helvetica,sans-Serif" font-size="14.00">DireccionEjecutiva</text>
<text text-anchor="middle" x="257" y="-341.4" font-family="Helvetica,sans-Serif" font-size="14.00">Planilla vista_vacaciones</text>
</g>
<!-- Talento_humano&#45;&gt;DireccionEjecutiva -->
<g id="edge10" class="edge"><title>Talento_humano&#45;&gt;DireccionEjecutiva</title>
<path fill="none" stroke="black" d="M165.254,-444.934C183.055,-427.291 208.627,-401.945 228.254,-382.491"/>
<polygon fill="black" stroke="black" points="230.818,-384.878 235.457,-375.353 225.89,-379.906 230.818,-384.878"/>
</g>
<!-- Presidencia -->
<g id="node16" class="node"><title>Presidencia</title>
<polygon fill="#ffff00" stroke="#ffff00" points="287,-208.5 459,-208.5 471,-220.5 471,-263.5 459,-275.5 287,-275.5 275,-263.5 275,-220.5 287,-208.5"/>
<path fill="#ffff00" stroke="#ffff00" d="M459,-208.5C465,-208.5 471,-214.5 471,-220.5"/>
<path fill="#ffff00" stroke="#ffff00" d="M471,-263.5C471,-269.5 465,-275.5 459,-275.5"/>
<path fill="#ffff00" stroke="#ffff00" d="M287,-275.5C281,-275.5 275,-269.5 275,-263.5"/>
<path fill="#ffff00" stroke="#ffff00" d="M275,-220.5C275,-214.5 281,-208.5 287,-208.5"/>
<polyline fill="none" stroke="black" points="287,-208.5 459,-208.5 "/>
<path fill="none" stroke="black" d="M459,-208.5C465,-208.5 471,-214.5 471,-220.5"/>
<polyline fill="none" stroke="black" points="471,-220.5 471,-263.5 "/>
<path fill="none" stroke="black" d="M471,-263.5C471,-269.5 465,-275.5 459,-275.5"/>
<polyline fill="none" stroke="black" points="459,-275.5 287,-275.5 "/>
<path fill="none" stroke="black" d="M287,-275.5C281,-275.5 275,-269.5 275,-263.5"/>
<polyline fill="none" stroke="black" points="275,-263.5 275,-220.5 "/>
<path fill="none" stroke="black" d="M275,-220.5C275,-214.5 281,-208.5 287,-208.5"/>
<text text-anchor="middle" x="373" y="-258.9" font-family="Helvetica,sans-Serif" font-size="14.00">Presidencia</text>
<text text-anchor="middle" x="373" y="-241.9" font-family="Helvetica,sans-Serif" font-size="14.00">Aprobacion del Presidente</text>
<polyline fill="none" stroke="black" points="275,-233.5 471,-233.5 "/>
<text text-anchor="middle" x="373" y="-216.9" font-family="Helvetica,sans-Serif" font-size="14.00">or</text>
</g>
<!-- DireccionEjecutiva&#45;&gt;Presidencia -->
<g id="edge14" class="edge"><title>DireccionEjecutiva&#45;&gt;Presidencia</title>
<path fill="none" stroke="black" d="M278.819,-332.934C293.405,-318.85 313.074,-299.859 330.665,-282.875"/>
<polygon fill="black" stroke="black" points="333.293,-285.203 338.056,-275.739 328.431,-280.167 333.293,-285.203"/>
</g>
<!-- Talento_humano_stats -->
<g id="node13" class="node"><title>Talento_humano_stats</title>
<polygon fill="none" stroke="black" stroke-dasharray="5,2" points="301,-616 137,-616 137,-540 301,-540 301,-616"/>
<text text-anchor="start" x="187.5" y="-601.733" font-family="Times Roman,serif" font-size="14.00">eparedes</text>
<text text-anchor="start" x="145" y="-584.933" font-family="Times Roman,serif" font-size="14.00">11/11/2013 02:46pm</text>
<text text-anchor="start" x="154" y="-568.133" font-family="Times Roman,serif" font-size="14.00">hace 3 meses llego</text>
<text text-anchor="start" x="206.5" y="-551.333" font-family="Times Roman,serif" font-size="14.00">N/A</text>
</g>
<!-- Talento_humano_stats&#45;&gt;Talento_humano -->
<g id="edge12" class="edge"><title>Talento_humano_stats&#45;&gt;Talento_humano</title>
<path fill="none" stroke="black" stroke-dasharray="1,5" d="M193.399,-539.769C183.722,-525.318 172.865,-509.105 163.799,-495.567"/>
<polygon fill="black" stroke="black" points="166.603,-493.464 158.131,-487.102 160.787,-497.359 166.603,-493.464"/>
</g>
<!-- Presidencia&#45;&gt;Firmada_direccion -->
<g id="edge22" class="edge"><title>Presidencia&#45;&gt;Firmada_direccion</title>
<path fill="none" stroke="black" d="M285.69,-208.396C240.804,-191.121 187.072,-170.44 146.067,-154.658"/>
<polygon fill="black" stroke="black" points="147.317,-151.389 136.727,-151.063 144.802,-157.922 147.317,-151.389"/>
</g>
<!-- Archivar_solicitud_procesada -->
<g id="node20" class="node"><title>Archivar_solicitud_procesada</title>
<polygon fill="#ffffff" stroke="black" points="384,-151 170,-151 170,-109 384,-109 384,-151"/>
<polygon fill="none" stroke="black" points="384,-151 170,-151 170,-109 384,-109 384,-151"/>
<text text-anchor="middle" x="277" y="-134.4" font-family="Helvetica,sans-Serif" font-size="14.00">Archivar_solicitud_procesada</text>
<text text-anchor="middle" x="277" y="-117.4" font-family="Helvetica,sans-Serif" font-size="14.00">solicitud_archivada</text>
</g>
<!-- Presidencia&#45;&gt;Archivar_solicitud_procesada -->
<g id="edge18" class="edge"><title>Presidencia&#45;&gt;Archivar_solicitud_procesada</title>
<path fill="none" stroke="black" d="M344.197,-208.396C330.776,-192.739 314.958,-174.285 302.042,-159.215"/>
<polygon fill="black" stroke="black" points="304.363,-156.546 295.198,-151.231 299.049,-161.101 304.363,-156.546"/>
</g>
<!-- Firmada_talento -->
<g id="node22" class="node"><title>Firmada_talento</title>
<polygon fill="#ffffff" stroke="black" points="530,-151 402,-151 402,-109 530,-109 530,-151"/>
<polygon fill="none" stroke="black" points="530,-151 402,-151 402,-109 530,-109 530,-151"/>
<text text-anchor="middle" x="466" y="-134.4" font-family="Helvetica,sans-Serif" font-size="14.00">Firmada_talento</text>
<text text-anchor="middle" x="466" y="-117.4" font-family="Helvetica,sans-Serif" font-size="14.00">firmada_EE</text>
</g>
<!-- Presidencia&#45;&gt;Firmada_talento -->
<g id="edge20" class="edge"><title>Presidencia&#45;&gt;Firmada_talento</title>
<path fill="none" stroke="black" d="M400.903,-208.396C413.904,-192.739 429.228,-174.285 441.741,-159.215"/>
<polygon fill="black" stroke="black" points="444.675,-161.16 448.371,-151.231 439.29,-156.689 444.675,-161.16"/>
</g>
<!-- Firmada_presidencia -->
<g id="node25" class="node"><title>Firmada_presidencia</title>
<polygon fill="#ffffff" stroke="black" points="704,-151 548,-151 548,-109 704,-109 704,-151"/>
<polygon fill="none" stroke="black" points="704,-151 548,-151 548,-109 704,-109 704,-151"/>
<text text-anchor="middle" x="626" y="-134.4" font-family="Helvetica,sans-Serif" font-size="14.00">Firmada_presidencia</text>
<text text-anchor="middle" x="626" y="-117.4" font-family="Helvetica,sans-Serif" font-size="14.00">firmada_JJ</text>
</g>
<!-- Presidencia&#45;&gt;Firmada_presidencia -->
<g id="edge24" class="edge"><title>Presidencia&#45;&gt;Firmada_presidencia</title>
<path fill="none" stroke="black" d="M448.908,-208.396C487.522,-191.302 533.666,-170.875 569.17,-155.158"/>
<polygon fill="black" stroke="black" points="570.692,-158.312 578.42,-151.063 567.859,-151.911 570.692,-158.312"/>
</g>
<!-- DireccionEjecutiva_stats -->
<g id="node17" class="node"><title>DireccionEjecutiva_stats</title>
<polygon fill="none" stroke="black" stroke-dasharray="5,2" points="486,-504 254,-504 254,-428 486,-428 486,-504"/>
<text text-anchor="start" x="348" y="-489.733" font-family="Times Roman,serif" font-size="14.00">emora</text>
<text text-anchor="start" x="296" y="-472.933" font-family="Times Roman,serif" font-size="14.00">11/11/2013 05:48pm</text>
<text text-anchor="start" x="305" y="-456.133" font-family="Times Roman,serif" font-size="14.00">hace 3 meses llego</text>
<text text-anchor="start" x="262.5" y="-439.333" font-family="Times Roman,serif" font-size="14.00">3 horas y 2 minutos &#160;en espera</text>
</g>
<!-- DireccionEjecutiva_stats&#45;&gt;DireccionEjecutiva -->
<g id="edge16" class="edge"><title>DireccionEjecutiva_stats&#45;&gt;DireccionEjecutiva</title>
<path fill="none" stroke="black" stroke-dasharray="1,5" d="M331.428,-427.769C316.431,-412.905 299.554,-396.177 285.667,-382.413"/>
<polygon fill="black" stroke="black" points="287.857,-379.656 278.291,-375.102 282.929,-384.628 287.857,-379.656"/>
</g>
<!-- Archivar_solicitud_procesada&#45;&gt;final -->
<g id="edge28" class="edge"><title>Archivar_solicitud_procesada&#45;&gt;final</title>
<path fill="none" stroke="black" d="M312.549,-108.934C347.834,-88.0242 401.375,-56.2961 434.985,-36.3792"/>
<polygon fill="black" stroke="black" points="437.086,-39.2028 443.904,-31.0937 433.517,-33.1807 437.086,-39.2028"/>
</g>
<!-- Firmada_talento&#45;&gt;final -->
<g id="edge30" class="edge"><title>Firmada_talento&#45;&gt;final</title>
<path fill="none" stroke="black" d="M466,-108.934C466,-91.1831 466,-65.6359 466,-46.1368"/>
<polygon fill="black" stroke="black" points="469.5,-46.0141 466,-36.0142 462.5,-46.0142 469.5,-46.0141"/>
</g>
<!-- Firmada_presidencia&#45;&gt;final -->
<g id="edge32" class="edge"><title>Firmada_presidencia&#45;&gt;final</title>
<path fill="none" stroke="black" d="M595.905,-108.934C566.864,-88.6049 523.214,-58.05 494.665,-38.0655"/>
<polygon fill="black" stroke="black" points="496.522,-35.0931 486.322,-32.2257 492.508,-40.8277 496.522,-35.0931"/>
</g>
<!-- Presidencia_stats -->
<g id="node26" class="node"><title>Presidencia_stats</title>
<polygon fill="none" stroke="black" stroke-dasharray="5,2" points="609,-392 367,-392 367,-316 609,-316 609,-392"/>
<text text-anchor="start" x="466.5" y="-377.733" font-family="Times Roman,serif" font-size="14.00">yverdi</text>
<text text-anchor="start" x="414" y="-360.933" font-family="Times Roman,serif" font-size="14.00">15/11/2013 05:57pm</text>
<text text-anchor="start" x="375" y="-344.133" font-family="Times Roman,serif" font-size="14.00">hace 2 meses y 3 semanas &#160;llego</text>
<text text-anchor="start" x="431.5" y="-327.333" font-family="Times Roman,serif" font-size="14.00">4 dias en espera</text>
</g>
<!-- Presidencia_stats&#45;&gt;Presidencia -->
<g id="edge26" class="edge"><title>Presidencia_stats&#45;&gt;Presidencia</title>
<path fill="none" stroke="black" stroke-dasharray="1,5" d="M448.745,-315.769C437.75,-305.061 425.761,-293.385 414.633,-282.547"/>
<polygon fill="black" stroke="black" points="417.069,-280.034 407.464,-275.565 412.186,-285.049 417.069,-280.034"/>
</g>
<!-- final_stats -->
<g id="node31" class="node"><title>final_stats</title>
<polygon fill="none" stroke="black" stroke-dasharray="5,2" points="846,-151 722,-151 722,-109 846,-109 846,-151"/>
<text text-anchor="start" x="730" y="-136.733" font-family="Times Roman,serif" font-size="14.00">Suma total: 0%</text>
<text text-anchor="start" x="779" y="-119.933" font-family="Times Roman,serif" font-size="14.00"> &#160;</text>
</g>
<!-- final_stats&#45;&gt;final -->
<g id="edge34" class="edge"><title>final_stats&#45;&gt;final</title>
<path fill="none" stroke="black" stroke-dasharray="1,5" d="M724.187,-108.934C659.147,-86.0267 557.241,-50.1352 502.951,-31.0142"/>
<polygon fill="black" stroke="black" points="503.983,-27.6668 493.388,-27.646 501.657,-34.2693 503.983,-27.6668"/>
</g>
</g>
</svg>
