<?xml version="1.0" encoding="UTF-8" standalone="no"?>
<!DOCTYPE svg PUBLIC "-//W3C//DTD SVG 1.1//EN"
 "http://www.w3.org/Graphics/SVG/1.1/DTD/svg11.dtd">
<!-- Generated by graphviz version 2.26.3 (20100126.1600)
 -->
<!-- Title: G Pages: 1 -->
<svg width="854pt" height="716pt"
 viewBox="0.00 0.00 854.00 716.00" xmlns="http://www.w3.org/2000/svg" xmlns:xlink="http://www.w3.org/1999/xlink">
<g id="graph1" class="graph" transform="scale(1 1) rotate(0) translate(4 712)">
<title>G</title>
<polygon fill="white" stroke="white" points="-4,5 -4,-712 851,-712 851,5 -4,5"/>
<!-- Talento_humano -->
<g id="node1" class="node"><title>Talento_humano</title>
<polygon fill="#ffff00" stroke="black" points="814,-487 630,-487 630,-445 814,-445 814,-487"/>
<polygon fill="none" stroke="black" points="814,-487 630,-487 630,-445 814,-445 814,-487"/>
<text text-anchor="middle" x="722" y="-470.4" font-family="Helvetica,sans-Serif" font-size="14.00">Talento_humano</text>
<text text-anchor="middle" x="722" y="-453.4" font-family="Helvetica,sans-Serif" font-size="14.00">Planilla vista_vacaciones</text>
</g>
<!-- DireccionEjecutiva -->
<g id="node3" class="node"><title>DireccionEjecutiva</title>
<polygon fill="#ffff00" stroke="black" points="701,-375 517,-375 517,-333 701,-333 701,-375"/>
<polygon fill="none" stroke="black" points="701,-375 517,-375 517,-333 701,-333 701,-375"/>
<text text-anchor="middle" x="609" y="-358.4" font-family="Helvetica,sans-Serif" font-size="14.00">DireccionEjecutiva</text>
<text text-anchor="middle" x="609" y="-341.4" font-family="Helvetica,sans-Serif" font-size="14.00">Planilla vista_vacaciones</text>
</g>
<!-- Talento_humano&#45;&gt;DireccionEjecutiva -->
<g id="edge2" class="edge"><title>Talento_humano&#45;&gt;DireccionEjecutiva</title>
<path fill="none" stroke="black" d="M700.746,-444.934C682.945,-427.291 657.373,-401.945 637.746,-382.491"/>
<polygon fill="black" stroke="black" points="640.11,-379.906 630.543,-375.353 635.182,-384.878 640.11,-379.906"/>
</g>
<!-- Presidencia -->
<g id="node7" class="node"><title>Presidencia</title>
<polygon fill="#ffff00" stroke="#ffff00" points="427,-208.5 599,-208.5 611,-220.5 611,-263.5 599,-275.5 427,-275.5 415,-263.5 415,-220.5 427,-208.5"/>
<path fill="#ffff00" stroke="#ffff00" d="M599,-208.5C605,-208.5 611,-214.5 611,-220.5"/>
<path fill="#ffff00" stroke="#ffff00" d="M611,-263.5C611,-269.5 605,-275.5 599,-275.5"/>
<path fill="#ffff00" stroke="#ffff00" d="M427,-275.5C421,-275.5 415,-269.5 415,-263.5"/>
<path fill="#ffff00" stroke="#ffff00" d="M415,-220.5C415,-214.5 421,-208.5 427,-208.5"/>
<polyline fill="none" stroke="black" points="427,-208.5 599,-208.5 "/>
<path fill="none" stroke="black" d="M599,-208.5C605,-208.5 611,-214.5 611,-220.5"/>
<polyline fill="none" stroke="black" points="611,-220.5 611,-263.5 "/>
<path fill="none" stroke="black" d="M611,-263.5C611,-269.5 605,-275.5 599,-275.5"/>
<polyline fill="none" stroke="black" points="599,-275.5 427,-275.5 "/>
<path fill="none" stroke="black" d="M427,-275.5C421,-275.5 415,-269.5 415,-263.5"/>
<polyline fill="none" stroke="black" points="415,-263.5 415,-220.5 "/>
<path fill="none" stroke="black" d="M415,-220.5C415,-214.5 421,-208.5 427,-208.5"/>
<text text-anchor="middle" x="513" y="-258.9" font-family="Helvetica,sans-Serif" font-size="14.00">Presidencia</text>
<text text-anchor="middle" x="513" y="-241.9" font-family="Helvetica,sans-Serif" font-size="14.00">Aprobacion del Presidente</text>
<polyline fill="none" stroke="black" points="415,-233.5 611,-233.5 "/>
<text text-anchor="middle" x="513" y="-216.9" font-family="Helvetica,sans-Serif" font-size="14.00">or</text>
</g>
<!-- DireccionEjecutiva&#45;&gt;Presidencia -->
<g id="edge6" class="edge"><title>DireccionEjecutiva&#45;&gt;Presidencia</title>
<path fill="none" stroke="black" d="M590.943,-332.934C579.087,-319.102 563.174,-300.536 548.817,-283.787"/>
<polygon fill="black" stroke="black" points="551.084,-281.054 541.919,-275.739 545.77,-285.609 551.084,-281.054"/>
</g>
<!-- Talento_humano_stats -->
<g id="node4" class="node"><title>Talento_humano_stats</title>
<polygon fill="none" stroke="black" stroke-dasharray="5,2" points="729,-616 565,-616 565,-540 729,-540 729,-616"/>
<text text-anchor="start" x="613.5" y="-601.733" font-family="Times Roman,serif" font-size="14.00">eparedes </text>
<text text-anchor="start" x="573" y="-584.933" font-family="Times Roman,serif" font-size="14.00">11/11/2013 02:46pm</text>
<text text-anchor="start" x="582" y="-568.133" font-family="Times Roman,serif" font-size="14.00">hace 3 meses llego</text>
<text text-anchor="start" x="636" y="-551.333" font-family="Times Roman,serif" font-size="14.00">n/a</text>
</g>
<!-- Talento_humano_stats&#45;&gt;Talento_humano -->
<g id="edge4" class="edge"><title>Talento_humano_stats&#45;&gt;Talento_humano</title>
<path fill="none" stroke="black" stroke-dasharray="1,5" d="M672.601,-539.769C682.278,-525.318 693.135,-509.105 702.201,-495.567"/>
<polygon fill="black" stroke="black" points="705.213,-497.359 707.869,-487.102 699.397,-493.464 705.213,-497.359"/>
</g>
<!-- Archivar_solicitud_procesada -->
<g id="node11" class="node"><title>Archivar_solicitud_procesada</title>
<polygon fill="#ffffff" stroke="black" points="526,-151 312,-151 312,-109 526,-109 526,-151"/>
<polygon fill="none" stroke="black" points="526,-151 312,-151 312,-109 526,-109 526,-151"/>
<text text-anchor="middle" x="419" y="-134.4" font-family="Helvetica,sans-Serif" font-size="14.00">Archivar_solicitud_procesada</text>
<text text-anchor="middle" x="419" y="-117.4" font-family="Helvetica,sans-Serif" font-size="14.00">solicitud_archivada</text>
</g>
<!-- Presidencia&#45;&gt;Archivar_solicitud_procesada -->
<g id="edge10" class="edge"><title>Presidencia&#45;&gt;Archivar_solicitud_procesada</title>
<path fill="none" stroke="black" d="M484.797,-208.396C471.656,-192.739 456.167,-174.285 443.52,-159.215"/>
<polygon fill="black" stroke="black" points="445.929,-156.641 436.819,-151.231 440.567,-161.141 445.929,-156.641"/>
</g>
<!-- Firmada_talento -->
<g id="node13" class="node"><title>Firmada_talento</title>
<polygon fill="#ffffff" stroke="black" points="672,-151 544,-151 544,-109 672,-109 672,-151"/>
<polygon fill="none" stroke="black" points="672,-151 544,-151 544,-109 672,-109 672,-151"/>
<text text-anchor="middle" x="608" y="-134.4" font-family="Helvetica,sans-Serif" font-size="14.00">Firmada_talento</text>
<text text-anchor="middle" x="608" y="-117.4" font-family="Helvetica,sans-Serif" font-size="14.00">firmada_EE</text>
</g>
<!-- Presidencia&#45;&gt;Firmada_talento -->
<g id="edge12" class="edge"><title>Presidencia&#45;&gt;Firmada_talento</title>
<path fill="none" stroke="black" d="M541.503,-208.396C554.784,-192.739 570.437,-174.285 583.219,-159.215"/>
<polygon fill="black" stroke="black" points="586.192,-161.121 589.992,-151.231 580.854,-156.593 586.192,-161.121"/>
</g>
<!-- Firmada_direccion -->
<g id="node15" class="node"><title>Firmada_direccion</title>
<polygon fill="#ffff00" stroke="black" points="152,-151 12,-151 12,-109 152,-109 152,-151"/>
<polygon fill="none" stroke="black" points="152,-151 12,-151 12,-109 152,-109 152,-151"/>
<text text-anchor="middle" x="82" y="-134.4" font-family="Helvetica,sans-Serif" font-size="14.00">Firmada_direccion</text>
<text text-anchor="middle" x="82" y="-117.4" font-family="Helvetica,sans-Serif" font-size="14.00">firmada_YV</text>
</g>
<!-- Presidencia&#45;&gt;Firmada_direccion -->
<g id="edge14" class="edge"><title>Presidencia&#45;&gt;Firmada_direccion</title>
<path fill="none" stroke="black" d="M414.708,-216.781C346.5,-199.235 253.263,-175.162 161.897,-151.229"/>
<polygon fill="black" stroke="black" points="162.765,-147.838 152.205,-148.689 160.991,-154.61 162.765,-147.838"/>
</g>
<!-- Firmada_presidencia -->
<g id="node17" class="node"><title>Firmada_presidencia</title>
<polygon fill="#ffffff" stroke="black" points="846,-151 690,-151 690,-109 846,-109 846,-151"/>
<polygon fill="none" stroke="black" points="846,-151 690,-151 690,-109 846,-109 846,-151"/>
<text text-anchor="middle" x="768" y="-134.4" font-family="Helvetica,sans-Serif" font-size="14.00">Firmada_presidencia</text>
<text text-anchor="middle" x="768" y="-117.4" font-family="Helvetica,sans-Serif" font-size="14.00">firmada_JJ</text>
</g>
<!-- Presidencia&#45;&gt;Firmada_presidencia -->
<g id="edge16" class="edge"><title>Presidencia&#45;&gt;Firmada_presidencia</title>
<path fill="none" stroke="black" d="M589.508,-208.396C628.428,-191.302 674.936,-170.875 710.72,-155.158"/>
<polygon fill="black" stroke="black" points="712.295,-158.289 720.043,-151.063 709.48,-151.88 712.295,-158.289"/>
</g>
<!-- DireccionEjecutiva_stats -->
<g id="node8" class="node"><title>DireccionEjecutiva_stats</title>
<polygon fill="none" stroke="black" stroke-dasharray="5,2" points="612,-504 380,-504 380,-428 612,-428 612,-504"/>
<text text-anchor="start" x="471.5" y="-489.733" font-family="Times Roman,serif" font-size="14.00">emora </text>
<text text-anchor="start" x="422" y="-472.933" font-family="Times Roman,serif" font-size="14.00">11/11/2013 05:48pm</text>
<text text-anchor="start" x="431" y="-456.133" font-family="Times Roman,serif" font-size="14.00">hace 3 meses llego</text>
<text text-anchor="start" x="388.5" y="-439.333" font-family="Times Roman,serif" font-size="14.00">3 horas y 2 minutos &#160;en espera</text>
</g>
<!-- DireccionEjecutiva_stats&#45;&gt;DireccionEjecutiva -->
<g id="edge8" class="edge"><title>DireccionEjecutiva_stats&#45;&gt;DireccionEjecutiva</title>
<path fill="none" stroke="black" stroke-dasharray="1,5" d="M534.572,-427.769C549.569,-412.905 566.446,-396.177 580.333,-382.413"/>
<polygon fill="black" stroke="black" points="583.071,-384.628 587.709,-375.102 578.143,-379.656 583.071,-384.628"/>
</g>
<!-- final -->
<g id="node21" class="node"><title>final</title>
<ellipse fill="#ffffff" stroke="black" cx="419" cy="-18" rx="31.9646" ry="18"/>
<ellipse fill="none" stroke="black" cx="419" cy="-18" rx="31.9646" ry="18"/>
<text text-anchor="middle" x="419" y="-13.9" font-family="Times Roman,serif" font-size="14.00">final</text>
</g>
<!-- Archivar_solicitud_procesada&#45;&gt;final -->
<g id="edge20" class="edge"><title>Archivar_solicitud_procesada&#45;&gt;final</title>
<path fill="none" stroke="black" d="M419,-108.934C419,-91.1831 419,-65.6359 419,-46.1368"/>
<polygon fill="black" stroke="black" points="422.5,-46.0141 419,-36.0142 415.5,-46.0142 422.5,-46.0141"/>
</g>
<!-- Firmada_talento&#45;&gt;final -->
<g id="edge28" class="edge"><title>Firmada_talento&#45;&gt;final</title>
<path fill="none" stroke="black" d="M572.451,-108.934C537.166,-88.0242 483.625,-56.2961 450.015,-36.3792"/>
<polygon fill="black" stroke="black" points="451.483,-33.1807 441.096,-31.0937 447.914,-39.2028 451.483,-33.1807"/>
</g>
<!-- Firmada_direccion&#45;&gt;final -->
<g id="edge22" class="edge"><title>Firmada_direccion&#45;&gt;final</title>
<path fill="none" stroke="black" d="M145.387,-108.934C214.995,-85.7998 324.45,-49.423 381.536,-30.4511"/>
<polygon fill="black" stroke="black" points="382.846,-33.7039 391.232,-27.2287 380.638,-27.0612 382.846,-33.7039"/>
</g>
<!-- Firmada_presidencia&#45;&gt;final -->
<g id="edge26" class="edge"><title>Firmada_presidencia&#45;&gt;final</title>
<path fill="none" stroke="black" d="M702.356,-108.934C629.746,-85.6321 515.271,-48.895 456.521,-30.0413"/>
<polygon fill="black" stroke="black" points="457.495,-26.6779 446.904,-26.9548 455.356,-33.3431 457.495,-26.6779"/>
</g>
<!-- Presidencia_stats -->
<g id="node18" class="node"><title>Presidencia_stats</title>
<polygon fill="none" stroke="black" stroke-dasharray="5,2" points="499,-392 335,-392 335,-316 499,-316 499,-392"/>
<text text-anchor="start" x="393" y="-377.733" font-family="Times Roman,serif" font-size="14.00">yverdi </text>
<text text-anchor="start" x="343" y="-360.933" font-family="Times Roman,serif" font-size="14.00">15/11/2013 05:57pm</text>
<text text-anchor="start" x="352" y="-344.133" font-family="Times Roman,serif" font-size="14.00">hace 3 meses llego</text>
<text text-anchor="start" x="360.5" y="-327.333" font-family="Times Roman,serif" font-size="14.00">4 dias en espera</text>
</g>
<!-- Presidencia_stats&#45;&gt;Presidencia -->
<g id="edge18" class="edge"><title>Presidencia_stats&#45;&gt;Presidencia</title>
<path fill="none" stroke="black" stroke-dasharray="1,5" d="M449.769,-315.769C458.773,-305.265 468.575,-293.829 477.714,-283.167"/>
<polygon fill="black" stroke="black" points="480.38,-285.435 484.23,-275.565 475.065,-280.879 480.38,-285.435"/>
</g>
<!-- Firmada_direccion_stats -->
<g id="node23" class="node"><title>Firmada_direccion_stats</title>
<polygon fill="none" stroke="black" stroke-dasharray="5,2" points="164,-271.5 7.10543e-14,-271.5 0,-212.5 164,-212.5 164,-271.5"/>
<text text-anchor="start" x="9.5" y="-257.233" font-family="Times Roman,serif" font-size="14.00">Antonio Araujo Brett</text>
<text text-anchor="start" x="8" y="-240.433" font-family="Times Roman,serif" font-size="14.00">hace 746 meses llego</text>
<text text-anchor="start" x="8.5" y="-223.633" font-family="Times Roman,serif" font-size="14.00">743 meses en espera</text>
</g>
<!-- Firmada_direccion_stats&#45;&gt;Firmada_direccion -->
<g id="edge24" class="edge"><title>Firmada_direccion_stats&#45;&gt;Firmada_direccion</title>
<path fill="none" stroke="black" stroke-dasharray="1,5" d="M82,-212.28C82,-196.694 82,-177.596 82,-161.724"/>
<polygon fill="black" stroke="black" points="85.5001,-161.334 82,-151.334 78.5001,-161.334 85.5001,-161.334"/>
</g>
<!-- Por_usuario -->
<g id="node27" class="node"><title>Por_usuario</title>
<polygon fill="#ffff00" stroke="black" points="845,-599 747,-599 747,-557 845,-557 845,-599"/>
<polygon fill="none" stroke="black" points="845,-599 747,-599 747,-557 845,-557 845,-599"/>
<text text-anchor="middle" x="796" y="-582.4" font-family="Helvetica,sans-Serif" font-size="14.00">Por_usuario</text>
<text text-anchor="middle" x="796" y="-565.4" font-family="Helvetica,sans-Serif" font-size="14.00">todas</text>
</g>
<!-- Por_usuario&#45;&gt;Talento_humano -->
<g id="edge30" class="edge"><title>Por_usuario&#45;&gt;Talento_humano</title>
<path fill="none" stroke="black" d="M782.081,-556.934C770.681,-539.679 754.413,-515.058 741.68,-495.785"/>
<polygon fill="black" stroke="black" points="744.541,-493.767 736.108,-487.353 738.7,-497.625 744.541,-493.767"/>
</g>
<!-- inicial -->
<g id="node29" class="node"><title>inicial</title>
<ellipse fill="#ffffff" stroke="black" cx="796" cy="-690" rx="38.9134" ry="18"/>
<ellipse fill="none" stroke="black" cx="796" cy="-690" rx="38.9134" ry="18"/>
<text text-anchor="middle" x="796" y="-685.9" font-family="Times Roman,serif" font-size="14.00">inicial</text>
</g>
<!-- inicial&#45;&gt;Por_usuario -->
<g id="edge32" class="edge"><title>inicial&#45;&gt;Por_usuario</title>
<path fill="none" stroke="black" d="M796,-671.505C796,-654.652 796,-629.412 796,-609.401"/>
<polygon fill="black" stroke="black" points="799.5,-609.198 796,-599.198 792.5,-609.198 799.5,-609.198"/>
</g>
<!-- final_stats -->
<g id="node31" class="node"><title>final_stats</title>
<polygon fill="none" stroke="black" stroke-dasharray="5,2" points="294,-151 170,-151 170,-109 294,-109 294,-151"/>
<text text-anchor="start" x="178" y="-136.733" font-family="Times Roman,serif" font-size="14.00">Suma total: 0%</text>
<text text-anchor="start" x="227" y="-119.933" font-family="Times Roman,serif" font-size="14.00"> &#160;</text>
</g>
<!-- final_stats&#45;&gt;final -->
<g id="edge34" class="edge"><title>final_stats&#45;&gt;final</title>
<path fill="none" stroke="black" stroke-dasharray="1,5" d="M267.173,-108.934C301.988,-88.0821 354.766,-56.4718 388.036,-36.545"/>
<polygon fill="black" stroke="black" points="390.091,-39.394 396.872,-31.2531 386.495,-33.3887 390.091,-39.394"/>
</g>
</g>
</svg>
