<?xml version="1.0" encoding="UTF-8" standalone="no"?>
<!DOCTYPE svg PUBLIC "-//W3C//DTD SVG 1.1//EN"
 "http://www.w3.org/Graphics/SVG/1.1/DTD/svg11.dtd">
<!-- Generated by graphviz version 2.26.3 (20100126.1600)
 -->
<!-- Title: G Pages: 1 -->
<svg width="894pt" height="716pt"
 viewBox="0.00 0.00 894.00 716.00" xmlns="http://www.w3.org/2000/svg" xmlns:xlink="http://www.w3.org/1999/xlink">
<g id="graph1" class="graph" transform="scale(1 1) rotate(0) translate(4 712)">
<title>G</title>
<polygon fill="white" stroke="white" points="-4,5 -4,-712 891,-712 891,5 -4,5"/>
<!-- Talento_humano -->
<g id="node1" class="node"><title>Talento_humano</title>
<polygon fill="#ffff00" stroke="black" points="276,-487 92,-487 92,-445 276,-445 276,-487"/>
<polygon fill="none" stroke="black" points="276,-487 92,-487 92,-445 276,-445 276,-487"/>
<text text-anchor="middle" x="184" y="-470.4" font-family="Helvetica,sans-Serif" font-size="14.00">Talento_humano</text>
<text text-anchor="middle" x="184" y="-453.4" font-family="Helvetica,sans-Serif" font-size="14.00">Planilla vista_vacaciones</text>
</g>
<!-- DireccionEjecutiva -->
<g id="node3" class="node"><title>DireccionEjecutiva</title>
<polygon fill="#ffff00" stroke="black" points="389,-375 205,-375 205,-333 389,-333 389,-375"/>
<polygon fill="none" stroke="black" points="389,-375 205,-375 205,-333 389,-333 389,-375"/>
<text text-anchor="middle" x="297" y="-358.4" font-family="Helvetica,sans-Serif" font-size="14.00">DireccionEjecutiva</text>
<text text-anchor="middle" x="297" y="-341.4" font-family="Helvetica,sans-Serif" font-size="14.00">Planilla vista_vacaciones</text>
</g>
<!-- Talento_humano&#45;&gt;DireccionEjecutiva -->
<g id="edge2" class="edge"><title>Talento_humano&#45;&gt;DireccionEjecutiva</title>
<path fill="none" stroke="black" d="M205.254,-444.934C223.055,-427.291 248.627,-401.945 268.254,-382.491"/>
<polygon fill="black" stroke="black" points="270.818,-384.878 275.457,-375.353 265.89,-379.906 270.818,-384.878"/>
</g>
<!-- Presidencia -->
<g id="node7" class="node"><title>Presidencia</title>
<polygon fill="#ffff00" stroke="#ffff00" points="307,-208.5 479,-208.5 491,-220.5 491,-263.5 479,-275.5 307,-275.5 295,-263.5 295,-220.5 307,-208.5"/>
<path fill="#ffff00" stroke="#ffff00" d="M479,-208.5C485,-208.5 491,-214.5 491,-220.5"/>
<path fill="#ffff00" stroke="#ffff00" d="M491,-263.5C491,-269.5 485,-275.5 479,-275.5"/>
<path fill="#ffff00" stroke="#ffff00" d="M307,-275.5C301,-275.5 295,-269.5 295,-263.5"/>
<path fill="#ffff00" stroke="#ffff00" d="M295,-220.5C295,-214.5 301,-208.5 307,-208.5"/>
<polyline fill="none" stroke="black" points="307,-208.5 479,-208.5 "/>
<path fill="none" stroke="black" d="M479,-208.5C485,-208.5 491,-214.5 491,-220.5"/>
<polyline fill="none" stroke="black" points="491,-220.5 491,-263.5 "/>
<path fill="none" stroke="black" d="M491,-263.5C491,-269.5 485,-275.5 479,-275.5"/>
<polyline fill="none" stroke="black" points="479,-275.5 307,-275.5 "/>
<path fill="none" stroke="black" d="M307,-275.5C301,-275.5 295,-269.5 295,-263.5"/>
<polyline fill="none" stroke="black" points="295,-263.5 295,-220.5 "/>
<path fill="none" stroke="black" d="M295,-220.5C295,-214.5 301,-208.5 307,-208.5"/>
<text text-anchor="middle" x="393" y="-258.9" font-family="Helvetica,sans-Serif" font-size="14.00">Presidencia</text>
<text text-anchor="middle" x="393" y="-241.9" font-family="Helvetica,sans-Serif" font-size="14.00">Aprobacion del Presidente</text>
<polyline fill="none" stroke="black" points="295,-233.5 491,-233.5 "/>
<text text-anchor="middle" x="393" y="-216.9" font-family="Helvetica,sans-Serif" font-size="14.00">or</text>
</g>
<!-- DireccionEjecutiva&#45;&gt;Presidencia -->
<g id="edge6" class="edge"><title>DireccionEjecutiva&#45;&gt;Presidencia</title>
<path fill="none" stroke="black" d="M315.057,-332.934C326.913,-319.102 342.826,-300.536 357.183,-283.787"/>
<polygon fill="black" stroke="black" points="360.23,-285.609 364.081,-275.739 354.916,-281.054 360.23,-285.609"/>
</g>
<!-- Talento_humano_stats -->
<g id="node4" class="node"><title>Talento_humano_stats</title>
<polygon fill="none" stroke="black" stroke-dasharray="5,2" points="192,-616 28,-616 28,-540 192,-540 192,-616"/>
<text text-anchor="start" x="76.5" y="-601.733" font-family="Times Roman,serif" font-size="14.00">eparedes </text>
<text text-anchor="start" x="36" y="-584.933" font-family="Times Roman,serif" font-size="14.00">11/11/2013 02:46pm</text>
<text text-anchor="start" x="45" y="-568.133" font-family="Times Roman,serif" font-size="14.00">hace 3 meses llego</text>
<text text-anchor="start" x="99" y="-551.333" font-family="Times Roman,serif" font-size="14.00">n/a</text>
</g>
<!-- Talento_humano_stats&#45;&gt;Talento_humano -->
<g id="edge4" class="edge"><title>Talento_humano_stats&#45;&gt;Talento_humano</title>
<path fill="none" stroke="black" stroke-dasharray="1,5" d="M135.26,-539.769C144.808,-525.318 155.52,-509.105 164.465,-495.567"/>
<polygon fill="black" stroke="black" points="167.465,-497.375 170.057,-487.102 161.625,-493.516 167.465,-497.375"/>
</g>
<!-- Archivar_solicitud_procesada -->
<g id="node11" class="node"><title>Archivar_solicitud_procesada</title>
<polygon fill="#ffffff" stroke="black" points="412,-151 198,-151 198,-109 412,-109 412,-151"/>
<polygon fill="none" stroke="black" points="412,-151 198,-151 198,-109 412,-109 412,-151"/>
<text text-anchor="middle" x="305" y="-134.4" font-family="Helvetica,sans-Serif" font-size="14.00">Archivar_solicitud_procesada</text>
<text text-anchor="middle" x="305" y="-117.4" font-family="Helvetica,sans-Serif" font-size="14.00">solicitud_archivada</text>
</g>
<!-- Presidencia&#45;&gt;Archivar_solicitud_procesada -->
<g id="edge10" class="edge"><title>Presidencia&#45;&gt;Archivar_solicitud_procesada</title>
<path fill="none" stroke="black" d="M366.597,-208.396C354.295,-192.739 339.795,-174.285 327.955,-159.215"/>
<polygon fill="black" stroke="black" points="330.612,-156.932 321.681,-151.231 325.108,-161.257 330.612,-156.932"/>
</g>
<!-- Firmada_talento -->
<g id="node13" class="node"><title>Firmada_talento</title>
<polygon fill="#ffff00" stroke="black" points="180,-151 52,-151 52,-109 180,-109 180,-151"/>
<polygon fill="none" stroke="black" points="180,-151 52,-151 52,-109 180,-109 180,-151"/>
<text text-anchor="middle" x="116" y="-134.4" font-family="Helvetica,sans-Serif" font-size="14.00">Firmada_talento</text>
<text text-anchor="middle" x="116" y="-117.4" font-family="Helvetica,sans-Serif" font-size="14.00">firmada_EE</text>
</g>
<!-- Presidencia&#45;&gt;Firmada_talento -->
<g id="edge12" class="edge"><title>Presidencia&#45;&gt;Firmada_talento</title>
<path fill="none" stroke="black" d="M309.891,-208.396C267.434,-191.23 216.663,-170.701 177.726,-154.958"/>
<polygon fill="black" stroke="black" points="178.677,-151.567 168.094,-151.063 176.053,-158.057 178.677,-151.567"/>
</g>
<!-- Firmada_direccion -->
<g id="node15" class="node"><title>Firmada_direccion</title>
<polygon fill="#ffff00" stroke="black" points="744,-151 604,-151 604,-109 744,-109 744,-151"/>
<polygon fill="none" stroke="black" points="744,-151 604,-151 604,-109 744,-109 744,-151"/>
<text text-anchor="middle" x="674" y="-134.4" font-family="Helvetica,sans-Serif" font-size="14.00">Firmada_direccion</text>
<text text-anchor="middle" x="674" y="-117.4" font-family="Helvetica,sans-Serif" font-size="14.00">firmada_YV</text>
</g>
<!-- Presidencia&#45;&gt;Firmada_direccion -->
<g id="edge14" class="edge"><title>Presidencia&#45;&gt;Firmada_direccion</title>
<path fill="none" stroke="black" d="M477.309,-208.396C520.47,-191.193 572.102,-170.614 611.634,-154.858"/>
<polygon fill="black" stroke="black" points="613.16,-158.017 621.154,-151.063 610.569,-151.515 613.16,-158.017"/>
</g>
<!-- Firmada_presidencia -->
<g id="node17" class="node"><title>Firmada_presidencia</title>
<polygon fill="#ffffff" stroke="black" points="586,-151 430,-151 430,-109 586,-109 586,-151"/>
<polygon fill="none" stroke="black" points="586,-151 430,-151 430,-109 586,-109 586,-151"/>
<text text-anchor="middle" x="508" y="-134.4" font-family="Helvetica,sans-Serif" font-size="14.00">Firmada_presidencia</text>
<text text-anchor="middle" x="508" y="-117.4" font-family="Helvetica,sans-Serif" font-size="14.00">firmada_JJ</text>
</g>
<!-- Presidencia&#45;&gt;Firmada_presidencia -->
<g id="edge16" class="edge"><title>Presidencia&#45;&gt;Firmada_presidencia</title>
<path fill="none" stroke="black" d="M427.504,-208.396C443.878,-192.449 463.232,-173.6 478.858,-158.382"/>
<polygon fill="black" stroke="black" points="481.478,-160.715 486.2,-151.231 476.594,-155.701 481.478,-160.715"/>
</g>
<!-- DireccionEjecutiva_stats -->
<g id="node8" class="node"><title>DireccionEjecutiva_stats</title>
<polygon fill="none" stroke="black" stroke-dasharray="5,2" points="526,-504 294,-504 294,-428 526,-428 526,-504"/>
<text text-anchor="start" x="385.5" y="-489.733" font-family="Times Roman,serif" font-size="14.00">emora </text>
<text text-anchor="start" x="336" y="-472.933" font-family="Times Roman,serif" font-size="14.00">11/11/2013 05:48pm</text>
<text text-anchor="start" x="345" y="-456.133" font-family="Times Roman,serif" font-size="14.00">hace 3 meses llego</text>
<text text-anchor="start" x="302.5" y="-439.333" font-family="Times Roman,serif" font-size="14.00">3 horas y 2 minutos &#160;en espera</text>
</g>
<!-- DireccionEjecutiva_stats&#45;&gt;DireccionEjecutiva -->
<g id="edge8" class="edge"><title>DireccionEjecutiva_stats&#45;&gt;DireccionEjecutiva</title>
<path fill="none" stroke="black" stroke-dasharray="1,5" d="M371.428,-427.769C356.431,-412.905 339.554,-396.177 325.667,-382.413"/>
<polygon fill="black" stroke="black" points="327.857,-379.656 318.291,-375.102 322.929,-384.628 327.857,-379.656"/>
</g>
<!-- final -->
<g id="node21" class="node"><title>final</title>
<ellipse fill="#ffffff" stroke="black" cx="508" cy="-18" rx="31.9646" ry="18"/>
<ellipse fill="none" stroke="black" cx="508" cy="-18" rx="31.9646" ry="18"/>
<text text-anchor="middle" x="508" y="-13.9" font-family="Times Roman,serif" font-size="14.00">final</text>
</g>
<!-- Archivar_solicitud_procesada&#45;&gt;final -->
<g id="edge28" class="edge"><title>Archivar_solicitud_procesada&#45;&gt;final</title>
<path fill="none" stroke="black" d="M343.183,-108.934C381.559,-87.7603 440.043,-55.4936 476.044,-35.6309"/>
<polygon fill="black" stroke="black" points="478.061,-38.5153 485.126,-30.6199 474.68,-32.3862 478.061,-38.5153"/>
</g>
<!-- Firmada_talento&#45;&gt;final -->
<g id="edge24" class="edge"><title>Firmada_talento&#45;&gt;final</title>
<path fill="none" stroke="black" d="M180.092,-111.554C183.103,-110.69 186.084,-109.835 189,-109 290.271,-79.989 409.685,-45.9766 469.611,-28.9214"/>
<polygon fill="black" stroke="black" points="470.739,-32.2395 479.399,-26.1359 468.823,-25.5068 470.739,-32.2395"/>
</g>
<!-- Firmada_direccion&#45;&gt;final -->
<g id="edge20" class="edge"><title>Firmada_direccion&#45;&gt;final</title>
<path fill="none" stroke="black" d="M642.777,-108.934C612.476,-88.49 566.848,-57.7044 537.239,-37.7277"/>
<polygon fill="black" stroke="black" points="538.847,-34.5902 528.6,-31.8985 534.932,-40.3929 538.847,-34.5902"/>
</g>
<!-- Firmada_presidencia&#45;&gt;final -->
<g id="edge30" class="edge"><title>Firmada_presidencia&#45;&gt;final</title>
<path fill="none" stroke="black" d="M508,-108.934C508,-91.1831 508,-65.6359 508,-46.1368"/>
<polygon fill="black" stroke="black" points="511.5,-46.0141 508,-36.0142 504.5,-46.0142 511.5,-46.0141"/>
</g>
<!-- Presidencia_stats -->
<g id="node18" class="node"><title>Presidencia_stats</title>
<polygon fill="none" stroke="black" stroke-dasharray="5,2" points="571,-392 407,-392 407,-316 571,-316 571,-392"/>
<text text-anchor="start" x="465" y="-377.733" font-family="Times Roman,serif" font-size="14.00">yverdi </text>
<text text-anchor="start" x="415" y="-360.933" font-family="Times Roman,serif" font-size="14.00">15/11/2013 05:57pm</text>
<text text-anchor="start" x="424" y="-344.133" font-family="Times Roman,serif" font-size="14.00">hace 3 meses llego</text>
<text text-anchor="start" x="432.5" y="-327.333" font-family="Times Roman,serif" font-size="14.00">4 dias en espera</text>
</g>
<!-- Presidencia_stats&#45;&gt;Presidencia -->
<g id="edge18" class="edge"><title>Presidencia_stats&#45;&gt;Presidencia</title>
<path fill="none" stroke="black" stroke-dasharray="1,5" d="M456.231,-315.769C447.227,-305.265 437.425,-293.829 428.286,-283.167"/>
<polygon fill="black" stroke="black" points="430.935,-280.879 421.77,-275.565 425.62,-285.435 430.935,-280.879"/>
</g>
<!-- Firmada_direccion_stats -->
<g id="node22" class="node"><title>Firmada_direccion_stats</title>
<polygon fill="none" stroke="black" stroke-dasharray="5,2" points="794,-280 554,-280 554,-204 794,-204 794,-280"/>
<text text-anchor="start" x="622" y="-265.733" font-family="Times Roman,serif" font-size="14.00">Antonio Araujo</text>
<text text-anchor="start" x="600" y="-248.933" font-family="Times Roman,serif" font-size="14.00">07/02/2014 01:28pm</text>
<text text-anchor="start" x="566" y="-232.133" font-family="Times Roman,serif" font-size="14.00">hace dos &#160;dias y 20 horas &#160;llego</text>
<text text-anchor="start" x="562" y="-215.333" font-family="Times Roman,serif" font-size="14.00">2 meses y 3 semanas &#160;en espera</text>
</g>
<!-- Firmada_direccion_stats&#45;&gt;Firmada_direccion -->
<g id="edge22" class="edge"><title>Firmada_direccion_stats&#45;&gt;Firmada_direccion</title>
<path fill="none" stroke="black" stroke-dasharray="1,5" d="M674,-203.769C674,-189.868 674,-174.338 674,-161.126"/>
<polygon fill="black" stroke="black" points="677.5,-161.102 674,-151.102 670.5,-161.102 677.5,-161.102"/>
</g>
<!-- Firmada_talento_stats -->
<g id="node25" class="node"><title>Firmada_talento_stats</title>
<polygon fill="none" stroke="black" stroke-dasharray="5,2" points="232,-280 9.9476e-14,-280 0,-204 232,-204 232,-280"/>
<text text-anchor="start" x="64" y="-265.733" font-family="Times Roman,serif" font-size="14.00">Antonio Araujo</text>
<text text-anchor="start" x="42" y="-248.933" font-family="Times Roman,serif" font-size="14.00">07/02/2014 01:28pm</text>
<text text-anchor="start" x="8" y="-232.133" font-family="Times Roman,serif" font-size="14.00">hace dos &#160;dias y 20 horas &#160;llego</text>
<text text-anchor="start" x="20" y="-215.333" font-family="Times Roman,serif" font-size="14.00">solo un momento en espera</text>
</g>
<!-- Firmada_talento_stats&#45;&gt;Firmada_talento -->
<g id="edge26" class="edge"><title>Firmada_talento_stats&#45;&gt;Firmada_talento</title>
<path fill="none" stroke="black" stroke-dasharray="1,5" d="M116,-203.769C116,-189.868 116,-174.338 116,-161.126"/>
<polygon fill="black" stroke="black" points="119.5,-161.102 116,-151.102 112.5,-161.102 119.5,-161.102"/>
</g>
<!-- Por_usuario -->
<g id="node29" class="node"><title>Por_usuario</title>
<polygon fill="#ffff00" stroke="black" points="308,-599 210,-599 210,-557 308,-557 308,-599"/>
<polygon fill="none" stroke="black" points="308,-599 210,-599 210,-557 308,-557 308,-599"/>
<text text-anchor="middle" x="259" y="-582.4" font-family="Helvetica,sans-Serif" font-size="14.00">Por_usuario</text>
<text text-anchor="middle" x="259" y="-565.4" font-family="Helvetica,sans-Serif" font-size="14.00">todas</text>
</g>
<!-- Por_usuario&#45;&gt;Talento_humano -->
<g id="edge32" class="edge"><title>Por_usuario&#45;&gt;Talento_humano</title>
<path fill="none" stroke="black" d="M244.893,-556.934C233.339,-539.679 216.851,-515.058 203.946,-495.785"/>
<polygon fill="black" stroke="black" points="206.771,-493.714 198.299,-487.353 200.955,-497.609 206.771,-493.714"/>
</g>
<!-- inicial -->
<g id="node31" class="node"><title>inicial</title>
<ellipse fill="#ffffff" stroke="black" cx="259" cy="-690" rx="38.9134" ry="18"/>
<ellipse fill="none" stroke="black" cx="259" cy="-690" rx="38.9134" ry="18"/>
<text text-anchor="middle" x="259" y="-685.9" font-family="Times Roman,serif" font-size="14.00">inicial</text>
</g>
<!-- inicial&#45;&gt;Por_usuario -->
<g id="edge34" class="edge"><title>inicial&#45;&gt;Por_usuario</title>
<path fill="none" stroke="black" d="M259,-671.505C259,-654.652 259,-629.412 259,-609.401"/>
<polygon fill="black" stroke="black" points="262.5,-609.198 259,-599.198 255.5,-609.198 262.5,-609.198"/>
</g>
<!-- final_stats -->
<g id="node33" class="node"><title>final_stats</title>
<polygon fill="none" stroke="black" stroke-dasharray="5,2" points="886,-151 762,-151 762,-109 886,-109 886,-151"/>
<text text-anchor="start" x="770" y="-136.733" font-family="Times Roman,serif" font-size="14.00">Suma total: 0%</text>
<text text-anchor="start" x="819" y="-119.933" font-family="Times Roman,serif" font-size="14.00"> &#160;</text>
</g>
<!-- final_stats&#45;&gt;final -->
<g id="edge36" class="edge"><title>final_stats&#45;&gt;final</title>
<path fill="none" stroke="black" stroke-dasharray="1,5" d="M764.563,-108.934C699.932,-86.0267 598.667,-50.1352 544.719,-31.0142"/>
<polygon fill="black" stroke="black" points="545.81,-27.6878 535.215,-27.646 543.472,-34.2857 545.81,-27.6878"/>
</g>
</g>
</svg>
