<?xml version="1.0" encoding="UTF-8" standalone="no"?>
<!DOCTYPE svg PUBLIC "-//W3C//DTD SVG 1.1//EN"
 "http://www.w3.org/Graphics/SVG/1.1/DTD/svg11.dtd">
<!-- Generated by graphviz version 2.26.3 (20100126.1600)
 -->
<!-- Title: G Pages: 1 -->
<svg width="861pt" height="716pt"
 viewBox="0.00 0.00 861.00 716.00" xmlns="http://www.w3.org/2000/svg" xmlns:xlink="http://www.w3.org/1999/xlink">
<g id="graph1" class="graph" transform="scale(1 1) rotate(0) translate(4 712)">
<title>G</title>
<polygon fill="white" stroke="white" points="-4,5 -4,-712 858,-712 858,5 -4,5"/>
<!-- Talento_humano -->
<g id="node1" class="node"><title>Talento_humano</title>
<polygon fill="#ffff00" stroke="black" points="822,-487 638,-487 638,-445 822,-445 822,-487"/>
<polygon fill="none" stroke="black" points="822,-487 638,-487 638,-445 822,-445 822,-487"/>
<text text-anchor="middle" x="730" y="-470.4" font-family="Helvetica,sans-Serif" font-size="14.00">Talento_humano</text>
<text text-anchor="middle" x="730" y="-453.4" font-family="Helvetica,sans-Serif" font-size="14.00">Planilla vista_vacaciones</text>
</g>
<!-- DireccionEjecutiva -->
<g id="node3" class="node"><title>DireccionEjecutiva</title>
<polygon fill="#ffff00" stroke="black" points="709,-375 525,-375 525,-333 709,-333 709,-375"/>
<polygon fill="none" stroke="black" points="709,-375 525,-375 525,-333 709,-333 709,-375"/>
<text text-anchor="middle" x="617" y="-358.4" font-family="Helvetica,sans-Serif" font-size="14.00">DireccionEjecutiva</text>
<text text-anchor="middle" x="617" y="-341.4" font-family="Helvetica,sans-Serif" font-size="14.00">Planilla vista_vacaciones</text>
</g>
<!-- Talento_humano&#45;&gt;DireccionEjecutiva -->
<g id="edge2" class="edge"><title>Talento_humano&#45;&gt;DireccionEjecutiva</title>
<path fill="none" stroke="black" d="M708.746,-444.934C690.945,-427.291 665.373,-401.945 645.746,-382.491"/>
<polygon fill="black" stroke="black" points="648.11,-379.906 638.543,-375.353 643.182,-384.878 648.11,-379.906"/>
</g>
<!-- Presidencia -->
<g id="node7" class="node"><title>Presidencia</title>
<polygon fill="#ffff00" stroke="#ffff00" points="435,-208.5 607,-208.5 619,-220.5 619,-263.5 607,-275.5 435,-275.5 423,-263.5 423,-220.5 435,-208.5"/>
<path fill="#ffff00" stroke="#ffff00" d="M607,-208.5C613,-208.5 619,-214.5 619,-220.5"/>
<path fill="#ffff00" stroke="#ffff00" d="M619,-263.5C619,-269.5 613,-275.5 607,-275.5"/>
<path fill="#ffff00" stroke="#ffff00" d="M435,-275.5C429,-275.5 423,-269.5 423,-263.5"/>
<path fill="#ffff00" stroke="#ffff00" d="M423,-220.5C423,-214.5 429,-208.5 435,-208.5"/>
<polyline fill="none" stroke="black" points="435,-208.5 607,-208.5 "/>
<path fill="none" stroke="black" d="M607,-208.5C613,-208.5 619,-214.5 619,-220.5"/>
<polyline fill="none" stroke="black" points="619,-220.5 619,-263.5 "/>
<path fill="none" stroke="black" d="M619,-263.5C619,-269.5 613,-275.5 607,-275.5"/>
<polyline fill="none" stroke="black" points="607,-275.5 435,-275.5 "/>
<path fill="none" stroke="black" d="M435,-275.5C429,-275.5 423,-269.5 423,-263.5"/>
<polyline fill="none" stroke="black" points="423,-263.5 423,-220.5 "/>
<path fill="none" stroke="black" d="M423,-220.5C423,-214.5 429,-208.5 435,-208.5"/>
<text text-anchor="middle" x="521" y="-258.9" font-family="Helvetica,sans-Serif" font-size="14.00">Presidencia</text>
<text text-anchor="middle" x="521" y="-241.9" font-family="Helvetica,sans-Serif" font-size="14.00">Aprobacion del Presidente</text>
<polyline fill="none" stroke="black" points="423,-233.5 619,-233.5 "/>
<text text-anchor="middle" x="521" y="-216.9" font-family="Helvetica,sans-Serif" font-size="14.00">or</text>
</g>
<!-- DireccionEjecutiva&#45;&gt;Presidencia -->
<g id="edge6" class="edge"><title>DireccionEjecutiva&#45;&gt;Presidencia</title>
<path fill="none" stroke="black" d="M598.943,-332.934C587.087,-319.102 571.174,-300.536 556.817,-283.787"/>
<polygon fill="black" stroke="black" points="559.084,-281.054 549.919,-275.739 553.77,-285.609 559.084,-281.054"/>
</g>
<!-- Talento_humano_stats -->
<g id="node4" class="node"><title>Talento_humano_stats</title>
<polygon fill="none" stroke="black" stroke-dasharray="5,2" points="737,-616 573,-616 573,-540 737,-540 737,-616"/>
<text text-anchor="start" x="621.5" y="-601.733" font-family="Times Roman,serif" font-size="14.00">eparedes </text>
<text text-anchor="start" x="581" y="-584.933" font-family="Times Roman,serif" font-size="14.00">11/11/2013 02:46pm</text>
<text text-anchor="start" x="590" y="-568.133" font-family="Times Roman,serif" font-size="14.00">hace 3 meses llego</text>
<text text-anchor="start" x="644" y="-551.333" font-family="Times Roman,serif" font-size="14.00">n/a</text>
</g>
<!-- Talento_humano_stats&#45;&gt;Talento_humano -->
<g id="edge4" class="edge"><title>Talento_humano_stats&#45;&gt;Talento_humano</title>
<path fill="none" stroke="black" stroke-dasharray="1,5" d="M680.601,-539.769C690.278,-525.318 701.135,-509.105 710.201,-495.567"/>
<polygon fill="black" stroke="black" points="713.213,-497.359 715.869,-487.102 707.397,-493.464 713.213,-497.359"/>
</g>
<!-- Archivar_solicitud_procesada -->
<g id="node11" class="node"><title>Archivar_solicitud_procesada</title>
<polygon fill="#ffffff" stroke="black" points="534,-151 320,-151 320,-109 534,-109 534,-151"/>
<polygon fill="none" stroke="black" points="534,-151 320,-151 320,-109 534,-109 534,-151"/>
<text text-anchor="middle" x="427" y="-134.4" font-family="Helvetica,sans-Serif" font-size="14.00">Archivar_solicitud_procesada</text>
<text text-anchor="middle" x="427" y="-117.4" font-family="Helvetica,sans-Serif" font-size="14.00">solicitud_archivada</text>
</g>
<!-- Presidencia&#45;&gt;Archivar_solicitud_procesada -->
<g id="edge10" class="edge"><title>Presidencia&#45;&gt;Archivar_solicitud_procesada</title>
<path fill="none" stroke="black" d="M492.797,-208.396C479.656,-192.739 464.167,-174.285 451.52,-159.215"/>
<polygon fill="black" stroke="black" points="453.929,-156.641 444.819,-151.231 448.567,-161.141 453.929,-156.641"/>
</g>
<!-- Firmada_talento -->
<g id="node13" class="node"><title>Firmada_talento</title>
<polygon fill="#ffffff" stroke="black" points="680,-151 552,-151 552,-109 680,-109 680,-151"/>
<polygon fill="none" stroke="black" points="680,-151 552,-151 552,-109 680,-109 680,-151"/>
<text text-anchor="middle" x="616" y="-134.4" font-family="Helvetica,sans-Serif" font-size="14.00">Firmada_talento</text>
<text text-anchor="middle" x="616" y="-117.4" font-family="Helvetica,sans-Serif" font-size="14.00">firmada_EE</text>
</g>
<!-- Presidencia&#45;&gt;Firmada_talento -->
<g id="edge12" class="edge"><title>Presidencia&#45;&gt;Firmada_talento</title>
<path fill="none" stroke="black" d="M549.503,-208.396C562.784,-192.739 578.437,-174.285 591.219,-159.215"/>
<polygon fill="black" stroke="black" points="594.192,-161.121 597.992,-151.231 588.854,-156.593 594.192,-161.121"/>
</g>
<!-- Firmada_direccion -->
<g id="node15" class="node"><title>Firmada_direccion</title>
<polygon fill="#ffffff" stroke="black" points="838,-151 698,-151 698,-109 838,-109 838,-151"/>
<polygon fill="none" stroke="black" points="838,-151 698,-151 698,-109 838,-109 838,-151"/>
<text text-anchor="middle" x="768" y="-134.4" font-family="Helvetica,sans-Serif" font-size="14.00">Firmada_direccion</text>
<text text-anchor="middle" x="768" y="-117.4" font-family="Helvetica,sans-Serif" font-size="14.00">firmada_YV</text>
</g>
<!-- Presidencia&#45;&gt;Firmada_direccion -->
<g id="edge14" class="edge"><title>Presidencia&#45;&gt;Firmada_direccion</title>
<path fill="none" stroke="black" d="M595.108,-208.396C632.646,-191.375 677.473,-171.049 712.074,-155.359"/>
<polygon fill="black" stroke="black" points="713.886,-158.381 721.548,-151.063 710.995,-152.005 713.886,-158.381"/>
</g>
<!-- Firmada_presidencia -->
<g id="node17" class="node"><title>Firmada_presidencia</title>
<polygon fill="#ffff00" stroke="black" points="160,-151 4,-151 4,-109 160,-109 160,-151"/>
<polygon fill="none" stroke="black" points="160,-151 4,-151 4,-109 160,-109 160,-151"/>
<text text-anchor="middle" x="82" y="-134.4" font-family="Helvetica,sans-Serif" font-size="14.00">Firmada_presidencia</text>
<text text-anchor="middle" x="82" y="-117.4" font-family="Helvetica,sans-Serif" font-size="14.00">firmada_JJ</text>
</g>
<!-- Presidencia&#45;&gt;Firmada_presidencia -->
<g id="edge16" class="edge"><title>Presidencia&#45;&gt;Firmada_presidencia</title>
<path fill="none" stroke="black" d="M422.753,-216.935C347.076,-197.627 243.376,-171.171 170.31,-152.53"/>
<polygon fill="black" stroke="black" points="170.765,-149.034 160.21,-149.953 169.034,-155.817 170.765,-149.034"/>
</g>
<!-- DireccionEjecutiva_stats -->
<g id="node8" class="node"><title>DireccionEjecutiva_stats</title>
<polygon fill="none" stroke="black" stroke-dasharray="5,2" points="620,-504 388,-504 388,-428 620,-428 620,-504"/>
<text text-anchor="start" x="479.5" y="-489.733" font-family="Times Roman,serif" font-size="14.00">emora </text>
<text text-anchor="start" x="430" y="-472.933" font-family="Times Roman,serif" font-size="14.00">11/11/2013 05:48pm</text>
<text text-anchor="start" x="439" y="-456.133" font-family="Times Roman,serif" font-size="14.00">hace 3 meses llego</text>
<text text-anchor="start" x="396.5" y="-439.333" font-family="Times Roman,serif" font-size="14.00">3 horas y 2 minutos &#160;en espera</text>
</g>
<!-- DireccionEjecutiva_stats&#45;&gt;DireccionEjecutiva -->
<g id="edge8" class="edge"><title>DireccionEjecutiva_stats&#45;&gt;DireccionEjecutiva</title>
<path fill="none" stroke="black" stroke-dasharray="1,5" d="M542.572,-427.769C557.569,-412.905 574.446,-396.177 588.333,-382.413"/>
<polygon fill="black" stroke="black" points="591.071,-384.628 595.709,-375.102 586.143,-379.656 591.071,-384.628"/>
</g>
<!-- final -->
<g id="node21" class="node"><title>final</title>
<ellipse fill="#ffffff" stroke="black" cx="427" cy="-18" rx="31.9646" ry="18"/>
<ellipse fill="none" stroke="black" cx="427" cy="-18" rx="31.9646" ry="18"/>
<text text-anchor="middle" x="427" y="-13.9" font-family="Times Roman,serif" font-size="14.00">final</text>
</g>
<!-- Archivar_solicitud_procesada&#45;&gt;final -->
<g id="edge24" class="edge"><title>Archivar_solicitud_procesada&#45;&gt;final</title>
<path fill="none" stroke="black" d="M427,-108.934C427,-91.1831 427,-65.6359 427,-46.1368"/>
<polygon fill="black" stroke="black" points="430.5,-46.0141 427,-36.0142 423.5,-46.0142 430.5,-46.0141"/>
</g>
<!-- Firmada_talento&#45;&gt;final -->
<g id="edge28" class="edge"><title>Firmada_talento&#45;&gt;final</title>
<path fill="none" stroke="black" d="M580.451,-108.934C545.166,-88.0242 491.625,-56.2961 458.015,-36.3792"/>
<polygon fill="black" stroke="black" points="459.483,-33.1807 449.096,-31.0937 455.914,-39.2028 459.483,-33.1807"/>
</g>
<!-- Firmada_direccion&#45;&gt;final -->
<g id="edge26" class="edge"><title>Firmada_direccion&#45;&gt;final</title>
<path fill="none" stroke="black" d="M703.861,-108.934C633.244,-85.74 522.099,-49.235 464.462,-30.3044"/>
<polygon fill="black" stroke="black" points="465.273,-26.8866 454.68,-27.0913 463.088,-33.537 465.273,-26.8866"/>
</g>
<!-- Firmada_presidencia&#45;&gt;final -->
<g id="edge20" class="edge"><title>Firmada_presidencia&#45;&gt;final</title>
<path fill="none" stroke="black" d="M146.892,-108.934C218.484,-85.692 331.251,-49.0837 389.46,-30.187"/>
<polygon fill="black" stroke="black" points="390.565,-33.5081 398.996,-27.0913 388.404,-26.8501 390.565,-33.5081"/>
</g>
<!-- Presidencia_stats -->
<g id="node18" class="node"><title>Presidencia_stats</title>
<polygon fill="none" stroke="black" stroke-dasharray="5,2" points="507,-392 343,-392 343,-316 507,-316 507,-392"/>
<text text-anchor="start" x="401" y="-377.733" font-family="Times Roman,serif" font-size="14.00">yverdi </text>
<text text-anchor="start" x="351" y="-360.933" font-family="Times Roman,serif" font-size="14.00">15/11/2013 05:57pm</text>
<text text-anchor="start" x="360" y="-344.133" font-family="Times Roman,serif" font-size="14.00">hace 3 meses llego</text>
<text text-anchor="start" x="368.5" y="-327.333" font-family="Times Roman,serif" font-size="14.00">4 dias en espera</text>
</g>
<!-- Presidencia_stats&#45;&gt;Presidencia -->
<g id="edge18" class="edge"><title>Presidencia_stats&#45;&gt;Presidencia</title>
<path fill="none" stroke="black" stroke-dasharray="1,5" d="M457.769,-315.769C466.773,-305.265 476.575,-293.829 485.714,-283.167"/>
<polygon fill="black" stroke="black" points="488.38,-285.435 492.23,-275.565 483.065,-280.879 488.38,-285.435"/>
</g>
<!-- Firmada_presidencia_stats -->
<g id="node22" class="node"><title>Firmada_presidencia_stats</title>
<polygon fill="none" stroke="black" stroke-dasharray="5,2" points="164,-280 7.10543e-14,-280 0,-204 164,-204 164,-280"/>
<text text-anchor="start" x="38" y="-265.733" font-family="Times Roman,serif" font-size="14.00">Victor Rafael</text>
<text text-anchor="start" x="8" y="-248.933" font-family="Times Roman,serif" font-size="14.00">10/02/2014 10:59am</text>
<text text-anchor="start" x="8" y="-232.133" font-family="Times Roman,serif" font-size="14.00">hace 2 minutos &#160;llego</text>
<text text-anchor="start" x="17.5" y="-215.333" font-family="Times Roman,serif" font-size="14.00">3 meses en espera</text>
</g>
<!-- Firmada_presidencia_stats&#45;&gt;Firmada_presidencia -->
<g id="edge22" class="edge"><title>Firmada_presidencia_stats&#45;&gt;Firmada_presidencia</title>
<path fill="none" stroke="black" stroke-dasharray="1,5" d="M82,-203.769C82,-189.868 82,-174.338 82,-161.126"/>
<polygon fill="black" stroke="black" points="85.5001,-161.102 82,-151.102 78.5001,-161.102 85.5001,-161.102"/>
</g>
<!-- Por_usuario -->
<g id="node27" class="node"><title>Por_usuario</title>
<polygon fill="#ffff00" stroke="black" points="853,-599 755,-599 755,-557 853,-557 853,-599"/>
<polygon fill="none" stroke="black" points="853,-599 755,-599 755,-557 853,-557 853,-599"/>
<text text-anchor="middle" x="804" y="-582.4" font-family="Helvetica,sans-Serif" font-size="14.00">Por_usuario</text>
<text text-anchor="middle" x="804" y="-565.4" font-family="Helvetica,sans-Serif" font-size="14.00">todas</text>
</g>
<!-- Por_usuario&#45;&gt;Talento_humano -->
<g id="edge30" class="edge"><title>Por_usuario&#45;&gt;Talento_humano</title>
<path fill="none" stroke="black" d="M790.081,-556.934C778.681,-539.679 762.413,-515.058 749.68,-495.785"/>
<polygon fill="black" stroke="black" points="752.541,-493.767 744.108,-487.353 746.7,-497.625 752.541,-493.767"/>
</g>
<!-- inicial -->
<g id="node29" class="node"><title>inicial</title>
<ellipse fill="#ffffff" stroke="black" cx="804" cy="-690" rx="38.9134" ry="18"/>
<ellipse fill="none" stroke="black" cx="804" cy="-690" rx="38.9134" ry="18"/>
<text text-anchor="middle" x="804" y="-685.9" font-family="Times Roman,serif" font-size="14.00">inicial</text>
</g>
<!-- inicial&#45;&gt;Por_usuario -->
<g id="edge32" class="edge"><title>inicial&#45;&gt;Por_usuario</title>
<path fill="none" stroke="black" d="M804,-671.505C804,-654.652 804,-629.412 804,-609.401"/>
<polygon fill="black" stroke="black" points="807.5,-609.198 804,-599.198 800.5,-609.198 807.5,-609.198"/>
</g>
<!-- final_stats -->
<g id="node31" class="node"><title>final_stats</title>
<polygon fill="none" stroke="black" stroke-dasharray="5,2" points="302,-151 178,-151 178,-109 302,-109 302,-151"/>
<text text-anchor="start" x="186" y="-136.733" font-family="Times Roman,serif" font-size="14.00">Suma total: 0%</text>
<text text-anchor="start" x="235" y="-119.933" font-family="Times Roman,serif" font-size="14.00"> &#160;</text>
</g>
<!-- final_stats&#45;&gt;final -->
<g id="edge34" class="edge"><title>final_stats&#45;&gt;final</title>
<path fill="none" stroke="black" stroke-dasharray="1,5" d="M275.173,-108.934C309.988,-88.0821 362.766,-56.4718 396.036,-36.545"/>
<polygon fill="black" stroke="black" points="398.091,-39.394 404.872,-31.2531 394.495,-33.3887 398.091,-39.394"/>
</g>
</g>
</svg>
