<?xml version="1.0" encoding="UTF-8" standalone="no"?>
<!DOCTYPE svg PUBLIC "-//W3C//DTD SVG 1.1//EN"
 "http://www.w3.org/Graphics/SVG/1.1/DTD/svg11.dtd">
<!-- Generated by graphviz version 2.26.3 (20100126.1600)
 -->
<!-- Title: G Pages: 1 -->
<svg width="445pt" height="1916pt"
 viewBox="0.00 0.00 445.00 1916.00" xmlns="http://www.w3.org/2000/svg" xmlns:xlink="http://www.w3.org/1999/xlink">
<g id="graph1" class="graph" transform="scale(1 1) rotate(0) translate(4 1912)">
<title>G</title>
<polygon fill="white" stroke="white" points="-4,5 -4,-1912 442,-1912 442,5 -4,5"/>
<!-- Clase_1 -->
<g id="node1" class="node"><title>Clase_1</title>
<polygon fill="#ffffff" stroke="black" points="392,-1755 178,-1755 178,-1713 392,-1713 392,-1755"/>
<polygon fill="none" stroke="black" points="392,-1755 178,-1755 178,-1713 392,-1713 392,-1755"/>
<text text-anchor="middle" x="285" y="-1738.4" font-family="Helvetica,sans-Serif" font-size="14.00">Clase_1</text>
<text text-anchor="middle" x="285" y="-1721.4" font-family="Helvetica,sans-Serif" font-size="14.00">Mie23oct2013 &#45; Introduccion</text>
</g>
<!-- Clase_2 -->
<g id="node3" class="node"><title>Clase_2</title>
<polygon fill="#ffffff" stroke="black" points="384,-1677 186,-1677 186,-1635 384,-1635 384,-1677"/>
<polygon fill="none" stroke="black" points="384,-1677 186,-1677 186,-1635 384,-1635 384,-1677"/>
<text text-anchor="middle" x="285" y="-1660.4" font-family="Helvetica,sans-Serif" font-size="14.00">Clase_2</text>
<text text-anchor="middle" x="285" y="-1643.4" font-family="Helvetica,sans-Serif" font-size="14.00">Jue24oct2013 &#45; Conceptos</text>
</g>
<!-- Clase_1&#45;&gt;Clase_2 -->
<g id="edge2" class="edge"><title>Clase_1&#45;&gt;Clase_2</title>
<path fill="none" stroke="black" d="M285,-1712.69C285,-1704.8 285,-1695.68 285,-1687.1"/>
<polygon fill="black" stroke="black" points="288.5,-1687.02 285,-1677.02 281.5,-1687.02 288.5,-1687.02"/>
</g>
<!-- Clase_3 -->
<g id="node28" class="node"><title>Clase_3</title>
<polygon fill="#ffffff" stroke="black" points="416,-1599 154,-1599 154,-1557 416,-1557 416,-1599"/>
<polygon fill="none" stroke="black" points="416,-1599 154,-1599 154,-1557 416,-1557 416,-1599"/>
<text text-anchor="middle" x="285" y="-1582.4" font-family="Helvetica,sans-Serif" font-size="14.00">Clase_3</text>
<text text-anchor="middle" x="285" y="-1565.4" font-family="Helvetica,sans-Serif" font-size="14.00">Mie6nov2013 &#45; Logica Proposicional</text>
</g>
<!-- Clase_2&#45;&gt;Clase_3 -->
<g id="edge26" class="edge"><title>Clase_2&#45;&gt;Clase_3</title>
<path fill="none" stroke="black" d="M285,-1634.69C285,-1626.8 285,-1617.68 285,-1609.1"/>
<polygon fill="black" stroke="black" points="288.5,-1609.02 285,-1599.02 281.5,-1609.02 288.5,-1609.02"/>
</g>
<!-- Clase_10 -->
<g id="node4" class="node"><title>Clase_10</title>
<polygon fill="#ffffff" stroke="black" points="386,-1053 184,-1053 184,-1011 386,-1011 386,-1053"/>
<polygon fill="none" stroke="black" points="386,-1053 184,-1053 184,-1011 386,-1011 386,-1053"/>
<text text-anchor="middle" x="285" y="-1036.4" font-family="Helvetica,sans-Serif" font-size="14.00">Clase_10</text>
<text text-anchor="middle" x="285" y="-1019.4" font-family="Helvetica,sans-Serif" font-size="14.00">Jue28nov2013 &#45; Conjuntos</text>
</g>
<!-- Clase_11 -->
<g id="node6" class="node"><title>Clase_11</title>
<polygon fill="#ffffff" stroke="black" points="430,-975 140,-975 140,-933 430,-933 430,-975"/>
<polygon fill="none" stroke="black" points="430,-975 140,-975 140,-933 430,-933 430,-975"/>
<text text-anchor="middle" x="285" y="-958.4" font-family="Helvetica,sans-Serif" font-size="14.00">Clase_11</text>
<text text-anchor="middle" x="285" y="-941.4" font-family="Helvetica,sans-Serif" font-size="14.00">Mie11Dic2013 &#45; Conjuntos Operaciones</text>
</g>
<!-- Clase_10&#45;&gt;Clase_11 -->
<g id="edge4" class="edge"><title>Clase_10&#45;&gt;Clase_11</title>
<path fill="none" stroke="black" d="M285,-1010.69C285,-1002.8 285,-993.684 285,-985.103"/>
<polygon fill="black" stroke="black" points="288.5,-985.018 285,-975.018 281.5,-985.018 288.5,-985.018"/>
</g>
<!-- Clase_12 -->
<g id="node8" class="node"><title>Clase_12</title>
<polygon fill="#ffff00" stroke="black" points="427,-897 143,-897 143,-855 427,-855 427,-897"/>
<polygon fill="none" stroke="black" points="427,-897 143,-897 143,-855 427,-855 427,-897"/>
<text text-anchor="middle" x="285" y="-880.4" font-family="Helvetica,sans-Serif" font-size="14.00">Clase_12</text>
<text text-anchor="middle" x="285" y="-863.4" font-family="Helvetica,sans-Serif" font-size="14.00">Mie8ene2014 &#45; Conjuntos Operaciones</text>
</g>
<!-- Clase_11&#45;&gt;Clase_12 -->
<g id="edge6" class="edge"><title>Clase_11&#45;&gt;Clase_12</title>
<path fill="none" stroke="black" d="M285,-932.686C285,-924.798 285,-915.684 285,-907.103"/>
<polygon fill="black" stroke="black" points="288.5,-907.018 285,-897.018 281.5,-907.018 288.5,-907.018"/>
</g>
<!-- Clase_13 -->
<g id="node10" class="node"><title>Clase_13</title>
<polygon fill="#ffffff" stroke="black" points="382,-819 188,-819 188,-777 382,-777 382,-819"/>
<polygon fill="none" stroke="black" points="382,-819 188,-819 188,-777 382,-777 382,-819"/>
<text text-anchor="middle" x="285" y="-802.4" font-family="Helvetica,sans-Serif" font-size="14.00">Clase_13</text>
<text text-anchor="middle" x="285" y="-785.4" font-family="Helvetica,sans-Serif" font-size="14.00">Jue9ene2014 &#45; Relaciones</text>
</g>
<!-- Clase_12&#45;&gt;Clase_13 -->
<g id="edge8" class="edge"><title>Clase_12&#45;&gt;Clase_13</title>
<path fill="none" stroke="black" d="M285,-854.686C285,-846.798 285,-837.684 285,-829.103"/>
<polygon fill="black" stroke="black" points="288.5,-829.018 285,-819.018 281.5,-829.018 288.5,-829.018"/>
</g>
<!-- Clase_14 -->
<g id="node12" class="node"><title>Clase_14</title>
<polygon fill="#ffffff" stroke="black" points="388,-741 182,-741 182,-699 388,-699 388,-741"/>
<polygon fill="none" stroke="black" points="388,-741 182,-741 182,-699 388,-699 388,-741"/>
<text text-anchor="middle" x="285" y="-724.4" font-family="Helvetica,sans-Serif" font-size="14.00">Clase_14</text>
<text text-anchor="middle" x="285" y="-707.4" font-family="Helvetica,sans-Serif" font-size="14.00">Mie15ene2014 &#45; Relaciones</text>
</g>
<!-- Clase_13&#45;&gt;Clase_14 -->
<g id="edge10" class="edge"><title>Clase_13&#45;&gt;Clase_14</title>
<path fill="none" stroke="black" d="M285,-776.686C285,-768.798 285,-759.684 285,-751.103"/>
<polygon fill="black" stroke="black" points="288.5,-751.018 285,-741.018 281.5,-751.018 288.5,-751.018"/>
</g>
<!-- Clase_15 -->
<g id="node14" class="node"><title>Clase_15</title>
<polygon fill="#ffff00" stroke="black" points="283,-663 83,-663 83,-621 283,-621 283,-663"/>
<polygon fill="none" stroke="black" points="283,-663 83,-663 83,-621 283,-621 283,-663"/>
<text text-anchor="middle" x="183" y="-646.4" font-family="Helvetica,sans-Serif" font-size="14.00">Clase_15</text>
<text text-anchor="middle" x="183" y="-629.4" font-family="Helvetica,sans-Serif" font-size="14.00">Jue16ene2014 &#45; 1erParcial</text>
</g>
<!-- Clase_14&#45;&gt;Clase_15 -->
<g id="edge12" class="edge"><title>Clase_14&#45;&gt;Clase_15</title>
<path fill="none" stroke="black" d="M257.397,-698.892C245.491,-689.788 231.414,-679.022 218.725,-669.319"/>
<polygon fill="black" stroke="black" points="220.694,-666.419 210.625,-663.125 216.442,-671.98 220.694,-666.419"/>
</g>
<!-- Clase_16 -->
<g id="node16" class="node"><title>Clase_16</title>
<polygon fill="#ffff00" stroke="black" points="259,-585 107,-585 107,-543 259,-543 259,-585"/>
<polygon fill="none" stroke="black" points="259,-585 107,-585 107,-543 259,-543 259,-585"/>
<text text-anchor="middle" x="183" y="-568.4" font-family="Helvetica,sans-Serif" font-size="14.00">Clase_16</text>
<text text-anchor="middle" x="183" y="-551.4" font-family="Helvetica,sans-Serif" font-size="14.00">Mie22ene2014 &#45; RE</text>
</g>
<!-- Clase_15&#45;&gt;Clase_16 -->
<g id="edge14" class="edge"><title>Clase_15&#45;&gt;Clase_16</title>
<path fill="none" stroke="black" d="M183,-620.686C183,-612.798 183,-603.684 183,-595.103"/>
<polygon fill="black" stroke="black" points="186.5,-595.018 183,-585.018 179.5,-595.018 186.5,-595.018"/>
</g>
<!-- Clase_17 -->
<g id="node20" class="node"><title>Clase_17</title>
<polygon fill="#ffffff" stroke="black" points="289,-507 77,-507 77,-465 289,-465 289,-507"/>
<polygon fill="none" stroke="black" points="289,-507 77,-507 77,-465 289,-465 289,-507"/>
<text text-anchor="middle" x="183" y="-490.4" font-family="Helvetica,sans-Serif" font-size="14.00">Clase_17</text>
<text text-anchor="middle" x="183" y="-473.4" font-family="Helvetica,sans-Serif" font-size="14.00">Jue23ene2014 &#45; Criptografia</text>
</g>
<!-- Clase_16&#45;&gt;Clase_17 -->
<g id="edge18" class="edge"><title>Clase_16&#45;&gt;Clase_17</title>
<path fill="none" stroke="black" d="M183,-542.686C183,-534.798 183,-525.684 183,-517.103"/>
<polygon fill="black" stroke="black" points="186.5,-517.018 183,-507.018 179.5,-517.018 186.5,-517.018"/>
</g>
<!-- Clase_15_stats -->
<g id="node17" class="node"><title>Clase_15_stats</title>
<polygon fill="none" stroke="black" stroke-dasharray="5,2" points="164,-738 8.52651e-14,-738 0,-702 164,-702 164,-738"/>
<text text-anchor="start" x="8.5" y="-717.233" font-family="Times Roman,serif" font-size="14.00">Nota 1er Parcial:12.0</text>
</g>
<!-- Clase_15_stats&#45;&gt;Clase_15 -->
<g id="edge16" class="edge"><title>Clase_15_stats&#45;&gt;Clase_15</title>
<path fill="none" stroke="black" stroke-dasharray="1,5" d="M105.425,-701.909C117.993,-692.203 133.738,-680.044 147.753,-669.221"/>
<polygon fill="black" stroke="black" points="149.992,-671.913 155.768,-663.031 145.714,-666.373 149.992,-671.913"/>
</g>
<!-- Clase_18 -->
<g id="node22" class="node"><title>Clase_18</title>
<polygon fill="#ffff00" stroke="black" points="279,-429 87,-429 87,-387 279,-387 279,-429"/>
<polygon fill="none" stroke="black" points="279,-429 87,-429 87,-387 279,-387 279,-429"/>
<text text-anchor="middle" x="183" y="-412.4" font-family="Helvetica,sans-Serif" font-size="14.00">Clase_18</text>
<text text-anchor="middle" x="183" y="-395.4" font-family="Helvetica,sans-Serif" font-size="14.00">Mie29ene2014 &#45; Conteo I</text>
</g>
<!-- Clase_17&#45;&gt;Clase_18 -->
<g id="edge20" class="edge"><title>Clase_17&#45;&gt;Clase_18</title>
<path fill="none" stroke="black" d="M183,-464.686C183,-456.798 183,-447.684 183,-439.103"/>
<polygon fill="black" stroke="black" points="186.5,-439.018 183,-429.018 179.5,-439.018 186.5,-439.018"/>
</g>
<!-- Clase_19 -->
<g id="node24" class="node"><title>Clase_19</title>
<polygon fill="#ffffff" stroke="black" points="275,-351 91,-351 91,-309 275,-309 275,-351"/>
<polygon fill="none" stroke="black" points="275,-351 91,-351 91,-309 275,-309 275,-351"/>
<text text-anchor="middle" x="183" y="-334.4" font-family="Helvetica,sans-Serif" font-size="14.00">Clase_19</text>
<text text-anchor="middle" x="183" y="-317.4" font-family="Helvetica,sans-Serif" font-size="14.00">Jue30ene2014 Conteo II</text>
</g>
<!-- Clase_18&#45;&gt;Clase_19 -->
<g id="edge22" class="edge"><title>Clase_18&#45;&gt;Clase_19</title>
<path fill="none" stroke="black" d="M183,-386.686C183,-378.798 183,-369.684 183,-361.103"/>
<polygon fill="black" stroke="black" points="186.5,-361.018 183,-351.018 179.5,-361.018 186.5,-361.018"/>
</g>
<!-- Clase_20 -->
<g id="node26" class="node"><title>Clase_20</title>
<polygon fill="#ffff00" stroke="black" points="307,-273 59,-273 59,-231 307,-231 307,-273"/>
<polygon fill="none" stroke="black" points="307,-273 59,-273 59,-231 307,-231 307,-273"/>
<text text-anchor="middle" x="183" y="-256.4" font-family="Helvetica,sans-Serif" font-size="14.00">Clase_20</text>
<text text-anchor="middle" x="183" y="-239.4" font-family="Helvetica,sans-Serif" font-size="14.00">Mie5feb2014 Conteo Distribucion</text>
</g>
<!-- Clase_19&#45;&gt;Clase_20 -->
<g id="edge24" class="edge"><title>Clase_19&#45;&gt;Clase_20</title>
<path fill="none" stroke="black" d="M183,-308.686C183,-300.798 183,-291.684 183,-283.103"/>
<polygon fill="black" stroke="black" points="186.5,-283.018 183,-273.018 179.5,-283.018 186.5,-283.018"/>
</g>
<!-- Clase_21 -->
<g id="node30" class="node"><title>Clase_21</title>
<polygon fill="#ffffff" stroke="black" points="272,-195 94,-195 94,-153 272,-153 272,-195"/>
<polygon fill="none" stroke="black" points="272,-195 94,-195 94,-153 272,-153 272,-195"/>
<text text-anchor="middle" x="183" y="-178.4" font-family="Helvetica,sans-Serif" font-size="14.00">Clase_21</text>
<text text-anchor="middle" x="183" y="-161.4" font-family="Helvetica,sans-Serif" font-size="14.00">Jue6feb2014 2doParcial</text>
</g>
<!-- Clase_20&#45;&gt;Clase_21 -->
<g id="edge28" class="edge"><title>Clase_20&#45;&gt;Clase_21</title>
<path fill="none" stroke="black" d="M183,-230.686C183,-222.798 183,-213.684 183,-205.103"/>
<polygon fill="black" stroke="black" points="186.5,-205.018 183,-195.018 179.5,-205.018 186.5,-205.018"/>
</g>
<!-- Clase_4 -->
<g id="node36" class="node"><title>Clase_4</title>
<polygon fill="#ffff00" stroke="black" points="415,-1521 155,-1521 155,-1479 415,-1479 415,-1521"/>
<polygon fill="none" stroke="black" points="415,-1521 155,-1521 155,-1479 415,-1479 415,-1521"/>
<text text-anchor="middle" x="285" y="-1504.4" font-family="Helvetica,sans-Serif" font-size="14.00">Clase_4</text>
<text text-anchor="middle" x="285" y="-1487.4" font-family="Helvetica,sans-Serif" font-size="14.00">Jue7nov2013 &#45; Logica Proposicional</text>
</g>
<!-- Clase_3&#45;&gt;Clase_4 -->
<g id="edge34" class="edge"><title>Clase_3&#45;&gt;Clase_4</title>
<path fill="none" stroke="black" d="M285,-1556.69C285,-1548.8 285,-1539.68 285,-1531.1"/>
<polygon fill="black" stroke="black" points="288.5,-1531.02 285,-1521.02 281.5,-1531.02 288.5,-1531.02"/>
</g>
<!-- Clase_22 -->
<g id="node32" class="node"><title>Clase_22</title>
<polygon fill="#ffffff" stroke="black" points="227,-117 139,-117 139,-75 227,-75 227,-117"/>
<polygon fill="none" stroke="black" points="227,-117 139,-117 139,-75 227,-75 227,-117"/>
<text text-anchor="middle" x="183" y="-100.4" font-family="Helvetica,sans-Serif" font-size="14.00">Clase_22</text>
<text text-anchor="middle" x="183" y="-83.4" font-family="Helvetica,sans-Serif" font-size="14.00">3er Parcial</text>
</g>
<!-- Clase_21&#45;&gt;Clase_22 -->
<g id="edge30" class="edge"><title>Clase_21&#45;&gt;Clase_22</title>
<path fill="none" stroke="black" d="M183,-152.686C183,-144.798 183,-135.684 183,-127.103"/>
<polygon fill="black" stroke="black" points="186.5,-127.018 183,-117.018 179.5,-127.018 186.5,-127.018"/>
</g>
<!-- final -->
<g id="node34" class="node"><title>final</title>
<ellipse fill="#ffffff" stroke="black" cx="183" cy="-18" rx="31.9646" ry="18"/>
<ellipse fill="none" stroke="black" cx="183" cy="-18" rx="31.9646" ry="18"/>
<text text-anchor="middle" x="183" y="-13.9" font-family="Times Roman,serif" font-size="14.00">final</text>
</g>
<!-- Clase_22&#45;&gt;final -->
<g id="edge32" class="edge"><title>Clase_22&#45;&gt;final</title>
<path fill="none" stroke="black" d="M183,-74.6862C183,-65.9031 183,-55.6018 183,-46.2074"/>
<polygon fill="black" stroke="black" points="186.5,-46.1153 183,-36.1154 179.5,-46.1154 186.5,-46.1153"/>
</g>
<!-- Clase_5 -->
<g id="node38" class="node"><title>Clase_5</title>
<polygon fill="#ffff00" stroke="black" points="423,-1443 147,-1443 147,-1401 423,-1401 423,-1443"/>
<polygon fill="none" stroke="black" points="423,-1443 147,-1443 147,-1401 423,-1401 423,-1443"/>
<text text-anchor="middle" x="285" y="-1426.4" font-family="Helvetica,sans-Serif" font-size="14.00">Clase_5</text>
<text text-anchor="middle" x="285" y="-1409.4" font-family="Helvetica,sans-Serif" font-size="14.00">Mie13nov2013 &#45; &#160;Logica Proposicional</text>
</g>
<!-- Clase_4&#45;&gt;Clase_5 -->
<g id="edge36" class="edge"><title>Clase_4&#45;&gt;Clase_5</title>
<path fill="none" stroke="black" d="M285,-1478.69C285,-1470.8 285,-1461.68 285,-1453.1"/>
<polygon fill="black" stroke="black" points="288.5,-1453.02 285,-1443.02 281.5,-1453.02 288.5,-1453.02"/>
</g>
<!-- Clase_6 -->
<g id="node40" class="node"><title>Clase_6</title>
<polygon fill="#ffff00" stroke="black" points="422,-1365 148,-1365 148,-1323 422,-1323 422,-1365"/>
<polygon fill="none" stroke="black" points="422,-1365 148,-1365 148,-1323 422,-1323 422,-1365"/>
<text text-anchor="middle" x="285" y="-1348.4" font-family="Helvetica,sans-Serif" font-size="14.00">Clase_6</text>
<text text-anchor="middle" x="285" y="-1331.4" font-family="Helvetica,sans-Serif" font-size="14.00">Jue14nov2013 &#45; Logica de Predicados</text>
</g>
<!-- Clase_5&#45;&gt;Clase_6 -->
<g id="edge38" class="edge"><title>Clase_5&#45;&gt;Clase_6</title>
<path fill="none" stroke="black" d="M285,-1400.69C285,-1392.8 285,-1383.68 285,-1375.1"/>
<polygon fill="black" stroke="black" points="288.5,-1375.02 285,-1365.02 281.5,-1375.02 288.5,-1375.02"/>
</g>
<!-- Clase_7 -->
<g id="node42" class="node"><title>Clase_7</title>
<polygon fill="#ffffff" stroke="black" points="423,-1287 147,-1287 147,-1245 423,-1245 423,-1287"/>
<polygon fill="none" stroke="black" points="423,-1287 147,-1287 147,-1245 423,-1245 423,-1287"/>
<text text-anchor="middle" x="285" y="-1270.4" font-family="Helvetica,sans-Serif" font-size="14.00">Clase_7</text>
<text text-anchor="middle" x="285" y="-1253.4" font-family="Helvetica,sans-Serif" font-size="14.00">Mie20nov2013 &#45; Logica de Predicados</text>
</g>
<!-- Clase_6&#45;&gt;Clase_7 -->
<g id="edge40" class="edge"><title>Clase_6&#45;&gt;Clase_7</title>
<path fill="none" stroke="black" d="M285,-1322.69C285,-1314.8 285,-1305.68 285,-1297.1"/>
<polygon fill="black" stroke="black" points="288.5,-1297.02 285,-1287.02 281.5,-1297.02 288.5,-1297.02"/>
</g>
<!-- Clase_8 -->
<g id="node44" class="node"><title>Clase_8</title>
<polygon fill="#ffffff" stroke="black" points="437,-1209 133,-1209 133,-1167 437,-1167 437,-1209"/>
<polygon fill="none" stroke="black" points="437,-1209 133,-1209 133,-1167 437,-1167 437,-1209"/>
<text text-anchor="middle" x="285" y="-1192.4" font-family="Helvetica,sans-Serif" font-size="14.00">Clase_8</text>
<text text-anchor="middle" x="285" y="-1175.4" font-family="Helvetica,sans-Serif" font-size="14.00">Jue21nov2013 &#45; Prolog Algebra_Booleana</text>
</g>
<!-- Clase_7&#45;&gt;Clase_8 -->
<g id="edge42" class="edge"><title>Clase_7&#45;&gt;Clase_8</title>
<path fill="none" stroke="black" d="M285,-1244.69C285,-1236.8 285,-1227.68 285,-1219.1"/>
<polygon fill="black" stroke="black" points="288.5,-1219.02 285,-1209.02 281.5,-1219.02 288.5,-1219.02"/>
</g>
<!-- Clase_9 -->
<g id="node46" class="node"><title>Clase_9</title>
<polygon fill="#ffffff" stroke="black" points="408,-1131 162,-1131 162,-1089 408,-1089 408,-1131"/>
<polygon fill="none" stroke="black" points="408,-1131 162,-1131 162,-1089 408,-1089 408,-1131"/>
<text text-anchor="middle" x="285" y="-1114.4" font-family="Helvetica,sans-Serif" font-size="14.00">Clase_9</text>
<text text-anchor="middle" x="285" y="-1097.4" font-family="Helvetica,sans-Serif" font-size="14.00">Mie27nov2013 &#45; EjercicioGrupal1</text>
</g>
<!-- Clase_8&#45;&gt;Clase_9 -->
<g id="edge44" class="edge"><title>Clase_8&#45;&gt;Clase_9</title>
<path fill="none" stroke="black" d="M285,-1166.69C285,-1158.8 285,-1149.68 285,-1141.1"/>
<polygon fill="black" stroke="black" points="288.5,-1141.02 285,-1131.02 281.5,-1141.02 288.5,-1141.02"/>
</g>
<!-- Clase_9&#45;&gt;Clase_10 -->
<g id="edge46" class="edge"><title>Clase_9&#45;&gt;Clase_10</title>
<path fill="none" stroke="black" d="M285,-1088.69C285,-1080.8 285,-1071.68 285,-1063.1"/>
<polygon fill="black" stroke="black" points="288.5,-1063.02 285,-1053.02 281.5,-1063.02 288.5,-1063.02"/>
</g>
<!-- Inscritos -->
<g id="node48" class="node"><title>Inscritos</title>
<polygon fill="#ffff00" stroke="black" points="331,-1833 239,-1833 239,-1791 331,-1791 331,-1833"/>
<polygon fill="none" stroke="black" points="331,-1833 239,-1833 239,-1791 331,-1791 331,-1833"/>
<text text-anchor="middle" x="285" y="-1816.4" font-family="Helvetica,sans-Serif" font-size="14.00">Inscritos</text>
<text text-anchor="middle" x="285" y="-1799.4" font-family="Helvetica,sans-Serif" font-size="14.00">MD_B2013</text>
</g>
<!-- Inscritos&#45;&gt;Clase_1 -->
<g id="edge48" class="edge"><title>Inscritos&#45;&gt;Clase_1</title>
<path fill="none" stroke="black" d="M285,-1790.69C285,-1782.8 285,-1773.68 285,-1765.1"/>
<polygon fill="black" stroke="black" points="288.5,-1765.02 285,-1755.02 281.5,-1765.02 288.5,-1765.02"/>
</g>
<!-- inicial -->
<g id="node50" class="node"><title>inicial</title>
<ellipse fill="#ffffff" stroke="black" cx="285" cy="-1890" rx="38.9134" ry="18"/>
<ellipse fill="none" stroke="black" cx="285" cy="-1890" rx="38.9134" ry="18"/>
<text text-anchor="middle" x="285" y="-1885.9" font-family="Times Roman,serif" font-size="14.00">inicial</text>
</g>
<!-- inicial&#45;&gt;Inscritos -->
<g id="edge50" class="edge"><title>inicial&#45;&gt;Inscritos</title>
<path fill="none" stroke="black" d="M285,-1871.91C285,-1863.38 285,-1852.96 285,-1843.22"/>
<polygon fill="black" stroke="black" points="288.5,-1843.03 285,-1833.03 281.5,-1843.03 288.5,-1843.03"/>
</g>
</g>
</svg>
