<?xml version="1.0" encoding="UTF-8" standalone="no"?>
<!DOCTYPE svg PUBLIC "-//W3C//DTD SVG 1.1//EN"
 "http://www.w3.org/Graphics/SVG/1.1/DTD/svg11.dtd">
<!-- Generated by graphviz version 2.26.3 (20100126.1600)
 -->
<!-- Title: G Pages: 1 -->
<svg width="855pt" height="716pt"
 viewBox="0.00 0.00 855.00 716.00" xmlns="http://www.w3.org/2000/svg" xmlns:xlink="http://www.w3.org/1999/xlink">
<g id="graph1" class="graph" transform="scale(1 1) rotate(0) translate(4 712)">
<title>G</title>
<polygon fill="white" stroke="white" points="-4,5 -4,-712 852,-712 852,5 -4,5"/>
<!-- Talento_humano -->
<g id="node1" class="node"><title>Talento_humano</title>
<polygon fill="#ffff00" stroke="black" points="815,-487 631,-487 631,-445 815,-445 815,-487"/>
<polygon fill="none" stroke="black" points="815,-487 631,-487 631,-445 815,-445 815,-487"/>
<text text-anchor="middle" x="723" y="-470.4" font-family="Helvetica,sans-Serif" font-size="14.00">Talento_humano</text>
<text text-anchor="middle" x="723" y="-453.4" font-family="Helvetica,sans-Serif" font-size="14.00">Planilla vista_vacaciones</text>
</g>
<!-- DireccionEjecutiva -->
<g id="node3" class="node"><title>DireccionEjecutiva</title>
<polygon fill="#ffff00" stroke="black" points="702,-375 518,-375 518,-333 702,-333 702,-375"/>
<polygon fill="none" stroke="black" points="702,-375 518,-375 518,-333 702,-333 702,-375"/>
<text text-anchor="middle" x="610" y="-358.4" font-family="Helvetica,sans-Serif" font-size="14.00">DireccionEjecutiva</text>
<text text-anchor="middle" x="610" y="-341.4" font-family="Helvetica,sans-Serif" font-size="14.00">Planilla vista_vacaciones</text>
</g>
<!-- Talento_humano&#45;&gt;DireccionEjecutiva -->
<g id="edge2" class="edge"><title>Talento_humano&#45;&gt;DireccionEjecutiva</title>
<path fill="none" stroke="black" d="M701.746,-444.934C683.945,-427.291 658.373,-401.945 638.746,-382.491"/>
<polygon fill="black" stroke="black" points="641.11,-379.906 631.543,-375.353 636.182,-384.878 641.11,-379.906"/>
</g>
<!-- Presidencia -->
<g id="node7" class="node"><title>Presidencia</title>
<polygon fill="#ffff00" stroke="#ffff00" points="428,-208.5 600,-208.5 612,-220.5 612,-263.5 600,-275.5 428,-275.5 416,-263.5 416,-220.5 428,-208.5"/>
<path fill="#ffff00" stroke="#ffff00" d="M600,-208.5C606,-208.5 612,-214.5 612,-220.5"/>
<path fill="#ffff00" stroke="#ffff00" d="M612,-263.5C612,-269.5 606,-275.5 600,-275.5"/>
<path fill="#ffff00" stroke="#ffff00" d="M428,-275.5C422,-275.5 416,-269.5 416,-263.5"/>
<path fill="#ffff00" stroke="#ffff00" d="M416,-220.5C416,-214.5 422,-208.5 428,-208.5"/>
<polyline fill="none" stroke="black" points="428,-208.5 600,-208.5 "/>
<path fill="none" stroke="black" d="M600,-208.5C606,-208.5 612,-214.5 612,-220.5"/>
<polyline fill="none" stroke="black" points="612,-220.5 612,-263.5 "/>
<path fill="none" stroke="black" d="M612,-263.5C612,-269.5 606,-275.5 600,-275.5"/>
<polyline fill="none" stroke="black" points="600,-275.5 428,-275.5 "/>
<path fill="none" stroke="black" d="M428,-275.5C422,-275.5 416,-269.5 416,-263.5"/>
<polyline fill="none" stroke="black" points="416,-263.5 416,-220.5 "/>
<path fill="none" stroke="black" d="M416,-220.5C416,-214.5 422,-208.5 428,-208.5"/>
<text text-anchor="middle" x="514" y="-258.9" font-family="Helvetica,sans-Serif" font-size="14.00">Presidencia</text>
<text text-anchor="middle" x="514" y="-241.9" font-family="Helvetica,sans-Serif" font-size="14.00">Aprobacion del Presidente</text>
<polyline fill="none" stroke="black" points="416,-233.5 612,-233.5 "/>
<text text-anchor="middle" x="514" y="-216.9" font-family="Helvetica,sans-Serif" font-size="14.00">or</text>
</g>
<!-- DireccionEjecutiva&#45;&gt;Presidencia -->
<g id="edge6" class="edge"><title>DireccionEjecutiva&#45;&gt;Presidencia</title>
<path fill="none" stroke="black" d="M591.943,-332.934C580.087,-319.102 564.174,-300.536 549.817,-283.787"/>
<polygon fill="black" stroke="black" points="552.084,-281.054 542.919,-275.739 546.77,-285.609 552.084,-281.054"/>
</g>
<!-- Talento_humano_stats -->
<g id="node4" class="node"><title>Talento_humano_stats</title>
<polygon fill="none" stroke="black" stroke-dasharray="5,2" points="730,-616 566,-616 566,-540 730,-540 730,-616"/>
<text text-anchor="start" x="614.5" y="-601.733" font-family="Times Roman,serif" font-size="14.00">eparedes </text>
<text text-anchor="start" x="574" y="-584.933" font-family="Times Roman,serif" font-size="14.00">11/11/2013 02:46pm</text>
<text text-anchor="start" x="583" y="-568.133" font-family="Times Roman,serif" font-size="14.00">hace 3 meses llego</text>
<text text-anchor="start" x="637" y="-551.333" font-family="Times Roman,serif" font-size="14.00">n/a</text>
</g>
<!-- Talento_humano_stats&#45;&gt;Talento_humano -->
<g id="edge4" class="edge"><title>Talento_humano_stats&#45;&gt;Talento_humano</title>
<path fill="none" stroke="black" stroke-dasharray="1,5" d="M673.601,-539.769C683.278,-525.318 694.135,-509.105 703.201,-495.567"/>
<polygon fill="black" stroke="black" points="706.213,-497.359 708.869,-487.102 700.397,-493.464 706.213,-497.359"/>
</g>
<!-- Archivar_solicitud_procesada -->
<g id="node11" class="node"><title>Archivar_solicitud_procesada</title>
<polygon fill="#ffffff" stroke="black" points="527,-151 313,-151 313,-109 527,-109 527,-151"/>
<polygon fill="none" stroke="black" points="527,-151 313,-151 313,-109 527,-109 527,-151"/>
<text text-anchor="middle" x="420" y="-134.4" font-family="Helvetica,sans-Serif" font-size="14.00">Archivar_solicitud_procesada</text>
<text text-anchor="middle" x="420" y="-117.4" font-family="Helvetica,sans-Serif" font-size="14.00">solicitud_archivada</text>
</g>
<!-- Presidencia&#45;&gt;Archivar_solicitud_procesada -->
<g id="edge10" class="edge"><title>Presidencia&#45;&gt;Archivar_solicitud_procesada</title>
<path fill="none" stroke="black" d="M485.797,-208.396C472.656,-192.739 457.167,-174.285 444.52,-159.215"/>
<polygon fill="black" stroke="black" points="446.929,-156.641 437.819,-151.231 441.567,-161.141 446.929,-156.641"/>
</g>
<!-- Firmada_talento -->
<g id="node13" class="node"><title>Firmada_talento</title>
<polygon fill="#ffffff" stroke="black" points="673,-151 545,-151 545,-109 673,-109 673,-151"/>
<polygon fill="none" stroke="black" points="673,-151 545,-151 545,-109 673,-109 673,-151"/>
<text text-anchor="middle" x="609" y="-134.4" font-family="Helvetica,sans-Serif" font-size="14.00">Firmada_talento</text>
<text text-anchor="middle" x="609" y="-117.4" font-family="Helvetica,sans-Serif" font-size="14.00">firmada_EE</text>
</g>
<!-- Presidencia&#45;&gt;Firmada_talento -->
<g id="edge12" class="edge"><title>Presidencia&#45;&gt;Firmada_talento</title>
<path fill="none" stroke="black" d="M542.503,-208.396C555.784,-192.739 571.437,-174.285 584.219,-159.215"/>
<polygon fill="black" stroke="black" points="587.192,-161.121 590.992,-151.231 581.854,-156.593 587.192,-161.121"/>
</g>
<!-- Firmada_direccion -->
<g id="node15" class="node"><title>Firmada_direccion</title>
<polygon fill="#ffff00" stroke="black" points="153,-151 13,-151 13,-109 153,-109 153,-151"/>
<polygon fill="none" stroke="black" points="153,-151 13,-151 13,-109 153,-109 153,-151"/>
<text text-anchor="middle" x="83" y="-134.4" font-family="Helvetica,sans-Serif" font-size="14.00">Firmada_direccion</text>
<text text-anchor="middle" x="83" y="-117.4" font-family="Helvetica,sans-Serif" font-size="14.00">firmada_YV</text>
</g>
<!-- Presidencia&#45;&gt;Firmada_direccion -->
<g id="edge14" class="edge"><title>Presidencia&#45;&gt;Firmada_direccion</title>
<path fill="none" stroke="black" d="M415.708,-216.781C347.5,-199.235 254.263,-175.162 162.897,-151.229"/>
<polygon fill="black" stroke="black" points="163.765,-147.838 153.205,-148.689 161.991,-154.61 163.765,-147.838"/>
</g>
<!-- Firmada_presidencia -->
<g id="node17" class="node"><title>Firmada_presidencia</title>
<polygon fill="#ffffff" stroke="black" points="847,-151 691,-151 691,-109 847,-109 847,-151"/>
<polygon fill="none" stroke="black" points="847,-151 691,-151 691,-109 847,-109 847,-151"/>
<text text-anchor="middle" x="769" y="-134.4" font-family="Helvetica,sans-Serif" font-size="14.00">Firmada_presidencia</text>
<text text-anchor="middle" x="769" y="-117.4" font-family="Helvetica,sans-Serif" font-size="14.00">firmada_JJ</text>
</g>
<!-- Presidencia&#45;&gt;Firmada_presidencia -->
<g id="edge16" class="edge"><title>Presidencia&#45;&gt;Firmada_presidencia</title>
<path fill="none" stroke="black" d="M590.508,-208.396C629.428,-191.302 675.936,-170.875 711.72,-155.158"/>
<polygon fill="black" stroke="black" points="713.295,-158.289 721.043,-151.063 710.48,-151.88 713.295,-158.289"/>
</g>
<!-- DireccionEjecutiva_stats -->
<g id="node8" class="node"><title>DireccionEjecutiva_stats</title>
<polygon fill="none" stroke="black" stroke-dasharray="5,2" points="613,-504 381,-504 381,-428 613,-428 613,-504"/>
<text text-anchor="start" x="472.5" y="-489.733" font-family="Times Roman,serif" font-size="14.00">emora </text>
<text text-anchor="start" x="423" y="-472.933" font-family="Times Roman,serif" font-size="14.00">11/11/2013 05:48pm</text>
<text text-anchor="start" x="432" y="-456.133" font-family="Times Roman,serif" font-size="14.00">hace 3 meses llego</text>
<text text-anchor="start" x="389.5" y="-439.333" font-family="Times Roman,serif" font-size="14.00">3 horas y 2 minutos &#160;en espera</text>
</g>
<!-- DireccionEjecutiva_stats&#45;&gt;DireccionEjecutiva -->
<g id="edge8" class="edge"><title>DireccionEjecutiva_stats&#45;&gt;DireccionEjecutiva</title>
<path fill="none" stroke="black" stroke-dasharray="1,5" d="M535.572,-427.769C550.569,-412.905 567.446,-396.177 581.333,-382.413"/>
<polygon fill="black" stroke="black" points="584.071,-384.628 588.709,-375.102 579.143,-379.656 584.071,-384.628"/>
</g>
<!-- final -->
<g id="node21" class="node"><title>final</title>
<ellipse fill="#ffffff" stroke="black" cx="420" cy="-18" rx="31.9646" ry="18"/>
<ellipse fill="none" stroke="black" cx="420" cy="-18" rx="31.9646" ry="18"/>
<text text-anchor="middle" x="420" y="-13.9" font-family="Times Roman,serif" font-size="14.00">final</text>
</g>
<!-- Archivar_solicitud_procesada&#45;&gt;final -->
<g id="edge24" class="edge"><title>Archivar_solicitud_procesada&#45;&gt;final</title>
<path fill="none" stroke="black" d="M420,-108.934C420,-91.1831 420,-65.6359 420,-46.1368"/>
<polygon fill="black" stroke="black" points="423.5,-46.0141 420,-36.0142 416.5,-46.0142 423.5,-46.0141"/>
</g>
<!-- Firmada_talento&#45;&gt;final -->
<g id="edge28" class="edge"><title>Firmada_talento&#45;&gt;final</title>
<path fill="none" stroke="black" d="M573.451,-108.934C538.166,-88.0242 484.625,-56.2961 451.015,-36.3792"/>
<polygon fill="black" stroke="black" points="452.483,-33.1807 442.096,-31.0937 448.914,-39.2028 452.483,-33.1807"/>
</g>
<!-- Firmada_direccion&#45;&gt;final -->
<g id="edge20" class="edge"><title>Firmada_direccion&#45;&gt;final</title>
<path fill="none" stroke="black" d="M146.387,-108.934C215.995,-85.7998 325.45,-49.423 382.536,-30.4511"/>
<polygon fill="black" stroke="black" points="383.846,-33.7039 392.232,-27.2287 381.638,-27.0612 383.846,-33.7039"/>
</g>
<!-- Firmada_presidencia&#45;&gt;final -->
<g id="edge26" class="edge"><title>Firmada_presidencia&#45;&gt;final</title>
<path fill="none" stroke="black" d="M703.356,-108.934C630.746,-85.6321 516.271,-48.895 457.521,-30.0413"/>
<polygon fill="black" stroke="black" points="458.495,-26.6779 447.904,-26.9548 456.356,-33.3431 458.495,-26.6779"/>
</g>
<!-- Presidencia_stats -->
<g id="node18" class="node"><title>Presidencia_stats</title>
<polygon fill="none" stroke="black" stroke-dasharray="5,2" points="500,-392 336,-392 336,-316 500,-316 500,-392"/>
<text text-anchor="start" x="394" y="-377.733" font-family="Times Roman,serif" font-size="14.00">yverdi </text>
<text text-anchor="start" x="344" y="-360.933" font-family="Times Roman,serif" font-size="14.00">15/11/2013 05:57pm</text>
<text text-anchor="start" x="353" y="-344.133" font-family="Times Roman,serif" font-size="14.00">hace 3 meses llego</text>
<text text-anchor="start" x="361.5" y="-327.333" font-family="Times Roman,serif" font-size="14.00">4 dias en espera</text>
</g>
<!-- Presidencia_stats&#45;&gt;Presidencia -->
<g id="edge18" class="edge"><title>Presidencia_stats&#45;&gt;Presidencia</title>
<path fill="none" stroke="black" stroke-dasharray="1,5" d="M450.769,-315.769C459.773,-305.265 469.575,-293.829 478.714,-283.167"/>
<polygon fill="black" stroke="black" points="481.38,-285.435 485.23,-275.565 476.065,-280.879 481.38,-285.435"/>
</g>
<!-- Firmada_direccion_stats -->
<g id="node22" class="node"><title>Firmada_direccion_stats</title>
<polygon fill="none" stroke="black" stroke-dasharray="5,2" points="166,-280 8.52651e-14,-280 0,-204 166,-204 166,-280"/>
<text text-anchor="start" x="31" y="-265.733" font-family="Times Roman,serif" font-size="14.00">Antonio Araujo</text>
<text text-anchor="start" x="9" y="-248.933" font-family="Times Roman,serif" font-size="14.00">10/02/2014 10:53am</text>
<text text-anchor="start" x="8" y="-232.133" font-family="Times Roman,serif" font-size="14.00">hace un minuto &#160;llego</text>
<text text-anchor="start" x="18.5" y="-215.333" font-family="Times Roman,serif" font-size="14.00">3 meses en espera</text>
</g>
<!-- Firmada_direccion_stats&#45;&gt;Firmada_direccion -->
<g id="edge22" class="edge"><title>Firmada_direccion_stats&#45;&gt;Firmada_direccion</title>
<path fill="none" stroke="black" stroke-dasharray="1,5" d="M83,-203.769C83,-189.868 83,-174.338 83,-161.126"/>
<polygon fill="black" stroke="black" points="86.5001,-161.102 83,-151.102 79.5001,-161.102 86.5001,-161.102"/>
</g>
<!-- Por_usuario -->
<g id="node27" class="node"><title>Por_usuario</title>
<polygon fill="#ffff00" stroke="black" points="846,-599 748,-599 748,-557 846,-557 846,-599"/>
<polygon fill="none" stroke="black" points="846,-599 748,-599 748,-557 846,-557 846,-599"/>
<text text-anchor="middle" x="797" y="-582.4" font-family="Helvetica,sans-Serif" font-size="14.00">Por_usuario</text>
<text text-anchor="middle" x="797" y="-565.4" font-family="Helvetica,sans-Serif" font-size="14.00">todas</text>
</g>
<!-- Por_usuario&#45;&gt;Talento_humano -->
<g id="edge30" class="edge"><title>Por_usuario&#45;&gt;Talento_humano</title>
<path fill="none" stroke="black" d="M783.081,-556.934C771.681,-539.679 755.413,-515.058 742.68,-495.785"/>
<polygon fill="black" stroke="black" points="745.541,-493.767 737.108,-487.353 739.7,-497.625 745.541,-493.767"/>
</g>
<!-- inicial -->
<g id="node29" class="node"><title>inicial</title>
<ellipse fill="#ffffff" stroke="black" cx="797" cy="-690" rx="38.9134" ry="18"/>
<ellipse fill="none" stroke="black" cx="797" cy="-690" rx="38.9134" ry="18"/>
<text text-anchor="middle" x="797" y="-685.9" font-family="Times Roman,serif" font-size="14.00">inicial</text>
</g>
<!-- inicial&#45;&gt;Por_usuario -->
<g id="edge32" class="edge"><title>inicial&#45;&gt;Por_usuario</title>
<path fill="none" stroke="black" d="M797,-671.505C797,-654.652 797,-629.412 797,-609.401"/>
<polygon fill="black" stroke="black" points="800.5,-609.198 797,-599.198 793.5,-609.198 800.5,-609.198"/>
</g>
<!-- final_stats -->
<g id="node31" class="node"><title>final_stats</title>
<polygon fill="none" stroke="black" stroke-dasharray="5,2" points="295,-151 171,-151 171,-109 295,-109 295,-151"/>
<text text-anchor="start" x="179" y="-136.733" font-family="Times Roman,serif" font-size="14.00">Suma total: 0%</text>
<text text-anchor="start" x="228" y="-119.933" font-family="Times Roman,serif" font-size="14.00"> &#160;</text>
</g>
<!-- final_stats&#45;&gt;final -->
<g id="edge34" class="edge"><title>final_stats&#45;&gt;final</title>
<path fill="none" stroke="black" stroke-dasharray="1,5" d="M268.173,-108.934C302.988,-88.0821 355.766,-56.4718 389.036,-36.545"/>
<polygon fill="black" stroke="black" points="391.091,-39.394 397.872,-31.2531 387.495,-33.3887 391.091,-39.394"/>
</g>
</g>
</svg>
