<?xml version="1.0" encoding="UTF-8" standalone="no"?>
<!DOCTYPE svg PUBLIC "-//W3C//DTD SVG 1.1//EN"
 "http://www.w3.org/Graphics/SVG/1.1/DTD/svg11.dtd">
<!-- Generated by graphviz version 2.26.3 (20100126.1600)
 -->
<!-- Title: G Pages: 1 -->
<svg width="883pt" height="716pt"
 viewBox="0.00 0.00 883.00 716.00" xmlns="http://www.w3.org/2000/svg" xmlns:xlink="http://www.w3.org/1999/xlink">
<g id="graph1" class="graph" transform="scale(1 1) rotate(0) translate(4 712)">
<title>G</title>
<polygon fill="white" stroke="white" points="-4,5 -4,-712 880,-712 880,5 -4,5"/>
<!-- Talento_humano -->
<g id="node1" class="node"><title>Talento_humano</title>
<polygon fill="#ffff00" stroke="black" points="248,-487 64,-487 64,-445 248,-445 248,-487"/>
<polygon fill="none" stroke="black" points="248,-487 64,-487 64,-445 248,-445 248,-487"/>
<text text-anchor="middle" x="156" y="-470.4" font-family="Helvetica,sans-Serif" font-size="14.00">Talento_humano</text>
<text text-anchor="middle" x="156" y="-453.4" font-family="Helvetica,sans-Serif" font-size="14.00">Planilla vista_vacaciones</text>
</g>
<!-- DireccionEjecutiva -->
<g id="node3" class="node"><title>DireccionEjecutiva</title>
<polygon fill="#ffff00" stroke="black" points="361,-375 177,-375 177,-333 361,-333 361,-375"/>
<polygon fill="none" stroke="black" points="361,-375 177,-375 177,-333 361,-333 361,-375"/>
<text text-anchor="middle" x="269" y="-358.4" font-family="Helvetica,sans-Serif" font-size="14.00">DireccionEjecutiva</text>
<text text-anchor="middle" x="269" y="-341.4" font-family="Helvetica,sans-Serif" font-size="14.00">Planilla vista_vacaciones</text>
</g>
<!-- Talento_humano&#45;&gt;DireccionEjecutiva -->
<g id="edge2" class="edge"><title>Talento_humano&#45;&gt;DireccionEjecutiva</title>
<path fill="none" stroke="black" d="M177.254,-444.934C195.055,-427.291 220.627,-401.945 240.254,-382.491"/>
<polygon fill="black" stroke="black" points="242.818,-384.878 247.457,-375.353 237.89,-379.906 242.818,-384.878"/>
</g>
<!-- Presidencia -->
<g id="node7" class="node"><title>Presidencia</title>
<polygon fill="#ffff00" stroke="#ffff00" points="279,-208.5 451,-208.5 463,-220.5 463,-263.5 451,-275.5 279,-275.5 267,-263.5 267,-220.5 279,-208.5"/>
<path fill="#ffff00" stroke="#ffff00" d="M451,-208.5C457,-208.5 463,-214.5 463,-220.5"/>
<path fill="#ffff00" stroke="#ffff00" d="M463,-263.5C463,-269.5 457,-275.5 451,-275.5"/>
<path fill="#ffff00" stroke="#ffff00" d="M279,-275.5C273,-275.5 267,-269.5 267,-263.5"/>
<path fill="#ffff00" stroke="#ffff00" d="M267,-220.5C267,-214.5 273,-208.5 279,-208.5"/>
<polyline fill="none" stroke="black" points="279,-208.5 451,-208.5 "/>
<path fill="none" stroke="black" d="M451,-208.5C457,-208.5 463,-214.5 463,-220.5"/>
<polyline fill="none" stroke="black" points="463,-220.5 463,-263.5 "/>
<path fill="none" stroke="black" d="M463,-263.5C463,-269.5 457,-275.5 451,-275.5"/>
<polyline fill="none" stroke="black" points="451,-275.5 279,-275.5 "/>
<path fill="none" stroke="black" d="M279,-275.5C273,-275.5 267,-269.5 267,-263.5"/>
<polyline fill="none" stroke="black" points="267,-263.5 267,-220.5 "/>
<path fill="none" stroke="black" d="M267,-220.5C267,-214.5 273,-208.5 279,-208.5"/>
<text text-anchor="middle" x="365" y="-258.9" font-family="Helvetica,sans-Serif" font-size="14.00">Presidencia</text>
<text text-anchor="middle" x="365" y="-241.9" font-family="Helvetica,sans-Serif" font-size="14.00">Aprobacion del Presidente</text>
<polyline fill="none" stroke="black" points="267,-233.5 463,-233.5 "/>
<text text-anchor="middle" x="365" y="-216.9" font-family="Helvetica,sans-Serif" font-size="14.00">or</text>
</g>
<!-- DireccionEjecutiva&#45;&gt;Presidencia -->
<g id="edge6" class="edge"><title>DireccionEjecutiva&#45;&gt;Presidencia</title>
<path fill="none" stroke="black" d="M287.057,-332.934C298.913,-319.102 314.826,-300.536 329.183,-283.787"/>
<polygon fill="black" stroke="black" points="332.23,-285.609 336.081,-275.739 326.916,-281.054 332.23,-285.609"/>
</g>
<!-- Talento_humano_stats -->
<g id="node4" class="node"><title>Talento_humano_stats</title>
<polygon fill="none" stroke="black" stroke-dasharray="5,2" points="164,-616 7.10543e-14,-616 0,-540 164,-540 164,-616"/>
<text text-anchor="start" x="48.5" y="-601.733" font-family="Times Roman,serif" font-size="14.00">eparedes </text>
<text text-anchor="start" x="8" y="-584.933" font-family="Times Roman,serif" font-size="14.00">11/11/2013 02:46pm</text>
<text text-anchor="start" x="17" y="-568.133" font-family="Times Roman,serif" font-size="14.00">hace 3 meses llego</text>
<text text-anchor="start" x="71" y="-551.333" font-family="Times Roman,serif" font-size="14.00">n/a</text>
</g>
<!-- Talento_humano_stats&#45;&gt;Talento_humano -->
<g id="edge4" class="edge"><title>Talento_humano_stats&#45;&gt;Talento_humano</title>
<path fill="none" stroke="black" stroke-dasharray="1,5" d="M107.26,-539.769C116.808,-525.318 127.52,-509.105 136.465,-495.567"/>
<polygon fill="black" stroke="black" points="139.465,-497.375 142.057,-487.102 133.625,-493.516 139.465,-497.375"/>
</g>
<!-- Archivar_solicitud_procesada -->
<g id="node11" class="node"><title>Archivar_solicitud_procesada</title>
<polygon fill="#ffffff" stroke="black" points="401,-151 187,-151 187,-109 401,-109 401,-151"/>
<polygon fill="none" stroke="black" points="401,-151 187,-151 187,-109 401,-109 401,-151"/>
<text text-anchor="middle" x="294" y="-134.4" font-family="Helvetica,sans-Serif" font-size="14.00">Archivar_solicitud_procesada</text>
<text text-anchor="middle" x="294" y="-117.4" font-family="Helvetica,sans-Serif" font-size="14.00">solicitud_archivada</text>
</g>
<!-- Presidencia&#45;&gt;Archivar_solicitud_procesada -->
<g id="edge10" class="edge"><title>Presidencia&#45;&gt;Archivar_solicitud_procesada</title>
<path fill="none" stroke="black" d="M343.698,-208.396C333.956,-193.029 322.506,-174.967 313.053,-160.056"/>
<polygon fill="black" stroke="black" points="315.769,-157.803 307.459,-151.231 309.857,-161.551 315.769,-157.803"/>
</g>
<!-- Firmada_talento -->
<g id="node13" class="node"><title>Firmada_talento</title>
<polygon fill="#ffff00" stroke="black" points="169,-151 41,-151 41,-109 169,-109 169,-151"/>
<polygon fill="none" stroke="black" points="169,-151 41,-151 41,-109 169,-109 169,-151"/>
<text text-anchor="middle" x="105" y="-134.4" font-family="Helvetica,sans-Serif" font-size="14.00">Firmada_talento</text>
<text text-anchor="middle" x="105" y="-117.4" font-family="Helvetica,sans-Serif" font-size="14.00">firmada_EE</text>
</g>
<!-- Presidencia&#45;&gt;Firmada_talento -->
<g id="edge12" class="edge"><title>Presidencia&#45;&gt;Firmada_talento</title>
<path fill="none" stroke="black" d="M286.991,-208.396C247.309,-191.302 199.889,-170.875 163.403,-155.158"/>
<polygon fill="black" stroke="black" points="164.466,-151.805 153.897,-151.063 161.696,-158.234 164.466,-151.805"/>
</g>
<!-- Firmada_direccion -->
<g id="node15" class="node"><title>Firmada_direccion</title>
<polygon fill="#ffff00" stroke="black" points="733,-151 593,-151 593,-109 733,-109 733,-151"/>
<polygon fill="none" stroke="black" points="733,-151 593,-151 593,-109 733,-109 733,-151"/>
<text text-anchor="middle" x="663" y="-134.4" font-family="Helvetica,sans-Serif" font-size="14.00">Firmada_direccion</text>
<text text-anchor="middle" x="663" y="-117.4" font-family="Helvetica,sans-Serif" font-size="14.00">firmada_YV</text>
</g>
<!-- Presidencia&#45;&gt;Firmada_direccion -->
<g id="edge14" class="edge"><title>Presidencia&#45;&gt;Firmada_direccion</title>
<path fill="none" stroke="black" d="M454.41,-208.396C500.376,-191.121 555.401,-170.44 597.392,-154.658"/>
<polygon fill="black" stroke="black" points="598.827,-157.858 606.957,-151.063 596.365,-151.305 598.827,-157.858"/>
</g>
<!-- Firmada_presidencia -->
<g id="node17" class="node"><title>Firmada_presidencia</title>
<polygon fill="#ffffff" stroke="black" points="575,-151 419,-151 419,-109 575,-109 575,-151"/>
<polygon fill="none" stroke="black" points="575,-151 419,-151 419,-109 575,-109 575,-151"/>
<text text-anchor="middle" x="497" y="-134.4" font-family="Helvetica,sans-Serif" font-size="14.00">Firmada_presidencia</text>
<text text-anchor="middle" x="497" y="-117.4" font-family="Helvetica,sans-Serif" font-size="14.00">firmada_JJ</text>
</g>
<!-- Presidencia&#45;&gt;Firmada_presidencia -->
<g id="edge16" class="edge"><title>Presidencia&#45;&gt;Firmada_presidencia</title>
<path fill="none" stroke="black" d="M404.604,-208.396C423.57,-192.304 446.018,-173.257 464.038,-157.968"/>
<polygon fill="black" stroke="black" points="466.617,-160.37 471.978,-151.231 462.088,-155.032 466.617,-160.37"/>
</g>
<!-- DireccionEjecutiva_stats -->
<g id="node8" class="node"><title>DireccionEjecutiva_stats</title>
<polygon fill="none" stroke="black" stroke-dasharray="5,2" points="498,-504 266,-504 266,-428 498,-428 498,-504"/>
<text text-anchor="start" x="357.5" y="-489.733" font-family="Times Roman,serif" font-size="14.00">emora </text>
<text text-anchor="start" x="308" y="-472.933" font-family="Times Roman,serif" font-size="14.00">11/11/2013 05:48pm</text>
<text text-anchor="start" x="317" y="-456.133" font-family="Times Roman,serif" font-size="14.00">hace 3 meses llego</text>
<text text-anchor="start" x="274.5" y="-439.333" font-family="Times Roman,serif" font-size="14.00">3 horas y 2 minutos &#160;en espera</text>
</g>
<!-- DireccionEjecutiva_stats&#45;&gt;DireccionEjecutiva -->
<g id="edge8" class="edge"><title>DireccionEjecutiva_stats&#45;&gt;DireccionEjecutiva</title>
<path fill="none" stroke="black" stroke-dasharray="1,5" d="M343.428,-427.769C328.431,-412.905 311.554,-396.177 297.667,-382.413"/>
<polygon fill="black" stroke="black" points="299.857,-379.656 290.291,-375.102 294.929,-384.628 299.857,-379.656"/>
</g>
<!-- final -->
<g id="node21" class="node"><title>final</title>
<ellipse fill="#ffffff" stroke="black" cx="497" cy="-18" rx="31.9646" ry="18"/>
<ellipse fill="none" stroke="black" cx="497" cy="-18" rx="31.9646" ry="18"/>
<text text-anchor="middle" x="497" y="-13.9" font-family="Times Roman,serif" font-size="14.00">final</text>
</g>
<!-- Archivar_solicitud_procesada&#45;&gt;final -->
<g id="edge24" class="edge"><title>Archivar_solicitud_procesada&#45;&gt;final</title>
<path fill="none" stroke="black" d="M332.183,-108.934C370.559,-87.7603 429.043,-55.4936 465.044,-35.6309"/>
<polygon fill="black" stroke="black" points="467.061,-38.5153 474.126,-30.6199 463.68,-32.3862 467.061,-38.5153"/>
</g>
<!-- Firmada_talento&#45;&gt;final -->
<g id="edge28" class="edge"><title>Firmada_talento&#45;&gt;final</title>
<path fill="none" stroke="black" d="M169.092,-111.554C172.103,-110.69 175.084,-109.835 178,-109 279.271,-79.989 398.685,-45.9766 458.611,-28.9214"/>
<polygon fill="black" stroke="black" points="459.739,-32.2395 468.399,-26.1359 457.823,-25.5068 459.739,-32.2395"/>
</g>
<!-- Firmada_direccion&#45;&gt;final -->
<g id="edge20" class="edge"><title>Firmada_direccion&#45;&gt;final</title>
<path fill="none" stroke="black" d="M631.777,-108.934C601.476,-88.49 555.848,-57.7044 526.239,-37.7277"/>
<polygon fill="black" stroke="black" points="527.847,-34.5902 517.6,-31.8985 523.932,-40.3929 527.847,-34.5902"/>
</g>
<!-- Firmada_presidencia&#45;&gt;final -->
<g id="edge26" class="edge"><title>Firmada_presidencia&#45;&gt;final</title>
<path fill="none" stroke="black" d="M497,-108.934C497,-91.1831 497,-65.6359 497,-46.1368"/>
<polygon fill="black" stroke="black" points="500.5,-46.0141 497,-36.0142 493.5,-46.0142 500.5,-46.0141"/>
</g>
<!-- Presidencia_stats -->
<g id="node18" class="node"><title>Presidencia_stats</title>
<polygon fill="none" stroke="black" stroke-dasharray="5,2" points="543,-392 379,-392 379,-316 543,-316 543,-392"/>
<text text-anchor="start" x="437" y="-377.733" font-family="Times Roman,serif" font-size="14.00">yverdi </text>
<text text-anchor="start" x="387" y="-360.933" font-family="Times Roman,serif" font-size="14.00">15/11/2013 05:57pm</text>
<text text-anchor="start" x="396" y="-344.133" font-family="Times Roman,serif" font-size="14.00">hace 3 meses llego</text>
<text text-anchor="start" x="404.5" y="-327.333" font-family="Times Roman,serif" font-size="14.00">4 dias en espera</text>
</g>
<!-- Presidencia_stats&#45;&gt;Presidencia -->
<g id="edge18" class="edge"><title>Presidencia_stats&#45;&gt;Presidencia</title>
<path fill="none" stroke="black" stroke-dasharray="1,5" d="M428.231,-315.769C419.227,-305.265 409.425,-293.829 400.286,-283.167"/>
<polygon fill="black" stroke="black" points="402.935,-280.879 393.77,-275.565 397.62,-285.435 402.935,-280.879"/>
</g>
<!-- Firmada_direccion_stats -->
<g id="node22" class="node"><title>Firmada_direccion_stats</title>
<polygon fill="none" stroke="black" stroke-dasharray="5,2" points="783,-280 543,-280 543,-204 783,-204 783,-280"/>
<text text-anchor="start" x="611" y="-265.733" font-family="Times Roman,serif" font-size="14.00">Antonio Araujo</text>
<text text-anchor="start" x="589" y="-248.933" font-family="Times Roman,serif" font-size="14.00">07/02/2014 01:28pm</text>
<text text-anchor="start" x="555" y="-232.133" font-family="Times Roman,serif" font-size="14.00">hace dos &#160;dias y 20 horas &#160;llego</text>
<text text-anchor="start" x="551" y="-215.333" font-family="Times Roman,serif" font-size="14.00">2 meses y 3 semanas &#160;en espera</text>
</g>
<!-- Firmada_direccion_stats&#45;&gt;Firmada_direccion -->
<g id="edge22" class="edge"><title>Firmada_direccion_stats&#45;&gt;Firmada_direccion</title>
<path fill="none" stroke="black" stroke-dasharray="1,5" d="M663,-203.769C663,-189.868 663,-174.338 663,-161.126"/>
<polygon fill="black" stroke="black" points="666.5,-161.102 663,-151.102 659.5,-161.102 666.5,-161.102"/>
</g>
<!-- Firmada_talento_stats -->
<g id="node27" class="node"><title>Firmada_talento_stats</title>
<polygon fill="none" stroke="black" stroke-dasharray="5,2" points="187,-271.5 23,-271.5 23,-212.5 187,-212.5 187,-271.5"/>
<text text-anchor="start" x="32.5" y="-257.233" font-family="Times Roman,serif" font-size="14.00">Antonio Araujo Brett</text>
<text text-anchor="start" x="31" y="-240.433" font-family="Times Roman,serif" font-size="14.00">hace 746 meses llego</text>
<text text-anchor="start" x="31.5" y="-223.633" font-family="Times Roman,serif" font-size="14.00">743 meses en espera</text>
</g>
<!-- Firmada_talento_stats&#45;&gt;Firmada_talento -->
<g id="edge30" class="edge"><title>Firmada_talento_stats&#45;&gt;Firmada_talento</title>
<path fill="none" stroke="black" stroke-dasharray="1,5" d="M105,-212.28C105,-196.694 105,-177.596 105,-161.724"/>
<polygon fill="black" stroke="black" points="108.5,-161.334 105,-151.334 101.5,-161.334 108.5,-161.334"/>
</g>
<!-- Por_usuario -->
<g id="node29" class="node"><title>Por_usuario</title>
<polygon fill="#ffff00" stroke="black" points="280,-599 182,-599 182,-557 280,-557 280,-599"/>
<polygon fill="none" stroke="black" points="280,-599 182,-599 182,-557 280,-557 280,-599"/>
<text text-anchor="middle" x="231" y="-582.4" font-family="Helvetica,sans-Serif" font-size="14.00">Por_usuario</text>
<text text-anchor="middle" x="231" y="-565.4" font-family="Helvetica,sans-Serif" font-size="14.00">todas</text>
</g>
<!-- Por_usuario&#45;&gt;Talento_humano -->
<g id="edge32" class="edge"><title>Por_usuario&#45;&gt;Talento_humano</title>
<path fill="none" stroke="black" d="M216.893,-556.934C205.339,-539.679 188.851,-515.058 175.946,-495.785"/>
<polygon fill="black" stroke="black" points="178.771,-493.714 170.299,-487.353 172.955,-497.609 178.771,-493.714"/>
</g>
<!-- inicial -->
<g id="node31" class="node"><title>inicial</title>
<ellipse fill="#ffffff" stroke="black" cx="231" cy="-690" rx="38.9134" ry="18"/>
<ellipse fill="none" stroke="black" cx="231" cy="-690" rx="38.9134" ry="18"/>
<text text-anchor="middle" x="231" y="-685.9" font-family="Times Roman,serif" font-size="14.00">inicial</text>
</g>
<!-- inicial&#45;&gt;Por_usuario -->
<g id="edge34" class="edge"><title>inicial&#45;&gt;Por_usuario</title>
<path fill="none" stroke="black" d="M231,-671.505C231,-654.652 231,-629.412 231,-609.401"/>
<polygon fill="black" stroke="black" points="234.5,-609.198 231,-599.198 227.5,-609.198 234.5,-609.198"/>
</g>
<!-- final_stats -->
<g id="node33" class="node"><title>final_stats</title>
<polygon fill="none" stroke="black" stroke-dasharray="5,2" points="875,-151 751,-151 751,-109 875,-109 875,-151"/>
<text text-anchor="start" x="759" y="-136.733" font-family="Times Roman,serif" font-size="14.00">Suma total: 0%</text>
<text text-anchor="start" x="808" y="-119.933" font-family="Times Roman,serif" font-size="14.00"> &#160;</text>
</g>
<!-- final_stats&#45;&gt;final -->
<g id="edge36" class="edge"><title>final_stats&#45;&gt;final</title>
<path fill="none" stroke="black" stroke-dasharray="1,5" d="M753.563,-108.934C688.932,-86.0267 587.667,-50.1352 533.719,-31.0142"/>
<polygon fill="black" stroke="black" points="534.81,-27.6878 524.215,-27.646 532.472,-34.2857 534.81,-27.6878"/>
</g>
</g>
</svg>
