<?xml version="1.0" encoding="UTF-8" standalone="no"?>
<!DOCTYPE svg PUBLIC "-//W3C//DTD SVG 1.1//EN"
 "http://www.w3.org/Graphics/SVG/1.1/DTD/svg11.dtd">
<!-- Generated by graphviz version 2.26.3 (20100126.1600)
 -->
<!-- Title: G Pages: 1 -->
<svg width="974pt" height="716pt"
 viewBox="0.00 0.00 974.00 716.00" xmlns="http://www.w3.org/2000/svg" xmlns:xlink="http://www.w3.org/1999/xlink">
<g id="graph1" class="graph" transform="scale(1 1) rotate(0) translate(4 712)">
<title>G</title>
<polygon fill="white" stroke="white" points="-4,5 -4,-712 971,-712 971,5 -4,5"/>
<!-- Talento_humano -->
<g id="node1" class="node"><title>Talento_humano</title>
<polygon fill="#ffff00" stroke="black" points="248,-487 64,-487 64,-445 248,-445 248,-487"/>
<polygon fill="none" stroke="black" points="248,-487 64,-487 64,-445 248,-445 248,-487"/>
<text text-anchor="middle" x="156" y="-470.4" font-family="Helvetica,sans-Serif" font-size="14.00">Talento_humano</text>
<text text-anchor="middle" x="156" y="-453.4" font-family="Helvetica,sans-Serif" font-size="14.00">Planilla vista_vacaciones</text>
</g>
<!-- DireccionEjecutiva -->
<g id="node3" class="node"><title>DireccionEjecutiva</title>
<polygon fill="#ffff00" stroke="black" points="361,-375 177,-375 177,-333 361,-333 361,-375"/>
<polygon fill="none" stroke="black" points="361,-375 177,-375 177,-333 361,-333 361,-375"/>
<text text-anchor="middle" x="269" y="-358.4" font-family="Helvetica,sans-Serif" font-size="14.00">DireccionEjecutiva</text>
<text text-anchor="middle" x="269" y="-341.4" font-family="Helvetica,sans-Serif" font-size="14.00">Planilla vista_vacaciones</text>
</g>
<!-- Talento_humano&#45;&gt;DireccionEjecutiva -->
<g id="edge2" class="edge"><title>Talento_humano&#45;&gt;DireccionEjecutiva</title>
<path fill="none" stroke="black" d="M177.254,-444.934C195.055,-427.291 220.627,-401.945 240.254,-382.491"/>
<polygon fill="black" stroke="black" points="242.818,-384.878 247.457,-375.353 237.89,-379.906 242.818,-384.878"/>
</g>
<!-- Presidencia -->
<g id="node7" class="node"><title>Presidencia</title>
<polygon fill="#ffff00" stroke="#ffff00" points="299,-208.5 471,-208.5 483,-220.5 483,-263.5 471,-275.5 299,-275.5 287,-263.5 287,-220.5 299,-208.5"/>
<path fill="#ffff00" stroke="#ffff00" d="M471,-208.5C477,-208.5 483,-214.5 483,-220.5"/>
<path fill="#ffff00" stroke="#ffff00" d="M483,-263.5C483,-269.5 477,-275.5 471,-275.5"/>
<path fill="#ffff00" stroke="#ffff00" d="M299,-275.5C293,-275.5 287,-269.5 287,-263.5"/>
<path fill="#ffff00" stroke="#ffff00" d="M287,-220.5C287,-214.5 293,-208.5 299,-208.5"/>
<polyline fill="none" stroke="black" points="299,-208.5 471,-208.5 "/>
<path fill="none" stroke="black" d="M471,-208.5C477,-208.5 483,-214.5 483,-220.5"/>
<polyline fill="none" stroke="black" points="483,-220.5 483,-263.5 "/>
<path fill="none" stroke="black" d="M483,-263.5C483,-269.5 477,-275.5 471,-275.5"/>
<polyline fill="none" stroke="black" points="471,-275.5 299,-275.5 "/>
<path fill="none" stroke="black" d="M299,-275.5C293,-275.5 287,-269.5 287,-263.5"/>
<polyline fill="none" stroke="black" points="287,-263.5 287,-220.5 "/>
<path fill="none" stroke="black" d="M287,-220.5C287,-214.5 293,-208.5 299,-208.5"/>
<text text-anchor="middle" x="385" y="-258.9" font-family="Helvetica,sans-Serif" font-size="14.00">Presidencia</text>
<text text-anchor="middle" x="385" y="-241.9" font-family="Helvetica,sans-Serif" font-size="14.00">Aprobacion del Presidente</text>
<polyline fill="none" stroke="black" points="287,-233.5 483,-233.5 "/>
<text text-anchor="middle" x="385" y="-216.9" font-family="Helvetica,sans-Serif" font-size="14.00">or</text>
</g>
<!-- DireccionEjecutiva&#45;&gt;Presidencia -->
<g id="edge6" class="edge"><title>DireccionEjecutiva&#45;&gt;Presidencia</title>
<path fill="none" stroke="black" d="M290.819,-332.934C305.405,-318.85 325.074,-299.859 342.665,-282.875"/>
<polygon fill="black" stroke="black" points="345.293,-285.203 350.056,-275.739 340.431,-280.167 345.293,-285.203"/>
</g>
<!-- Talento_humano_stats -->
<g id="node4" class="node"><title>Talento_humano_stats</title>
<polygon fill="none" stroke="black" stroke-dasharray="5,2" points="164,-616 7.10543e-14,-616 0,-540 164,-540 164,-616"/>
<text text-anchor="start" x="48.5" y="-601.733" font-family="Times Roman,serif" font-size="14.00">eparedes </text>
<text text-anchor="start" x="8" y="-584.933" font-family="Times Roman,serif" font-size="14.00">11/11/2013 02:46pm</text>
<text text-anchor="start" x="17" y="-568.133" font-family="Times Roman,serif" font-size="14.00">hace 3 meses llego</text>
<text text-anchor="start" x="71" y="-551.333" font-family="Times Roman,serif" font-size="14.00">n/a</text>
</g>
<!-- Talento_humano_stats&#45;&gt;Talento_humano -->
<g id="edge4" class="edge"><title>Talento_humano_stats&#45;&gt;Talento_humano</title>
<path fill="none" stroke="black" stroke-dasharray="1,5" d="M107.26,-539.769C116.808,-525.318 127.52,-509.105 136.465,-495.567"/>
<polygon fill="black" stroke="black" points="139.465,-497.375 142.057,-487.102 133.625,-493.516 139.465,-497.375"/>
</g>
<!-- Archivar_solicitud_procesada -->
<g id="node11" class="node"><title>Archivar_solicitud_procesada</title>
<polygon fill="#ffffff" stroke="black" points="492,-151 278,-151 278,-109 492,-109 492,-151"/>
<polygon fill="none" stroke="black" points="492,-151 278,-151 278,-109 492,-109 492,-151"/>
<text text-anchor="middle" x="385" y="-134.4" font-family="Helvetica,sans-Serif" font-size="14.00">Archivar_solicitud_procesada</text>
<text text-anchor="middle" x="385" y="-117.4" font-family="Helvetica,sans-Serif" font-size="14.00">solicitud_archivada</text>
</g>
<!-- Presidencia&#45;&gt;Archivar_solicitud_procesada -->
<g id="edge10" class="edge"><title>Presidencia&#45;&gt;Archivar_solicitud_procesada</title>
<path fill="none" stroke="black" d="M385,-208.396C385,-193.464 385,-175.987 385,-161.329"/>
<polygon fill="black" stroke="black" points="388.5,-161.231 385,-151.231 381.5,-161.231 388.5,-161.231"/>
</g>
<!-- Firmada_talento -->
<g id="node13" class="node"><title>Firmada_talento</title>
<polygon fill="#ffff00" stroke="black" points="260,-151 132,-151 132,-109 260,-109 260,-151"/>
<polygon fill="none" stroke="black" points="260,-151 132,-151 132,-109 260,-109 260,-151"/>
<text text-anchor="middle" x="196" y="-134.4" font-family="Helvetica,sans-Serif" font-size="14.00">Firmada_talento</text>
<text text-anchor="middle" x="196" y="-117.4" font-family="Helvetica,sans-Serif" font-size="14.00">firmada_EE</text>
</g>
<!-- Presidencia&#45;&gt;Firmada_talento -->
<g id="edge12" class="edge"><title>Presidencia&#45;&gt;Firmada_talento</title>
<path fill="none" stroke="black" d="M328.294,-208.396C300.061,-191.666 266.441,-171.743 240.158,-156.168"/>
<polygon fill="black" stroke="black" points="241.932,-153.15 231.544,-151.063 238.363,-159.172 241.932,-153.15"/>
</g>
<!-- Firmada_direccion -->
<g id="node15" class="node"><title>Firmada_direccion</title>
<polygon fill="#ffff00" stroke="black" points="650,-151 510,-151 510,-109 650,-109 650,-151"/>
<polygon fill="none" stroke="black" points="650,-151 510,-151 510,-109 650,-109 650,-151"/>
<text text-anchor="middle" x="580" y="-134.4" font-family="Helvetica,sans-Serif" font-size="14.00">Firmada_direccion</text>
<text text-anchor="middle" x="580" y="-117.4" font-family="Helvetica,sans-Serif" font-size="14.00">firmada_YV</text>
</g>
<!-- Presidencia&#45;&gt;Firmada_direccion -->
<g id="edge14" class="edge"><title>Presidencia&#45;&gt;Firmada_direccion</title>
<path fill="none" stroke="black" d="M443.506,-208.396C472.635,-191.666 507.323,-171.743 534.44,-156.168"/>
<polygon fill="black" stroke="black" points="536.399,-159.079 543.327,-151.063 532.913,-153.009 536.399,-159.079"/>
</g>
<!-- Firmada_presidencia -->
<g id="node17" class="node"><title>Firmada_presidencia</title>
<polygon fill="#ffff00" stroke="black" points="824,-151 668,-151 668,-109 824,-109 824,-151"/>
<polygon fill="none" stroke="black" points="824,-151 668,-151 668,-109 824,-109 824,-151"/>
<text text-anchor="middle" x="746" y="-134.4" font-family="Helvetica,sans-Serif" font-size="14.00">Firmada_presidencia</text>
<text text-anchor="middle" x="746" y="-117.4" font-family="Helvetica,sans-Serif" font-size="14.00">firmada_JJ</text>
</g>
<!-- Presidencia&#45;&gt;Firmada_presidencia -->
<g id="edge16" class="edge"><title>Presidencia&#45;&gt;Firmada_presidencia</title>
<path fill="none" stroke="black" d="M483.235,-210.744C486.189,-209.817 489.116,-208.901 492,-208 550.616,-189.688 616.956,-169.328 667.136,-154.002"/>
<polygon fill="black" stroke="black" points="668.407,-157.274 676.949,-151.007 666.363,-150.579 668.407,-157.274"/>
</g>
<!-- DireccionEjecutiva_stats -->
<g id="node8" class="node"><title>DireccionEjecutiva_stats</title>
<polygon fill="none" stroke="black" stroke-dasharray="5,2" points="498,-504 266,-504 266,-428 498,-428 498,-504"/>
<text text-anchor="start" x="357.5" y="-489.733" font-family="Times Roman,serif" font-size="14.00">emora </text>
<text text-anchor="start" x="308" y="-472.933" font-family="Times Roman,serif" font-size="14.00">11/11/2013 05:48pm</text>
<text text-anchor="start" x="317" y="-456.133" font-family="Times Roman,serif" font-size="14.00">hace 3 meses llego</text>
<text text-anchor="start" x="274.5" y="-439.333" font-family="Times Roman,serif" font-size="14.00">3 horas y 2 minutos &#160;en espera</text>
</g>
<!-- DireccionEjecutiva_stats&#45;&gt;DireccionEjecutiva -->
<g id="edge8" class="edge"><title>DireccionEjecutiva_stats&#45;&gt;DireccionEjecutiva</title>
<path fill="none" stroke="black" stroke-dasharray="1,5" d="M343.428,-427.769C328.431,-412.905 311.554,-396.177 297.667,-382.413"/>
<polygon fill="black" stroke="black" points="299.857,-379.656 290.291,-375.102 294.929,-384.628 299.857,-379.656"/>
</g>
<!-- final -->
<g id="node21" class="node"><title>final</title>
<ellipse fill="#ffffff" stroke="black" cx="580" cy="-18" rx="31.9646" ry="18"/>
<ellipse fill="none" stroke="black" cx="580" cy="-18" rx="31.9646" ry="18"/>
<text text-anchor="middle" x="580" y="-13.9" font-family="Times Roman,serif" font-size="14.00">final</text>
</g>
<!-- Archivar_solicitud_procesada&#45;&gt;final -->
<g id="edge20" class="edge"><title>Archivar_solicitud_procesada&#45;&gt;final</title>
<path fill="none" stroke="black" d="M421.678,-108.934C458.34,-87.8767 514.104,-55.8478 548.731,-35.9594"/>
<polygon fill="black" stroke="black" points="550.551,-38.9506 557.479,-30.935 547.065,-32.8805 550.551,-38.9506"/>
</g>
<!-- Firmada_talento&#45;&gt;final -->
<g id="edge30" class="edge"><title>Firmada_talento&#45;&gt;final</title>
<path fill="none" stroke="black" d="M260.273,-111.254C340.528,-87.846 475.273,-48.5453 541.243,-29.3042"/>
<polygon fill="black" stroke="black" points="542.601,-32.5539 551.221,-26.3939 540.641,-25.8339 542.601,-32.5539"/>
</g>
<!-- Firmada_direccion&#45;&gt;final -->
<g id="edge22" class="edge"><title>Firmada_direccion&#45;&gt;final</title>
<path fill="none" stroke="black" d="M580,-108.934C580,-91.1831 580,-65.6359 580,-46.1368"/>
<polygon fill="black" stroke="black" points="583.5,-46.0141 580,-36.0142 576.5,-46.0142 583.5,-46.0141"/>
</g>
<!-- Firmada_presidencia&#45;&gt;final -->
<g id="edge26" class="edge"><title>Firmada_presidencia&#45;&gt;final</title>
<path fill="none" stroke="black" d="M714.777,-108.934C684.476,-88.49 638.848,-57.7044 609.239,-37.7277"/>
<polygon fill="black" stroke="black" points="610.847,-34.5902 600.6,-31.8985 606.932,-40.3929 610.847,-34.5902"/>
</g>
<!-- Presidencia_stats -->
<g id="node18" class="node"><title>Presidencia_stats</title>
<polygon fill="none" stroke="black" stroke-dasharray="5,2" points="621,-392 379,-392 379,-316 621,-316 621,-392"/>
<text text-anchor="start" x="476" y="-377.733" font-family="Times Roman,serif" font-size="14.00">yverdi </text>
<text text-anchor="start" x="426" y="-360.933" font-family="Times Roman,serif" font-size="14.00">15/11/2013 05:57pm</text>
<text text-anchor="start" x="387" y="-344.133" font-family="Times Roman,serif" font-size="14.00">hace 2 meses y 3 semanas &#160;llego</text>
<text text-anchor="start" x="443.5" y="-327.333" font-family="Times Roman,serif" font-size="14.00">4 dias en espera</text>
</g>
<!-- Presidencia_stats&#45;&gt;Presidencia -->
<g id="edge18" class="edge"><title>Presidencia_stats&#45;&gt;Presidencia</title>
<path fill="none" stroke="black" stroke-dasharray="1,5" d="M460.745,-315.769C449.75,-305.061 437.761,-293.385 426.633,-282.547"/>
<polygon fill="black" stroke="black" points="429.069,-280.034 419.464,-275.565 424.186,-285.049 429.069,-280.034"/>
</g>
<!-- Firmada_direccion_stats -->
<g id="node23" class="node"><title>Firmada_direccion_stats</title>
<polygon fill="none" stroke="black" stroke-dasharray="5,2" points="695,-271.5 501,-271.5 501,-212.5 695,-212.5 695,-271.5"/>
<text text-anchor="start" x="509" y="-257.233" font-family="Times Roman,serif" font-size="14.00">Victor Rafael Bravo Bravo</text>
<text text-anchor="start" x="524" y="-240.433" font-family="Times Roman,serif" font-size="14.00">hace 746 meses llego</text>
<text text-anchor="start" x="524.5" y="-223.633" font-family="Times Roman,serif" font-size="14.00">743 meses en espera</text>
</g>
<!-- Firmada_direccion_stats&#45;&gt;Firmada_direccion -->
<g id="edge24" class="edge"><title>Firmada_direccion_stats&#45;&gt;Firmada_direccion</title>
<path fill="none" stroke="black" stroke-dasharray="1,5" d="M593.224,-212.28C590.695,-196.544 587.59,-177.229 585.025,-161.267"/>
<polygon fill="black" stroke="black" points="588.471,-160.652 583.429,-151.334 581.56,-161.763 588.471,-160.652"/>
</g>
<!-- Firmada_presidencia_stats -->
<g id="node26" class="node"><title>Firmada_presidencia_stats</title>
<polygon fill="none" stroke="black" stroke-dasharray="5,2" points="907,-271.5 713,-271.5 713,-212.5 907,-212.5 907,-271.5"/>
<text text-anchor="start" x="721" y="-257.233" font-family="Times Roman,serif" font-size="14.00">Victor Rafael Bravo Bravo</text>
<text text-anchor="start" x="736" y="-240.433" font-family="Times Roman,serif" font-size="14.00">hace 746 meses llego</text>
<text text-anchor="start" x="736.5" y="-223.633" font-family="Times Roman,serif" font-size="14.00">743 meses en espera</text>
</g>
<!-- Firmada_presidencia_stats&#45;&gt;Firmada_presidencia -->
<g id="edge28" class="edge"><title>Firmada_presidencia_stats&#45;&gt;Firmada_presidencia</title>
<path fill="none" stroke="black" stroke-dasharray="1,5" d="M793.017,-212.28C783.854,-196.245 772.566,-176.491 763.348,-160.359"/>
<polygon fill="black" stroke="black" points="766.191,-158.28 758.191,-151.334 760.113,-161.753 766.191,-158.28"/>
</g>
<!-- Firmada_talento_stats -->
<g id="node29" class="node"><title>Firmada_talento_stats</title>
<polygon fill="none" stroke="black" stroke-dasharray="5,2" points="269,-271.5 75,-271.5 75,-212.5 269,-212.5 269,-271.5"/>
<text text-anchor="start" x="83" y="-257.233" font-family="Times Roman,serif" font-size="14.00">Victor Rafael Bravo Bravo</text>
<text text-anchor="start" x="98" y="-240.433" font-family="Times Roman,serif" font-size="14.00">hace 746 meses llego</text>
<text text-anchor="start" x="98.5" y="-223.633" font-family="Times Roman,serif" font-size="14.00">743 meses en espera</text>
</g>
<!-- Firmada_talento_stats&#45;&gt;Firmada_talento -->
<g id="edge32" class="edge"><title>Firmada_talento_stats&#45;&gt;Firmada_talento</title>
<path fill="none" stroke="black" stroke-dasharray="1,5" d="M178.369,-212.28C181.74,-196.544 185.88,-177.229 189.3,-161.267"/>
<polygon fill="black" stroke="black" points="192.755,-161.846 191.428,-151.334 185.911,-160.379 192.755,-161.846"/>
</g>
<!-- Por_usuario -->
<g id="node31" class="node"><title>Por_usuario</title>
<polygon fill="#ffff00" stroke="black" points="280,-599 182,-599 182,-557 280,-557 280,-599"/>
<polygon fill="none" stroke="black" points="280,-599 182,-599 182,-557 280,-557 280,-599"/>
<text text-anchor="middle" x="231" y="-582.4" font-family="Helvetica,sans-Serif" font-size="14.00">Por_usuario</text>
<text text-anchor="middle" x="231" y="-565.4" font-family="Helvetica,sans-Serif" font-size="14.00">todas</text>
</g>
<!-- Por_usuario&#45;&gt;Talento_humano -->
<g id="edge34" class="edge"><title>Por_usuario&#45;&gt;Talento_humano</title>
<path fill="none" stroke="black" d="M216.893,-556.934C205.339,-539.679 188.851,-515.058 175.946,-495.785"/>
<polygon fill="black" stroke="black" points="178.771,-493.714 170.299,-487.353 172.955,-497.609 178.771,-493.714"/>
</g>
<!-- inicial -->
<g id="node33" class="node"><title>inicial</title>
<ellipse fill="#ffffff" stroke="black" cx="231" cy="-690" rx="38.9134" ry="18"/>
<ellipse fill="none" stroke="black" cx="231" cy="-690" rx="38.9134" ry="18"/>
<text text-anchor="middle" x="231" y="-685.9" font-family="Times Roman,serif" font-size="14.00">inicial</text>
</g>
<!-- inicial&#45;&gt;Por_usuario -->
<g id="edge36" class="edge"><title>inicial&#45;&gt;Por_usuario</title>
<path fill="none" stroke="black" d="M231,-671.505C231,-654.652 231,-629.412 231,-609.401"/>
<polygon fill="black" stroke="black" points="234.5,-609.198 231,-599.198 227.5,-609.198 234.5,-609.198"/>
</g>
<!-- final_stats -->
<g id="node35" class="node"><title>final_stats</title>
<polygon fill="none" stroke="black" stroke-dasharray="5,2" points="966,-151 842,-151 842,-109 966,-109 966,-151"/>
<text text-anchor="start" x="850" y="-136.733" font-family="Times Roman,serif" font-size="14.00">Suma total: 0%</text>
<text text-anchor="start" x="899" y="-119.933" font-family="Times Roman,serif" font-size="14.00"> &#160;</text>
</g>
<!-- final_stats&#45;&gt;final -->
<g id="edge38" class="edge"><title>final_stats&#45;&gt;final</title>
<path fill="none" stroke="black" stroke-dasharray="1,5" d="M843.058,-108.934C776.619,-85.967 672.422,-49.9482 617.217,-30.8652"/>
<polygon fill="black" stroke="black" points="618.094,-27.4652 607.5,-27.506 615.807,-34.0811 618.094,-27.4652"/>
</g>
</g>
</svg>
