<?xml version="1.0" encoding="UTF-8" standalone="no"?>
<!DOCTYPE svg PUBLIC "-//W3C//DTD SVG 1.1//EN"
 "http://www.w3.org/Graphics/SVG/1.1/DTD/svg11.dtd">
<!-- Generated by graphviz version 2.26.3 (20100126.1600)
 -->
<!-- Title: G Pages: 1 -->
<svg width="972pt" height="716pt"
 viewBox="0.00 0.00 972.00 716.00" xmlns="http://www.w3.org/2000/svg" xmlns:xlink="http://www.w3.org/1999/xlink">
<g id="graph1" class="graph" transform="scale(1 1) rotate(0) translate(4 712)">
<title>G</title>
<polygon fill="white" stroke="white" points="-4,5 -4,-712 969,-712 969,5 -4,5"/>
<!-- Talento_humano -->
<g id="node1" class="node"><title>Talento_humano</title>
<polygon fill="#ffff00" stroke="black" points="248,-487 64,-487 64,-445 248,-445 248,-487"/>
<polygon fill="none" stroke="black" points="248,-487 64,-487 64,-445 248,-445 248,-487"/>
<text text-anchor="middle" x="156" y="-470.4" font-family="Helvetica,sans-Serif" font-size="14.00">Talento_humano</text>
<text text-anchor="middle" x="156" y="-453.4" font-family="Helvetica,sans-Serif" font-size="14.00">Planilla vista_vacaciones</text>
</g>
<!-- DireccionEjecutiva -->
<g id="node3" class="node"><title>DireccionEjecutiva</title>
<polygon fill="#ffff00" stroke="black" points="361,-375 177,-375 177,-333 361,-333 361,-375"/>
<polygon fill="none" stroke="black" points="361,-375 177,-375 177,-333 361,-333 361,-375"/>
<text text-anchor="middle" x="269" y="-358.4" font-family="Helvetica,sans-Serif" font-size="14.00">DireccionEjecutiva</text>
<text text-anchor="middle" x="269" y="-341.4" font-family="Helvetica,sans-Serif" font-size="14.00">Planilla vista_vacaciones</text>
</g>
<!-- Talento_humano&#45;&gt;DireccionEjecutiva -->
<g id="edge2" class="edge"><title>Talento_humano&#45;&gt;DireccionEjecutiva</title>
<path fill="none" stroke="black" d="M177.254,-444.934C195.055,-427.291 220.627,-401.945 240.254,-382.491"/>
<polygon fill="black" stroke="black" points="242.818,-384.878 247.457,-375.353 237.89,-379.906 242.818,-384.878"/>
</g>
<!-- Presidencia -->
<g id="node7" class="node"><title>Presidencia</title>
<polygon fill="#ffff00" stroke="#ffff00" points="302.5,-208.5 463.5,-208.5 475.5,-220.5 475.5,-263.5 463.5,-275.5 302.5,-275.5 290.5,-263.5 290.5,-220.5 302.5,-208.5"/>
<path fill="#ffff00" stroke="#ffff00" d="M463.5,-208.5C469.5,-208.5 475.5,-214.5 475.5,-220.5"/>
<path fill="#ffff00" stroke="#ffff00" d="M475.5,-263.5C475.5,-269.5 469.5,-275.5 463.5,-275.5"/>
<path fill="#ffff00" stroke="#ffff00" d="M302.5,-275.5C296.5,-275.5 290.5,-269.5 290.5,-263.5"/>
<path fill="#ffff00" stroke="#ffff00" d="M290.5,-220.5C290.5,-214.5 296.5,-208.5 302.5,-208.5"/>
<polyline fill="none" stroke="black" points="302.5,-208.5 463.5,-208.5 "/>
<path fill="none" stroke="black" d="M463.5,-208.5C469.5,-208.5 475.5,-214.5 475.5,-220.5"/>
<polyline fill="none" stroke="black" points="475.5,-220.5 475.5,-263.5 "/>
<path fill="none" stroke="black" d="M475.5,-263.5C475.5,-269.5 469.5,-275.5 463.5,-275.5"/>
<polyline fill="none" stroke="black" points="463.5,-275.5 302.5,-275.5 "/>
<path fill="none" stroke="black" d="M302.5,-275.5C296.5,-275.5 290.5,-269.5 290.5,-263.5"/>
<polyline fill="none" stroke="black" points="290.5,-263.5 290.5,-220.5 "/>
<path fill="none" stroke="black" d="M290.5,-220.5C290.5,-214.5 296.5,-208.5 302.5,-208.5"/>
<text text-anchor="middle" x="383" y="-258.9" font-family="Helvetica,sans-Serif" font-size="14.00">Presidencia</text>
<text text-anchor="middle" x="383" y="-241.9" font-family="Helvetica,sans-Serif" font-size="14.00">Planilla vista_vacaciones</text>
<polyline fill="none" stroke="black" points="290.5,-233.5 475.5,-233.5 "/>
<text text-anchor="middle" x="383" y="-216.9" font-family="Helvetica,sans-Serif" font-size="14.00">or</text>
</g>
<!-- DireccionEjecutiva&#45;&gt;Presidencia -->
<g id="edge6" class="edge"><title>DireccionEjecutiva&#45;&gt;Presidencia</title>
<path fill="none" stroke="black" d="M290.443,-332.934C304.777,-318.85 324.107,-299.859 341.395,-282.875"/>
<polygon fill="black" stroke="black" points="343.978,-285.244 348.659,-275.739 339.072,-280.251 343.978,-285.244"/>
</g>
<!-- Talento_humano_stats -->
<g id="node4" class="node"><title>Talento_humano_stats</title>
<polygon fill="none" stroke="black" stroke-dasharray="5,2" points="164,-616 7.10543e-14,-616 0,-540 164,-540 164,-616"/>
<text text-anchor="start" x="62.5" y="-601.733" font-family="Times Roman,serif" font-size="14.00">ssole </text>
<text text-anchor="start" x="8" y="-584.933" font-family="Times Roman,serif" font-size="14.00">04/11/2013 09:18am</text>
<text text-anchor="start" x="17" y="-568.133" font-family="Times Roman,serif" font-size="14.00">hace 3 meses llego</text>
<text text-anchor="start" x="71" y="-551.333" font-family="Times Roman,serif" font-size="14.00">n/a</text>
</g>
<!-- Talento_humano_stats&#45;&gt;Talento_humano -->
<g id="edge4" class="edge"><title>Talento_humano_stats&#45;&gt;Talento_humano</title>
<path fill="none" stroke="black" stroke-dasharray="1,5" d="M107.26,-539.769C116.808,-525.318 127.52,-509.105 136.465,-495.567"/>
<polygon fill="black" stroke="black" points="139.465,-497.375 142.057,-487.102 133.625,-493.516 139.465,-497.375"/>
</g>
<!-- Archivar_solicitud_procesada -->
<g id="node11" class="node"><title>Archivar_solicitud_procesada</title>
<polygon fill="#ffffff" stroke="black" points="490,-151 276,-151 276,-109 490,-109 490,-151"/>
<polygon fill="none" stroke="black" points="490,-151 276,-151 276,-109 490,-109 490,-151"/>
<text text-anchor="middle" x="383" y="-134.4" font-family="Helvetica,sans-Serif" font-size="14.00">Archivar_solicitud_procesada</text>
<text text-anchor="middle" x="383" y="-117.4" font-family="Helvetica,sans-Serif" font-size="14.00">solicitud_archivada</text>
</g>
<!-- Presidencia&#45;&gt;Archivar_solicitud_procesada -->
<g id="edge10" class="edge"><title>Presidencia&#45;&gt;Archivar_solicitud_procesada</title>
<path fill="none" stroke="black" d="M383,-208.396C383,-193.464 383,-175.987 383,-161.329"/>
<polygon fill="black" stroke="black" points="386.5,-161.231 383,-151.231 379.5,-161.231 386.5,-161.231"/>
</g>
<!-- Firmada_talento -->
<g id="node13" class="node"><title>Firmada_talento</title>
<polygon fill="#ffff00" stroke="black" points="258,-151 130,-151 130,-109 258,-109 258,-151"/>
<polygon fill="none" stroke="black" points="258,-151 130,-151 130,-109 258,-109 258,-151"/>
<text text-anchor="middle" x="194" y="-134.4" font-family="Helvetica,sans-Serif" font-size="14.00">Firmada_talento</text>
<text text-anchor="middle" x="194" y="-117.4" font-family="Helvetica,sans-Serif" font-size="14.00">firmada_EE</text>
</g>
<!-- Presidencia&#45;&gt;Firmada_talento -->
<g id="edge12" class="edge"><title>Presidencia&#45;&gt;Firmada_talento</title>
<path fill="none" stroke="black" d="M326.294,-208.396C298.061,-191.666 264.441,-171.743 238.158,-156.168"/>
<polygon fill="black" stroke="black" points="239.932,-153.15 229.544,-151.063 236.363,-159.172 239.932,-153.15"/>
</g>
<!-- Firmada_direccion -->
<g id="node15" class="node"><title>Firmada_direccion</title>
<polygon fill="#ffff00" stroke="black" points="648,-151 508,-151 508,-109 648,-109 648,-151"/>
<polygon fill="none" stroke="black" points="648,-151 508,-151 508,-109 648,-109 648,-151"/>
<text text-anchor="middle" x="578" y="-134.4" font-family="Helvetica,sans-Serif" font-size="14.00">Firmada_direccion</text>
<text text-anchor="middle" x="578" y="-117.4" font-family="Helvetica,sans-Serif" font-size="14.00">firmada_YV</text>
</g>
<!-- Presidencia&#45;&gt;Firmada_direccion -->
<g id="edge14" class="edge"><title>Presidencia&#45;&gt;Firmada_direccion</title>
<path fill="none" stroke="black" d="M441.506,-208.396C470.635,-191.666 505.323,-171.743 532.44,-156.168"/>
<polygon fill="black" stroke="black" points="534.399,-159.079 541.327,-151.063 530.913,-153.009 534.399,-159.079"/>
</g>
<!-- Firmada_presidencia -->
<g id="node17" class="node"><title>Firmada_presidencia</title>
<polygon fill="#ffff00" stroke="black" points="822,-151 666,-151 666,-109 822,-109 822,-151"/>
<polygon fill="none" stroke="black" points="822,-151 666,-151 666,-109 822,-109 822,-151"/>
<text text-anchor="middle" x="744" y="-134.4" font-family="Helvetica,sans-Serif" font-size="14.00">Firmada_presidencia</text>
<text text-anchor="middle" x="744" y="-117.4" font-family="Helvetica,sans-Serif" font-size="14.00">firmada_JJ</text>
</g>
<!-- Presidencia&#45;&gt;Firmada_presidencia -->
<g id="edge16" class="edge"><title>Presidencia&#45;&gt;Firmada_presidencia</title>
<path fill="none" stroke="black" d="M475.699,-210.661C478.495,-209.759 481.267,-208.87 484,-208 543.275,-189.138 610.544,-168.99 661.807,-153.898"/>
<polygon fill="black" stroke="black" points="662.906,-157.223 671.513,-151.044 660.931,-150.507 662.906,-157.223"/>
</g>
<!-- DireccionEjecutiva_stats -->
<g id="node8" class="node"><title>DireccionEjecutiva_stats</title>
<polygon fill="none" stroke="black" stroke-dasharray="5,2" points="498,-504 266,-504 266,-428 498,-428 498,-504"/>
<text text-anchor="start" x="357.5" y="-489.733" font-family="Times Roman,serif" font-size="14.00">emora </text>
<text text-anchor="start" x="308" y="-472.933" font-family="Times Roman,serif" font-size="14.00">04/11/2013 11:23am</text>
<text text-anchor="start" x="317" y="-456.133" font-family="Times Roman,serif" font-size="14.00">hace 3 meses llego</text>
<text text-anchor="start" x="274.5" y="-439.333" font-family="Times Roman,serif" font-size="14.00">2 horas y 5 minutos &#160;en espera</text>
</g>
<!-- DireccionEjecutiva_stats&#45;&gt;DireccionEjecutiva -->
<g id="edge8" class="edge"><title>DireccionEjecutiva_stats&#45;&gt;DireccionEjecutiva</title>
<path fill="none" stroke="black" stroke-dasharray="1,5" d="M343.428,-427.769C328.431,-412.905 311.554,-396.177 297.667,-382.413"/>
<polygon fill="black" stroke="black" points="299.857,-379.656 290.291,-375.102 294.929,-384.628 299.857,-379.656"/>
</g>
<!-- final -->
<g id="node21" class="node"><title>final</title>
<ellipse fill="#ffffff" stroke="black" cx="578" cy="-18" rx="31.9646" ry="18"/>
<ellipse fill="none" stroke="black" cx="578" cy="-18" rx="31.9646" ry="18"/>
<text text-anchor="middle" x="578" y="-13.9" font-family="Times Roman,serif" font-size="14.00">final</text>
</g>
<!-- Archivar_solicitud_procesada&#45;&gt;final -->
<g id="edge20" class="edge"><title>Archivar_solicitud_procesada&#45;&gt;final</title>
<path fill="none" stroke="black" d="M419.678,-108.934C456.34,-87.8767 512.104,-55.8478 546.731,-35.9594"/>
<polygon fill="black" stroke="black" points="548.551,-38.9506 555.479,-30.935 545.065,-32.8805 548.551,-38.9506"/>
</g>
<!-- Firmada_talento&#45;&gt;final -->
<g id="edge30" class="edge"><title>Firmada_talento&#45;&gt;final</title>
<path fill="none" stroke="black" d="M258.273,-111.254C338.528,-87.846 473.273,-48.5453 539.243,-29.3042"/>
<polygon fill="black" stroke="black" points="540.601,-32.5539 549.221,-26.3939 538.641,-25.8339 540.601,-32.5539"/>
</g>
<!-- Firmada_direccion&#45;&gt;final -->
<g id="edge22" class="edge"><title>Firmada_direccion&#45;&gt;final</title>
<path fill="none" stroke="black" d="M578,-108.934C578,-91.1831 578,-65.6359 578,-46.1368"/>
<polygon fill="black" stroke="black" points="581.5,-46.0141 578,-36.0142 574.5,-46.0142 581.5,-46.0141"/>
</g>
<!-- Firmada_presidencia&#45;&gt;final -->
<g id="edge26" class="edge"><title>Firmada_presidencia&#45;&gt;final</title>
<path fill="none" stroke="black" d="M712.777,-108.934C682.476,-88.49 636.848,-57.7044 607.239,-37.7277"/>
<polygon fill="black" stroke="black" points="608.847,-34.5902 598.6,-31.8985 604.932,-40.3929 608.847,-34.5902"/>
</g>
<!-- Presidencia_stats -->
<g id="node18" class="node"><title>Presidencia_stats</title>
<polygon fill="none" stroke="black" stroke-dasharray="5,2" points="615,-392 379,-392 379,-316 615,-316 615,-392"/>
<text text-anchor="start" x="473" y="-377.733" font-family="Times Roman,serif" font-size="14.00">yverdi </text>
<text text-anchor="start" x="423" y="-360.933" font-family="Times Roman,serif" font-size="14.00">14/11/2013 02:22pm</text>
<text text-anchor="start" x="432" y="-344.133" font-family="Times Roman,serif" font-size="14.00">hace 3 meses llego</text>
<text text-anchor="start" x="387.5" y="-327.333" font-family="Times Roman,serif" font-size="14.00">una semana y 3 dias &#160;en espera</text>
</g>
<!-- Presidencia_stats&#45;&gt;Presidencia -->
<g id="edge18" class="edge"><title>Presidencia_stats&#45;&gt;Presidencia</title>
<path fill="none" stroke="black" stroke-dasharray="1,5" d="M458.087,-315.769C447.291,-305.163 435.529,-293.607 424.587,-282.857"/>
<polygon fill="black" stroke="black" points="426.75,-280.076 417.164,-275.565 421.844,-285.069 426.75,-280.076"/>
</g>
<!-- Firmada_direccion_stats -->
<g id="node23" class="node"><title>Firmada_direccion_stats</title>
<polygon fill="none" stroke="black" stroke-dasharray="5,2" points="687,-271.5 493,-271.5 493,-212.5 687,-212.5 687,-271.5"/>
<text text-anchor="start" x="501" y="-257.233" font-family="Times Roman,serif" font-size="14.00">Victor Rafael Bravo Bravo</text>
<text text-anchor="start" x="516" y="-240.433" font-family="Times Roman,serif" font-size="14.00">hace 746 meses llego</text>
<text text-anchor="start" x="516.5" y="-223.633" font-family="Times Roman,serif" font-size="14.00">743 meses en espera</text>
</g>
<!-- Firmada_direccion_stats&#45;&gt;Firmada_direccion -->
<g id="edge24" class="edge"><title>Firmada_direccion_stats&#45;&gt;Firmada_direccion</title>
<path fill="none" stroke="black" stroke-dasharray="1,5" d="M586.816,-212.28C585.146,-196.694 583.1,-177.596 581.399,-161.724"/>
<polygon fill="black" stroke="black" points="584.831,-160.904 580.286,-151.334 577.871,-161.65 584.831,-160.904"/>
</g>
<!-- Firmada_presidencia_stats -->
<g id="node26" class="node"><title>Firmada_presidencia_stats</title>
<polygon fill="none" stroke="black" stroke-dasharray="5,2" points="899,-271.5 705,-271.5 705,-212.5 899,-212.5 899,-271.5"/>
<text text-anchor="start" x="713" y="-257.233" font-family="Times Roman,serif" font-size="14.00">Victor Rafael Bravo Bravo</text>
<text text-anchor="start" x="728" y="-240.433" font-family="Times Roman,serif" font-size="14.00">hace 746 meses llego</text>
<text text-anchor="start" x="728.5" y="-223.633" font-family="Times Roman,serif" font-size="14.00">743 meses en espera</text>
</g>
<!-- Firmada_presidencia_stats&#45;&gt;Firmada_presidencia -->
<g id="edge28" class="edge"><title>Firmada_presidencia_stats&#45;&gt;Firmada_presidencia</title>
<path fill="none" stroke="black" stroke-dasharray="1,5" d="M786.609,-212.28C778.305,-196.245 768.076,-176.491 759.722,-160.359"/>
<polygon fill="black" stroke="black" points="762.755,-158.605 755.048,-151.334 756.539,-161.824 762.755,-158.605"/>
</g>
<!-- Firmada_talento_stats -->
<g id="node29" class="node"><title>Firmada_talento_stats</title>
<polygon fill="none" stroke="black" stroke-dasharray="5,2" points="273,-271.5 79,-271.5 79,-212.5 273,-212.5 273,-271.5"/>
<text text-anchor="start" x="87" y="-257.233" font-family="Times Roman,serif" font-size="14.00">Victor Rafael Bravo Bravo</text>
<text text-anchor="start" x="102" y="-240.433" font-family="Times Roman,serif" font-size="14.00">hace 746 meses llego</text>
<text text-anchor="start" x="102.5" y="-223.633" font-family="Times Roman,serif" font-size="14.00">743 meses en espera</text>
</g>
<!-- Firmada_talento_stats&#45;&gt;Firmada_talento -->
<g id="edge32" class="edge"><title>Firmada_talento_stats&#45;&gt;Firmada_talento</title>
<path fill="none" stroke="black" stroke-dasharray="1,5" d="M180.776,-212.28C183.305,-196.544 186.41,-177.229 188.975,-161.267"/>
<polygon fill="black" stroke="black" points="192.44,-161.763 190.571,-151.334 185.529,-160.652 192.44,-161.763"/>
</g>
<!-- Por_usuario -->
<g id="node31" class="node"><title>Por_usuario</title>
<polygon fill="#ffff00" stroke="black" points="280,-599 182,-599 182,-557 280,-557 280,-599"/>
<polygon fill="none" stroke="black" points="280,-599 182,-599 182,-557 280,-557 280,-599"/>
<text text-anchor="middle" x="231" y="-582.4" font-family="Helvetica,sans-Serif" font-size="14.00">Por_usuario</text>
<text text-anchor="middle" x="231" y="-565.4" font-family="Helvetica,sans-Serif" font-size="14.00">todas</text>
</g>
<!-- Por_usuario&#45;&gt;Talento_humano -->
<g id="edge34" class="edge"><title>Por_usuario&#45;&gt;Talento_humano</title>
<path fill="none" stroke="black" d="M216.893,-556.934C205.339,-539.679 188.851,-515.058 175.946,-495.785"/>
<polygon fill="black" stroke="black" points="178.771,-493.714 170.299,-487.353 172.955,-497.609 178.771,-493.714"/>
</g>
<!-- inicial -->
<g id="node33" class="node"><title>inicial</title>
<ellipse fill="#ffffff" stroke="black" cx="231" cy="-690" rx="38.9134" ry="18"/>
<ellipse fill="none" stroke="black" cx="231" cy="-690" rx="38.9134" ry="18"/>
<text text-anchor="middle" x="231" y="-685.9" font-family="Times Roman,serif" font-size="14.00">inicial</text>
</g>
<!-- inicial&#45;&gt;Por_usuario -->
<g id="edge36" class="edge"><title>inicial&#45;&gt;Por_usuario</title>
<path fill="none" stroke="black" d="M231,-671.505C231,-654.652 231,-629.412 231,-609.401"/>
<polygon fill="black" stroke="black" points="234.5,-609.198 231,-599.198 227.5,-609.198 234.5,-609.198"/>
</g>
<!-- final_stats -->
<g id="node35" class="node"><title>final_stats</title>
<polygon fill="none" stroke="black" stroke-dasharray="5,2" points="964,-151 840,-151 840,-109 964,-109 964,-151"/>
<text text-anchor="start" x="848" y="-136.733" font-family="Times Roman,serif" font-size="14.00">Suma total: 0%</text>
<text text-anchor="start" x="897" y="-119.933" font-family="Times Roman,serif" font-size="14.00"> &#160;</text>
</g>
<!-- final_stats&#45;&gt;final -->
<g id="edge38" class="edge"><title>final_stats&#45;&gt;final</title>
<path fill="none" stroke="black" stroke-dasharray="1,5" d="M841.058,-108.934C774.619,-85.967 670.422,-49.9482 615.217,-30.8652"/>
<polygon fill="black" stroke="black" points="616.094,-27.4652 605.5,-27.506 613.807,-34.0811 616.094,-27.4652"/>
</g>
</g>
</svg>
