<?xml version="1.0" encoding="UTF-8" standalone="no"?>
<!DOCTYPE svg PUBLIC "-//W3C//DTD SVG 1.1//EN"
 "http://www.w3.org/Graphics/SVG/1.1/DTD/svg11.dtd">
<!-- Generated by graphviz version 2.26.3 (20100126.1600)
 -->
<!-- Title: G Pages: 1 -->
<svg width="842pt" height="716pt"
 viewBox="0.00 0.00 842.00 716.00" xmlns="http://www.w3.org/2000/svg" xmlns:xlink="http://www.w3.org/1999/xlink">
<g id="graph1" class="graph" transform="scale(1 1) rotate(0) translate(4 712)">
<title>G</title>
<polygon fill="white" stroke="white" points="-4,5 -4,-712 839,-712 839,5 -4,5"/>
<!-- inicial -->
<g id="node1" class="node"><title>inicial</title>
<ellipse fill="#ffffff" stroke="black" cx="68" cy="-690" rx="38.9134" ry="18"/>
<ellipse fill="none" stroke="black" cx="68" cy="-690" rx="38.9134" ry="18"/>
<text text-anchor="middle" x="68" y="-685.9" font-family="Times Roman,serif" font-size="14.00">inicial</text>
</g>
<!-- Por_usuario -->
<g id="node3" class="node"><title>Por_usuario</title>
<polygon fill="#ffff00" stroke="black" points="117,-599 19,-599 19,-557 117,-557 117,-599"/>
<polygon fill="none" stroke="black" points="117,-599 19,-599 19,-557 117,-557 117,-599"/>
<text text-anchor="middle" x="68" y="-582.4" font-family="Helvetica,sans-Serif" font-size="14.00">Por_usuario</text>
<text text-anchor="middle" x="68" y="-565.4" font-family="Helvetica,sans-Serif" font-size="14.00">todas</text>
</g>
<!-- inicial&#45;&gt;Por_usuario -->
<g id="edge2" class="edge"><title>inicial&#45;&gt;Por_usuario</title>
<path fill="none" stroke="black" d="M68,-671.505C68,-654.652 68,-629.412 68,-609.401"/>
<polygon fill="black" stroke="black" points="71.5001,-609.198 68,-599.198 64.5001,-609.198 71.5001,-609.198"/>
</g>
<!-- Talento_humano -->
<g id="node5" class="node"><title>Talento_humano</title>
<polygon fill="#ffff00" stroke="black" points="234,-487 50,-487 50,-445 234,-445 234,-487"/>
<polygon fill="none" stroke="black" points="234,-487 50,-487 50,-445 234,-445 234,-487"/>
<text text-anchor="middle" x="142" y="-470.4" font-family="Helvetica,sans-Serif" font-size="14.00">Talento_humano</text>
<text text-anchor="middle" x="142" y="-453.4" font-family="Helvetica,sans-Serif" font-size="14.00">Planilla vista_vacaciones</text>
</g>
<!-- Por_usuario&#45;&gt;Talento_humano -->
<g id="edge4" class="edge"><title>Por_usuario&#45;&gt;Talento_humano</title>
<path fill="none" stroke="black" d="M81.9188,-556.934C93.3191,-539.679 109.587,-515.058 122.32,-495.785"/>
<polygon fill="black" stroke="black" points="125.3,-497.625 127.892,-487.353 119.459,-493.767 125.3,-497.625"/>
</g>
<!-- DireccionEjecutiva -->
<g id="node7" class="node"><title>DireccionEjecutiva</title>
<polygon fill="#ffff00" stroke="black" points="349,-375 165,-375 165,-333 349,-333 349,-375"/>
<polygon fill="none" stroke="black" points="349,-375 165,-375 165,-333 349,-333 349,-375"/>
<text text-anchor="middle" x="257" y="-358.4" font-family="Helvetica,sans-Serif" font-size="14.00">DireccionEjecutiva</text>
<text text-anchor="middle" x="257" y="-341.4" font-family="Helvetica,sans-Serif" font-size="14.00">Planilla vista_vacaciones</text>
</g>
<!-- Talento_humano&#45;&gt;DireccionEjecutiva -->
<g id="edge6" class="edge"><title>Talento_humano&#45;&gt;DireccionEjecutiva</title>
<path fill="none" stroke="black" d="M163.631,-444.934C181.746,-427.291 207.771,-401.945 227.745,-382.491"/>
<polygon fill="black" stroke="black" points="230.353,-384.837 235.075,-375.353 225.469,-379.822 230.353,-384.837"/>
</g>
<!-- Presidencia -->
<g id="node11" class="node"><title>Presidencia</title>
<polygon fill="#ffff00" stroke="#ffff00" points="291.5,-208.5 452.5,-208.5 464.5,-220.5 464.5,-263.5 452.5,-275.5 291.5,-275.5 279.5,-263.5 279.5,-220.5 291.5,-208.5"/>
<path fill="#ffff00" stroke="#ffff00" d="M452.5,-208.5C458.5,-208.5 464.5,-214.5 464.5,-220.5"/>
<path fill="#ffff00" stroke="#ffff00" d="M464.5,-263.5C464.5,-269.5 458.5,-275.5 452.5,-275.5"/>
<path fill="#ffff00" stroke="#ffff00" d="M291.5,-275.5C285.5,-275.5 279.5,-269.5 279.5,-263.5"/>
<path fill="#ffff00" stroke="#ffff00" d="M279.5,-220.5C279.5,-214.5 285.5,-208.5 291.5,-208.5"/>
<polyline fill="none" stroke="black" points="291.5,-208.5 452.5,-208.5 "/>
<path fill="none" stroke="black" d="M452.5,-208.5C458.5,-208.5 464.5,-214.5 464.5,-220.5"/>
<polyline fill="none" stroke="black" points="464.5,-220.5 464.5,-263.5 "/>
<path fill="none" stroke="black" d="M464.5,-263.5C464.5,-269.5 458.5,-275.5 452.5,-275.5"/>
<polyline fill="none" stroke="black" points="452.5,-275.5 291.5,-275.5 "/>
<path fill="none" stroke="black" d="M291.5,-275.5C285.5,-275.5 279.5,-269.5 279.5,-263.5"/>
<polyline fill="none" stroke="black" points="279.5,-263.5 279.5,-220.5 "/>
<path fill="none" stroke="black" d="M279.5,-220.5C279.5,-214.5 285.5,-208.5 291.5,-208.5"/>
<text text-anchor="middle" x="372" y="-258.9" font-family="Helvetica,sans-Serif" font-size="14.00">Presidencia</text>
<text text-anchor="middle" x="372" y="-241.9" font-family="Helvetica,sans-Serif" font-size="14.00">Planilla vista_vacaciones</text>
<polyline fill="none" stroke="black" points="279.5,-233.5 464.5,-233.5 "/>
<text text-anchor="middle" x="372" y="-216.9" font-family="Helvetica,sans-Serif" font-size="14.00">or</text>
</g>
<!-- DireccionEjecutiva&#45;&gt;Presidencia -->
<g id="edge10" class="edge"><title>DireccionEjecutiva&#45;&gt;Presidencia</title>
<path fill="none" stroke="black" d="M278.631,-332.934C293.091,-318.85 312.591,-299.859 330.03,-282.875"/>
<polygon fill="black" stroke="black" points="332.635,-285.223 337.357,-275.739 327.751,-280.209 332.635,-285.223"/>
</g>
<!-- Talento_humano_stats -->
<g id="node8" class="node"><title>Talento_humano_stats</title>
<polygon fill="none" stroke="black" stroke-dasharray="5,2" points="299,-616 135,-616 135,-540 299,-540 299,-616"/>
<text text-anchor="start" x="193" y="-601.733" font-family="Times Roman,serif" font-size="14.00">vbravo</text>
<text text-anchor="start" x="143" y="-584.933" font-family="Times Roman,serif" font-size="14.00">04/11/2013 08:52am</text>
<text text-anchor="start" x="152" y="-568.133" font-family="Times Roman,serif" font-size="14.00">hace 3 meses llego</text>
<text text-anchor="start" x="204.5" y="-551.333" font-family="Times Roman,serif" font-size="14.00">N/A</text>
</g>
<!-- Talento_humano_stats&#45;&gt;Talento_humano -->
<g id="edge8" class="edge"><title>Talento_humano_stats&#45;&gt;Talento_humano</title>
<path fill="none" stroke="black" stroke-dasharray="1,5" d="M191.399,-539.769C181.722,-525.318 170.865,-509.105 161.799,-495.567"/>
<polygon fill="black" stroke="black" points="164.603,-493.464 156.131,-487.102 158.787,-497.359 164.603,-493.464"/>
</g>
<!-- Archivar_solicitud_procesada -->
<g id="node15" class="node"><title>Archivar_solicitud_procesada</title>
<polygon fill="#ffffff" stroke="black" points="214,-151 8.52651e-14,-151 0,-109 214,-109 214,-151"/>
<polygon fill="none" stroke="black" points="214,-151 8.52651e-14,-151 0,-109 214,-109 214,-151"/>
<text text-anchor="middle" x="107" y="-134.4" font-family="Helvetica,sans-Serif" font-size="14.00">Archivar_solicitud_procesada</text>
<text text-anchor="middle" x="107" y="-117.4" font-family="Helvetica,sans-Serif" font-size="14.00">solicitud_archivada</text>
</g>
<!-- Presidencia&#45;&gt;Archivar_solicitud_procesada -->
<g id="edge14" class="edge"><title>Presidencia&#45;&gt;Archivar_solicitud_procesada</title>
<path fill="none" stroke="black" d="M292.491,-208.396C251.874,-191.23 203.302,-170.701 166.052,-154.958"/>
<polygon fill="black" stroke="black" points="167.411,-151.732 156.837,-151.063 164.686,-158.18 167.411,-151.732"/>
</g>
<!-- Firmada_talento -->
<g id="node17" class="node"><title>Firmada_talento</title>
<polygon fill="#ffffff" stroke="black" points="360,-151 232,-151 232,-109 360,-109 360,-151"/>
<polygon fill="none" stroke="black" points="360,-151 232,-151 232,-109 360,-109 360,-151"/>
<text text-anchor="middle" x="296" y="-134.4" font-family="Helvetica,sans-Serif" font-size="14.00">Firmada_talento</text>
<text text-anchor="middle" x="296" y="-117.4" font-family="Helvetica,sans-Serif" font-size="14.00">firmada_EE</text>
</g>
<!-- Presidencia&#45;&gt;Firmada_talento -->
<g id="edge16" class="edge"><title>Presidencia&#45;&gt;Firmada_talento</title>
<path fill="none" stroke="black" d="M349.197,-208.396C338.671,-192.884 326.282,-174.626 316.109,-159.635"/>
<polygon fill="black" stroke="black" points="318.918,-157.54 310.407,-151.231 313.126,-161.471 318.918,-157.54"/>
</g>
<!-- Firmada_direccion -->
<g id="node19" class="node"><title>Firmada_direccion</title>
<polygon fill="#ffffff" stroke="black" points="518,-151 378,-151 378,-109 518,-109 518,-151"/>
<polygon fill="none" stroke="black" points="518,-151 378,-151 378,-109 518,-109 518,-151"/>
<text text-anchor="middle" x="448" y="-134.4" font-family="Helvetica,sans-Serif" font-size="14.00">Firmada_direccion</text>
<text text-anchor="middle" x="448" y="-117.4" font-family="Helvetica,sans-Serif" font-size="14.00">firmada_YV</text>
</g>
<!-- Presidencia&#45;&gt;Firmada_direccion -->
<g id="edge18" class="edge"><title>Presidencia&#45;&gt;Firmada_direccion</title>
<path fill="none" stroke="black" d="M394.803,-208.396C405.329,-192.884 417.718,-174.626 427.891,-159.635"/>
<polygon fill="black" stroke="black" points="430.874,-161.471 433.593,-151.231 425.082,-157.54 430.874,-161.471"/>
</g>
<!-- Firmada_presidencia -->
<g id="node21" class="node"><title>Firmada_presidencia</title>
<polygon fill="#ffffff" stroke="black" points="692,-151 536,-151 536,-109 692,-109 692,-151"/>
<polygon fill="none" stroke="black" points="692,-151 536,-151 536,-109 692,-109 692,-151"/>
<text text-anchor="middle" x="614" y="-134.4" font-family="Helvetica,sans-Serif" font-size="14.00">Firmada_presidencia</text>
<text text-anchor="middle" x="614" y="-117.4" font-family="Helvetica,sans-Serif" font-size="14.00">firmada_JJ</text>
</g>
<!-- Presidencia&#45;&gt;Firmada_presidencia -->
<g id="edge20" class="edge"><title>Presidencia&#45;&gt;Firmada_presidencia</title>
<path fill="none" stroke="black" d="M444.608,-208.396C481.386,-191.375 525.305,-171.049 559.206,-155.359"/>
<polygon fill="black" stroke="black" points="560.883,-158.44 568.488,-151.063 557.943,-152.087 560.883,-158.44"/>
</g>
<!-- DireccionEjecutiva_stats -->
<g id="node12" class="node"><title>DireccionEjecutiva_stats</title>
<polygon fill="none" stroke="black" stroke-dasharray="5,2" points="494,-504 252,-504 252,-428 494,-428 494,-504"/>
<text text-anchor="start" x="349" y="-489.733" font-family="Times Roman,serif" font-size="14.00">vbravo</text>
<text text-anchor="start" x="299" y="-472.933" font-family="Times Roman,serif" font-size="14.00">14/11/2013 03:38pm</text>
<text text-anchor="start" x="260" y="-456.133" font-family="Times Roman,serif" font-size="14.00">hace 2 meses y 3 semanas &#160;llego</text>
<text text-anchor="start" x="263.5" y="-439.333" font-family="Times Roman,serif" font-size="14.00">una semana y 3 dias &#160;en espera</text>
</g>
<!-- DireccionEjecutiva_stats&#45;&gt;DireccionEjecutiva -->
<g id="edge12" class="edge"><title>DireccionEjecutiva_stats&#45;&gt;DireccionEjecutiva</title>
<path fill="none" stroke="black" stroke-dasharray="1,5" d="M333.404,-427.769C318.009,-412.905 300.684,-396.177 286.428,-382.413"/>
<polygon fill="black" stroke="black" points="288.481,-379.53 278.856,-375.102 283.619,-384.566 288.481,-379.53"/>
</g>
<!-- final -->
<g id="node25" class="node"><title>final</title>
<ellipse fill="#ffffff" stroke="black" cx="448" cy="-18" rx="31.9646" ry="18"/>
<ellipse fill="none" stroke="black" cx="448" cy="-18" rx="31.9646" ry="18"/>
<text text-anchor="middle" x="448" y="-13.9" font-family="Times Roman,serif" font-size="14.00">final</text>
</g>
<!-- Archivar_solicitud_procesada&#45;&gt;final -->
<g id="edge24" class="edge"><title>Archivar_solicitud_procesada&#45;&gt;final</title>
<path fill="none" stroke="black" d="M171.139,-108.934C241.756,-85.74 352.901,-49.235 410.538,-30.3044"/>
<polygon fill="black" stroke="black" points="411.912,-33.537 420.32,-27.0913 409.727,-26.8866 411.912,-33.537"/>
</g>
<!-- Firmada_talento&#45;&gt;final -->
<g id="edge26" class="edge"><title>Firmada_talento&#45;&gt;final</title>
<path fill="none" stroke="black" d="M324.59,-108.934C351.905,-88.8069 392.824,-58.6562 419.956,-38.6642"/>
<polygon fill="black" stroke="black" points="422.271,-41.3056 428.246,-32.5559 418.119,-35.6702 422.271,-41.3056"/>
</g>
<!-- Firmada_direccion&#45;&gt;final -->
<g id="edge28" class="edge"><title>Firmada_direccion&#45;&gt;final</title>
<path fill="none" stroke="black" d="M448,-108.934C448,-91.1831 448,-65.6359 448,-46.1368"/>
<polygon fill="black" stroke="black" points="451.5,-46.0141 448,-36.0142 444.5,-46.0142 451.5,-46.0141"/>
</g>
<!-- Firmada_presidencia&#45;&gt;final -->
<g id="edge30" class="edge"><title>Firmada_presidencia&#45;&gt;final</title>
<path fill="none" stroke="black" d="M582.777,-108.934C552.476,-88.49 506.848,-57.7044 477.239,-37.7277"/>
<polygon fill="black" stroke="black" points="478.847,-34.5902 468.6,-31.8985 474.932,-40.3929 478.847,-34.5902"/>
</g>
<!-- Presidencia_stats -->
<g id="node22" class="node"><title>Presidencia_stats</title>
<polygon fill="none" stroke="black" stroke-dasharray="5,2" points="609,-392 367,-392 367,-316 609,-316 609,-392"/>
<text text-anchor="start" x="464" y="-377.733" font-family="Times Roman,serif" font-size="14.00">vbravo</text>
<text text-anchor="start" x="414" y="-360.933" font-family="Times Roman,serif" font-size="14.00">13/11/2013 02:53pm</text>
<text text-anchor="start" x="375" y="-344.133" font-family="Times Roman,serif" font-size="14.00">hace 2 meses y 3 semanas &#160;llego</text>
<text text-anchor="start" x="430.5" y="-327.333" font-family="Times Roman,serif" font-size="14.00">un dia en espera</text>
</g>
<!-- Presidencia_stats&#45;&gt;Presidencia -->
<g id="edge22" class="edge"><title>Presidencia_stats&#45;&gt;Presidencia</title>
<path fill="none" stroke="black" stroke-dasharray="1,5" d="M448.404,-315.769C437.313,-305.061 425.22,-293.385 413.995,-282.547"/>
<polygon fill="black" stroke="black" points="416.388,-279.993 406.763,-275.565 411.526,-285.028 416.388,-279.993"/>
</g>
<!-- final_stats -->
<g id="node29" class="node"><title>final_stats</title>
<polygon fill="none" stroke="black" stroke-dasharray="5,2" points="834,-151 710,-151 710,-109 834,-109 834,-151"/>
<text text-anchor="start" x="718" y="-136.733" font-family="Times Roman,serif" font-size="14.00">Suma total: 0%</text>
<text text-anchor="start" x="767" y="-119.933" font-family="Times Roman,serif" font-size="14.00"> &#160;</text>
</g>
<!-- final_stats&#45;&gt;final -->
<g id="edge32" class="edge"><title>final_stats&#45;&gt;final</title>
<path fill="none" stroke="black" stroke-dasharray="1,5" d="M711.058,-108.934C644.619,-85.967 540.422,-49.9482 485.217,-30.8652"/>
<polygon fill="black" stroke="black" points="486.094,-27.4652 475.5,-27.506 483.807,-34.0811 486.094,-27.4652"/>
</g>
</g>
</svg>
