<?xml version="1.0" encoding="UTF-8" standalone="no"?>
<!DOCTYPE svg PUBLIC "-//W3C//DTD SVG 1.1//EN"
 "http://www.w3.org/Graphics/SVG/1.1/DTD/svg11.dtd">
<!-- Generated by graphviz version 2.26.3 (20100126.1600)
 -->
<!-- Title: G Pages: 1 -->
<svg width="842pt" height="590pt"
 viewBox="0.00 0.00 842.00 590.00" xmlns="http://www.w3.org/2000/svg" xmlns:xlink="http://www.w3.org/1999/xlink">
<g id="graph1" class="graph" transform="scale(1 1) rotate(0) translate(4 586)">
<title>G</title>
<polygon fill="white" stroke="white" points="-4,5 -4,-586 839,-586 839,5 -4,5"/>
<!-- inicial -->
<g id="node1" class="node"><title>inicial</title>
<ellipse fill="#ffffff" stroke="black" cx="372" cy="-564" rx="38.9134" ry="18"/>
<ellipse fill="none" stroke="black" cx="372" cy="-564" rx="38.9134" ry="18"/>
<text text-anchor="middle" x="372" y="-559.9" font-family="Times Roman,serif" font-size="14.00">inicial</text>
</g>
<!-- Por_usuario -->
<g id="node3" class="node"><title>Por_usuario</title>
<polygon fill="#ffff00" stroke="black" points="421,-494 323,-494 323,-452 421,-452 421,-494"/>
<polygon fill="none" stroke="black" points="421,-494 323,-494 323,-452 421,-452 421,-494"/>
<text text-anchor="middle" x="372" y="-477.4" font-family="Helvetica,sans-Serif" font-size="14.00">Por_usuario</text>
<text text-anchor="middle" x="372" y="-460.4" font-family="Helvetica,sans-Serif" font-size="14.00">todas</text>
</g>
<!-- inicial&#45;&gt;Por_usuario -->
<g id="edge2" class="edge"><title>inicial&#45;&gt;Por_usuario</title>
<path fill="none" stroke="black" d="M372,-545.585C372,-533.749 372,-518.068 372,-504.31"/>
<polygon fill="black" stroke="black" points="375.5,-504.26 372,-494.26 368.5,-504.26 375.5,-504.26"/>
</g>
<!-- Talento_humano -->
<g id="node5" class="node"><title>Talento_humano</title>
<polygon fill="#ffffff" stroke="black" points="464,-403 280,-403 280,-361 464,-361 464,-403"/>
<polygon fill="none" stroke="black" points="464,-403 280,-403 280,-361 464,-361 464,-403"/>
<text text-anchor="middle" x="372" y="-386.4" font-family="Helvetica,sans-Serif" font-size="14.00">Talento_humano</text>
<text text-anchor="middle" x="372" y="-369.4" font-family="Helvetica,sans-Serif" font-size="14.00">Planilla vista_vacaciones</text>
</g>
<!-- Por_usuario&#45;&gt;Talento_humano -->
<g id="edge4" class="edge"><title>Por_usuario&#45;&gt;Talento_humano</title>
<path fill="none" stroke="black" d="M372,-451.894C372,-440.491 372,-426.185 372,-413.491"/>
<polygon fill="black" stroke="black" points="375.5,-413.307 372,-403.307 368.5,-413.307 375.5,-413.307"/>
</g>
<!-- DireccionEjecutiva -->
<g id="node7" class="node"><title>DireccionEjecutiva</title>
<polygon fill="#ffffff" stroke="black" points="464,-312 280,-312 280,-270 464,-270 464,-312"/>
<polygon fill="none" stroke="black" points="464,-312 280,-312 280,-270 464,-270 464,-312"/>
<text text-anchor="middle" x="372" y="-295.4" font-family="Helvetica,sans-Serif" font-size="14.00">DireccionEjecutiva</text>
<text text-anchor="middle" x="372" y="-278.4" font-family="Helvetica,sans-Serif" font-size="14.00">Planilla vista_vacaciones</text>
</g>
<!-- Talento_humano&#45;&gt;DireccionEjecutiva -->
<g id="edge6" class="edge"><title>Talento_humano&#45;&gt;DireccionEjecutiva</title>
<path fill="none" stroke="black" d="M372,-360.894C372,-349.491 372,-335.185 372,-322.491"/>
<polygon fill="black" stroke="black" points="375.5,-322.307 372,-312.307 368.5,-322.307 375.5,-322.307"/>
</g>
<!-- Presidencia -->
<g id="node9" class="node"><title>Presidencia</title>
<polygon fill="#ffffff" stroke="#ffffff" points="291.5,-166.5 452.5,-166.5 464.5,-178.5 464.5,-221.5 452.5,-233.5 291.5,-233.5 279.5,-221.5 279.5,-178.5 291.5,-166.5"/>
<path fill="#ffffff" stroke="#ffffff" d="M452.5,-166.5C458.5,-166.5 464.5,-172.5 464.5,-178.5"/>
<path fill="#ffffff" stroke="#ffffff" d="M464.5,-221.5C464.5,-227.5 458.5,-233.5 452.5,-233.5"/>
<path fill="#ffffff" stroke="#ffffff" d="M291.5,-233.5C285.5,-233.5 279.5,-227.5 279.5,-221.5"/>
<path fill="#ffffff" stroke="#ffffff" d="M279.5,-178.5C279.5,-172.5 285.5,-166.5 291.5,-166.5"/>
<polyline fill="none" stroke="black" points="291.5,-166.5 452.5,-166.5 "/>
<path fill="none" stroke="black" d="M452.5,-166.5C458.5,-166.5 464.5,-172.5 464.5,-178.5"/>
<polyline fill="none" stroke="black" points="464.5,-178.5 464.5,-221.5 "/>
<path fill="none" stroke="black" d="M464.5,-221.5C464.5,-227.5 458.5,-233.5 452.5,-233.5"/>
<polyline fill="none" stroke="black" points="452.5,-233.5 291.5,-233.5 "/>
<path fill="none" stroke="black" d="M291.5,-233.5C285.5,-233.5 279.5,-227.5 279.5,-221.5"/>
<polyline fill="none" stroke="black" points="279.5,-221.5 279.5,-178.5 "/>
<path fill="none" stroke="black" d="M279.5,-178.5C279.5,-172.5 285.5,-166.5 291.5,-166.5"/>
<text text-anchor="middle" x="372" y="-216.9" font-family="Helvetica,sans-Serif" font-size="14.00">Presidencia</text>
<text text-anchor="middle" x="372" y="-199.9" font-family="Helvetica,sans-Serif" font-size="14.00">Planilla vista_vacaciones</text>
<polyline fill="none" stroke="black" points="279.5,-191.5 464.5,-191.5 "/>
<text text-anchor="middle" x="372" y="-174.9" font-family="Helvetica,sans-Serif" font-size="14.00">or</text>
</g>
<!-- DireccionEjecutiva&#45;&gt;Presidencia -->
<g id="edge8" class="edge"><title>DireccionEjecutiva&#45;&gt;Presidencia</title>
<path fill="none" stroke="black" d="M372,-269.894C372,-262.112 372,-252.978 372,-243.927"/>
<polygon fill="black" stroke="black" points="375.5,-243.82 372,-233.82 368.5,-243.82 375.5,-243.82"/>
</g>
<!-- Archivar_solicitud_procesada -->
<g id="node11" class="node"><title>Archivar_solicitud_procesada</title>
<polygon fill="#ffff00" stroke="black" points="214,-130 8.52651e-14,-130 0,-88 214,-88 214,-130"/>
<polygon fill="none" stroke="black" points="214,-130 8.52651e-14,-130 0,-88 214,-88 214,-130"/>
<text text-anchor="middle" x="107" y="-113.4" font-family="Helvetica,sans-Serif" font-size="14.00">Archivar_solicitud_procesada</text>
<text text-anchor="middle" x="107" y="-96.4" font-family="Helvetica,sans-Serif" font-size="14.00">solicitud_archivada</text>
</g>
<!-- Presidencia&#45;&gt;Archivar_solicitud_procesada -->
<g id="edge10" class="edge"><title>Presidencia&#45;&gt;Archivar_solicitud_procesada</title>
<path fill="none" stroke="black" d="M279.316,-168.173C246.041,-156.746 209.074,-144.052 177.938,-133.36"/>
<polygon fill="black" stroke="black" points="179.067,-130.047 168.473,-130.11 176.794,-136.668 179.067,-130.047"/>
</g>
<!-- Firmada_talento -->
<g id="node13" class="node"><title>Firmada_talento</title>
<polygon fill="#ffffff" stroke="black" points="360,-130 232,-130 232,-88 360,-88 360,-130"/>
<polygon fill="none" stroke="black" points="360,-130 232,-130 232,-88 360,-88 360,-130"/>
<text text-anchor="middle" x="296" y="-113.4" font-family="Helvetica,sans-Serif" font-size="14.00">Firmada_talento</text>
<text text-anchor="middle" x="296" y="-96.4" font-family="Helvetica,sans-Serif" font-size="14.00">firmada_EE</text>
</g>
<!-- Presidencia&#45;&gt;Firmada_talento -->
<g id="edge12" class="edge"><title>Presidencia&#45;&gt;Firmada_talento</title>
<path fill="none" stroke="black" d="M343.916,-166.374C336.067,-156.975 327.611,-146.85 320.02,-137.761"/>
<polygon fill="black" stroke="black" points="322.706,-135.516 313.609,-130.084 317.333,-140.003 322.706,-135.516"/>
</g>
<!-- Firmada_direccion -->
<g id="node15" class="node"><title>Firmada_direccion</title>
<polygon fill="#ffffff" stroke="black" points="518,-130 378,-130 378,-88 518,-88 518,-130"/>
<polygon fill="none" stroke="black" points="518,-130 378,-130 378,-88 518,-88 518,-130"/>
<text text-anchor="middle" x="448" y="-113.4" font-family="Helvetica,sans-Serif" font-size="14.00">Firmada_direccion</text>
<text text-anchor="middle" x="448" y="-96.4" font-family="Helvetica,sans-Serif" font-size="14.00">firmada_YV</text>
</g>
<!-- Presidencia&#45;&gt;Firmada_direccion -->
<g id="edge14" class="edge"><title>Presidencia&#45;&gt;Firmada_direccion</title>
<path fill="none" stroke="black" d="M400.084,-166.374C407.933,-156.975 416.389,-146.85 423.98,-137.761"/>
<polygon fill="black" stroke="black" points="426.667,-140.003 430.391,-130.084 421.294,-135.516 426.667,-140.003"/>
</g>
<!-- Firmada_presidencia -->
<g id="node17" class="node"><title>Firmada_presidencia</title>
<polygon fill="#ffffff" stroke="black" points="692,-130 536,-130 536,-88 692,-88 692,-130"/>
<polygon fill="none" stroke="black" points="692,-130 536,-130 536,-88 692,-88 692,-130"/>
<text text-anchor="middle" x="614" y="-113.4" font-family="Helvetica,sans-Serif" font-size="14.00">Firmada_presidencia</text>
<text text-anchor="middle" x="614" y="-96.4" font-family="Helvetica,sans-Serif" font-size="14.00">firmada_JJ</text>
</g>
<!-- Presidencia&#45;&gt;Firmada_presidencia -->
<g id="edge16" class="edge"><title>Presidencia&#45;&gt;Firmada_presidencia</title>
<path fill="none" stroke="black" d="M461.424,-166.374C490.204,-155.551 521.546,-143.766 548.295,-133.707"/>
<polygon fill="black" stroke="black" points="549.801,-136.88 557.929,-130.084 547.337,-130.328 549.801,-136.88"/>
</g>
<!-- final -->
<g id="node19" class="node"><title>final</title>
<ellipse fill="#ffffff" stroke="black" cx="448" cy="-18" rx="31.9646" ry="18"/>
<ellipse fill="none" stroke="black" cx="448" cy="-18" rx="31.9646" ry="18"/>
<text text-anchor="middle" x="448" y="-13.9" font-family="Times Roman,serif" font-size="14.00">final</text>
</g>
<!-- Archivar_solicitud_procesada&#45;&gt;final -->
<g id="edge18" class="edge"><title>Archivar_solicitud_procesada&#45;&gt;final</title>
<path fill="none" stroke="black" d="M186.089,-87.894C255.957,-69.249 354.9,-42.8448 408.976,-28.414"/>
<polygon fill="black" stroke="black" points="410.093,-31.7384 418.853,-25.7783 408.289,-24.9751 410.093,-31.7384"/>
</g>
<!-- Firmada_talento&#45;&gt;final -->
<g id="edge20" class="edge"><title>Firmada_talento&#45;&gt;final</title>
<path fill="none" stroke="black" d="M331.254,-87.894C357.186,-72.3691 392.103,-51.4646 416.978,-36.5721"/>
<polygon fill="black" stroke="black" points="418.871,-39.5181 425.654,-31.3785 415.276,-33.5122 418.871,-39.5181"/>
</g>
<!-- Firmada_direccion&#45;&gt;final -->
<g id="edge22" class="edge"><title>Firmada_direccion&#45;&gt;final</title>
<path fill="none" stroke="black" d="M448,-87.894C448,-75.5481 448,-59.8001 448,-46.379"/>
<polygon fill="black" stroke="black" points="451.5,-46.2238 448,-36.2238 444.5,-46.2238 451.5,-46.2238"/>
</g>
<!-- Firmada_presidencia&#45;&gt;final -->
<g id="edge24" class="edge"><title>Firmada_presidencia&#45;&gt;final</title>
<path fill="none" stroke="black" d="M575.499,-87.894C546.541,-72.0192 507.322,-50.5196 480.059,-35.5745"/>
<polygon fill="black" stroke="black" points="481.402,-32.3194 470.951,-30.5815 478.037,-38.4576 481.402,-32.3194"/>
</g>
<!-- final_stats -->
<g id="node23" class="node"><title>final_stats</title>
<polygon fill="none" stroke="black" stroke-dasharray="5,2" points="834,-130 710,-130 710,-88 834,-88 834,-130"/>
<text text-anchor="start" x="718" y="-115.733" font-family="Times Roman,serif" font-size="14.00">Suma total: 0%</text>
<text text-anchor="start" x="767" y="-98.9333" font-family="Times Roman,serif" font-size="14.00"> &#160;</text>
</g>
<!-- final_stats&#45;&gt;final -->
<g id="edge26" class="edge"><title>final_stats&#45;&gt;final</title>
<path fill="none" stroke="black" stroke-dasharray="1,5" d="M709.68,-90.4997C706.747,-89.6503 703.842,-88.8135 701,-88 625.167,-66.2964 536.23,-41.9437 486.57,-28.4443"/>
<polygon fill="black" stroke="black" points="487.451,-25.0566 476.883,-25.8131 485.616,-31.8119 487.451,-25.0566"/>
</g>
</g>
</svg>
