<?xml version="1.0" encoding="UTF-8" standalone="no"?>
<!DOCTYPE svg PUBLIC "-//W3C//DTD SVG 1.1//EN"
 "http://www.w3.org/Graphics/SVG/1.1/DTD/svg11.dtd">
<!-- Generated by graphviz version 2.26.3 (20100126.1600)
 -->
<!-- Title: G Pages: 1 -->
<svg width="435pt" height="1916pt"
 viewBox="0.00 0.00 435.00 1916.00" xmlns="http://www.w3.org/2000/svg" xmlns:xlink="http://www.w3.org/1999/xlink">
<g id="graph1" class="graph" transform="scale(1 1) rotate(0) translate(4 1912)">
<title>G</title>
<polygon fill="white" stroke="white" points="-4,5 -4,-1912 432,-1912 432,5 -4,5"/>
<!-- Clase_1 -->
<g id="node1" class="node"><title>Clase_1</title>
<polygon fill="#ffffff" stroke="black" points="382,-1755 168,-1755 168,-1713 382,-1713 382,-1755"/>
<polygon fill="none" stroke="black" points="382,-1755 168,-1755 168,-1713 382,-1713 382,-1755"/>
<text text-anchor="middle" x="275" y="-1738.4" font-family="Helvetica,sans-Serif" font-size="14.00">Clase_1</text>
<text text-anchor="middle" x="275" y="-1721.4" font-family="Helvetica,sans-Serif" font-size="14.00">Mie23oct2013 &#45; Introduccion</text>
</g>
<!-- Clase_2 -->
<g id="node3" class="node"><title>Clase_2</title>
<polygon fill="#ffffff" stroke="black" points="374,-1677 176,-1677 176,-1635 374,-1635 374,-1677"/>
<polygon fill="none" stroke="black" points="374,-1677 176,-1677 176,-1635 374,-1635 374,-1677"/>
<text text-anchor="middle" x="275" y="-1660.4" font-family="Helvetica,sans-Serif" font-size="14.00">Clase_2</text>
<text text-anchor="middle" x="275" y="-1643.4" font-family="Helvetica,sans-Serif" font-size="14.00">Jue24oct2013 &#45; Conceptos</text>
</g>
<!-- Clase_1&#45;&gt;Clase_2 -->
<g id="edge2" class="edge"><title>Clase_1&#45;&gt;Clase_2</title>
<path fill="none" stroke="black" d="M275,-1712.69C275,-1704.8 275,-1695.68 275,-1687.1"/>
<polygon fill="black" stroke="black" points="278.5,-1687.02 275,-1677.02 271.5,-1687.02 278.5,-1687.02"/>
</g>
<!-- Clase_3 -->
<g id="node28" class="node"><title>Clase_3</title>
<polygon fill="#ffffff" stroke="black" points="406,-1599 144,-1599 144,-1557 406,-1557 406,-1599"/>
<polygon fill="none" stroke="black" points="406,-1599 144,-1599 144,-1557 406,-1557 406,-1599"/>
<text text-anchor="middle" x="275" y="-1582.4" font-family="Helvetica,sans-Serif" font-size="14.00">Clase_3</text>
<text text-anchor="middle" x="275" y="-1565.4" font-family="Helvetica,sans-Serif" font-size="14.00">Mie6nov2013 &#45; Logica Proposicional</text>
</g>
<!-- Clase_2&#45;&gt;Clase_3 -->
<g id="edge26" class="edge"><title>Clase_2&#45;&gt;Clase_3</title>
<path fill="none" stroke="black" d="M275,-1634.69C275,-1626.8 275,-1617.68 275,-1609.1"/>
<polygon fill="black" stroke="black" points="278.5,-1609.02 275,-1599.02 271.5,-1609.02 278.5,-1609.02"/>
</g>
<!-- Clase_10 -->
<g id="node4" class="node"><title>Clase_10</title>
<polygon fill="#ffffff" stroke="black" points="376,-1053 174,-1053 174,-1011 376,-1011 376,-1053"/>
<polygon fill="none" stroke="black" points="376,-1053 174,-1053 174,-1011 376,-1011 376,-1053"/>
<text text-anchor="middle" x="275" y="-1036.4" font-family="Helvetica,sans-Serif" font-size="14.00">Clase_10</text>
<text text-anchor="middle" x="275" y="-1019.4" font-family="Helvetica,sans-Serif" font-size="14.00">Jue28nov2013 &#45; Conjuntos</text>
</g>
<!-- Clase_11 -->
<g id="node6" class="node"><title>Clase_11</title>
<polygon fill="#ffffff" stroke="black" points="420,-975 130,-975 130,-933 420,-933 420,-975"/>
<polygon fill="none" stroke="black" points="420,-975 130,-975 130,-933 420,-933 420,-975"/>
<text text-anchor="middle" x="275" y="-958.4" font-family="Helvetica,sans-Serif" font-size="14.00">Clase_11</text>
<text text-anchor="middle" x="275" y="-941.4" font-family="Helvetica,sans-Serif" font-size="14.00">Mie11Dic2013 &#45; Conjuntos Operaciones</text>
</g>
<!-- Clase_10&#45;&gt;Clase_11 -->
<g id="edge4" class="edge"><title>Clase_10&#45;&gt;Clase_11</title>
<path fill="none" stroke="black" d="M275,-1010.69C275,-1002.8 275,-993.684 275,-985.103"/>
<polygon fill="black" stroke="black" points="278.5,-985.018 275,-975.018 271.5,-985.018 278.5,-985.018"/>
</g>
<!-- Clase_12 -->
<g id="node8" class="node"><title>Clase_12</title>
<polygon fill="#ffffff" stroke="black" points="417,-897 133,-897 133,-855 417,-855 417,-897"/>
<polygon fill="none" stroke="black" points="417,-897 133,-897 133,-855 417,-855 417,-897"/>
<text text-anchor="middle" x="275" y="-880.4" font-family="Helvetica,sans-Serif" font-size="14.00">Clase_12</text>
<text text-anchor="middle" x="275" y="-863.4" font-family="Helvetica,sans-Serif" font-size="14.00">Mie8ene2014 &#45; Conjuntos Operaciones</text>
</g>
<!-- Clase_11&#45;&gt;Clase_12 -->
<g id="edge6" class="edge"><title>Clase_11&#45;&gt;Clase_12</title>
<path fill="none" stroke="black" d="M275,-932.686C275,-924.798 275,-915.684 275,-907.103"/>
<polygon fill="black" stroke="black" points="278.5,-907.018 275,-897.018 271.5,-907.018 278.5,-907.018"/>
</g>
<!-- Clase_13 -->
<g id="node10" class="node"><title>Clase_13</title>
<polygon fill="#ffffff" stroke="black" points="372,-819 178,-819 178,-777 372,-777 372,-819"/>
<polygon fill="none" stroke="black" points="372,-819 178,-819 178,-777 372,-777 372,-819"/>
<text text-anchor="middle" x="275" y="-802.4" font-family="Helvetica,sans-Serif" font-size="14.00">Clase_13</text>
<text text-anchor="middle" x="275" y="-785.4" font-family="Helvetica,sans-Serif" font-size="14.00">Jue9ene2014 &#45; Relaciones</text>
</g>
<!-- Clase_12&#45;&gt;Clase_13 -->
<g id="edge8" class="edge"><title>Clase_12&#45;&gt;Clase_13</title>
<path fill="none" stroke="black" d="M275,-854.686C275,-846.798 275,-837.684 275,-829.103"/>
<polygon fill="black" stroke="black" points="278.5,-829.018 275,-819.018 271.5,-829.018 278.5,-829.018"/>
</g>
<!-- Clase_14 -->
<g id="node12" class="node"><title>Clase_14</title>
<polygon fill="#ffffff" stroke="black" points="378,-741 172,-741 172,-699 378,-699 378,-741"/>
<polygon fill="none" stroke="black" points="378,-741 172,-741 172,-699 378,-699 378,-741"/>
<text text-anchor="middle" x="275" y="-724.4" font-family="Helvetica,sans-Serif" font-size="14.00">Clase_14</text>
<text text-anchor="middle" x="275" y="-707.4" font-family="Helvetica,sans-Serif" font-size="14.00">Mie15ene2014 &#45; Relaciones</text>
</g>
<!-- Clase_13&#45;&gt;Clase_14 -->
<g id="edge10" class="edge"><title>Clase_13&#45;&gt;Clase_14</title>
<path fill="none" stroke="black" d="M275,-776.686C275,-768.798 275,-759.684 275,-751.103"/>
<polygon fill="black" stroke="black" points="278.5,-751.018 275,-741.018 271.5,-751.018 278.5,-751.018"/>
</g>
<!-- Clase_15 -->
<g id="node14" class="node"><title>Clase_15</title>
<polygon fill="#ffff00" stroke="black" points="276,-663 76,-663 76,-621 276,-621 276,-663"/>
<polygon fill="none" stroke="black" points="276,-663 76,-663 76,-621 276,-621 276,-663"/>
<text text-anchor="middle" x="176" y="-646.4" font-family="Helvetica,sans-Serif" font-size="14.00">Clase_15</text>
<text text-anchor="middle" x="176" y="-629.4" font-family="Helvetica,sans-Serif" font-size="14.00">Jue16ene2014 &#45; 1erParcial</text>
</g>
<!-- Clase_14&#45;&gt;Clase_15 -->
<g id="edge12" class="edge"><title>Clase_14&#45;&gt;Clase_15</title>
<path fill="none" stroke="black" d="M248.209,-698.892C236.653,-689.788 222.99,-679.022 210.675,-669.319"/>
<polygon fill="black" stroke="black" points="212.833,-666.564 202.812,-663.125 208.501,-672.063 212.833,-666.564"/>
</g>
<!-- Clase_16 -->
<g id="node16" class="node"><title>Clase_16</title>
<polygon fill="#ffff00" stroke="black" points="252,-585 100,-585 100,-543 252,-543 252,-585"/>
<polygon fill="none" stroke="black" points="252,-585 100,-585 100,-543 252,-543 252,-585"/>
<text text-anchor="middle" x="176" y="-568.4" font-family="Helvetica,sans-Serif" font-size="14.00">Clase_16</text>
<text text-anchor="middle" x="176" y="-551.4" font-family="Helvetica,sans-Serif" font-size="14.00">Mie22ene2014 &#45; RE</text>
</g>
<!-- Clase_15&#45;&gt;Clase_16 -->
<g id="edge14" class="edge"><title>Clase_15&#45;&gt;Clase_16</title>
<path fill="none" stroke="black" d="M176,-620.686C176,-612.798 176,-603.684 176,-595.103"/>
<polygon fill="black" stroke="black" points="179.5,-595.018 176,-585.018 172.5,-595.018 179.5,-595.018"/>
</g>
<!-- Clase_17 -->
<g id="node20" class="node"><title>Clase_17</title>
<polygon fill="#ffffff" stroke="black" points="282,-507 70,-507 70,-465 282,-465 282,-507"/>
<polygon fill="none" stroke="black" points="282,-507 70,-507 70,-465 282,-465 282,-507"/>
<text text-anchor="middle" x="176" y="-490.4" font-family="Helvetica,sans-Serif" font-size="14.00">Clase_17</text>
<text text-anchor="middle" x="176" y="-473.4" font-family="Helvetica,sans-Serif" font-size="14.00">Jue23ene2014 &#45; Criptografia</text>
</g>
<!-- Clase_16&#45;&gt;Clase_17 -->
<g id="edge18" class="edge"><title>Clase_16&#45;&gt;Clase_17</title>
<path fill="none" stroke="black" d="M176,-542.686C176,-534.798 176,-525.684 176,-517.103"/>
<polygon fill="black" stroke="black" points="179.5,-517.018 176,-507.018 172.5,-517.018 179.5,-517.018"/>
</g>
<!-- Clase_15_stats -->
<g id="node17" class="node"><title>Clase_15_stats</title>
<polygon fill="none" stroke="black" stroke-dasharray="5,2" points="154,-738 7.10543e-14,-738 0,-702 154,-702 154,-738"/>
<text text-anchor="start" x="8" y="-717.233" font-family="Times Roman,serif" font-size="14.00">Nota 1er Parcial:2.0</text>
</g>
<!-- Clase_15_stats&#45;&gt;Clase_15 -->
<g id="edge16" class="edge"><title>Clase_15_stats&#45;&gt;Clase_15</title>
<path fill="none" stroke="black" stroke-dasharray="1,5" d="M99.9614,-701.909C112.281,-692.203 127.713,-680.044 141.451,-669.221"/>
<polygon fill="black" stroke="black" points="143.618,-671.969 149.307,-663.031 139.286,-666.47 143.618,-671.969"/>
</g>
<!-- Clase_18 -->
<g id="node22" class="node"><title>Clase_18</title>
<polygon fill="#ffffff" stroke="black" points="272,-429 80,-429 80,-387 272,-387 272,-429"/>
<polygon fill="none" stroke="black" points="272,-429 80,-429 80,-387 272,-387 272,-429"/>
<text text-anchor="middle" x="176" y="-412.4" font-family="Helvetica,sans-Serif" font-size="14.00">Clase_18</text>
<text text-anchor="middle" x="176" y="-395.4" font-family="Helvetica,sans-Serif" font-size="14.00">Mie29ene2014 &#45; Conteo I</text>
</g>
<!-- Clase_17&#45;&gt;Clase_18 -->
<g id="edge20" class="edge"><title>Clase_17&#45;&gt;Clase_18</title>
<path fill="none" stroke="black" d="M176,-464.686C176,-456.798 176,-447.684 176,-439.103"/>
<polygon fill="black" stroke="black" points="179.5,-439.018 176,-429.018 172.5,-439.018 179.5,-439.018"/>
</g>
<!-- Clase_19 -->
<g id="node24" class="node"><title>Clase_19</title>
<polygon fill="#ffff00" stroke="black" points="268,-351 84,-351 84,-309 268,-309 268,-351"/>
<polygon fill="none" stroke="black" points="268,-351 84,-351 84,-309 268,-309 268,-351"/>
<text text-anchor="middle" x="176" y="-334.4" font-family="Helvetica,sans-Serif" font-size="14.00">Clase_19</text>
<text text-anchor="middle" x="176" y="-317.4" font-family="Helvetica,sans-Serif" font-size="14.00">Jue30ene2014 Conteo II</text>
</g>
<!-- Clase_18&#45;&gt;Clase_19 -->
<g id="edge22" class="edge"><title>Clase_18&#45;&gt;Clase_19</title>
<path fill="none" stroke="black" d="M176,-386.686C176,-378.798 176,-369.684 176,-361.103"/>
<polygon fill="black" stroke="black" points="179.5,-361.018 176,-351.018 172.5,-361.018 179.5,-361.018"/>
</g>
<!-- Clase_20 -->
<g id="node26" class="node"><title>Clase_20</title>
<polygon fill="#ffffff" stroke="black" points="243,-273 109,-273 109,-231 243,-231 243,-273"/>
<polygon fill="none" stroke="black" points="243,-273 109,-273 109,-231 243,-231 243,-273"/>
<text text-anchor="middle" x="176" y="-256.4" font-family="Helvetica,sans-Serif" font-size="14.00">Clase_20</text>
<text text-anchor="middle" x="176" y="-239.4" font-family="Helvetica,sans-Serif" font-size="14.00">Conteo repaso III</text>
</g>
<!-- Clase_19&#45;&gt;Clase_20 -->
<g id="edge24" class="edge"><title>Clase_19&#45;&gt;Clase_20</title>
<path fill="none" stroke="black" d="M176,-308.686C176,-300.798 176,-291.684 176,-283.103"/>
<polygon fill="black" stroke="black" points="179.5,-283.018 176,-273.018 172.5,-283.018 179.5,-283.018"/>
</g>
<!-- Clase_21 -->
<g id="node30" class="node"><title>Clase_21</title>
<polygon fill="#ffffff" stroke="black" points="228,-195 124,-195 124,-153 228,-153 228,-195"/>
<polygon fill="none" stroke="black" points="228,-195 124,-195 124,-153 228,-153 228,-195"/>
<text text-anchor="middle" x="176" y="-178.4" font-family="Helvetica,sans-Serif" font-size="14.00">Clase_21</text>
<text text-anchor="middle" x="176" y="-161.4" font-family="Helvetica,sans-Serif" font-size="14.00">Recurrencias</text>
</g>
<!-- Clase_20&#45;&gt;Clase_21 -->
<g id="edge28" class="edge"><title>Clase_20&#45;&gt;Clase_21</title>
<path fill="none" stroke="black" d="M176,-230.686C176,-222.798 176,-213.684 176,-205.103"/>
<polygon fill="black" stroke="black" points="179.5,-205.018 176,-195.018 172.5,-205.018 179.5,-205.018"/>
</g>
<!-- Clase_4 -->
<g id="node36" class="node"><title>Clase_4</title>
<polygon fill="#ffffff" stroke="black" points="405,-1521 145,-1521 145,-1479 405,-1479 405,-1521"/>
<polygon fill="none" stroke="black" points="405,-1521 145,-1521 145,-1479 405,-1479 405,-1521"/>
<text text-anchor="middle" x="275" y="-1504.4" font-family="Helvetica,sans-Serif" font-size="14.00">Clase_4</text>
<text text-anchor="middle" x="275" y="-1487.4" font-family="Helvetica,sans-Serif" font-size="14.00">Jue7nov2013 &#45; Logica Proposicional</text>
</g>
<!-- Clase_3&#45;&gt;Clase_4 -->
<g id="edge34" class="edge"><title>Clase_3&#45;&gt;Clase_4</title>
<path fill="none" stroke="black" d="M275,-1556.69C275,-1548.8 275,-1539.68 275,-1531.1"/>
<polygon fill="black" stroke="black" points="278.5,-1531.02 275,-1521.02 271.5,-1531.02 278.5,-1531.02"/>
</g>
<!-- Clase_22 -->
<g id="node32" class="node"><title>Clase_22</title>
<polygon fill="#ffffff" stroke="black" points="220,-117 132,-117 132,-75 220,-75 220,-117"/>
<polygon fill="none" stroke="black" points="220,-117 132,-117 132,-75 220,-75 220,-117"/>
<text text-anchor="middle" x="176" y="-100.4" font-family="Helvetica,sans-Serif" font-size="14.00">Clase_22</text>
<text text-anchor="middle" x="176" y="-83.4" font-family="Helvetica,sans-Serif" font-size="14.00">3er Parcial</text>
</g>
<!-- Clase_21&#45;&gt;Clase_22 -->
<g id="edge30" class="edge"><title>Clase_21&#45;&gt;Clase_22</title>
<path fill="none" stroke="black" d="M176,-152.686C176,-144.798 176,-135.684 176,-127.103"/>
<polygon fill="black" stroke="black" points="179.5,-127.018 176,-117.018 172.5,-127.018 179.5,-127.018"/>
</g>
<!-- final -->
<g id="node34" class="node"><title>final</title>
<ellipse fill="#ffffff" stroke="black" cx="176" cy="-18" rx="31.9646" ry="18"/>
<ellipse fill="none" stroke="black" cx="176" cy="-18" rx="31.9646" ry="18"/>
<text text-anchor="middle" x="176" y="-13.9" font-family="Times Roman,serif" font-size="14.00">final</text>
</g>
<!-- Clase_22&#45;&gt;final -->
<g id="edge32" class="edge"><title>Clase_22&#45;&gt;final</title>
<path fill="none" stroke="black" d="M176,-74.6862C176,-65.9031 176,-55.6018 176,-46.2074"/>
<polygon fill="black" stroke="black" points="179.5,-46.1153 176,-36.1154 172.5,-46.1154 179.5,-46.1153"/>
</g>
<!-- Clase_5 -->
<g id="node38" class="node"><title>Clase_5</title>
<polygon fill="#ffff00" stroke="black" points="413,-1443 137,-1443 137,-1401 413,-1401 413,-1443"/>
<polygon fill="none" stroke="black" points="413,-1443 137,-1443 137,-1401 413,-1401 413,-1443"/>
<text text-anchor="middle" x="275" y="-1426.4" font-family="Helvetica,sans-Serif" font-size="14.00">Clase_5</text>
<text text-anchor="middle" x="275" y="-1409.4" font-family="Helvetica,sans-Serif" font-size="14.00">Mie13nov2013 &#45; &#160;Logica Proposicional</text>
</g>
<!-- Clase_4&#45;&gt;Clase_5 -->
<g id="edge36" class="edge"><title>Clase_4&#45;&gt;Clase_5</title>
<path fill="none" stroke="black" d="M275,-1478.69C275,-1470.8 275,-1461.68 275,-1453.1"/>
<polygon fill="black" stroke="black" points="278.5,-1453.02 275,-1443.02 271.5,-1453.02 278.5,-1453.02"/>
</g>
<!-- Clase_6 -->
<g id="node40" class="node"><title>Clase_6</title>
<polygon fill="#ffff00" stroke="black" points="412,-1365 138,-1365 138,-1323 412,-1323 412,-1365"/>
<polygon fill="none" stroke="black" points="412,-1365 138,-1365 138,-1323 412,-1323 412,-1365"/>
<text text-anchor="middle" x="275" y="-1348.4" font-family="Helvetica,sans-Serif" font-size="14.00">Clase_6</text>
<text text-anchor="middle" x="275" y="-1331.4" font-family="Helvetica,sans-Serif" font-size="14.00">Jue14nov2013 &#45; Logica de Predicados</text>
</g>
<!-- Clase_5&#45;&gt;Clase_6 -->
<g id="edge38" class="edge"><title>Clase_5&#45;&gt;Clase_6</title>
<path fill="none" stroke="black" d="M275,-1400.69C275,-1392.8 275,-1383.68 275,-1375.1"/>
<polygon fill="black" stroke="black" points="278.5,-1375.02 275,-1365.02 271.5,-1375.02 278.5,-1375.02"/>
</g>
<!-- Clase_7 -->
<g id="node42" class="node"><title>Clase_7</title>
<polygon fill="#ffffff" stroke="black" points="413,-1287 137,-1287 137,-1245 413,-1245 413,-1287"/>
<polygon fill="none" stroke="black" points="413,-1287 137,-1287 137,-1245 413,-1245 413,-1287"/>
<text text-anchor="middle" x="275" y="-1270.4" font-family="Helvetica,sans-Serif" font-size="14.00">Clase_7</text>
<text text-anchor="middle" x="275" y="-1253.4" font-family="Helvetica,sans-Serif" font-size="14.00">Mie20nov2013 &#45; Logica de Predicados</text>
</g>
<!-- Clase_6&#45;&gt;Clase_7 -->
<g id="edge40" class="edge"><title>Clase_6&#45;&gt;Clase_7</title>
<path fill="none" stroke="black" d="M275,-1322.69C275,-1314.8 275,-1305.68 275,-1297.1"/>
<polygon fill="black" stroke="black" points="278.5,-1297.02 275,-1287.02 271.5,-1297.02 278.5,-1297.02"/>
</g>
<!-- Clase_8 -->
<g id="node44" class="node"><title>Clase_8</title>
<polygon fill="#ffffff" stroke="black" points="427,-1209 123,-1209 123,-1167 427,-1167 427,-1209"/>
<polygon fill="none" stroke="black" points="427,-1209 123,-1209 123,-1167 427,-1167 427,-1209"/>
<text text-anchor="middle" x="275" y="-1192.4" font-family="Helvetica,sans-Serif" font-size="14.00">Clase_8</text>
<text text-anchor="middle" x="275" y="-1175.4" font-family="Helvetica,sans-Serif" font-size="14.00">Jue21nov2013 &#45; Prolog Algebra_Booleana</text>
</g>
<!-- Clase_7&#45;&gt;Clase_8 -->
<g id="edge42" class="edge"><title>Clase_7&#45;&gt;Clase_8</title>
<path fill="none" stroke="black" d="M275,-1244.69C275,-1236.8 275,-1227.68 275,-1219.1"/>
<polygon fill="black" stroke="black" points="278.5,-1219.02 275,-1209.02 271.5,-1219.02 278.5,-1219.02"/>
</g>
<!-- Clase_9 -->
<g id="node46" class="node"><title>Clase_9</title>
<polygon fill="#ffffff" stroke="black" points="398,-1131 152,-1131 152,-1089 398,-1089 398,-1131"/>
<polygon fill="none" stroke="black" points="398,-1131 152,-1131 152,-1089 398,-1089 398,-1131"/>
<text text-anchor="middle" x="275" y="-1114.4" font-family="Helvetica,sans-Serif" font-size="14.00">Clase_9</text>
<text text-anchor="middle" x="275" y="-1097.4" font-family="Helvetica,sans-Serif" font-size="14.00">Mie27nov2013 &#45; EjercicioGrupal1</text>
</g>
<!-- Clase_8&#45;&gt;Clase_9 -->
<g id="edge44" class="edge"><title>Clase_8&#45;&gt;Clase_9</title>
<path fill="none" stroke="black" d="M275,-1166.69C275,-1158.8 275,-1149.68 275,-1141.1"/>
<polygon fill="black" stroke="black" points="278.5,-1141.02 275,-1131.02 271.5,-1141.02 278.5,-1141.02"/>
</g>
<!-- Clase_9&#45;&gt;Clase_10 -->
<g id="edge46" class="edge"><title>Clase_9&#45;&gt;Clase_10</title>
<path fill="none" stroke="black" d="M275,-1088.69C275,-1080.8 275,-1071.68 275,-1063.1"/>
<polygon fill="black" stroke="black" points="278.5,-1063.02 275,-1053.02 271.5,-1063.02 278.5,-1063.02"/>
</g>
<!-- Inscritos -->
<g id="node48" class="node"><title>Inscritos</title>
<polygon fill="#ffff00" stroke="black" points="321,-1833 229,-1833 229,-1791 321,-1791 321,-1833"/>
<polygon fill="none" stroke="black" points="321,-1833 229,-1833 229,-1791 321,-1791 321,-1833"/>
<text text-anchor="middle" x="275" y="-1816.4" font-family="Helvetica,sans-Serif" font-size="14.00">Inscritos</text>
<text text-anchor="middle" x="275" y="-1799.4" font-family="Helvetica,sans-Serif" font-size="14.00">MD_B2013</text>
</g>
<!-- Inscritos&#45;&gt;Clase_1 -->
<g id="edge48" class="edge"><title>Inscritos&#45;&gt;Clase_1</title>
<path fill="none" stroke="black" d="M275,-1790.69C275,-1782.8 275,-1773.68 275,-1765.1"/>
<polygon fill="black" stroke="black" points="278.5,-1765.02 275,-1755.02 271.5,-1765.02 278.5,-1765.02"/>
</g>
<!-- inicial -->
<g id="node50" class="node"><title>inicial</title>
<ellipse fill="#ffffff" stroke="black" cx="275" cy="-1890" rx="38.9134" ry="18"/>
<ellipse fill="none" stroke="black" cx="275" cy="-1890" rx="38.9134" ry="18"/>
<text text-anchor="middle" x="275" y="-1885.9" font-family="Times Roman,serif" font-size="14.00">inicial</text>
</g>
<!-- inicial&#45;&gt;Inscritos -->
<g id="edge50" class="edge"><title>inicial&#45;&gt;Inscritos</title>
<path fill="none" stroke="black" d="M275,-1871.91C275,-1863.38 275,-1852.96 275,-1843.22"/>
<polygon fill="black" stroke="black" points="278.5,-1843.03 275,-1833.03 271.5,-1843.03 278.5,-1843.03"/>
</g>
</g>
</svg>
