<?xml version="1.0" encoding="UTF-8" standalone="no"?>
<!DOCTYPE svg PUBLIC "-//W3C//DTD SVG 1.1//EN"
 "http://www.w3.org/Graphics/SVG/1.1/DTD/svg11.dtd">
<!-- Generated by graphviz version 2.26.3 (20100126.1600)
 -->
<!-- Title: G Pages: 1 -->
<svg width="312pt" height="1916pt"
 viewBox="0.00 0.00 312.00 1916.00" xmlns="http://www.w3.org/2000/svg" xmlns:xlink="http://www.w3.org/1999/xlink">
<g id="graph1" class="graph" transform="scale(1 1) rotate(0) translate(4 1912)">
<title>G</title>
<polygon fill="white" stroke="white" points="-4,5 -4,-1912 309,-1912 309,5 -4,5"/>
<!-- Clase_1 -->
<g id="node1" class="node"><title>Clase_1</title>
<polygon fill="#ffffff" stroke="black" points="259,-1755 45,-1755 45,-1713 259,-1713 259,-1755"/>
<polygon fill="none" stroke="black" points="259,-1755 45,-1755 45,-1713 259,-1713 259,-1755"/>
<text text-anchor="middle" x="152" y="-1738.4" font-family="Helvetica,sans-Serif" font-size="14.00">Clase_1</text>
<text text-anchor="middle" x="152" y="-1721.4" font-family="Helvetica,sans-Serif" font-size="14.00">Mie23oct2013 &#45; Introduccion</text>
</g>
<!-- Clase_2 -->
<g id="node3" class="node"><title>Clase_2</title>
<polygon fill="#ffffff" stroke="black" points="251,-1677 53,-1677 53,-1635 251,-1635 251,-1677"/>
<polygon fill="none" stroke="black" points="251,-1677 53,-1677 53,-1635 251,-1635 251,-1677"/>
<text text-anchor="middle" x="152" y="-1660.4" font-family="Helvetica,sans-Serif" font-size="14.00">Clase_2</text>
<text text-anchor="middle" x="152" y="-1643.4" font-family="Helvetica,sans-Serif" font-size="14.00">Jue24oct2013 &#45; Conceptos</text>
</g>
<!-- Clase_1&#45;&gt;Clase_2 -->
<g id="edge2" class="edge"><title>Clase_1&#45;&gt;Clase_2</title>
<path fill="none" stroke="black" d="M152,-1712.69C152,-1704.8 152,-1695.68 152,-1687.1"/>
<polygon fill="black" stroke="black" points="155.5,-1687.02 152,-1677.02 148.5,-1687.02 155.5,-1687.02"/>
</g>
<!-- Clase_3 -->
<g id="node26" class="node"><title>Clase_3</title>
<polygon fill="#ffffff" stroke="black" points="283,-1599 21,-1599 21,-1557 283,-1557 283,-1599"/>
<polygon fill="none" stroke="black" points="283,-1599 21,-1599 21,-1557 283,-1557 283,-1599"/>
<text text-anchor="middle" x="152" y="-1582.4" font-family="Helvetica,sans-Serif" font-size="14.00">Clase_3</text>
<text text-anchor="middle" x="152" y="-1565.4" font-family="Helvetica,sans-Serif" font-size="14.00">Mie6nov2013 &#45; Logica Proposicional</text>
</g>
<!-- Clase_2&#45;&gt;Clase_3 -->
<g id="edge24" class="edge"><title>Clase_2&#45;&gt;Clase_3</title>
<path fill="none" stroke="black" d="M152,-1634.69C152,-1626.8 152,-1617.68 152,-1609.1"/>
<polygon fill="black" stroke="black" points="155.5,-1609.02 152,-1599.02 148.5,-1609.02 155.5,-1609.02"/>
</g>
<!-- Clase_10 -->
<g id="node4" class="node"><title>Clase_10</title>
<polygon fill="#ffffff" stroke="black" points="253,-1053 51,-1053 51,-1011 253,-1011 253,-1053"/>
<polygon fill="none" stroke="black" points="253,-1053 51,-1053 51,-1011 253,-1011 253,-1053"/>
<text text-anchor="middle" x="152" y="-1036.4" font-family="Helvetica,sans-Serif" font-size="14.00">Clase_10</text>
<text text-anchor="middle" x="152" y="-1019.4" font-family="Helvetica,sans-Serif" font-size="14.00">Jue28nov2013 &#45; Conjuntos</text>
</g>
<!-- Clase_11 -->
<g id="node6" class="node"><title>Clase_11</title>
<polygon fill="#ffffff" stroke="black" points="297,-975 7,-975 7,-933 297,-933 297,-975"/>
<polygon fill="none" stroke="black" points="297,-975 7,-975 7,-933 297,-933 297,-975"/>
<text text-anchor="middle" x="152" y="-958.4" font-family="Helvetica,sans-Serif" font-size="14.00">Clase_11</text>
<text text-anchor="middle" x="152" y="-941.4" font-family="Helvetica,sans-Serif" font-size="14.00">Mie11Dic2013 &#45; Conjuntos Operaciones</text>
</g>
<!-- Clase_10&#45;&gt;Clase_11 -->
<g id="edge4" class="edge"><title>Clase_10&#45;&gt;Clase_11</title>
<path fill="none" stroke="black" d="M152,-1010.69C152,-1002.8 152,-993.684 152,-985.103"/>
<polygon fill="black" stroke="black" points="155.5,-985.018 152,-975.018 148.5,-985.018 155.5,-985.018"/>
</g>
<!-- Clase_12 -->
<g id="node8" class="node"><title>Clase_12</title>
<polygon fill="#ffffff" stroke="black" points="294,-897 10,-897 10,-855 294,-855 294,-897"/>
<polygon fill="none" stroke="black" points="294,-897 10,-897 10,-855 294,-855 294,-897"/>
<text text-anchor="middle" x="152" y="-880.4" font-family="Helvetica,sans-Serif" font-size="14.00">Clase_12</text>
<text text-anchor="middle" x="152" y="-863.4" font-family="Helvetica,sans-Serif" font-size="14.00">Mie8ene2014 &#45; Conjuntos Operaciones</text>
</g>
<!-- Clase_11&#45;&gt;Clase_12 -->
<g id="edge6" class="edge"><title>Clase_11&#45;&gt;Clase_12</title>
<path fill="none" stroke="black" d="M152,-932.686C152,-924.798 152,-915.684 152,-907.103"/>
<polygon fill="black" stroke="black" points="155.5,-907.018 152,-897.018 148.5,-907.018 155.5,-907.018"/>
</g>
<!-- Clase_13 -->
<g id="node10" class="node"><title>Clase_13</title>
<polygon fill="#ffffff" stroke="black" points="249,-819 55,-819 55,-777 249,-777 249,-819"/>
<polygon fill="none" stroke="black" points="249,-819 55,-819 55,-777 249,-777 249,-819"/>
<text text-anchor="middle" x="152" y="-802.4" font-family="Helvetica,sans-Serif" font-size="14.00">Clase_13</text>
<text text-anchor="middle" x="152" y="-785.4" font-family="Helvetica,sans-Serif" font-size="14.00">Jue9ene2014 &#45; Relaciones</text>
</g>
<!-- Clase_12&#45;&gt;Clase_13 -->
<g id="edge8" class="edge"><title>Clase_12&#45;&gt;Clase_13</title>
<path fill="none" stroke="black" d="M152,-854.686C152,-846.798 152,-837.684 152,-829.103"/>
<polygon fill="black" stroke="black" points="155.5,-829.018 152,-819.018 148.5,-829.018 155.5,-829.018"/>
</g>
<!-- Clase_14 -->
<g id="node12" class="node"><title>Clase_14</title>
<polygon fill="#ffffff" stroke="black" points="255,-741 49,-741 49,-699 255,-699 255,-741"/>
<polygon fill="none" stroke="black" points="255,-741 49,-741 49,-699 255,-699 255,-741"/>
<text text-anchor="middle" x="152" y="-724.4" font-family="Helvetica,sans-Serif" font-size="14.00">Clase_14</text>
<text text-anchor="middle" x="152" y="-707.4" font-family="Helvetica,sans-Serif" font-size="14.00">Mie15ene2014 &#45; Relaciones</text>
</g>
<!-- Clase_13&#45;&gt;Clase_14 -->
<g id="edge10" class="edge"><title>Clase_13&#45;&gt;Clase_14</title>
<path fill="none" stroke="black" d="M152,-776.686C152,-768.798 152,-759.684 152,-751.103"/>
<polygon fill="black" stroke="black" points="155.5,-751.018 152,-741.018 148.5,-751.018 155.5,-751.018"/>
</g>
<!-- Clase_15 -->
<g id="node14" class="node"><title>Clase_15</title>
<polygon fill="#ffffff" stroke="black" points="252,-663 52,-663 52,-621 252,-621 252,-663"/>
<polygon fill="none" stroke="black" points="252,-663 52,-663 52,-621 252,-621 252,-663"/>
<text text-anchor="middle" x="152" y="-646.4" font-family="Helvetica,sans-Serif" font-size="14.00">Clase_15</text>
<text text-anchor="middle" x="152" y="-629.4" font-family="Helvetica,sans-Serif" font-size="14.00">Jue16ene2014 &#45; 1erParcial</text>
</g>
<!-- Clase_14&#45;&gt;Clase_15 -->
<g id="edge12" class="edge"><title>Clase_14&#45;&gt;Clase_15</title>
<path fill="none" stroke="black" d="M152,-698.686C152,-690.798 152,-681.684 152,-673.103"/>
<polygon fill="black" stroke="black" points="155.5,-673.018 152,-663.018 148.5,-673.018 155.5,-673.018"/>
</g>
<!-- Clase_16 -->
<g id="node16" class="node"><title>Clase_16</title>
<polygon fill="#ffffff" stroke="black" points="228,-585 76,-585 76,-543 228,-543 228,-585"/>
<polygon fill="none" stroke="black" points="228,-585 76,-585 76,-543 228,-543 228,-585"/>
<text text-anchor="middle" x="152" y="-568.4" font-family="Helvetica,sans-Serif" font-size="14.00">Clase_16</text>
<text text-anchor="middle" x="152" y="-551.4" font-family="Helvetica,sans-Serif" font-size="14.00">Mie22ene2014 &#45; RE</text>
</g>
<!-- Clase_15&#45;&gt;Clase_16 -->
<g id="edge14" class="edge"><title>Clase_15&#45;&gt;Clase_16</title>
<path fill="none" stroke="black" d="M152,-620.686C152,-612.798 152,-603.684 152,-595.103"/>
<polygon fill="black" stroke="black" points="155.5,-595.018 152,-585.018 148.5,-595.018 155.5,-595.018"/>
</g>
<!-- Clase_17 -->
<g id="node18" class="node"><title>Clase_17</title>
<polygon fill="#ffffff" stroke="black" points="258,-507 46,-507 46,-465 258,-465 258,-507"/>
<polygon fill="none" stroke="black" points="258,-507 46,-507 46,-465 258,-465 258,-507"/>
<text text-anchor="middle" x="152" y="-490.4" font-family="Helvetica,sans-Serif" font-size="14.00">Clase_17</text>
<text text-anchor="middle" x="152" y="-473.4" font-family="Helvetica,sans-Serif" font-size="14.00">Jue23ene2014 &#45; Criptografia</text>
</g>
<!-- Clase_16&#45;&gt;Clase_17 -->
<g id="edge16" class="edge"><title>Clase_16&#45;&gt;Clase_17</title>
<path fill="none" stroke="black" d="M152,-542.686C152,-534.798 152,-525.684 152,-517.103"/>
<polygon fill="black" stroke="black" points="155.5,-517.018 152,-507.018 148.5,-517.018 155.5,-517.018"/>
</g>
<!-- Clase_18 -->
<g id="node20" class="node"><title>Clase_18</title>
<polygon fill="#ffffff" stroke="black" points="248,-429 56,-429 56,-387 248,-387 248,-429"/>
<polygon fill="none" stroke="black" points="248,-429 56,-429 56,-387 248,-387 248,-429"/>
<text text-anchor="middle" x="152" y="-412.4" font-family="Helvetica,sans-Serif" font-size="14.00">Clase_18</text>
<text text-anchor="middle" x="152" y="-395.4" font-family="Helvetica,sans-Serif" font-size="14.00">Mie29ene2014 &#45; Conteo I</text>
</g>
<!-- Clase_17&#45;&gt;Clase_18 -->
<g id="edge18" class="edge"><title>Clase_17&#45;&gt;Clase_18</title>
<path fill="none" stroke="black" d="M152,-464.686C152,-456.798 152,-447.684 152,-439.103"/>
<polygon fill="black" stroke="black" points="155.5,-439.018 152,-429.018 148.5,-439.018 155.5,-439.018"/>
</g>
<!-- Clase_19 -->
<g id="node22" class="node"><title>Clase_19</title>
<polygon fill="#ffffff" stroke="black" points="244,-351 60,-351 60,-309 244,-309 244,-351"/>
<polygon fill="none" stroke="black" points="244,-351 60,-351 60,-309 244,-309 244,-351"/>
<text text-anchor="middle" x="152" y="-334.4" font-family="Helvetica,sans-Serif" font-size="14.00">Clase_19</text>
<text text-anchor="middle" x="152" y="-317.4" font-family="Helvetica,sans-Serif" font-size="14.00">Jue30ene2014 Conteo II</text>
</g>
<!-- Clase_18&#45;&gt;Clase_19 -->
<g id="edge20" class="edge"><title>Clase_18&#45;&gt;Clase_19</title>
<path fill="none" stroke="black" d="M152,-386.686C152,-378.798 152,-369.684 152,-361.103"/>
<polygon fill="black" stroke="black" points="155.5,-361.018 152,-351.018 148.5,-361.018 155.5,-361.018"/>
</g>
<!-- Clase_20 -->
<g id="node24" class="node"><title>Clase_20</title>
<polygon fill="#ffffff" stroke="black" points="219,-273 85,-273 85,-231 219,-231 219,-273"/>
<polygon fill="none" stroke="black" points="219,-273 85,-273 85,-231 219,-231 219,-273"/>
<text text-anchor="middle" x="152" y="-256.4" font-family="Helvetica,sans-Serif" font-size="14.00">Clase_20</text>
<text text-anchor="middle" x="152" y="-239.4" font-family="Helvetica,sans-Serif" font-size="14.00">Conteo repaso III</text>
</g>
<!-- Clase_19&#45;&gt;Clase_20 -->
<g id="edge22" class="edge"><title>Clase_19&#45;&gt;Clase_20</title>
<path fill="none" stroke="black" d="M152,-308.686C152,-300.798 152,-291.684 152,-283.103"/>
<polygon fill="black" stroke="black" points="155.5,-283.018 152,-273.018 148.5,-283.018 155.5,-283.018"/>
</g>
<!-- Clase_21 -->
<g id="node28" class="node"><title>Clase_21</title>
<polygon fill="#ffffff" stroke="black" points="204,-195 100,-195 100,-153 204,-153 204,-195"/>
<polygon fill="none" stroke="black" points="204,-195 100,-195 100,-153 204,-153 204,-195"/>
<text text-anchor="middle" x="152" y="-178.4" font-family="Helvetica,sans-Serif" font-size="14.00">Clase_21</text>
<text text-anchor="middle" x="152" y="-161.4" font-family="Helvetica,sans-Serif" font-size="14.00">Recurrencias</text>
</g>
<!-- Clase_20&#45;&gt;Clase_21 -->
<g id="edge26" class="edge"><title>Clase_20&#45;&gt;Clase_21</title>
<path fill="none" stroke="black" d="M152,-230.686C152,-222.798 152,-213.684 152,-205.103"/>
<polygon fill="black" stroke="black" points="155.5,-205.018 152,-195.018 148.5,-205.018 155.5,-205.018"/>
</g>
<!-- Clase_4 -->
<g id="node34" class="node"><title>Clase_4</title>
<polygon fill="#ffffff" stroke="black" points="282,-1521 22,-1521 22,-1479 282,-1479 282,-1521"/>
<polygon fill="none" stroke="black" points="282,-1521 22,-1521 22,-1479 282,-1479 282,-1521"/>
<text text-anchor="middle" x="152" y="-1504.4" font-family="Helvetica,sans-Serif" font-size="14.00">Clase_4</text>
<text text-anchor="middle" x="152" y="-1487.4" font-family="Helvetica,sans-Serif" font-size="14.00">Jue7nov2013 &#45; Logica Proposicional</text>
</g>
<!-- Clase_3&#45;&gt;Clase_4 -->
<g id="edge32" class="edge"><title>Clase_3&#45;&gt;Clase_4</title>
<path fill="none" stroke="black" d="M152,-1556.69C152,-1548.8 152,-1539.68 152,-1531.1"/>
<polygon fill="black" stroke="black" points="155.5,-1531.02 152,-1521.02 148.5,-1531.02 155.5,-1531.02"/>
</g>
<!-- Clase_22 -->
<g id="node30" class="node"><title>Clase_22</title>
<polygon fill="#ffffff" stroke="black" points="196,-117 108,-117 108,-75 196,-75 196,-117"/>
<polygon fill="none" stroke="black" points="196,-117 108,-117 108,-75 196,-75 196,-117"/>
<text text-anchor="middle" x="152" y="-100.4" font-family="Helvetica,sans-Serif" font-size="14.00">Clase_22</text>
<text text-anchor="middle" x="152" y="-83.4" font-family="Helvetica,sans-Serif" font-size="14.00">3er Parcial</text>
</g>
<!-- Clase_21&#45;&gt;Clase_22 -->
<g id="edge28" class="edge"><title>Clase_21&#45;&gt;Clase_22</title>
<path fill="none" stroke="black" d="M152,-152.686C152,-144.798 152,-135.684 152,-127.103"/>
<polygon fill="black" stroke="black" points="155.5,-127.018 152,-117.018 148.5,-127.018 155.5,-127.018"/>
</g>
<!-- final -->
<g id="node32" class="node"><title>final</title>
<ellipse fill="#ffffff" stroke="black" cx="152" cy="-18" rx="31.9646" ry="18"/>
<ellipse fill="none" stroke="black" cx="152" cy="-18" rx="31.9646" ry="18"/>
<text text-anchor="middle" x="152" y="-13.9" font-family="Times Roman,serif" font-size="14.00">final</text>
</g>
<!-- Clase_22&#45;&gt;final -->
<g id="edge30" class="edge"><title>Clase_22&#45;&gt;final</title>
<path fill="none" stroke="black" d="M152,-74.6862C152,-65.9031 152,-55.6018 152,-46.2074"/>
<polygon fill="black" stroke="black" points="155.5,-46.1153 152,-36.1154 148.5,-46.1154 155.5,-46.1153"/>
</g>
<!-- Clase_5 -->
<g id="node36" class="node"><title>Clase_5</title>
<polygon fill="#ffffff" stroke="black" points="290,-1443 14,-1443 14,-1401 290,-1401 290,-1443"/>
<polygon fill="none" stroke="black" points="290,-1443 14,-1443 14,-1401 290,-1401 290,-1443"/>
<text text-anchor="middle" x="152" y="-1426.4" font-family="Helvetica,sans-Serif" font-size="14.00">Clase_5</text>
<text text-anchor="middle" x="152" y="-1409.4" font-family="Helvetica,sans-Serif" font-size="14.00">Mie13nov2013 &#45; &#160;Logica Proposicional</text>
</g>
<!-- Clase_4&#45;&gt;Clase_5 -->
<g id="edge34" class="edge"><title>Clase_4&#45;&gt;Clase_5</title>
<path fill="none" stroke="black" d="M152,-1478.69C152,-1470.8 152,-1461.68 152,-1453.1"/>
<polygon fill="black" stroke="black" points="155.5,-1453.02 152,-1443.02 148.5,-1453.02 155.5,-1453.02"/>
</g>
<!-- Clase_6 -->
<g id="node38" class="node"><title>Clase_6</title>
<polygon fill="#ffffff" stroke="black" points="289,-1365 15,-1365 15,-1323 289,-1323 289,-1365"/>
<polygon fill="none" stroke="black" points="289,-1365 15,-1365 15,-1323 289,-1323 289,-1365"/>
<text text-anchor="middle" x="152" y="-1348.4" font-family="Helvetica,sans-Serif" font-size="14.00">Clase_6</text>
<text text-anchor="middle" x="152" y="-1331.4" font-family="Helvetica,sans-Serif" font-size="14.00">Jue14nov2013 &#45; Logica de Predicados</text>
</g>
<!-- Clase_5&#45;&gt;Clase_6 -->
<g id="edge36" class="edge"><title>Clase_5&#45;&gt;Clase_6</title>
<path fill="none" stroke="black" d="M152,-1400.69C152,-1392.8 152,-1383.68 152,-1375.1"/>
<polygon fill="black" stroke="black" points="155.5,-1375.02 152,-1365.02 148.5,-1375.02 155.5,-1375.02"/>
</g>
<!-- Clase_7 -->
<g id="node40" class="node"><title>Clase_7</title>
<polygon fill="#ffffff" stroke="black" points="290,-1287 14,-1287 14,-1245 290,-1245 290,-1287"/>
<polygon fill="none" stroke="black" points="290,-1287 14,-1287 14,-1245 290,-1245 290,-1287"/>
<text text-anchor="middle" x="152" y="-1270.4" font-family="Helvetica,sans-Serif" font-size="14.00">Clase_7</text>
<text text-anchor="middle" x="152" y="-1253.4" font-family="Helvetica,sans-Serif" font-size="14.00">Mie20nov2013 &#45; Logica de Predicados</text>
</g>
<!-- Clase_6&#45;&gt;Clase_7 -->
<g id="edge38" class="edge"><title>Clase_6&#45;&gt;Clase_7</title>
<path fill="none" stroke="black" d="M152,-1322.69C152,-1314.8 152,-1305.68 152,-1297.1"/>
<polygon fill="black" stroke="black" points="155.5,-1297.02 152,-1287.02 148.5,-1297.02 155.5,-1297.02"/>
</g>
<!-- Clase_8 -->
<g id="node42" class="node"><title>Clase_8</title>
<polygon fill="#ffffff" stroke="black" points="304,-1209 1.42109e-13,-1209 0,-1167 304,-1167 304,-1209"/>
<polygon fill="none" stroke="black" points="304,-1209 1.42109e-13,-1209 0,-1167 304,-1167 304,-1209"/>
<text text-anchor="middle" x="152" y="-1192.4" font-family="Helvetica,sans-Serif" font-size="14.00">Clase_8</text>
<text text-anchor="middle" x="152" y="-1175.4" font-family="Helvetica,sans-Serif" font-size="14.00">Jue21nov2013 &#45; Prolog Algebra_Booleana</text>
</g>
<!-- Clase_7&#45;&gt;Clase_8 -->
<g id="edge40" class="edge"><title>Clase_7&#45;&gt;Clase_8</title>
<path fill="none" stroke="black" d="M152,-1244.69C152,-1236.8 152,-1227.68 152,-1219.1"/>
<polygon fill="black" stroke="black" points="155.5,-1219.02 152,-1209.02 148.5,-1219.02 155.5,-1219.02"/>
</g>
<!-- Clase_9 -->
<g id="node44" class="node"><title>Clase_9</title>
<polygon fill="#ffffff" stroke="black" points="275,-1131 29,-1131 29,-1089 275,-1089 275,-1131"/>
<polygon fill="none" stroke="black" points="275,-1131 29,-1131 29,-1089 275,-1089 275,-1131"/>
<text text-anchor="middle" x="152" y="-1114.4" font-family="Helvetica,sans-Serif" font-size="14.00">Clase_9</text>
<text text-anchor="middle" x="152" y="-1097.4" font-family="Helvetica,sans-Serif" font-size="14.00">Mie27nov2013 &#45; EjercicioGrupal1</text>
</g>
<!-- Clase_8&#45;&gt;Clase_9 -->
<g id="edge42" class="edge"><title>Clase_8&#45;&gt;Clase_9</title>
<path fill="none" stroke="black" d="M152,-1166.69C152,-1158.8 152,-1149.68 152,-1141.1"/>
<polygon fill="black" stroke="black" points="155.5,-1141.02 152,-1131.02 148.5,-1141.02 155.5,-1141.02"/>
</g>
<!-- Clase_9&#45;&gt;Clase_10 -->
<g id="edge44" class="edge"><title>Clase_9&#45;&gt;Clase_10</title>
<path fill="none" stroke="black" d="M152,-1088.69C152,-1080.8 152,-1071.68 152,-1063.1"/>
<polygon fill="black" stroke="black" points="155.5,-1063.02 152,-1053.02 148.5,-1063.02 155.5,-1063.02"/>
</g>
<!-- Inscritos -->
<g id="node46" class="node"><title>Inscritos</title>
<polygon fill="#ffffff" stroke="black" points="198,-1833 106,-1833 106,-1791 198,-1791 198,-1833"/>
<polygon fill="none" stroke="black" points="198,-1833 106,-1833 106,-1791 198,-1791 198,-1833"/>
<text text-anchor="middle" x="152" y="-1816.4" font-family="Helvetica,sans-Serif" font-size="14.00">Inscritos</text>
<text text-anchor="middle" x="152" y="-1799.4" font-family="Helvetica,sans-Serif" font-size="14.00">MD_B2013</text>
</g>
<!-- Inscritos&#45;&gt;Clase_1 -->
<g id="edge46" class="edge"><title>Inscritos&#45;&gt;Clase_1</title>
<path fill="none" stroke="black" d="M152,-1790.69C152,-1782.8 152,-1773.68 152,-1765.1"/>
<polygon fill="black" stroke="black" points="155.5,-1765.02 152,-1755.02 148.5,-1765.02 155.5,-1765.02"/>
</g>
<!-- inicial -->
<g id="node48" class="node"><title>inicial</title>
<ellipse fill="#ffffff" stroke="black" cx="152" cy="-1890" rx="38.9134" ry="18"/>
<ellipse fill="none" stroke="black" cx="152" cy="-1890" rx="38.9134" ry="18"/>
<text text-anchor="middle" x="152" y="-1885.9" font-family="Times Roman,serif" font-size="14.00">inicial</text>
</g>
<!-- inicial&#45;&gt;Inscritos -->
<g id="edge48" class="edge"><title>inicial&#45;&gt;Inscritos</title>
<path fill="none" stroke="black" d="M152,-1871.91C152,-1863.38 152,-1852.96 152,-1843.22"/>
<polygon fill="black" stroke="black" points="155.5,-1843.03 152,-1833.03 148.5,-1843.03 155.5,-1843.03"/>
</g>
</g>
</svg>
